  0
SECTION
  2
HEADER
  9
$ANGBASE
  50
0.0
  9
$ANGDIR
  70
1
  9
$MEASUREMENT
  70
1
  0
ENDSEC
  0
SECTION
  2
TABLES
  0
TABLE
  2
LTYPE
  70
4
  0
LTYPE
  5
40F
  2
CONTINUOUS
  70
0
  3
Solid line
  72
65
  73
0
  40
0.0
  0
LTYPE
  5
410
  2
DASHDOT
 70
0
  3
Dash Dot ____ _ ____ _
 72
65
 73
4
 40
2.0
 49
1.25
 49
-0.25
 49
0.25
 49
-0.25
  0
LTYPE
  5
411
  2
DASHED
 70
0
  3
Dashed __ __ __ __ __
 72
65
 73
2
 40
0.75
 49
0.5
 49
-0.25
  0
LTYPE
  5
43B
  2
DOTTED
 70
0
  3
Dotted .  .  .  .
 72
65
 73
2
 40
0.2
 49
0.0
 49
-0.2
  0
ENDTAB
  0
TABLE
  2
STYLE
  70
4
  0
STYLE
  2
KICAD
  70
0
  40
0
  41
1
  42
1
  50
0
  71
0
  3
isocp.shx
  0
STYLE
  2
KICADB
  70
0
  40
0
  41
1
  42
1
  50
0
  71
0
  3
isocp.shx
  0
STYLE
  2
KICADI
  70
0
  40
0
  41
1
  42
1
  50
15
  71
0
  3
isocp.shx
  0
STYLE
  2
KICADBI
  70
0
  40
0
  41
1
  42
1
  50
15
  71
0
  3
isocp.shx
  0
ENDTAB
  0
TABLE
  2
LAYER
  70
1
  0
LAYER
  2
BLACK
  70
0
  62
7
  6
CONTINUOUS
  0
ENDTAB
  0
ENDSEC
  0
SECTION
  2
ENTITIES
0
LINE
8
BLACK
6
CONTINUOUS
10
88.2539390000000026
20
-143.5666420000000016
11
88.3330669999999998
21
-143.6123259999999959
0
LINE
8
BLACK
6
CONTINUOUS
10
88.3330669999999998
20
-143.6123259999999959
11
88.397673999999995
21
-143.6769329999999911
0
LINE
8
BLACK
6
CONTINUOUS
10
88.397673999999995
20
-143.6769329999999911
11
88.4433579999999893
21
-143.7560609999999883
0
LINE
8
BLACK
6
CONTINUOUS
10
88.4433579999999893
20
-143.7560609999999883
11
88.4670059999999978
21
-143.8443159999999921
0
LINE
8
BLACK
6
CONTINUOUS
10
88.4670059999999978
20
-143.8443159999999921
11
88.4670059999999978
21
-143.9356839999999806
0
LINE
8
BLACK
6
CONTINUOUS
10
88.4670059999999978
20
-143.9356839999999806
11
88.4433579999999893
21
-144.0239389999999844
0
LINE
8
BLACK
6
CONTINUOUS
10
88.4433579999999893
20
-144.0239389999999844
11
88.397673999999995
21
-144.1030669999999816
0
LINE
8
BLACK
6
CONTINUOUS
10
88.397673999999995
20
-144.1030669999999816
11
88.3330669999999998
21
-144.1676740000000052
0
LINE
8
BLACK
6
CONTINUOUS
10
88.3330669999999998
20
-144.1676740000000052
11
88.2539390000000026
21
-144.2133579999999995
0
LINE
8
BLACK
6
CONTINUOUS
10
88.2539390000000026
20
-144.2133579999999995
11
88.1656839999999988
21
-144.2370059999999796
0
LINE
8
BLACK
6
CONTINUOUS
10
88.1656839999999988
20
-144.2370059999999796
11
88.0743159999999961
21
-144.2370059999999796
0
LINE
8
BLACK
6
CONTINUOUS
10
88.0743159999999961
20
-144.2370059999999796
11
87.9860609999999923
21
-144.2133579999999995
0
LINE
8
BLACK
6
CONTINUOUS
10
87.9860609999999923
20
-144.2133579999999995
11
87.9069329999999951
21
-144.1676740000000052
0
LINE
8
BLACK
6
CONTINUOUS
10
87.9069329999999951
20
-144.1676740000000052
11
87.8423259999999999
21
-144.1030669999999816
0
LINE
8
BLACK
6
CONTINUOUS
10
87.8423259999999999
20
-144.1030669999999816
11
87.7966419999999914
21
-144.0239389999999844
0
LINE
8
BLACK
6
CONTINUOUS
10
87.7966419999999914
20
-144.0239389999999844
11
87.7729939999999971
21
-143.9356839999999806
0
LINE
8
BLACK
6
CONTINUOUS
10
87.7729939999999971
20
-143.9356839999999806
11
87.7729939999999971
21
-143.8505040000000008
0
LINE
8
BLACK
6
CONTINUOUS
10
87.7729939999999971
20
-143.8505040000000008
11
87.7729939999999971
21
-143.8443159999999921
0
LINE
8
BLACK
6
CONTINUOUS
10
87.7729939999999971
20
-143.8443159999999921
11
87.7966419999999914
21
-143.7560609999999883
0
LINE
8
BLACK
6
CONTINUOUS
10
87.7966419999999914
20
-143.7560609999999883
11
87.8423259999999999
21
-143.6769329999999911
0
LINE
8
BLACK
6
CONTINUOUS
10
87.8423259999999999
20
-143.6769329999999911
11
87.9069329999999951
21
-143.6123259999999959
0
LINE
8
BLACK
6
CONTINUOUS
10
87.9069329999999951
20
-143.6123259999999959
11
87.9860609999999923
21
-143.5666420000000016
0
LINE
8
BLACK
6
CONTINUOUS
10
87.9860609999999923
20
-143.5666420000000016
11
88.0743159999999961
21
-143.5429939999999931
0
LINE
8
BLACK
6
CONTINUOUS
10
88.0743159999999961
20
-143.5429939999999931
11
88.1656839999999988
21
-143.5429939999999931
0
LINE
8
BLACK
6
CONTINUOUS
10
88.1656839999999988
20
-143.5429939999999931
11
88.2539390000000026
21
-143.5666420000000016
0
LINE
8
BLACK
6
CONTINUOUS
10
87.8199999999999932
20
-143.9294960000000003
11
87.8404439999999909
21
-144.0057960000000037
0
LINE
8
BLACK
6
CONTINUOUS
10
87.8404439999999909
20
-144.0057960000000037
11
87.8799399999999906
21
-144.0742050000000063
0
LINE
8
BLACK
6
CONTINUOUS
10
87.8799399999999906
20
-144.0742050000000063
11
87.9357949999999988
21
-144.1300599999999861
0
LINE
8
BLACK
6
CONTINUOUS
10
87.9357949999999988
20
-144.1300599999999861
11
88.0042040000000014
21
-144.169556
0
LINE
8
BLACK
6
CONTINUOUS
10
88.0042040000000014
20
-144.169556
11
88.0805039999999906
21
-144.1899999999999977
0
LINE
8
BLACK
6
CONTINUOUS
10
88.0805039999999906
20
-144.1899999999999977
11
88.1594959999999901
21
-144.1899999999999977
0
LINE
8
BLACK
6
CONTINUOUS
10
88.1594959999999901
20
-144.1899999999999977
11
88.2357959999999935
21
-144.169556
0
LINE
8
BLACK
6
CONTINUOUS
10
88.2357959999999935
20
-144.169556
11
88.3042049999999961
21
-144.1300599999999861
0
LINE
8
BLACK
6
CONTINUOUS
10
88.3042049999999961
20
-144.1300599999999861
11
88.3600599999999901
21
-144.0742050000000063
0
LINE
8
BLACK
6
CONTINUOUS
10
88.3600599999999901
20
-144.0742050000000063
11
88.3995559999999898
21
-144.0057960000000037
0
LINE
8
BLACK
6
CONTINUOUS
10
88.3995559999999898
20
-144.0057960000000037
11
88.4200000000000017
21
-143.9294960000000003
0
LINE
8
BLACK
6
CONTINUOUS
10
88.4200000000000017
20
-143.9294960000000003
11
88.4200000000000017
21
-143.8505040000000008
0
LINE
8
BLACK
6
CONTINUOUS
10
88.4200000000000017
20
-143.8505040000000008
11
88.3995559999999898
21
-143.7742039999999974
0
LINE
8
BLACK
6
CONTINUOUS
10
88.3995559999999898
20
-143.7742039999999974
11
88.3600599999999901
21
-143.7057949999999948
0
LINE
8
BLACK
6
CONTINUOUS
10
88.3600599999999901
20
-143.7057949999999948
11
88.3042049999999961
21
-143.6499399999999866
0
LINE
8
BLACK
6
CONTINUOUS
10
88.3042049999999961
20
-143.6499399999999866
11
88.2357959999999935
21
-143.6104440000000011
0
LINE
8
BLACK
6
CONTINUOUS
10
88.2357959999999935
20
-143.6104440000000011
11
88.1594959999999901
21
-143.5900000000000034
0
LINE
8
BLACK
6
CONTINUOUS
10
88.1594959999999901
20
-143.5900000000000034
11
88.0805039999999906
21
-143.5900000000000034
0
LINE
8
BLACK
6
CONTINUOUS
10
88.0805039999999906
20
-143.5900000000000034
11
88.0042040000000014
21
-143.6104440000000011
0
LINE
8
BLACK
6
CONTINUOUS
10
88.0042040000000014
20
-143.6104440000000011
11
87.9357949999999988
21
-143.6499399999999866
0
LINE
8
BLACK
6
CONTINUOUS
10
87.9357949999999988
20
-143.6499399999999866
11
87.8799399999999906
21
-143.7057949999999948
0
LINE
8
BLACK
6
CONTINUOUS
10
87.8799399999999906
20
-143.7057949999999948
11
87.8404439999999909
21
-143.7742039999999974
0
LINE
8
BLACK
6
CONTINUOUS
10
87.8404439999999909
20
-143.7742039999999974
11
87.8199999999999932
21
-143.8505040000000008
0
LINE
8
BLACK
6
CONTINUOUS
10
87.8199999999999932
20
-143.8505040000000008
11
87.8199999999999932
21
-143.9294960000000003
0
LINE
8
BLACK
6
CONTINUOUS
10
88.2539390000000026
20
-137.7866420000000005
11
88.3330669999999998
21
-137.8323259999999948
0
LINE
8
BLACK
6
CONTINUOUS
10
88.3330669999999998
20
-137.8323259999999948
11
88.397673999999995
21
-137.89693299999999
0
LINE
8
BLACK
6
CONTINUOUS
10
88.397673999999995
20
-137.89693299999999
11
88.4433579999999893
21
-137.9760609999999872
0
LINE
8
BLACK
6
CONTINUOUS
10
88.4433579999999893
20
-137.9760609999999872
11
88.4670059999999978
21
-138.0643159999999909
0
LINE
8
BLACK
6
CONTINUOUS
10
88.4670059999999978
20
-138.0643159999999909
11
88.4670059999999978
21
-138.1556840000000079
0
LINE
8
BLACK
6
CONTINUOUS
10
88.4670059999999978
20
-138.1556840000000079
11
88.4433579999999893
21
-138.2439389999999833
0
LINE
8
BLACK
6
CONTINUOUS
10
88.4433579999999893
20
-138.2439389999999833
11
88.397673999999995
21
-138.3230669999999805
0
LINE
8
BLACK
6
CONTINUOUS
10
88.397673999999995
20
-138.3230669999999805
11
88.3330669999999998
21
-138.3876740000000041
0
LINE
8
BLACK
6
CONTINUOUS
10
88.3330669999999998
20
-138.3876740000000041
11
88.2539390000000026
21
-138.4333579999999984
0
LINE
8
BLACK
6
CONTINUOUS
10
88.2539390000000026
20
-138.4333579999999984
11
88.1656839999999988
21
-138.4570060000000069
0
LINE
8
BLACK
6
CONTINUOUS
10
88.1656839999999988
20
-138.4570060000000069
11
88.0743159999999961
21
-138.4570060000000069
0
LINE
8
BLACK
6
CONTINUOUS
10
88.0743159999999961
20
-138.4570060000000069
11
87.9860609999999923
21
-138.4333579999999984
0
LINE
8
BLACK
6
CONTINUOUS
10
87.9860609999999923
20
-138.4333579999999984
11
87.9069329999999951
21
-138.3876740000000041
0
LINE
8
BLACK
6
CONTINUOUS
10
87.9069329999999951
20
-138.3876740000000041
11
87.8423259999999999
21
-138.3230669999999805
0
LINE
8
BLACK
6
CONTINUOUS
10
87.8423259999999999
20
-138.3230669999999805
11
87.7966419999999914
21
-138.2439389999999833
0
LINE
8
BLACK
6
CONTINUOUS
10
87.7966419999999914
20
-138.2439389999999833
11
87.7729939999999971
21
-138.1556840000000079
0
LINE
8
BLACK
6
CONTINUOUS
10
87.7729939999999971
20
-138.1556840000000079
11
87.7729939999999971
21
-138.0705039999999997
0
LINE
8
BLACK
6
CONTINUOUS
10
87.7729939999999971
20
-138.0705039999999997
11
87.7729939999999971
21
-138.0643159999999909
0
LINE
8
BLACK
6
CONTINUOUS
10
87.7729939999999971
20
-138.0643159999999909
11
87.7966419999999914
21
-137.9760609999999872
0
LINE
8
BLACK
6
CONTINUOUS
10
87.7966419999999914
20
-137.9760609999999872
11
87.8423259999999999
21
-137.89693299999999
0
LINE
8
BLACK
6
CONTINUOUS
10
87.8423259999999999
20
-137.89693299999999
11
87.9069329999999951
21
-137.8323259999999948
0
LINE
8
BLACK
6
CONTINUOUS
10
87.9069329999999951
20
-137.8323259999999948
11
87.9860609999999923
21
-137.7866420000000005
0
LINE
8
BLACK
6
CONTINUOUS
10
87.9860609999999923
20
-137.7866420000000005
11
88.0743159999999961
21
-137.762993999999992
0
LINE
8
BLACK
6
CONTINUOUS
10
88.0743159999999961
20
-137.762993999999992
11
88.1656839999999988
21
-137.762993999999992
0
LINE
8
BLACK
6
CONTINUOUS
10
88.1656839999999988
20
-137.762993999999992
11
88.2539390000000026
21
-137.7866420000000005
0
LINE
8
BLACK
6
CONTINUOUS
10
87.8199999999999932
20
-138.1494959999999992
11
87.8404439999999909
21
-138.2257960000000026
0
LINE
8
BLACK
6
CONTINUOUS
10
87.8404439999999909
20
-138.2257960000000026
11
87.8799399999999906
21
-138.2942050000000052
0
LINE
8
BLACK
6
CONTINUOUS
10
87.8799399999999906
20
-138.2942050000000052
11
87.9357949999999988
21
-138.3500599999999849
0
LINE
8
BLACK
6
CONTINUOUS
10
87.9357949999999988
20
-138.3500599999999849
11
88.0042040000000014
21
-138.3895559999999989
0
LINE
8
BLACK
6
CONTINUOUS
10
88.0042040000000014
20
-138.3895559999999989
11
88.0805039999999906
21
-138.4099999999999966
0
LINE
8
BLACK
6
CONTINUOUS
10
88.0805039999999906
20
-138.4099999999999966
11
88.1594959999999901
21
-138.4099999999999966
0
LINE
8
BLACK
6
CONTINUOUS
10
88.1594959999999901
20
-138.4099999999999966
11
88.2357959999999935
21
-138.3895559999999989
0
LINE
8
BLACK
6
CONTINUOUS
10
88.2357959999999935
20
-138.3895559999999989
11
88.3042049999999961
21
-138.3500599999999849
0
LINE
8
BLACK
6
CONTINUOUS
10
88.3042049999999961
20
-138.3500599999999849
11
88.3600599999999901
21
-138.2942050000000052
0
LINE
8
BLACK
6
CONTINUOUS
10
88.3600599999999901
20
-138.2942050000000052
11
88.3995559999999898
21
-138.2257960000000026
0
LINE
8
BLACK
6
CONTINUOUS
10
88.3995559999999898
20
-138.2257960000000026
11
88.4200000000000017
21
-138.1494959999999992
0
LINE
8
BLACK
6
CONTINUOUS
10
88.4200000000000017
20
-138.1494959999999992
11
88.4200000000000017
21
-138.0705039999999997
0
LINE
8
BLACK
6
CONTINUOUS
10
88.4200000000000017
20
-138.0705039999999997
11
88.3995559999999898
21
-137.9942039999999963
0
LINE
8
BLACK
6
CONTINUOUS
10
88.3995559999999898
20
-137.9942039999999963
11
88.3600599999999901
21
-137.9257949999999937
0
LINE
8
BLACK
6
CONTINUOUS
10
88.3600599999999901
20
-137.9257949999999937
11
88.3042049999999961
21
-137.8699399999999855
0
LINE
8
BLACK
6
CONTINUOUS
10
88.3042049999999961
20
-137.8699399999999855
11
88.2357959999999935
21
-137.830444
0
LINE
8
BLACK
6
CONTINUOUS
10
88.2357959999999935
20
-137.830444
11
88.1594959999999901
21
-137.8100000000000023
0
LINE
8
BLACK
6
CONTINUOUS
10
88.1594959999999901
20
-137.8100000000000023
11
88.0805039999999906
21
-137.8100000000000023
0
LINE
8
BLACK
6
CONTINUOUS
10
88.0805039999999906
20
-137.8100000000000023
11
88.0042040000000014
21
-137.830444
0
LINE
8
BLACK
6
CONTINUOUS
10
88.0042040000000014
20
-137.830444
11
87.9357949999999988
21
-137.8699399999999855
0
LINE
8
BLACK
6
CONTINUOUS
10
87.9357949999999988
20
-137.8699399999999855
11
87.8799399999999906
21
-137.9257949999999937
0
LINE
8
BLACK
6
CONTINUOUS
10
87.8799399999999906
20
-137.9257949999999937
11
87.8404439999999909
21
-137.9942039999999963
0
LINE
8
BLACK
6
CONTINUOUS
10
87.8404439999999909
20
-137.9942039999999963
11
87.8199999999999932
21
-138.0705039999999997
0
LINE
8
BLACK
6
CONTINUOUS
10
87.8199999999999932
20
-138.0705039999999997
11
87.8199999999999932
21
-138.1494959999999992
0
LINE
8
BLACK
6
CONTINUOUS
10
66.3542819999999978
20
-78.9004039999999947
11
67.5885109999999969
21
-78.9766249999999985
0
LINE
8
BLACK
6
CONTINUOUS
10
67.5885109999999969
20
-78.9766249999999985
11
68.8198019999999957
21
-79.0908649999999938
0
LINE
8
BLACK
6
CONTINUOUS
10
68.8198019999999957
20
-79.0908649999999938
11
70.0469859999999898
21
-79.2430159999999972
0
LINE
8
BLACK
6
CONTINUOUS
10
70.0469859999999898
20
-79.2430159999999972
11
71.2688940000000031
21
-79.432934000000003
0
LINE
8
BLACK
6
CONTINUOUS
10
71.2688940000000031
20
-79.432934000000003
11
72.4843659999999943
21
-79.6604370000000017
0
LINE
8
BLACK
6
CONTINUOUS
10
72.4843659999999943
20
-79.6604370000000017
11
73.6922459999999973
21
-79.9253089999999986
0
LINE
8
BLACK
6
CONTINUOUS
10
73.6922459999999973
20
-79.9253089999999986
11
74.8913829999999905
21
-80.2272999999999996
0
LINE
8
BLACK
6
CONTINUOUS
10
74.8913829999999905
20
-80.2272999999999996
11
76.0806400000000025
21
-80.566119999999998
0
LINE
8
BLACK
6
CONTINUOUS
10
76.0806400000000025
20
-80.566119999999998
11
77.2588829999999973
21
-80.9414479999999941
0
LINE
8
BLACK
6
CONTINUOUS
10
77.2588829999999973
20
-80.9414479999999941
11
78.4249939999999981
21
-81.3529279999999915
0
LINE
8
BLACK
6
CONTINUOUS
10
78.4249939999999981
20
-81.3529279999999915
11
79.5778629999999936
21
-81.8001679999999993
0
LINE
8
BLACK
6
CONTINUOUS
10
79.5778629999999936
20
-81.8001679999999993
11
80.7163929999999965
21
-82.2827419999999989
0
LINE
8
BLACK
6
CONTINUOUS
10
80.7163929999999965
20
-82.2827419999999989
11
81.8395029999999934
21
-82.8001919999999956
0
LINE
8
BLACK
6
CONTINUOUS
10
81.8395029999999934
20
-82.8001919999999956
11
82.946123
21
-83.3520259999999951
0
LINE
8
BLACK
6
CONTINUOUS
10
82.946123
20
-83.3520259999999951
11
84.0352029999999957
21
-83.9377179999999896
0
LINE
8
BLACK
6
CONTINUOUS
10
84.0352029999999957
20
-83.9377179999999896
11
85.1057050000000004
21
-84.5567119999999903
0
LINE
8
BLACK
6
CONTINUOUS
10
85.1057050000000004
20
-84.5567119999999903
11
86.156612999999993
21
-85.2084199999999896
0
LINE
8
BLACK
6
CONTINUOUS
10
86.156612999999993
20
-85.2084199999999896
11
87.1869259999999997
21
-85.8922209999999922
0
LINE
8
BLACK
6
CONTINUOUS
10
87.1869259999999997
20
-85.8922209999999922
11
88.1956649999999911
21
-86.6074660000000023
0
LINE
8
BLACK
6
CONTINUOUS
10
88.1956649999999911
20
-86.6074660000000023
11
89.181871000000001
21
-87.3534729999999939
0
LINE
8
BLACK
6
CONTINUOUS
10
89.181871000000001
20
-87.3534729999999939
11
90.144605999999996
21
-88.12953499999999
0
LINE
8
BLACK
6
CONTINUOUS
10
90.144605999999996
20
-88.12953499999999
11
91.0829540000000009
21
-88.9349119999999971
0
LINE
8
BLACK
6
CONTINUOUS
10
91.0829540000000009
20
-88.9349119999999971
11
91.9960239999999914
21
-89.7688389999999998
0
LINE
8
BLACK
6
CONTINUOUS
10
91.9960239999999914
20
-89.7688389999999998
11
92.8829459999999898
21
-90.6305219999999991
0
LINE
8
BLACK
6
CONTINUOUS
10
92.8829459999999898
20
-90.6305219999999991
11
93.7428769999999929
21
-91.5191429999999997
0
LINE
8
BLACK
6
CONTINUOUS
10
93.7428769999999929
20
-91.5191429999999997
11
94.5749999999999886
21
-92.4338569999999891
0
LINE
8
BLACK
6
CONTINUOUS
10
94.5749999999999886
20
-92.4338569999999891
11
94.5774069999999938
21
-92.4387040000000013
0
LINE
8
BLACK
6
CONTINUOUS
10
94.5774069999999938
20
-92.4387040000000013
11
94.5831469999999968
21
-92.4444439999999901
0
LINE
8
BLACK
6
CONTINUOUS
10
94.5831469999999968
20
-92.4444439999999901
11
94.5976730000000003
21
-92.4795139999999947
0
LINE
8
BLACK
6
CONTINUOUS
10
94.5976730000000003
20
-92.4795139999999947
11
94.5980239999999952
21
-92.4802189999999911
0
LINE
8
BLACK
6
CONTINUOUS
10
94.5980239999999952
20
-92.4802189999999911
11
94.5980160000000012
21
-92.4803399999999982
0
LINE
8
BLACK
6
CONTINUOUS
10
94.5980160000000012
20
-92.4803399999999982
11
94.5980789999999985
21
-92.4804919999999981
0
LINE
8
BLACK
6
CONTINUOUS
10
94.5980789999999985
20
-92.4804919999999981
11
94.5999999999999943
21
-92.5000009999999975
0
LINE
8
BLACK
6
CONTINUOUS
10
94.5999999999999943
20
-92.5000009999999975
11
94.5999999999999943
21
-145.4150209999999959
0
LINE
8
BLACK
6
CONTINUOUS
10
94.5999999999999943
20
-145.4150209999999959
11
94.5980789999999985
21
-145.4345299999999952
0
LINE
8
BLACK
6
CONTINUOUS
10
94.5980789999999985
20
-145.4345299999999952
11
94.5980160000000012
21
-145.4346809999999834
0
LINE
8
BLACK
6
CONTINUOUS
10
94.5980160000000012
20
-145.4346809999999834
11
94.5980239999999952
21
-145.4348029999999881
0
LINE
8
BLACK
6
CONTINUOUS
10
94.5980239999999952
20
-145.4348029999999881
11
94.5976730000000003
21
-145.4355070000000012
0
LINE
8
BLACK
6
CONTINUOUS
10
94.5976730000000003
20
-145.4355070000000012
11
94.5831469999999968
21
-145.4705779999999891
0
LINE
8
BLACK
6
CONTINUOUS
10
94.5831469999999968
20
-145.4705779999999891
11
94.5774069999999938
21
-145.4763169999999946
0
LINE
8
BLACK
6
CONTINUOUS
10
94.5774069999999938
20
-145.4763169999999946
11
94.5749999999999886
21
-145.4811650000000043
0
LINE
8
BLACK
6
CONTINUOUS
10
94.5749999999999886
20
-145.4811650000000043
11
94.5749989999999912
21
-145.4811640000000068
0
LINE
8
BLACK
6
CONTINUOUS
10
94.5749989999999912
20
-145.4811640000000068
11
93.7428759999999954
21
-146.395877999999982
0
LINE
8
BLACK
6
CONTINUOUS
10
93.7428759999999954
20
-146.395877999999982
11
92.8829449999999923
21
-147.2844989999999825
0
LINE
8
BLACK
6
CONTINUOUS
10
92.8829449999999923
20
-147.2844989999999825
11
91.9960229999999939
21
-148.1461819999999818
0
LINE
8
BLACK
6
CONTINUOUS
10
91.9960229999999939
20
-148.1461819999999818
11
91.0829540000000009
21
-148.9801089999999988
0
LINE
8
BLACK
6
CONTINUOUS
10
91.0829540000000009
20
-148.9801089999999988
11
90.1446049999999985
21
-149.7854859999999917
0
LINE
8
BLACK
6
CONTINUOUS
10
90.1446049999999985
20
-149.7854859999999917
11
89.1818699999999893
21
-150.5615469999999902
0
LINE
8
BLACK
6
CONTINUOUS
10
89.1818699999999893
20
-150.5615469999999902
11
88.1956649999999911
21
-151.3075549999999794
0
LINE
8
BLACK
6
CONTINUOUS
10
88.1956649999999911
20
-151.3075549999999794
11
87.1869250000000022
21
-152.022798999999992
0
LINE
8
BLACK
6
CONTINUOUS
10
87.1869250000000022
20
-152.022798999999992
11
86.1566119999999955
21
-152.7066010000000063
0
LINE
8
BLACK
6
CONTINUOUS
10
86.1566119999999955
20
-152.7066010000000063
11
85.1057040000000029
21
-153.3583079999999939
0
LINE
8
BLACK
6
CONTINUOUS
10
85.1057040000000029
20
-153.3583079999999939
11
84.0352019999999982
21
-153.9773019999999804
0
LINE
8
BLACK
6
CONTINUOUS
10
84.0352019999999982
20
-153.9773019999999804
11
82.946123
21
-154.5629950000000008
0
LINE
8
BLACK
6
CONTINUOUS
10
82.946123
20
-154.5629950000000008
11
81.839501999999996
21
-155.1148279999999886
0
LINE
8
BLACK
6
CONTINUOUS
10
81.839501999999996
20
-155.1148279999999886
11
80.716391999999999
21
-155.6322779999999852
0
LINE
8
BLACK
6
CONTINUOUS
10
80.716391999999999
20
-155.6322779999999852
11
79.5778619999999961
21
-156.1148519999999849
0
LINE
8
BLACK
6
CONTINUOUS
10
79.5778619999999961
20
-156.1148519999999849
11
78.4249930000000006
21
-156.5620920000000069
0
LINE
8
BLACK
6
CONTINUOUS
10
78.4249930000000006
20
-156.5620920000000069
11
77.2588829999999973
21
-156.9735719999999901
0
LINE
8
BLACK
6
CONTINUOUS
10
77.2588829999999973
20
-156.9735719999999901
11
76.0806389999999908
21
-157.3488999999999862
0
LINE
8
BLACK
6
CONTINUOUS
10
76.0806389999999908
20
-157.3488999999999862
11
74.8913829999999905
21
-157.687720999999982
0
LINE
8
BLACK
6
CONTINUOUS
10
74.8913829999999905
20
-157.687720999999982
11
73.6922449999999998
21
-157.9897109999999998
0
LINE
8
BLACK
6
CONTINUOUS
10
73.6922449999999998
20
-157.9897109999999998
11
72.4843659999999943
21
-158.2545829999999967
0
LINE
8
BLACK
6
CONTINUOUS
10
72.4843659999999943
20
-158.2545829999999967
11
71.2688940000000031
21
-158.4820859999999811
0
LINE
8
BLACK
6
CONTINUOUS
10
71.2688940000000031
20
-158.4820859999999811
11
70.0469859999999898
21
-158.6720039999999869
0
LINE
8
BLACK
6
CONTINUOUS
10
70.0469859999999898
20
-158.6720039999999869
11
68.8198019999999957
21
-158.8241549999999904
0
LINE
8
BLACK
6
CONTINUOUS
10
68.8198019999999957
20
-158.8241549999999904
11
67.5885099999999994
21
-158.9383949999999857
0
LINE
8
BLACK
6
CONTINUOUS
10
67.5885099999999994
20
-158.9383949999999857
11
66.3542819999999978
21
-159.0146159999999895
0
LINE
8
BLACK
6
CONTINUOUS
10
66.3542819999999978
20
-159.0146159999999895
11
65.1182900000000018
21
-159.0527439999999899
0
LINE
8
BLACK
6
CONTINUOUS
10
65.1182900000000018
20
-159.0527439999999899
11
63.8817109999999957
21
-159.0527439999999899
0
LINE
8
BLACK
6
CONTINUOUS
10
63.8817109999999957
20
-159.0527439999999899
11
62.6457189999999997
21
-159.0146159999999895
0
LINE
8
BLACK
6
CONTINUOUS
10
62.6457189999999997
20
-159.0146159999999895
11
61.4114900000000006
21
-158.9383949999999857
0
LINE
8
BLACK
6
CONTINUOUS
10
61.4114900000000006
20
-158.9383949999999857
11
60.1801989999999947
21
-158.8241549999999904
0
LINE
8
BLACK
6
CONTINUOUS
10
60.1801989999999947
20
-158.8241549999999904
11
58.9530150000000006
21
-158.6720039999999869
0
LINE
8
BLACK
6
CONTINUOUS
10
58.9530150000000006
20
-158.6720039999999869
11
57.7311069999999944
21
-158.482087000000007
0
LINE
8
BLACK
6
CONTINUOUS
10
57.7311069999999944
20
-158.482087000000007
11
56.5156349999999961
21
-158.2545829999999967
0
LINE
8
BLACK
6
CONTINUOUS
10
56.5156349999999961
20
-158.2545829999999967
11
55.3077559999999977
21
-157.9897109999999998
0
LINE
8
BLACK
6
CONTINUOUS
10
55.3077559999999977
20
-157.9897109999999998
11
54.1086179999999999
21
-157.687720999999982
0
LINE
8
BLACK
6
CONTINUOUS
10
54.1086179999999999
20
-157.687720999999982
11
52.9193619999999996
21
-157.3488999999999862
0
LINE
8
BLACK
6
CONTINUOUS
10
52.9193619999999996
20
-157.3488999999999862
11
51.7411180000000002
21
-156.9735719999999901
0
LINE
8
BLACK
6
CONTINUOUS
10
51.7411180000000002
20
-156.9735719999999901
11
50.5750069999999994
21
-156.5620920000000069
0
LINE
8
BLACK
6
CONTINUOUS
10
50.5750069999999994
20
-156.5620920000000069
11
49.4221389999999943
21
-156.1148529999999823
0
LINE
8
BLACK
6
CONTINUOUS
10
49.4221389999999943
20
-156.1148529999999823
11
48.283608000000001
21
-155.6322789999999827
0
LINE
8
BLACK
6
CONTINUOUS
10
48.283608000000001
20
-155.6322789999999827
11
47.1604989999999944
21
-155.1148289999999861
0
LINE
8
BLACK
6
CONTINUOUS
10
47.1604989999999944
20
-155.1148289999999861
11
46.0538779999999974
21
-154.5629950000000008
0
LINE
8
BLACK
6
CONTINUOUS
10
46.0538779999999974
20
-154.5629950000000008
11
44.9647989999999993
21
-153.9773030000000063
0
LINE
8
BLACK
6
CONTINUOUS
10
44.9647989999999993
20
-153.9773030000000063
11
43.8942959999999971
21
-153.3583089999999913
0
LINE
8
BLACK
6
CONTINUOUS
10
43.8942959999999971
20
-153.3583089999999913
11
42.8433889999999948
21
-152.7066010000000063
0
LINE
8
BLACK
6
CONTINUOUS
10
42.8433889999999948
20
-152.7066010000000063
11
41.8130749999999978
21
-152.0227999999999895
0
LINE
8
BLACK
6
CONTINUOUS
10
41.8130749999999978
20
-152.0227999999999895
11
40.8043359999999993
21
-151.3075549999999794
0
LINE
8
BLACK
6
CONTINUOUS
10
40.8043359999999993
20
-151.3075549999999794
11
39.8181299999999965
21
-150.5615479999999877
0
LINE
8
BLACK
6
CONTINUOUS
10
39.8181299999999965
20
-150.5615479999999877
11
38.8553950000000015
21
-149.7854869999999892
0
LINE
8
BLACK
6
CONTINUOUS
10
38.8553950000000015
20
-149.7854869999999892
11
37.9170469999999966
21
-148.9801099999999963
0
LINE
8
BLACK
6
CONTINUOUS
10
37.9170469999999966
20
-148.9801099999999963
11
37.0039779999999965
21
-148.1461829999999793
0
LINE
8
BLACK
6
CONTINUOUS
10
37.0039779999999965
20
-148.1461829999999793
11
36.1170559999999981
21
-147.2844989999999825
0
LINE
8
BLACK
6
CONTINUOUS
10
36.1170559999999981
20
-147.2844989999999825
11
35.2571239999999975
21
-146.395877999999982
0
LINE
8
BLACK
6
CONTINUOUS
10
35.2571239999999975
20
-146.395877999999982
11
34.4250010000000017
21
-145.4811650000000043
0
LINE
8
BLACK
6
CONTINUOUS
10
34.4250010000000017
20
-145.4811650000000043
11
34.4249999999999972
21
-145.4811660000000018
0
LINE
8
BLACK
6
CONTINUOUS
10
34.4249999999999972
20
-145.4811660000000018
11
34.4225920000000016
21
-145.476317999999992
0
LINE
8
BLACK
6
CONTINUOUS
10
34.4225920000000016
20
-145.476317999999992
11
34.4168529999999961
21
-145.4705789999999865
0
LINE
8
BLACK
6
CONTINUOUS
10
34.4168529999999961
20
-145.4705789999999865
11
34.4023259999999951
21
-145.4355079999999987
0
LINE
8
BLACK
6
CONTINUOUS
10
34.4023259999999951
20
-145.4355079999999987
11
34.4019759999999977
21
-145.4348039999999855
0
LINE
8
BLACK
6
CONTINUOUS
10
34.4019759999999977
20
-145.4348039999999855
11
34.4019830000000013
21
-145.4346819999999809
0
LINE
8
BLACK
6
CONTINUOUS
10
34.4019830000000013
20
-145.4346819999999809
11
34.4019210000000015
21
-145.4345309999999927
0
LINE
8
BLACK
6
CONTINUOUS
10
34.4019210000000015
20
-145.4345309999999927
11
34.3999999999999986
21
-145.4150219999999933
0
LINE
8
BLACK
6
CONTINUOUS
10
34.3999999999999986
20
-145.4150219999999933
11
34.3999999999999986
21
-92.5
0
LINE
8
BLACK
6
CONTINUOUS
10
34.3999999999999986
20
-92.5
11
34.4019210000000015
21
-92.4804910000000007
0
LINE
8
BLACK
6
CONTINUOUS
10
34.4019210000000015
20
-92.4804910000000007
11
34.4019830000000013
21
-92.4803390000000007
0
LINE
8
BLACK
6
CONTINUOUS
10
34.4019830000000013
20
-92.4803390000000007
11
34.4019759999999977
21
-92.4802179999999936
0
LINE
8
BLACK
6
CONTINUOUS
10
34.4019759999999977
20
-92.4802179999999936
11
34.4023259999999951
21
-92.4795129999999972
0
LINE
8
BLACK
6
CONTINUOUS
10
34.4023259999999951
20
-92.4795129999999972
11
34.4168529999999961
21
-92.4444429999999926
0
LINE
8
BLACK
6
CONTINUOUS
10
34.4168529999999961
20
-92.4444429999999926
11
34.4225920000000016
21
-92.4387029999999896
0
LINE
8
BLACK
6
CONTINUOUS
10
34.4225920000000016
20
-92.4387029999999896
11
34.4249999999999972
21
-92.4338559999999916
0
LINE
8
BLACK
6
CONTINUOUS
10
34.4249999999999972
20
-92.4338559999999916
11
35.257123
21
-91.5191429999999997
0
LINE
8
BLACK
6
CONTINUOUS
10
35.257123
20
-91.5191429999999997
11
36.1170550000000006
21
-90.6305219999999991
0
LINE
8
BLACK
6
CONTINUOUS
10
36.1170550000000006
20
-90.6305219999999991
11
37.003976999999999
21
-89.7688380000000024
0
LINE
8
BLACK
6
CONTINUOUS
10
37.003976999999999
20
-89.7688380000000024
11
37.9170459999999991
21
-88.9349109999999996
0
LINE
8
BLACK
6
CONTINUOUS
10
37.9170459999999991
20
-88.9349109999999996
11
38.8553939999999969
21
-88.1295339999999925
0
LINE
8
BLACK
6
CONTINUOUS
10
38.8553939999999969
20
-88.1295339999999925
11
39.818128999999999
21
-87.3534729999999939
0
LINE
8
BLACK
6
CONTINUOUS
10
39.818128999999999
20
-87.3534729999999939
11
40.8043349999999947
21
-86.6074649999999906
0
LINE
8
BLACK
6
CONTINUOUS
10
40.8043349999999947
20
-86.6074649999999906
11
41.8130740000000003
21
-85.8922209999999922
0
LINE
8
BLACK
6
CONTINUOUS
10
41.8130740000000003
20
-85.8922209999999922
11
42.8433879999999974
21
-85.2084199999999896
0
LINE
8
BLACK
6
CONTINUOUS
10
42.8433879999999974
20
-85.2084199999999896
11
43.8942949999999996
21
-84.5567119999999903
0
LINE
8
BLACK
6
CONTINUOUS
10
43.8942949999999996
20
-84.5567119999999903
11
44.9647979999999947
21
-83.9377179999999896
0
LINE
8
BLACK
6
CONTINUOUS
10
44.9647979999999947
20
-83.9377179999999896
11
46.053877
21
-83.3520249999999976
0
LINE
8
BLACK
6
CONTINUOUS
10
46.053877
20
-83.3520249999999976
11
47.1604979999999969
21
-82.8001919999999956
0
LINE
8
BLACK
6
CONTINUOUS
10
47.1604979999999969
20
-82.8001919999999956
11
48.283608000000001
21
-82.2827419999999989
0
LINE
8
BLACK
6
CONTINUOUS
10
48.283608000000001
20
-82.2827419999999989
11
49.4221379999999968
21
-81.8001679999999993
0
LINE
8
BLACK
6
CONTINUOUS
10
49.4221379999999968
20
-81.8001679999999993
11
50.5750069999999994
21
-81.3529279999999915
0
LINE
8
BLACK
6
CONTINUOUS
10
50.5750069999999994
20
-81.3529279999999915
11
51.7411169999999956
21
-80.9414479999999941
0
LINE
8
BLACK
6
CONTINUOUS
10
51.7411169999999956
20
-80.9414479999999941
11
52.919360999999995
21
-80.566119999999998
0
LINE
8
BLACK
6
CONTINUOUS
10
52.919360999999995
20
-80.566119999999998
11
54.1086169999999953
21
-80.2272990000000021
0
LINE
8
BLACK
6
CONTINUOUS
10
54.1086169999999953
20
-80.2272990000000021
11
55.3077550000000002
21
-79.9253089999999986
0
LINE
8
BLACK
6
CONTINUOUS
10
55.3077550000000002
20
-79.9253089999999986
11
56.5156339999999986
21
-79.6604370000000017
0
LINE
8
BLACK
6
CONTINUOUS
10
56.5156339999999986
20
-79.6604370000000017
11
57.7311059999999969
21
-79.432934000000003
0
LINE
8
BLACK
6
CONTINUOUS
10
57.7311059999999969
20
-79.432934000000003
11
58.9530150000000006
21
-79.2430159999999972
0
LINE
8
BLACK
6
CONTINUOUS
10
58.9530150000000006
20
-79.2430159999999972
11
60.1801989999999947
21
-79.0908649999999938
0
LINE
8
BLACK
6
CONTINUOUS
10
60.1801989999999947
20
-79.0908649999999938
11
61.4114900000000006
21
-78.9766249999999985
0
LINE
8
BLACK
6
CONTINUOUS
10
61.4114900000000006
20
-78.9766249999999985
11
62.6457189999999997
21
-78.9004039999999947
0
LINE
8
BLACK
6
CONTINUOUS
10
62.6457189999999997
20
-78.9004039999999947
11
63.8817099999999982
21
-78.8622759999999943
0
LINE
8
BLACK
6
CONTINUOUS
10
63.8817099999999982
20
-78.8622759999999943
11
65.1182900000000018
21
-78.8622759999999943
0
LINE
8
BLACK
6
CONTINUOUS
10
65.1182900000000018
20
-78.8622759999999943
11
66.3542819999999978
21
-78.9004039999999947
0
LINE
8
BLACK
6
CONTINUOUS
10
63.2695879999999988
20
-79.0717509999999919
11
62.040346999999997
21
-79.1286529999999999
0
LINE
8
BLACK
6
CONTINUOUS
10
62.040346999999997
20
-79.1286529999999999
11
60.8134439999999969
21
-79.2234309999999908
0
LINE
8
BLACK
6
CONTINUOUS
10
60.8134439999999969
20
-79.2234309999999908
11
59.5900459999999939
21
-79.3559939999999955
0
LINE
8
BLACK
6
CONTINUOUS
10
59.5900459999999939
20
-79.3559939999999955
11
58.3713179999999952
21
-79.5262159999999909
0
LINE
8
BLACK
6
CONTINUOUS
10
58.3713179999999952
20
-79.5262159999999909
11
57.1584179999999975
21
-79.7339339999999908
0
LINE
8
BLACK
6
CONTINUOUS
10
57.1584179999999975
20
-79.7339339999999908
11
55.9525000000000006
21
-79.97895299999999
0
LINE
8
BLACK
6
CONTINUOUS
10
55.9525000000000006
20
-79.97895299999999
11
54.7547089999999983
21
-80.2610370000000017
0
LINE
8
BLACK
6
CONTINUOUS
10
54.7547089999999983
20
-80.2610370000000017
11
53.5661859999999947
21
-80.5799200000000013
0
LINE
8
BLACK
6
CONTINUOUS
10
53.5661859999999947
20
-80.5799200000000013
11
52.3880599999999959
21
-80.9352980000000031
0
LINE
8
BLACK
6
CONTINUOUS
10
52.3880599999999959
20
-80.9352980000000031
11
51.2214529999999968
21
-81.3268329999999935
0
LINE
8
BLACK
6
CONTINUOUS
10
51.2214529999999968
20
-81.3268329999999935
11
50.0674719999999951
21
-81.7541530000000023
0
LINE
8
BLACK
6
CONTINUOUS
10
50.0674719999999951
20
-81.7541530000000023
11
48.9272159999999943
21
-82.2168509999999912
0
LINE
8
BLACK
6
CONTINUOUS
10
48.9272159999999943
20
-82.2168509999999912
11
47.8017679999999956
21
-82.7144869999999912
0
LINE
8
BLACK
6
CONTINUOUS
10
47.8017679999999956
20
-82.7144869999999912
11
46.6921999999999997
21
-83.2465890000000002
0
LINE
8
BLACK
6
CONTINUOUS
10
46.6921999999999997
20
-83.2465890000000002
11
45.5995659999999958
21
-83.8126489999999933
0
LINE
8
BLACK
6
CONTINUOUS
10
45.5995659999999958
20
-83.8126489999999933
11
44.5249060000000014
21
-84.4121310000000022
0
LINE
8
BLACK
6
CONTINUOUS
10
44.5249060000000014
20
-84.4121310000000022
11
43.4692399999999992
21
-85.0444629999999933
0
LINE
8
BLACK
6
CONTINUOUS
10
43.4692399999999992
20
-85.0444629999999933
11
42.4335740000000001
21
-85.709044999999989
0
LINE
8
BLACK
6
CONTINUOUS
10
42.4335740000000001
20
-85.709044999999989
11
41.4188919999999996
21
-86.4052439999999962
0
LINE
8
BLACK
6
CONTINUOUS
10
41.4188919999999996
20
-86.4052439999999962
11
40.4261580000000009
21
-87.1323989999999924
0
LINE
8
BLACK
6
CONTINUOUS
10
40.4261580000000009
20
-87.1323989999999924
11
39.456317999999996
21
-87.8898169999999936
0
LINE
8
BLACK
6
CONTINUOUS
10
39.456317999999996
20
-87.8898169999999936
11
38.5102919999999997
21
-88.6767799999999937
0
LINE
8
BLACK
6
CONTINUOUS
10
38.5102919999999997
20
-88.6767799999999937
11
37.5889820000000014
21
-89.4925369999999987
0
LINE
8
BLACK
6
CONTINUOUS
10
37.5889820000000014
20
-89.4925369999999987
11
36.6932619999999972
21
-90.336314999999999
0
LINE
8
BLACK
6
CONTINUOUS
10
36.6932619999999972
20
-90.336314999999999
11
35.8239850000000004
21
-91.2073089999999951
0
LINE
8
BLACK
6
CONTINUOUS
10
35.8239850000000004
20
-91.2073089999999951
11
34.981977999999998
21
-92.104692
0
LINE
8
BLACK
6
CONTINUOUS
10
34.981977999999998
20
-92.104692
11
34.6000000000000014
21
-92.5377969999999976
0
LINE
8
BLACK
6
CONTINUOUS
10
34.6000000000000014
20
-92.5377969999999976
11
34.6000000000000014
21
-145.3772219999999891
0
LINE
8
BLACK
6
CONTINUOUS
10
34.6000000000000014
20
-145.3772219999999891
11
34.9819789999999955
21
-145.8103289999999959
0
LINE
8
BLACK
6
CONTINUOUS
10
34.9819789999999955
20
-145.8103289999999959
11
35.8239859999999979
21
-146.7077119999999866
0
LINE
8
BLACK
6
CONTINUOUS
10
35.8239859999999979
20
-146.7077119999999866
11
36.6932630000000017
21
-147.5787059999999826
0
LINE
8
BLACK
6
CONTINUOUS
10
36.6932630000000017
20
-147.5787059999999826
11
37.5889829999999989
21
-148.4224839999999972
0
LINE
8
BLACK
6
CONTINUOUS
10
37.5889829999999989
20
-148.4224839999999972
11
38.5102929999999972
21
-149.2382409999999879
0
LINE
8
BLACK
6
CONTINUOUS
10
38.5102929999999972
20
-149.2382409999999879
11
39.4563190000000006
21
-150.0252030000000047
0
LINE
8
BLACK
6
CONTINUOUS
10
39.4563190000000006
20
-150.0252030000000047
11
40.4261589999999984
21
-150.7826220000000035
0
LINE
8
BLACK
6
CONTINUOUS
10
40.4261589999999984
20
-150.7826220000000035
11
41.4188929999999971
21
-151.509775999999988
0
LINE
8
BLACK
6
CONTINUOUS
10
41.4188929999999971
20
-151.509775999999988
11
42.4335749999999976
21
-152.2059759999999926
0
LINE
8
BLACK
6
CONTINUOUS
10
42.4335749999999976
20
-152.2059759999999926
11
43.4692409999999967
21
-152.8705569999999909
0
LINE
8
BLACK
6
CONTINUOUS
10
43.4692409999999967
20
-152.8705569999999909
11
44.5249069999999989
21
-153.5028899999999794
0
LINE
8
BLACK
6
CONTINUOUS
10
44.5249069999999989
20
-153.5028899999999794
11
45.5995670000000004
21
-154.1023710000000051
0
LINE
8
BLACK
6
CONTINUOUS
10
45.5995670000000004
20
-154.1023710000000051
11
46.6922009999999972
21
-154.6684319999999957
0
LINE
8
BLACK
6
CONTINUOUS
10
46.6922009999999972
20
-154.6684319999999957
11
47.8017690000000002
21
-155.2005330000000072
0
LINE
8
BLACK
6
CONTINUOUS
10
47.8017690000000002
20
-155.2005330000000072
11
48.9272159999999943
21
-155.6981700000000046
0
LINE
8
BLACK
6
CONTINUOUS
10
48.9272159999999943
20
-155.6981700000000046
11
50.0674719999999951
21
-156.1608679999999936
0
LINE
8
BLACK
6
CONTINUOUS
10
50.0674719999999951
20
-156.1608679999999936
11
51.2214529999999968
21
-156.5881870000000049
0
LINE
8
BLACK
6
CONTINUOUS
10
51.2214529999999968
20
-156.5881870000000049
11
52.3880610000000004
21
-156.9797219999999811
0
LINE
8
BLACK
6
CONTINUOUS
10
52.3880610000000004
20
-156.9797219999999811
11
53.5661869999999993
21
-157.3350999999999829
0
LINE
8
BLACK
6
CONTINUOUS
10
53.5661869999999993
20
-157.3350999999999829
11
54.7547099999999958
21
-157.6539829999999824
0
LINE
8
BLACK
6
CONTINUOUS
10
54.7547099999999958
20
-157.6539829999999824
11
55.9525000000000006
21
-157.93606699999998
0
LINE
8
BLACK
6
CONTINUOUS
10
55.9525000000000006
20
-157.93606699999998
11
57.158418999999995
21
-158.1810859999999934
0
LINE
8
BLACK
6
CONTINUOUS
10
57.158418999999995
20
-158.1810859999999934
11
58.3713189999999997
21
-158.3888039999999933
0
LINE
8
BLACK
6
CONTINUOUS
10
58.3713189999999997
20
-158.3888039999999933
11
59.5900469999999984
21
-158.5590259999999887
0
LINE
8
BLACK
6
CONTINUOUS
10
59.5900469999999984
20
-158.5590259999999887
11
60.8134439999999969
21
-158.6915889999999933
0
LINE
8
BLACK
6
CONTINUOUS
10
60.8134439999999969
20
-158.6915889999999933
11
62.040346999999997
21
-158.7863669999999843
0
LINE
8
BLACK
6
CONTINUOUS
10
62.040346999999997
20
-158.7863669999999843
11
63.2695879999999988
21
-158.8432689999999923
0
LINE
8
BLACK
6
CONTINUOUS
10
63.2695879999999988
20
-158.8432689999999923
11
64.5
21
-158.8622430000000065
0
LINE
8
BLACK
6
CONTINUOUS
10
64.5
20
-158.8622430000000065
11
65.7304120000000012
21
-158.8432689999999923
0
LINE
8
BLACK
6
CONTINUOUS
10
65.7304120000000012
20
-158.8432689999999923
11
66.9596540000000005
21
-158.7863669999999843
0
LINE
8
BLACK
6
CONTINUOUS
10
66.9596540000000005
20
-158.7863669999999843
11
68.1865569999999934
21
-158.6915889999999933
0
LINE
8
BLACK
6
CONTINUOUS
10
68.1865569999999934
20
-158.6915889999999933
11
69.409953999999999
21
-158.5590259999999887
0
LINE
8
BLACK
6
CONTINUOUS
10
69.409953999999999
20
-158.5590259999999887
11
70.6286819999999977
21
-158.3888039999999933
0
LINE
8
BLACK
6
CONTINUOUS
10
70.6286819999999977
20
-158.3888039999999933
11
71.8415820000000025
21
-158.1810849999999959
0
LINE
8
BLACK
6
CONTINUOUS
10
71.8415820000000025
20
-158.1810849999999959
11
73.0475009999999969
21
-157.93606699999998
0
LINE
8
BLACK
6
CONTINUOUS
10
73.0475009999999969
20
-157.93606699999998
11
74.2452909999999946
21
-157.6539829999999824
0
LINE
8
BLACK
6
CONTINUOUS
10
74.2452909999999946
20
-157.6539829999999824
11
75.4338139999999981
21
-157.3350999999999829
0
LINE
8
BLACK
6
CONTINUOUS
10
75.4338139999999981
20
-157.3350999999999829
11
76.6119399999999899
21
-156.9797219999999811
0
LINE
8
BLACK
6
CONTINUOUS
10
76.6119399999999899
20
-156.9797219999999811
11
77.7785480000000007
21
-156.5881870000000049
0
LINE
8
BLACK
6
CONTINUOUS
10
77.7785480000000007
20
-156.5881870000000049
11
78.9325279999999907
21
-156.1608669999999961
0
LINE
8
BLACK
6
CONTINUOUS
10
78.9325279999999907
20
-156.1608669999999961
11
80.0727839999999986
21
-155.6981690000000071
0
LINE
8
BLACK
6
CONTINUOUS
10
80.0727839999999986
20
-155.6981690000000071
11
81.1982319999999902
21
-155.2005330000000072
0
LINE
8
BLACK
6
CONTINUOUS
10
81.1982319999999902
20
-155.2005330000000072
11
82.3078000000000003
21
-154.6684309999999982
0
LINE
8
BLACK
6
CONTINUOUS
10
82.3078000000000003
20
-154.6684309999999982
11
83.40043399999999
21
-154.1023710000000051
0
LINE
8
BLACK
6
CONTINUOUS
10
83.40043399999999
20
-154.1023710000000051
11
84.4750939999999986
21
-153.5028889999999819
0
LINE
8
BLACK
6
CONTINUOUS
10
84.4750939999999986
20
-153.5028889999999819
11
85.5307589999999891
21
-152.8705569999999909
0
LINE
8
BLACK
6
CONTINUOUS
10
85.5307589999999891
20
-152.8705569999999909
11
86.5664259999999928
21
-152.2059749999999951
0
LINE
8
BLACK
6
CONTINUOUS
10
86.5664259999999928
20
-152.2059749999999951
11
87.5811080000000004
21
-151.509775999999988
0
LINE
8
BLACK
6
CONTINUOUS
10
87.5811080000000004
20
-151.509775999999988
11
88.5738410000000016
21
-150.782621000000006
0
LINE
8
BLACK
6
CONTINUOUS
10
88.5738410000000016
20
-150.782621000000006
11
89.5436819999999898
21
-150.0252030000000047
0
LINE
8
BLACK
6
CONTINUOUS
10
89.5436819999999898
20
-150.0252030000000047
11
90.4897069999999957
21
-149.2382409999999879
0
LINE
8
BLACK
6
CONTINUOUS
10
90.4897069999999957
20
-149.2382409999999879
11
91.4110179999999986
21
-148.4224829999999997
0
LINE
8
BLACK
6
CONTINUOUS
10
91.4110179999999986
20
-148.4224829999999997
11
92.3067369999999983
21
-147.5787059999999826
0
LINE
8
BLACK
6
CONTINUOUS
10
92.3067369999999983
20
-147.5787059999999826
11
93.176013999999995
21
-146.7077119999999866
0
LINE
8
BLACK
6
CONTINUOUS
10
93.176013999999995
20
-146.7077119999999866
11
94.018022000000002
21
-145.8103279999999984
0
LINE
8
BLACK
6
CONTINUOUS
10
94.018022000000002
20
-145.8103279999999984
11
94.3999999999999915
21
-145.3772219999999891
0
LINE
8
BLACK
6
CONTINUOUS
10
94.3999999999999915
20
-145.3772219999999891
11
94.3999999999999915
21
-92.5377979999999951
0
LINE
8
BLACK
6
CONTINUOUS
10
94.3999999999999915
20
-92.5377979999999951
11
94.0180229999999995
21
-92.1046929999999975
0
LINE
8
BLACK
6
CONTINUOUS
10
94.0180229999999995
20
-92.1046929999999975
11
93.1760149999999925
21
-91.2073089999999951
0
LINE
8
BLACK
6
CONTINUOUS
10
93.1760149999999925
20
-91.2073089999999951
11
92.3067379999999957
21
-90.336314999999999
0
LINE
8
BLACK
6
CONTINUOUS
10
92.3067379999999957
20
-90.336314999999999
11
91.411018999999996
21
-89.4925379999999961
0
LINE
8
BLACK
6
CONTINUOUS
10
91.411018999999996
20
-89.4925379999999961
11
90.4897079999999931
21
-88.6767799999999937
0
LINE
8
BLACK
6
CONTINUOUS
10
90.4897079999999931
20
-88.6767799999999937
11
89.5436830000000015
21
-87.8898179999999911
0
LINE
8
BLACK
6
CONTINUOUS
10
89.5436830000000015
20
-87.8898179999999911
11
88.5738419999999991
21
-87.1323989999999924
0
LINE
8
BLACK
6
CONTINUOUS
10
88.5738419999999991
20
-87.1323989999999924
11
87.5811089999999979
21
-86.4052449999999936
0
LINE
8
BLACK
6
CONTINUOUS
10
87.5811089999999979
20
-86.4052449999999936
11
86.5664269999999902
21
-85.709044999999989
0
LINE
8
BLACK
6
CONTINUOUS
10
86.5664269999999902
20
-85.709044999999989
11
85.5307600000000008
21
-85.0444639999999907
0
LINE
8
BLACK
6
CONTINUOUS
10
85.5307600000000008
20
-85.0444639999999907
11
84.475094999999996
21
-84.4121310000000022
0
LINE
8
BLACK
6
CONTINUOUS
10
84.475094999999996
20
-84.4121310000000022
11
83.40043399999999
21
-83.8126499999999908
0
LINE
8
BLACK
6
CONTINUOUS
10
83.40043399999999
20
-83.8126499999999908
11
82.3078000000000003
21
-83.2465890000000002
0
LINE
8
BLACK
6
CONTINUOUS
10
82.3078000000000003
20
-83.2465890000000002
11
81.1982319999999902
21
-82.7144869999999912
0
LINE
8
BLACK
6
CONTINUOUS
10
81.1982319999999902
20
-82.7144869999999912
11
80.0727849999999961
21
-82.2168509999999912
0
LINE
8
BLACK
6
CONTINUOUS
10
80.0727849999999961
20
-82.2168509999999912
11
78.9325290000000024
21
-81.7541530000000023
0
LINE
8
BLACK
6
CONTINUOUS
10
78.9325290000000024
20
-81.7541530000000023
11
77.7785480000000007
21
-81.3268329999999935
0
LINE
8
BLACK
6
CONTINUOUS
10
77.7785480000000007
20
-81.3268329999999935
11
76.6119399999999899
21
-80.9352980000000031
0
LINE
8
BLACK
6
CONTINUOUS
10
76.6119399999999899
20
-80.9352980000000031
11
75.4338149999999956
21
-80.5799200000000013
0
LINE
8
BLACK
6
CONTINUOUS
10
75.4338149999999956
20
-80.5799200000000013
11
74.2452909999999946
21
-80.2610370000000017
0
LINE
8
BLACK
6
CONTINUOUS
10
74.2452909999999946
20
-80.2610370000000017
11
73.0475009999999969
21
-79.97895299999999
0
LINE
8
BLACK
6
CONTINUOUS
10
73.0475009999999969
20
-79.97895299999999
11
71.8415820000000025
21
-79.7339350000000024
0
LINE
8
BLACK
6
CONTINUOUS
10
71.8415820000000025
20
-79.7339350000000024
11
70.6286819999999977
21
-79.5262159999999909
0
LINE
8
BLACK
6
CONTINUOUS
10
70.6286819999999977
20
-79.5262159999999909
11
69.409953999999999
21
-79.3559939999999955
0
LINE
8
BLACK
6
CONTINUOUS
10
69.409953999999999
20
-79.3559939999999955
11
68.1865569999999934
21
-79.2234309999999908
0
LINE
8
BLACK
6
CONTINUOUS
10
68.1865569999999934
20
-79.2234309999999908
11
66.9596540000000005
21
-79.1286529999999999
0
LINE
8
BLACK
6
CONTINUOUS
10
66.9596540000000005
20
-79.1286529999999999
11
65.7304120000000012
21
-79.0717509999999919
0
LINE
8
BLACK
6
CONTINUOUS
10
65.7304120000000012
20
-79.0717509999999919
11
64.5
21
-79.0527769999999919
0
LINE
8
BLACK
6
CONTINUOUS
10
64.5
20
-79.0527769999999919
11
63.2695879999999988
21
-79.0717509999999919
  0
ENDSEC
  0
EOF
