  0
SECTION
  2
HEADER
  9
$ANGBASE
  50
0.0
  9
$ANGDIR
  70
1
  9
$MEASUREMENT
  70
1
  0
ENDSEC
  0
SECTION
  2
TABLES
  0
TABLE
  2
LTYPE
  70
4
  0
LTYPE
  5
40F
  2
CONTINUOUS
  70
0
  3
Solid line
  72
65
  73
0
  40
0.0
  0
LTYPE
  5
410
  2
DASHDOT
 70
0
  3
Dash Dot ____ _ ____ _
 72
65
 73
4
 40
2.0
 49
1.25
 49
-0.25
 49
0.25
 49
-0.25
  0
LTYPE
  5
411
  2
DASHED
 70
0
  3
Dashed __ __ __ __ __
 72
65
 73
2
 40
0.75
 49
0.5
 49
-0.25
  0
LTYPE
  5
43B
  2
DOTTED
 70
0
  3
Dotted .  .  .  .
 72
65
 73
2
 40
0.2
 49
0.0
 49
-0.2
  0
ENDTAB
  0
TABLE
  2
STYLE
  70
4
  0
STYLE
  2
KICAD
  70
0
  40
0
  41
1
  42
1
  50
0
  71
0
  3
isocp.shx
  0
STYLE
  2
KICADB
  70
0
  40
0
  41
1
  42
1
  50
0
  71
0
  3
isocp.shx
  0
STYLE
  2
KICADI
  70
0
  40
0
  41
1
  42
1
  50
15
  71
0
  3
isocp.shx
  0
STYLE
  2
KICADBI
  70
0
  40
0
  41
1
  42
1
  50
15
  71
0
  3
isocp.shx
  0
ENDTAB
  0
TABLE
  2
LAYER
  70
1
  0
LAYER
  2
BLACK
  70
0
  62
7
  6
CONTINUOUS
  0
ENDTAB
  0
ENDSEC
  0
SECTION
  2
ENTITIES
0
LINE
8
BLACK
6
CONTINUOUS
10
3.873513
20
-94.9442079999999891
11
4.1122930000000002
21
-95.0217930000000024
0
LINE
8
BLACK
6
CONTINUOUS
10
4.1122930000000002
20
-95.0217930000000024
11
4.335998
21
-95.1357759999999928
0
LINE
8
BLACK
6
CONTINUOUS
10
4.335998
20
-95.1357759999999928
11
4.5391170000000001
21
-95.2833499999999987
0
LINE
8
BLACK
6
CONTINUOUS
10
4.5391170000000001
20
-95.2833499999999987
11
4.7166499999999996
21
-95.4608829999999955
0
LINE
8
BLACK
6
CONTINUOUS
10
4.7166499999999996
20
-95.4608829999999955
11
4.8642240000000001
21
-95.6640019999999964
0
LINE
8
BLACK
6
CONTINUOUS
10
4.8642240000000001
20
-95.6640019999999964
11
4.9782069999999994
21
-95.8877069999999918
0
LINE
8
BLACK
6
CONTINUOUS
10
4.9782069999999994
20
-95.8877069999999918
11
5.0557919999999994
21
-96.1264869999999974
0
LINE
8
BLACK
6
CONTINUOUS
10
5.0557919999999994
20
-96.1264869999999974
11
5.0950679999999995
21
-96.3744650000000007
0
LINE
8
BLACK
6
CONTINUOUS
10
5.0950679999999995
20
-96.3744650000000007
11
5.0950679999999995
21
-96.6255349999999993
0
LINE
8
BLACK
6
CONTINUOUS
10
5.0950679999999995
20
-96.6255349999999993
11
5.0557919999999994
21
-96.8735130000000026
0
LINE
8
BLACK
6
CONTINUOUS
10
5.0557919999999994
20
-96.8735130000000026
11
4.9782069999999994
21
-97.112292999999994
0
LINE
8
BLACK
6
CONTINUOUS
10
4.9782069999999994
20
-97.112292999999994
11
4.8642240000000001
21
-97.3359979999999894
0
LINE
8
BLACK
6
CONTINUOUS
10
4.8642240000000001
20
-97.3359979999999894
11
4.7166499999999996
21
-97.5391169999999903
0
LINE
8
BLACK
6
CONTINUOUS
10
4.7166499999999996
20
-97.5391169999999903
11
4.5391170000000001
21
-97.7166500000000013
0
LINE
8
BLACK
6
CONTINUOUS
10
4.5391170000000001
20
-97.7166500000000013
11
4.335998
21
-97.864223999999993
0
LINE
8
BLACK
6
CONTINUOUS
10
4.335998
20
-97.864223999999993
11
4.1122930000000002
21
-97.9782069999999976
0
LINE
8
BLACK
6
CONTINUOUS
10
4.1122930000000002
20
-97.9782069999999976
11
3.873513
21
-98.0557919999999967
0
LINE
8
BLACK
6
CONTINUOUS
10
3.873513
20
-98.0557919999999967
11
3.6255349999999997
21
-98.0950679999999977
0
LINE
8
BLACK
6
CONTINUOUS
10
3.6255349999999997
20
-98.0950679999999977
11
3.3744649999999998
21
-98.0950679999999977
0
LINE
8
BLACK
6
CONTINUOUS
10
3.3744649999999998
20
-98.0950679999999977
11
3.126487
21
-98.0557919999999967
0
LINE
8
BLACK
6
CONTINUOUS
10
3.126487
20
-98.0557919999999967
11
2.8877069999999998
21
-97.9782069999999976
0
LINE
8
BLACK
6
CONTINUOUS
10
2.8877069999999998
20
-97.9782069999999976
11
2.664002
21
-97.864223999999993
0
LINE
8
BLACK
6
CONTINUOUS
10
2.664002
20
-97.864223999999993
11
2.4608829999999999
21
-97.7166500000000013
0
LINE
8
BLACK
6
CONTINUOUS
10
2.4608829999999999
20
-97.7166500000000013
11
2.28335
21
-97.5391169999999903
0
LINE
8
BLACK
6
CONTINUOUS
10
2.28335
20
-97.5391169999999903
11
2.1357759999999999
21
-97.3359979999999894
0
LINE
8
BLACK
6
CONTINUOUS
10
2.1357759999999999
20
-97.3359979999999894
11
2.0217929999999997
21
-97.112292999999994
0
LINE
8
BLACK
6
CONTINUOUS
10
2.0217929999999997
20
-97.112292999999994
11
1.9442079999999999
21
-96.8735130000000026
0
LINE
8
BLACK
6
CONTINUOUS
10
1.9442079999999999
20
-96.8735130000000026
11
1.9049319999999998
21
-96.6255349999999993
0
LINE
8
BLACK
6
CONTINUOUS
10
1.9049319999999998
20
-96.6255349999999993
11
1.9049319999999998
21
-96.3744650000000007
0
LINE
8
BLACK
6
CONTINUOUS
10
1.9049319999999998
20
-96.3744650000000007
11
1.9442079999999999
21
-96.1264869999999974
0
LINE
8
BLACK
6
CONTINUOUS
10
1.9442079999999999
20
-96.1264869999999974
11
2.0217929999999997
21
-95.8877069999999918
0
LINE
8
BLACK
6
CONTINUOUS
10
2.0217929999999997
20
-95.8877069999999918
11
2.1357759999999999
21
-95.6640019999999964
0
LINE
8
BLACK
6
CONTINUOUS
10
2.1357759999999999
20
-95.6640019999999964
11
2.28335
21
-95.4608829999999955
0
LINE
8
BLACK
6
CONTINUOUS
10
2.28335
20
-95.4608829999999955
11
2.4608829999999999
21
-95.2833499999999987
0
LINE
8
BLACK
6
CONTINUOUS
10
2.4608829999999999
20
-95.2833499999999987
11
2.664002
21
-95.1357759999999928
0
LINE
8
BLACK
6
CONTINUOUS
10
2.664002
20
-95.1357759999999928
11
2.8877069999999998
21
-95.0217930000000024
0
LINE
8
BLACK
6
CONTINUOUS
10
2.8877069999999998
20
-95.0217930000000024
11
3.126487
21
-94.9442079999999891
0
LINE
8
BLACK
6
CONTINUOUS
10
3.126487
20
-94.9442079999999891
11
3.3744649999999998
21
-94.9049320000000023
0
LINE
8
BLACK
6
CONTINUOUS
10
3.3744649999999998
20
-94.9049320000000023
11
3.6255349999999997
21
-94.9049320000000023
0
LINE
8
BLACK
6
CONTINUOUS
10
3.6255349999999997
20
-94.9049320000000023
11
3.873513
21
-94.9442079999999891
0
LINE
8
BLACK
6
CONTINUOUS
10
96.8735130000000026
20
-94.9442079999999891
11
97.112292999999994
21
-95.0217930000000024
0
LINE
8
BLACK
6
CONTINUOUS
10
97.112292999999994
20
-95.0217930000000024
11
97.3359979999999894
21
-95.1357759999999928
0
LINE
8
BLACK
6
CONTINUOUS
10
97.3359979999999894
20
-95.1357759999999928
11
97.5391169999999903
21
-95.2833499999999987
0
LINE
8
BLACK
6
CONTINUOUS
10
97.5391169999999903
20
-95.2833499999999987
11
97.7166500000000013
21
-95.4608829999999955
0
LINE
8
BLACK
6
CONTINUOUS
10
97.7166500000000013
20
-95.4608829999999955
11
97.864223999999993
21
-95.6640019999999964
0
LINE
8
BLACK
6
CONTINUOUS
10
97.864223999999993
20
-95.6640019999999964
11
97.9782069999999976
21
-95.8877069999999918
0
LINE
8
BLACK
6
CONTINUOUS
10
97.9782069999999976
20
-95.8877069999999918
11
98.0557919999999967
21
-96.1264869999999974
0
LINE
8
BLACK
6
CONTINUOUS
10
98.0557919999999967
20
-96.1264869999999974
11
98.0950679999999977
21
-96.3744650000000007
0
LINE
8
BLACK
6
CONTINUOUS
10
98.0950679999999977
20
-96.3744650000000007
11
98.0950679999999977
21
-96.6255349999999993
0
LINE
8
BLACK
6
CONTINUOUS
10
98.0950679999999977
20
-96.6255349999999993
11
98.0557919999999967
21
-96.8735130000000026
0
LINE
8
BLACK
6
CONTINUOUS
10
98.0557919999999967
20
-96.8735130000000026
11
97.9782069999999976
21
-97.112292999999994
0
LINE
8
BLACK
6
CONTINUOUS
10
97.9782069999999976
20
-97.112292999999994
11
97.864223999999993
21
-97.3359979999999894
0
LINE
8
BLACK
6
CONTINUOUS
10
97.864223999999993
20
-97.3359979999999894
11
97.7166500000000013
21
-97.5391169999999903
0
LINE
8
BLACK
6
CONTINUOUS
10
97.7166500000000013
20
-97.5391169999999903
11
97.5391169999999903
21
-97.7166500000000013
0
LINE
8
BLACK
6
CONTINUOUS
10
97.5391169999999903
20
-97.7166500000000013
11
97.3359979999999894
21
-97.864223999999993
0
LINE
8
BLACK
6
CONTINUOUS
10
97.3359979999999894
20
-97.864223999999993
11
97.112292999999994
21
-97.9782069999999976
0
LINE
8
BLACK
6
CONTINUOUS
10
97.112292999999994
20
-97.9782069999999976
11
96.8735130000000026
21
-98.0557919999999967
0
LINE
8
BLACK
6
CONTINUOUS
10
96.8735130000000026
20
-98.0557919999999967
11
96.6255349999999993
21
-98.0950679999999977
0
LINE
8
BLACK
6
CONTINUOUS
10
96.6255349999999993
20
-98.0950679999999977
11
96.3744650000000007
21
-98.0950679999999977
0
LINE
8
BLACK
6
CONTINUOUS
10
96.3744650000000007
20
-98.0950679999999977
11
96.1264869999999974
21
-98.0557919999999967
0
LINE
8
BLACK
6
CONTINUOUS
10
96.1264869999999974
20
-98.0557919999999967
11
95.8877069999999918
21
-97.9782069999999976
0
LINE
8
BLACK
6
CONTINUOUS
10
95.8877069999999918
20
-97.9782069999999976
11
95.6640019999999964
21
-97.864223999999993
0
LINE
8
BLACK
6
CONTINUOUS
10
95.6640019999999964
20
-97.864223999999993
11
95.4608829999999955
21
-97.7166500000000013
0
LINE
8
BLACK
6
CONTINUOUS
10
95.4608829999999955
20
-97.7166500000000013
11
95.2833499999999987
21
-97.5391169999999903
0
LINE
8
BLACK
6
CONTINUOUS
10
95.2833499999999987
20
-97.5391169999999903
11
95.1357759999999928
21
-97.3359979999999894
0
LINE
8
BLACK
6
CONTINUOUS
10
95.1357759999999928
20
-97.3359979999999894
11
95.0217930000000024
21
-97.112292999999994
0
LINE
8
BLACK
6
CONTINUOUS
10
95.0217930000000024
20
-97.112292999999994
11
94.9442079999999891
21
-96.8735130000000026
0
LINE
8
BLACK
6
CONTINUOUS
10
94.9442079999999891
20
-96.8735130000000026
11
94.9049320000000023
21
-96.6255349999999993
0
LINE
8
BLACK
6
CONTINUOUS
10
94.9049320000000023
20
-96.6255349999999993
11
94.9049320000000023
21
-96.3744650000000007
0
LINE
8
BLACK
6
CONTINUOUS
10
94.9049320000000023
20
-96.3744650000000007
11
94.9442079999999891
21
-96.1264869999999974
0
LINE
8
BLACK
6
CONTINUOUS
10
94.9442079999999891
20
-96.1264869999999974
11
95.0217930000000024
21
-95.8877069999999918
0
LINE
8
BLACK
6
CONTINUOUS
10
95.0217930000000024
20
-95.8877069999999918
11
95.1357759999999928
21
-95.6640019999999964
0
LINE
8
BLACK
6
CONTINUOUS
10
95.1357759999999928
20
-95.6640019999999964
11
95.2833499999999987
21
-95.4608829999999955
0
LINE
8
BLACK
6
CONTINUOUS
10
95.2833499999999987
20
-95.4608829999999955
11
95.4608829999999955
21
-95.2833499999999987
0
LINE
8
BLACK
6
CONTINUOUS
10
95.4608829999999955
20
-95.2833499999999987
11
95.6640019999999964
21
-95.1357759999999928
0
LINE
8
BLACK
6
CONTINUOUS
10
95.6640019999999964
20
-95.1357759999999928
11
95.8877069999999918
21
-95.0217930000000024
0
LINE
8
BLACK
6
CONTINUOUS
10
95.8877069999999918
20
-95.0217930000000024
11
96.1264869999999974
21
-94.9442079999999891
0
LINE
8
BLACK
6
CONTINUOUS
10
96.1264869999999974
20
-94.9442079999999891
11
96.3744650000000007
21
-94.9049320000000023
0
LINE
8
BLACK
6
CONTINUOUS
10
96.3744650000000007
20
-94.9049320000000023
11
96.6255349999999993
21
-94.9049320000000023
0
LINE
8
BLACK
6
CONTINUOUS
10
96.6255349999999993
20
-94.9049320000000023
11
96.8735130000000026
21
-94.9442079999999891
0
LINE
8
BLACK
6
CONTINUOUS
10
58.1476429999999951
20
-93.7602279999999979
11
58.3379209999999944
21
-93.8220539999999943
0
LINE
8
BLACK
6
CONTINUOUS
10
58.3379209999999944
20
-93.8220539999999943
11
58.5161859999999976
21
-93.9128839999999911
0
LINE
8
BLACK
6
CONTINUOUS
10
58.5161859999999976
20
-93.9128839999999911
11
58.6780459999999948
21
-94.0304819999999921
0
LINE
8
BLACK
6
CONTINUOUS
10
58.6780459999999948
20
-94.0304819999999921
11
58.8195179999999951
21
-94.1719539999999995
0
LINE
8
BLACK
6
CONTINUOUS
10
58.8195179999999951
20
-94.1719539999999995
11
58.9371159999999961
21
-94.3338139999999896
0
LINE
8
BLACK
6
CONTINUOUS
10
58.9371159999999961
20
-94.3338139999999896
11
59.027946
21
-94.512079
0
LINE
8
BLACK
6
CONTINUOUS
10
59.027946
20
-94.512079
11
59.0897719999999964
21
-94.7023569999999921
0
LINE
8
BLACK
6
CONTINUOUS
10
59.0897719999999964
20
-94.7023569999999921
11
59.121069999999996
21
-94.8999649999999946
0
LINE
8
BLACK
6
CONTINUOUS
10
59.121069999999996
20
-94.8999649999999946
11
59.121069999999996
21
-95.1000349999999912
0
LINE
8
BLACK
6
CONTINUOUS
10
59.121069999999996
20
-95.1000349999999912
11
59.0897719999999964
21
-95.2976429999999937
0
LINE
8
BLACK
6
CONTINUOUS
10
59.0897719999999964
20
-95.2976429999999937
11
59.027946
21
-95.487921
0
LINE
8
BLACK
6
CONTINUOUS
10
59.027946
20
-95.487921
11
58.9371159999999961
21
-95.6661859999999962
0
LINE
8
BLACK
6
CONTINUOUS
10
58.9371159999999961
20
-95.6661859999999962
11
58.8195179999999951
21
-95.8280460000000005
0
LINE
8
BLACK
6
CONTINUOUS
10
58.8195179999999951
20
-95.8280460000000005
11
58.6780459999999948
21
-95.9695179999999937
0
LINE
8
BLACK
6
CONTINUOUS
10
58.6780459999999948
20
-95.9695179999999937
11
58.5161859999999976
21
-96.0871159999999946
0
LINE
8
BLACK
6
CONTINUOUS
10
58.5161859999999976
20
-96.0871159999999946
11
58.3379209999999944
21
-96.1779459999999915
0
LINE
8
BLACK
6
CONTINUOUS
10
58.3379209999999944
20
-96.1779459999999915
11
58.1476429999999951
21
-96.2397720000000021
0
LINE
8
BLACK
6
CONTINUOUS
10
58.1476429999999951
20
-96.2397720000000021
11
57.9500349999999997
21
-96.2710699999999946
0
LINE
8
BLACK
6
CONTINUOUS
10
57.9500349999999997
20
-96.2710699999999946
11
57.749964999999996
21
-96.2710699999999946
0
LINE
8
BLACK
6
CONTINUOUS
10
57.749964999999996
20
-96.2710699999999946
11
57.5523570000000007
21
-96.2397720000000021
0
LINE
8
BLACK
6
CONTINUOUS
10
57.5523570000000007
20
-96.2397720000000021
11
57.3620789999999943
21
-96.1779459999999915
0
LINE
8
BLACK
6
CONTINUOUS
10
57.3620789999999943
20
-96.1779459999999915
11
57.1838139999999981
21
-96.0871159999999946
0
LINE
8
BLACK
6
CONTINUOUS
10
57.1838139999999981
20
-96.0871159999999946
11
57.0219540000000009
21
-95.9695179999999937
0
LINE
8
BLACK
6
CONTINUOUS
10
57.0219540000000009
20
-95.9695179999999937
11
56.8804820000000007
21
-95.8280460000000005
0
LINE
8
BLACK
6
CONTINUOUS
10
56.8804820000000007
20
-95.8280460000000005
11
56.7628839999999997
21
-95.6661859999999962
0
LINE
8
BLACK
6
CONTINUOUS
10
56.7628839999999997
20
-95.6661859999999962
11
56.6720539999999957
21
-95.487921
0
LINE
8
BLACK
6
CONTINUOUS
10
56.6720539999999957
20
-95.487921
11
56.6102279999999993
21
-95.2976429999999937
0
LINE
8
BLACK
6
CONTINUOUS
10
56.6102279999999993
20
-95.2976429999999937
11
56.5789299999999997
21
-95.1000349999999912
0
LINE
8
BLACK
6
CONTINUOUS
10
56.5789299999999997
20
-95.1000349999999912
11
56.5789299999999997
21
-94.8999649999999946
0
LINE
8
BLACK
6
CONTINUOUS
10
56.5789299999999997
20
-94.8999649999999946
11
56.6102279999999993
21
-94.7023569999999921
0
LINE
8
BLACK
6
CONTINUOUS
10
56.6102279999999993
20
-94.7023569999999921
11
56.6720539999999957
21
-94.512079
0
LINE
8
BLACK
6
CONTINUOUS
10
56.6720539999999957
20
-94.512079
11
56.7628839999999997
21
-94.3338139999999896
0
LINE
8
BLACK
6
CONTINUOUS
10
56.7628839999999997
20
-94.3338139999999896
11
56.8804820000000007
21
-94.1719539999999995
0
LINE
8
BLACK
6
CONTINUOUS
10
56.8804820000000007
20
-94.1719539999999995
11
57.0219540000000009
21
-94.0304819999999921
0
LINE
8
BLACK
6
CONTINUOUS
10
57.0219540000000009
20
-94.0304819999999921
11
57.1838139999999981
21
-93.9128839999999911
0
LINE
8
BLACK
6
CONTINUOUS
10
57.1838139999999981
20
-93.9128839999999911
11
57.3620789999999943
21
-93.8220539999999943
0
LINE
8
BLACK
6
CONTINUOUS
10
57.3620789999999943
20
-93.8220539999999943
11
57.5523570000000007
21
-93.7602279999999979
0
LINE
8
BLACK
6
CONTINUOUS
10
57.5523570000000007
20
-93.7602279999999979
11
57.749964999999996
21
-93.7289299999999912
0
LINE
8
BLACK
6
CONTINUOUS
10
57.749964999999996
20
-93.7289299999999912
11
57.9500349999999997
21
-93.7289299999999912
0
LINE
8
BLACK
6
CONTINUOUS
10
57.9500349999999997
20
-93.7289299999999912
11
58.1476429999999951
21
-93.7602279999999979
0
LINE
8
BLACK
6
CONTINUOUS
10
65.6476430000000022
20
-93.7602279999999979
11
65.8379209999999944
21
-93.8220539999999943
0
LINE
8
BLACK
6
CONTINUOUS
10
65.8379209999999944
20
-93.8220539999999943
11
66.0161859999999905
21
-93.9128839999999911
0
LINE
8
BLACK
6
CONTINUOUS
10
66.0161859999999905
20
-93.9128839999999911
11
66.1780459999999948
21
-94.0304819999999921
0
LINE
8
BLACK
6
CONTINUOUS
10
66.1780459999999948
20
-94.0304819999999921
11
66.3195180000000022
21
-94.1719539999999995
0
LINE
8
BLACK
6
CONTINUOUS
10
66.3195180000000022
20
-94.1719539999999995
11
66.4371160000000032
21
-94.3338139999999896
0
LINE
8
BLACK
6
CONTINUOUS
10
66.4371160000000032
20
-94.3338139999999896
11
66.527946
21
-94.512079
0
LINE
8
BLACK
6
CONTINUOUS
10
66.527946
20
-94.512079
11
66.5897719999999964
21
-94.7023569999999921
0
LINE
8
BLACK
6
CONTINUOUS
10
66.5897719999999964
20
-94.7023569999999921
11
66.6210700000000031
21
-94.8999649999999946
0
LINE
8
BLACK
6
CONTINUOUS
10
66.6210700000000031
20
-94.8999649999999946
11
66.6210700000000031
21
-95.1000349999999912
0
LINE
8
BLACK
6
CONTINUOUS
10
66.6210700000000031
20
-95.1000349999999912
11
66.5897719999999964
21
-95.2976429999999937
0
LINE
8
BLACK
6
CONTINUOUS
10
66.5897719999999964
20
-95.2976429999999937
11
66.527946
21
-95.487921
0
LINE
8
BLACK
6
CONTINUOUS
10
66.527946
20
-95.487921
11
66.4371160000000032
21
-95.6661859999999962
0
LINE
8
BLACK
6
CONTINUOUS
10
66.4371160000000032
20
-95.6661859999999962
11
66.3195180000000022
21
-95.8280460000000005
0
LINE
8
BLACK
6
CONTINUOUS
10
66.3195180000000022
20
-95.8280460000000005
11
66.1780459999999948
21
-95.9695179999999937
0
LINE
8
BLACK
6
CONTINUOUS
10
66.1780459999999948
20
-95.9695179999999937
11
66.0161859999999905
21
-96.0871159999999946
0
LINE
8
BLACK
6
CONTINUOUS
10
66.0161859999999905
20
-96.0871159999999946
11
65.8379209999999944
21
-96.1779459999999915
0
LINE
8
BLACK
6
CONTINUOUS
10
65.8379209999999944
20
-96.1779459999999915
11
65.6476430000000022
21
-96.2397720000000021
0
LINE
8
BLACK
6
CONTINUOUS
10
65.6476430000000022
20
-96.2397720000000021
11
65.4500349999999997
21
-96.2710699999999946
0
LINE
8
BLACK
6
CONTINUOUS
10
65.4500349999999997
20
-96.2710699999999946
11
65.2499650000000031
21
-96.2710699999999946
0
LINE
8
BLACK
6
CONTINUOUS
10
65.2499650000000031
20
-96.2710699999999946
11
65.0523570000000007
21
-96.2397720000000021
0
LINE
8
BLACK
6
CONTINUOUS
10
65.0523570000000007
20
-96.2397720000000021
11
64.8620789999999943
21
-96.1779459999999915
0
LINE
8
BLACK
6
CONTINUOUS
10
64.8620789999999943
20
-96.1779459999999915
11
64.6838139999999981
21
-96.0871159999999946
0
LINE
8
BLACK
6
CONTINUOUS
10
64.6838139999999981
20
-96.0871159999999946
11
64.5219539999999938
21
-95.9695179999999937
0
LINE
8
BLACK
6
CONTINUOUS
10
64.5219539999999938
20
-95.9695179999999937
11
64.3804820000000007
21
-95.8280460000000005
0
LINE
8
BLACK
6
CONTINUOUS
10
64.3804820000000007
20
-95.8280460000000005
11
64.2628839999999997
21
-95.6661859999999962
0
LINE
8
BLACK
6
CONTINUOUS
10
64.2628839999999997
20
-95.6661859999999962
11
64.1720540000000028
21
-95.487921
0
LINE
8
BLACK
6
CONTINUOUS
10
64.1720540000000028
20
-95.487921
11
64.1102279999999922
21
-95.2976429999999937
0
LINE
8
BLACK
6
CONTINUOUS
10
64.1102279999999922
20
-95.2976429999999937
11
64.0789299999999997
21
-95.1000349999999912
0
LINE
8
BLACK
6
CONTINUOUS
10
64.0789299999999997
20
-95.1000349999999912
11
64.0789299999999997
21
-94.8999649999999946
0
LINE
8
BLACK
6
CONTINUOUS
10
64.0789299999999997
20
-94.8999649999999946
11
64.1102279999999922
21
-94.7023569999999921
0
LINE
8
BLACK
6
CONTINUOUS
10
64.1102279999999922
20
-94.7023569999999921
11
64.1720540000000028
21
-94.512079
0
LINE
8
BLACK
6
CONTINUOUS
10
64.1720540000000028
20
-94.512079
11
64.2628839999999997
21
-94.3338139999999896
0
LINE
8
BLACK
6
CONTINUOUS
10
64.2628839999999997
20
-94.3338139999999896
11
64.3804820000000007
21
-94.1719539999999995
0
LINE
8
BLACK
6
CONTINUOUS
10
64.3804820000000007
20
-94.1719539999999995
11
64.5219539999999938
21
-94.0304819999999921
0
LINE
8
BLACK
6
CONTINUOUS
10
64.5219539999999938
20
-94.0304819999999921
11
64.6838139999999981
21
-93.9128839999999911
0
LINE
8
BLACK
6
CONTINUOUS
10
64.6838139999999981
20
-93.9128839999999911
11
64.8620789999999943
21
-93.8220539999999943
0
LINE
8
BLACK
6
CONTINUOUS
10
64.8620789999999943
20
-93.8220539999999943
11
65.0523570000000007
21
-93.7602279999999979
0
LINE
8
BLACK
6
CONTINUOUS
10
65.0523570000000007
20
-93.7602279999999979
11
65.2499650000000031
21
-93.7289299999999912
0
LINE
8
BLACK
6
CONTINUOUS
10
65.2499650000000031
20
-93.7289299999999912
11
65.4500349999999997
21
-93.7289299999999912
0
LINE
8
BLACK
6
CONTINUOUS
10
65.4500349999999997
20
-93.7289299999999912
11
65.6476430000000022
21
-93.7602279999999979
0
LINE
8
BLACK
6
CONTINUOUS
10
82.9476429999999993
20
-93.7602279999999979
11
83.1379209999999915
21
-93.8220539999999943
0
LINE
8
BLACK
6
CONTINUOUS
10
83.1379209999999915
20
-93.8220539999999943
11
83.3161860000000019
21
-93.9128839999999911
0
LINE
8
BLACK
6
CONTINUOUS
10
83.3161860000000019
20
-93.9128839999999911
11
83.478045999999992
21
-94.0304819999999921
0
LINE
8
BLACK
6
CONTINUOUS
10
83.478045999999992
20
-94.0304819999999921
11
83.6195179999999993
21
-94.1719539999999995
0
LINE
8
BLACK
6
CONTINUOUS
10
83.6195179999999993
20
-94.1719539999999995
11
83.7371160000000003
21
-94.3338139999999896
0
LINE
8
BLACK
6
CONTINUOUS
10
83.7371160000000003
20
-94.3338139999999896
11
83.8279459999999972
21
-94.512079
0
LINE
8
BLACK
6
CONTINUOUS
10
83.8279459999999972
20
-94.512079
11
83.8897719999999936
21
-94.7023569999999921
0
LINE
8
BLACK
6
CONTINUOUS
10
83.8897719999999936
20
-94.7023569999999921
11
83.9210700000000003
21
-94.8999649999999946
0
LINE
8
BLACK
6
CONTINUOUS
10
83.9210700000000003
20
-94.8999649999999946
11
83.9210700000000003
21
-95.1000349999999912
0
LINE
8
BLACK
6
CONTINUOUS
10
83.9210700000000003
20
-95.1000349999999912
11
83.8897719999999936
21
-95.2976429999999937
0
LINE
8
BLACK
6
CONTINUOUS
10
83.8897719999999936
20
-95.2976429999999937
11
83.8279459999999972
21
-95.487921
0
LINE
8
BLACK
6
CONTINUOUS
10
83.8279459999999972
20
-95.487921
11
83.7371160000000003
21
-95.6661859999999962
0
LINE
8
BLACK
6
CONTINUOUS
10
83.7371160000000003
20
-95.6661859999999962
11
83.6195179999999993
21
-95.8280460000000005
0
LINE
8
BLACK
6
CONTINUOUS
10
83.6195179999999993
20
-95.8280460000000005
11
83.478045999999992
21
-95.9695179999999937
0
LINE
8
BLACK
6
CONTINUOUS
10
83.478045999999992
20
-95.9695179999999937
11
83.3161860000000019
21
-96.0871159999999946
0
LINE
8
BLACK
6
CONTINUOUS
10
83.3161860000000019
20
-96.0871159999999946
11
83.1379209999999915
21
-96.1779459999999915
0
LINE
8
BLACK
6
CONTINUOUS
10
83.1379209999999915
20
-96.1779459999999915
11
82.9476429999999993
21
-96.2397720000000021
0
LINE
8
BLACK
6
CONTINUOUS
10
82.9476429999999993
20
-96.2397720000000021
11
82.7500349999999969
21
-96.2710699999999946
0
LINE
8
BLACK
6
CONTINUOUS
10
82.7500349999999969
20
-96.2710699999999946
11
82.5499650000000003
21
-96.2710699999999946
0
LINE
8
BLACK
6
CONTINUOUS
10
82.5499650000000003
20
-96.2710699999999946
11
82.3523569999999978
21
-96.2397720000000021
0
LINE
8
BLACK
6
CONTINUOUS
10
82.3523569999999978
20
-96.2397720000000021
11
82.1620789999999914
21
-96.1779459999999915
0
LINE
8
BLACK
6
CONTINUOUS
10
82.1620789999999914
20
-96.1779459999999915
11
81.9838139999999953
21
-96.0871159999999946
0
LINE
8
BLACK
6
CONTINUOUS
10
81.9838139999999953
20
-96.0871159999999946
11
81.821953999999991
21
-95.9695179999999937
0
LINE
8
BLACK
6
CONTINUOUS
10
81.821953999999991
20
-95.9695179999999937
11
81.6804819999999978
21
-95.8280460000000005
0
LINE
8
BLACK
6
CONTINUOUS
10
81.6804819999999978
20
-95.8280460000000005
11
81.5628839999999968
21
-95.6661859999999962
0
LINE
8
BLACK
6
CONTINUOUS
10
81.5628839999999968
20
-95.6661859999999962
11
81.472054
21
-95.487921
0
LINE
8
BLACK
6
CONTINUOUS
10
81.472054
20
-95.487921
11
81.4102279999999894
21
-95.2976429999999937
0
LINE
8
BLACK
6
CONTINUOUS
10
81.4102279999999894
20
-95.2976429999999937
11
81.3789299999999969
21
-95.1000349999999912
0
LINE
8
BLACK
6
CONTINUOUS
10
81.3789299999999969
20
-95.1000349999999912
11
81.3789299999999969
21
-94.8999649999999946
0
LINE
8
BLACK
6
CONTINUOUS
10
81.3789299999999969
20
-94.8999649999999946
11
81.4102279999999894
21
-94.7023569999999921
0
LINE
8
BLACK
6
CONTINUOUS
10
81.4102279999999894
20
-94.7023569999999921
11
81.472054
21
-94.512079
0
LINE
8
BLACK
6
CONTINUOUS
10
81.472054
20
-94.512079
11
81.5628839999999968
21
-94.3338139999999896
0
LINE
8
BLACK
6
CONTINUOUS
10
81.5628839999999968
20
-94.3338139999999896
11
81.6804819999999978
21
-94.1719539999999995
0
LINE
8
BLACK
6
CONTINUOUS
10
81.6804819999999978
20
-94.1719539999999995
11
81.821953999999991
21
-94.0304819999999921
0
LINE
8
BLACK
6
CONTINUOUS
10
81.821953999999991
20
-94.0304819999999921
11
81.9838139999999953
21
-93.9128839999999911
0
LINE
8
BLACK
6
CONTINUOUS
10
81.9838139999999953
20
-93.9128839999999911
11
82.1620789999999914
21
-93.8220539999999943
0
LINE
8
BLACK
6
CONTINUOUS
10
82.1620789999999914
20
-93.8220539999999943
11
82.3523569999999978
21
-93.7602279999999979
0
LINE
8
BLACK
6
CONTINUOUS
10
82.3523569999999978
20
-93.7602279999999979
11
82.5499650000000003
21
-93.7289299999999912
0
LINE
8
BLACK
6
CONTINUOUS
10
82.5499650000000003
20
-93.7289299999999912
11
82.7500349999999969
21
-93.7289299999999912
0
LINE
8
BLACK
6
CONTINUOUS
10
82.7500349999999969
20
-93.7289299999999912
11
82.9476429999999993
21
-93.7602279999999979
0
LINE
8
BLACK
6
CONTINUOUS
10
90.4476429999999993
20
-93.7602279999999979
11
90.6379209999999915
21
-93.8220539999999943
0
LINE
8
BLACK
6
CONTINUOUS
10
90.6379209999999915
20
-93.8220539999999943
11
90.8161860000000019
21
-93.9128839999999911
0
LINE
8
BLACK
6
CONTINUOUS
10
90.8161860000000019
20
-93.9128839999999911
11
90.978045999999992
21
-94.0304819999999921
0
LINE
8
BLACK
6
CONTINUOUS
10
90.978045999999992
20
-94.0304819999999921
11
91.1195179999999993
21
-94.1719539999999995
0
LINE
8
BLACK
6
CONTINUOUS
10
91.1195179999999993
20
-94.1719539999999995
11
91.2371160000000003
21
-94.3338139999999896
0
LINE
8
BLACK
6
CONTINUOUS
10
91.2371160000000003
20
-94.3338139999999896
11
91.3279459999999972
21
-94.512079
0
LINE
8
BLACK
6
CONTINUOUS
10
91.3279459999999972
20
-94.512079
11
91.3897719999999936
21
-94.7023569999999921
0
LINE
8
BLACK
6
CONTINUOUS
10
91.3897719999999936
20
-94.7023569999999921
11
91.4210700000000003
21
-94.8999649999999946
0
LINE
8
BLACK
6
CONTINUOUS
10
91.4210700000000003
20
-94.8999649999999946
11
91.4210700000000003
21
-95.1000349999999912
0
LINE
8
BLACK
6
CONTINUOUS
10
91.4210700000000003
20
-95.1000349999999912
11
91.3897719999999936
21
-95.2976429999999937
0
LINE
8
BLACK
6
CONTINUOUS
10
91.3897719999999936
20
-95.2976429999999937
11
91.3279459999999972
21
-95.487921
0
LINE
8
BLACK
6
CONTINUOUS
10
91.3279459999999972
20
-95.487921
11
91.2371160000000003
21
-95.6661859999999962
0
LINE
8
BLACK
6
CONTINUOUS
10
91.2371160000000003
20
-95.6661859999999962
11
91.1195179999999993
21
-95.8280460000000005
0
LINE
8
BLACK
6
CONTINUOUS
10
91.1195179999999993
20
-95.8280460000000005
11
90.978045999999992
21
-95.9695179999999937
0
LINE
8
BLACK
6
CONTINUOUS
10
90.978045999999992
20
-95.9695179999999937
11
90.8161860000000019
21
-96.0871159999999946
0
LINE
8
BLACK
6
CONTINUOUS
10
90.8161860000000019
20
-96.0871159999999946
11
90.6379209999999915
21
-96.1779459999999915
0
LINE
8
BLACK
6
CONTINUOUS
10
90.6379209999999915
20
-96.1779459999999915
11
90.4476429999999993
21
-96.2397720000000021
0
LINE
8
BLACK
6
CONTINUOUS
10
90.4476429999999993
20
-96.2397720000000021
11
90.2500349999999969
21
-96.2710699999999946
0
LINE
8
BLACK
6
CONTINUOUS
10
90.2500349999999969
20
-96.2710699999999946
11
90.0499650000000003
21
-96.2710699999999946
0
LINE
8
BLACK
6
CONTINUOUS
10
90.0499650000000003
20
-96.2710699999999946
11
89.8523569999999978
21
-96.2397720000000021
0
LINE
8
BLACK
6
CONTINUOUS
10
89.8523569999999978
20
-96.2397720000000021
11
89.6620789999999914
21
-96.1779459999999915
0
LINE
8
BLACK
6
CONTINUOUS
10
89.6620789999999914
20
-96.1779459999999915
11
89.4838139999999953
21
-96.0871159999999946
0
LINE
8
BLACK
6
CONTINUOUS
10
89.4838139999999953
20
-96.0871159999999946
11
89.321953999999991
21
-95.9695179999999937
0
LINE
8
BLACK
6
CONTINUOUS
10
89.321953999999991
20
-95.9695179999999937
11
89.1804819999999978
21
-95.8280460000000005
0
LINE
8
BLACK
6
CONTINUOUS
10
89.1804819999999978
20
-95.8280460000000005
11
89.0628839999999968
21
-95.6661859999999962
0
LINE
8
BLACK
6
CONTINUOUS
10
89.0628839999999968
20
-95.6661859999999962
11
88.972054
21
-95.487921
0
LINE
8
BLACK
6
CONTINUOUS
10
88.972054
20
-95.487921
11
88.9102279999999894
21
-95.2976429999999937
0
LINE
8
BLACK
6
CONTINUOUS
10
88.9102279999999894
20
-95.2976429999999937
11
88.8789299999999969
21
-95.1000349999999912
0
LINE
8
BLACK
6
CONTINUOUS
10
88.8789299999999969
20
-95.1000349999999912
11
88.8789299999999969
21
-94.8999649999999946
0
LINE
8
BLACK
6
CONTINUOUS
10
88.8789299999999969
20
-94.8999649999999946
11
88.9102279999999894
21
-94.7023569999999921
0
LINE
8
BLACK
6
CONTINUOUS
10
88.9102279999999894
20
-94.7023569999999921
11
88.972054
21
-94.512079
0
LINE
8
BLACK
6
CONTINUOUS
10
88.972054
20
-94.512079
11
89.0628839999999968
21
-94.3338139999999896
0
LINE
8
BLACK
6
CONTINUOUS
10
89.0628839999999968
20
-94.3338139999999896
11
89.1804819999999978
21
-94.1719539999999995
0
LINE
8
BLACK
6
CONTINUOUS
10
89.1804819999999978
20
-94.1719539999999995
11
89.321953999999991
21
-94.0304819999999921
0
LINE
8
BLACK
6
CONTINUOUS
10
89.321953999999991
20
-94.0304819999999921
11
89.4838139999999953
21
-93.9128839999999911
0
LINE
8
BLACK
6
CONTINUOUS
10
89.4838139999999953
20
-93.9128839999999911
11
89.6620789999999914
21
-93.8220539999999943
0
LINE
8
BLACK
6
CONTINUOUS
10
89.6620789999999914
20
-93.8220539999999943
11
89.8523569999999978
21
-93.7602279999999979
0
LINE
8
BLACK
6
CONTINUOUS
10
89.8523569999999978
20
-93.7602279999999979
11
90.0499650000000003
21
-93.7289299999999912
0
LINE
8
BLACK
6
CONTINUOUS
10
90.0499650000000003
20
-93.7289299999999912
11
90.2500349999999969
21
-93.7289299999999912
0
LINE
8
BLACK
6
CONTINUOUS
10
90.2500349999999969
20
-93.7289299999999912
11
90.4476429999999993
21
-93.7602279999999979
0
LINE
8
BLACK
6
CONTINUOUS
10
14.695670999999999
20
-94.0190300000000008
11
14.7767769999999992
21
-94.0732229999999987
0
LINE
8
BLACK
6
CONTINUOUS
10
14.7767769999999992
20
-94.0732229999999987
11
14.8309699999999989
21
-94.1543289999999899
0
LINE
8
BLACK
6
CONTINUOUS
10
14.8309699999999989
20
-94.1543289999999899
11
14.8499999999999996
21
-94.25
0
LINE
8
BLACK
6
CONTINUOUS
10
14.8499999999999996
20
-94.25
11
14.8499999999999996
21
-95.75
0
LINE
8
BLACK
6
CONTINUOUS
10
14.8499999999999996
20
-95.75
11
14.8309699999999989
21
-95.8456709999999958
0
LINE
8
BLACK
6
CONTINUOUS
10
14.8309699999999989
20
-95.8456709999999958
11
14.7767769999999992
21
-95.9267770000000013
0
LINE
8
BLACK
6
CONTINUOUS
10
14.7767769999999992
20
-95.9267770000000013
11
14.695670999999999
21
-95.9809699999999992
0
LINE
8
BLACK
6
CONTINUOUS
10
14.695670999999999
20
-95.9809699999999992
11
14.5999999999999996
21
-96.
0
LINE
8
BLACK
6
CONTINUOUS
10
14.5999999999999996
20
-96.
11
13.3999999999999986
21
-96.
0
LINE
8
BLACK
6
CONTINUOUS
10
13.3999999999999986
20
-96.
11
13.3043289999999992
21
-95.9809699999999992
0
LINE
8
BLACK
6
CONTINUOUS
10
13.3043289999999992
20
-95.9809699999999992
11
13.2232229999999991
21
-95.9267770000000013
0
LINE
8
BLACK
6
CONTINUOUS
10
13.2232229999999991
20
-95.9267770000000013
11
13.1690299999999993
21
-95.8456709999999958
0
LINE
8
BLACK
6
CONTINUOUS
10
13.1690299999999993
20
-95.8456709999999958
11
13.1499999999999986
21
-95.75
0
LINE
8
BLACK
6
CONTINUOUS
10
13.1499999999999986
20
-95.75
11
13.1499999999999986
21
-94.25
0
LINE
8
BLACK
6
CONTINUOUS
10
13.1499999999999986
20
-94.25
11
13.1690299999999993
21
-94.1543289999999899
0
LINE
8
BLACK
6
CONTINUOUS
10
13.1690299999999993
20
-94.1543289999999899
11
13.2232229999999991
21
-94.0732229999999987
0
LINE
8
BLACK
6
CONTINUOUS
10
13.2232229999999991
20
-94.0732229999999987
11
13.3043289999999992
21
-94.0190300000000008
0
LINE
8
BLACK
6
CONTINUOUS
10
13.3043289999999992
20
-94.0190300000000008
11
13.3999999999999986
21
-94.
0
LINE
8
BLACK
6
CONTINUOUS
10
13.3999999999999986
20
-94.
11
14.5999999999999996
21
-94.
0
LINE
8
BLACK
6
CONTINUOUS
10
14.5999999999999996
20
-94.
11
14.695670999999999
21
-94.0190300000000008
0
LINE
8
BLACK
6
CONTINUOUS
10
11.7467419999999994
20
-94.0366009999999903
11
11.9006869999999996
21
-94.1003669999999914
0
LINE
8
BLACK
6
CONTINUOUS
10
11.9006869999999996
20
-94.1003669999999914
11
12.0392339999999987
21
-94.1929409999999905
0
LINE
8
BLACK
6
CONTINUOUS
10
12.0392339999999987
20
-94.1929409999999905
11
12.1570590000000003
21
-94.310766000000001
0
LINE
8
BLACK
6
CONTINUOUS
10
12.1570590000000003
20
-94.310766000000001
11
12.2496329999999993
21
-94.4493129999999894
0
LINE
8
BLACK
6
CONTINUOUS
10
12.2496329999999993
20
-94.4493129999999894
11
12.3133989999999987
21
-94.6032579999999967
0
LINE
8
BLACK
6
CONTINUOUS
10
12.3133989999999987
20
-94.6032579999999967
11
12.3459069999999986
21
-94.7666849999999954
0
LINE
8
BLACK
6
CONTINUOUS
10
12.3459069999999986
20
-94.7666849999999954
11
12.3499999999999996
21
-94.8499999999999943
0
LINE
8
BLACK
6
CONTINUOUS
10
12.3499999999999996
20
-94.8499999999999943
11
12.3499999999999996
21
-95.1499999999999915
0
LINE
8
BLACK
6
CONTINUOUS
10
12.3499999999999996
20
-95.1499999999999915
11
12.3459069999999986
21
-95.2333149999999904
0
LINE
8
BLACK
6
CONTINUOUS
10
12.3459069999999986
20
-95.2333149999999904
11
12.3133989999999987
21
-95.396741999999989
0
LINE
8
BLACK
6
CONTINUOUS
10
12.3133989999999987
20
-95.396741999999989
11
12.2496329999999993
21
-95.5506869999999964
0
LINE
8
BLACK
6
CONTINUOUS
10
12.2496329999999993
20
-95.5506869999999964
11
12.1570590000000003
21
-95.689233999999999
0
LINE
8
BLACK
6
CONTINUOUS
10
12.1570590000000003
20
-95.689233999999999
11
12.0392339999999987
21
-95.8070589999999953
0
LINE
8
BLACK
6
CONTINUOUS
10
12.0392339999999987
20
-95.8070589999999953
11
11.9006869999999996
21
-95.8996329999999944
0
LINE
8
BLACK
6
CONTINUOUS
10
11.9006869999999996
20
-95.8996329999999944
11
11.7467419999999994
21
-95.9633989999999955
0
LINE
8
BLACK
6
CONTINUOUS
10
11.7467419999999994
20
-95.9633989999999955
11
11.5833149999999989
21
-95.9959070000000025
0
LINE
8
BLACK
6
CONTINUOUS
10
11.5833149999999989
20
-95.9959070000000025
11
11.4166849999999993
21
-95.9959070000000025
0
LINE
8
BLACK
6
CONTINUOUS
10
11.4166849999999993
20
-95.9959070000000025
11
11.2532579999999989
21
-95.9633989999999955
0
LINE
8
BLACK
6
CONTINUOUS
10
11.2532579999999989
20
-95.9633989999999955
11
11.0993129999999987
21
-95.8996329999999944
0
LINE
8
BLACK
6
CONTINUOUS
10
11.0993129999999987
20
-95.8996329999999944
11
10.9607659999999996
21
-95.8070589999999953
0
LINE
8
BLACK
6
CONTINUOUS
10
10.9607659999999996
20
-95.8070589999999953
11
10.8429409999999997
21
-95.689233999999999
0
LINE
8
BLACK
6
CONTINUOUS
10
10.8429409999999997
20
-95.689233999999999
11
10.7503669999999989
21
-95.5506869999999964
0
LINE
8
BLACK
6
CONTINUOUS
10
10.7503669999999989
20
-95.5506869999999964
11
10.6866009999999996
21
-95.396741999999989
0
LINE
8
BLACK
6
CONTINUOUS
10
10.6866009999999996
20
-95.396741999999989
11
10.6540929999999996
21
-95.2333149999999904
0
LINE
8
BLACK
6
CONTINUOUS
10
10.6540929999999996
20
-95.2333149999999904
11
10.6500000000000004
21
-95.1499999999999915
0
LINE
8
BLACK
6
CONTINUOUS
10
10.6500000000000004
20
-95.1499999999999915
11
10.6500000000000004
21
-94.8499999999999943
0
LINE
8
BLACK
6
CONTINUOUS
10
10.6500000000000004
20
-94.8499999999999943
11
10.6540929999999996
21
-94.7666849999999954
0
LINE
8
BLACK
6
CONTINUOUS
10
10.6540929999999996
20
-94.7666849999999954
11
10.6866009999999996
21
-94.6032579999999967
0
LINE
8
BLACK
6
CONTINUOUS
10
10.6866009999999996
20
-94.6032579999999967
11
10.7503669999999989
21
-94.4493129999999894
0
LINE
8
BLACK
6
CONTINUOUS
10
10.7503669999999989
20
-94.4493129999999894
11
10.8429409999999997
21
-94.310766000000001
0
LINE
8
BLACK
6
CONTINUOUS
10
10.8429409999999997
20
-94.310766000000001
11
10.9607659999999996
21
-94.1929409999999905
0
LINE
8
BLACK
6
CONTINUOUS
10
10.9607659999999996
20
-94.1929409999999905
11
11.0993129999999987
21
-94.1003669999999914
0
LINE
8
BLACK
6
CONTINUOUS
10
11.0993129999999987
20
-94.1003669999999914
11
11.2532579999999989
21
-94.0366009999999903
0
LINE
8
BLACK
6
CONTINUOUS
10
11.2532579999999989
20
-94.0366009999999903
11
11.4166849999999993
21
-94.0040929999999975
0
LINE
8
BLACK
6
CONTINUOUS
10
11.4166849999999993
20
-94.0040929999999975
11
11.5833149999999989
21
-94.0040929999999975
0
LINE
8
BLACK
6
CONTINUOUS
10
11.5833149999999989
20
-94.0040929999999975
11
11.7467419999999994
21
-94.0366009999999903
0
LINE
8
BLACK
6
CONTINUOUS
10
96.0706709999999902
20
-87.9190299999999922
11
96.1517769999999956
21
-87.9732229999999902
0
LINE
8
BLACK
6
CONTINUOUS
10
96.1517769999999956
20
-87.9732229999999902
11
96.2059699999999935
21
-88.0543289999999956
0
LINE
8
BLACK
6
CONTINUOUS
10
96.2059699999999935
20
-88.0543289999999956
11
96.2249999999999943
21
-88.1499999999999915
0
LINE
8
BLACK
6
CONTINUOUS
10
96.2249999999999943
20
-88.1499999999999915
11
96.2249999999999943
21
-89.3499999999999943
0
LINE
8
BLACK
6
CONTINUOUS
10
96.2249999999999943
20
-89.3499999999999943
11
96.2059699999999935
21
-89.4456709999999902
0
LINE
8
BLACK
6
CONTINUOUS
10
96.2059699999999935
20
-89.4456709999999902
11
96.1517769999999956
21
-89.5267769999999956
0
LINE
8
BLACK
6
CONTINUOUS
10
96.1517769999999956
20
-89.5267769999999956
11
96.0706709999999902
21
-89.5809699999999935
0
LINE
8
BLACK
6
CONTINUOUS
10
96.0706709999999902
20
-89.5809699999999935
11
95.9749999999999943
21
-89.5999999999999943
0
LINE
8
BLACK
6
CONTINUOUS
10
95.9749999999999943
20
-89.5999999999999943
11
94.4749999999999943
21
-89.5999999999999943
0
LINE
8
BLACK
6
CONTINUOUS
10
94.4749999999999943
20
-89.5999999999999943
11
94.3793289999999985
21
-89.5809699999999935
0
LINE
8
BLACK
6
CONTINUOUS
10
94.3793289999999985
20
-89.5809699999999935
11
94.298222999999993
21
-89.5267769999999956
0
LINE
8
BLACK
6
CONTINUOUS
10
94.298222999999993
20
-89.5267769999999956
11
94.2440299999999951
21
-89.4456709999999902
0
LINE
8
BLACK
6
CONTINUOUS
10
94.2440299999999951
20
-89.4456709999999902
11
94.2249999999999943
21
-89.3499999999999943
0
LINE
8
BLACK
6
CONTINUOUS
10
94.2249999999999943
20
-89.3499999999999943
11
94.2249999999999943
21
-88.1499999999999915
0
LINE
8
BLACK
6
CONTINUOUS
10
94.2249999999999943
20
-88.1499999999999915
11
94.2440299999999951
21
-88.0543289999999956
0
LINE
8
BLACK
6
CONTINUOUS
10
94.2440299999999951
20
-88.0543289999999956
11
94.298222999999993
21
-87.9732229999999902
0
LINE
8
BLACK
6
CONTINUOUS
10
94.298222999999993
20
-87.9732229999999902
11
94.3793289999999985
21
-87.9190299999999922
0
LINE
8
BLACK
6
CONTINUOUS
10
94.3793289999999985
20
-87.9190299999999922
11
94.4749999999999943
21
-87.8999999999999915
0
LINE
8
BLACK
6
CONTINUOUS
10
94.4749999999999943
20
-87.8999999999999915
11
95.9749999999999943
21
-87.8999999999999915
0
LINE
8
BLACK
6
CONTINUOUS
10
95.9749999999999943
20
-87.8999999999999915
11
96.0706709999999902
21
-87.9190299999999922
0
LINE
8
BLACK
6
CONTINUOUS
10
62.3277849999999987
20
-85.355559999999997
11
62.5088969999999975
21
-85.4305789999999945
0
LINE
8
BLACK
6
CONTINUOUS
10
62.5088969999999975
20
-85.4305789999999945
11
62.6718929999999972
21
-85.5394900000000007
0
LINE
8
BLACK
6
CONTINUOUS
10
62.6718929999999972
20
-85.5394900000000007
11
62.8105099999999936
21
-85.6781069999999971
0
LINE
8
BLACK
6
CONTINUOUS
10
62.8105099999999936
20
-85.6781069999999971
11
62.9194209999999998
21
-85.8411029999999897
0
LINE
8
BLACK
6
CONTINUOUS
10
62.9194209999999998
20
-85.8411029999999897
11
62.9944399999999973
21
-86.0222150000000028
0
LINE
8
BLACK
6
CONTINUOUS
10
62.9944399999999973
20
-86.0222150000000028
11
63.0326849999999936
21
-86.2144830000000013
0
LINE
8
BLACK
6
CONTINUOUS
10
63.0326849999999936
20
-86.2144830000000013
11
63.0326849999999936
21
-86.4105169999999987
0
LINE
8
BLACK
6
CONTINUOUS
10
63.0326849999999936
20
-86.4105169999999987
11
62.9944399999999973
21
-86.6027849999999972
0
LINE
8
BLACK
6
CONTINUOUS
10
62.9944399999999973
20
-86.6027849999999972
11
62.9194209999999998
21
-86.7838969999999961
0
LINE
8
BLACK
6
CONTINUOUS
10
62.9194209999999998
20
-86.7838969999999961
11
62.8105099999999936
21
-86.9468930000000029
0
LINE
8
BLACK
6
CONTINUOUS
10
62.8105099999999936
20
-86.9468930000000029
11
62.6718929999999972
21
-87.0855099999999993
0
LINE
8
BLACK
6
CONTINUOUS
10
62.6718929999999972
20
-87.0855099999999993
11
62.5088969999999975
21
-87.1944209999999913
0
LINE
8
BLACK
6
CONTINUOUS
10
62.5088969999999975
20
-87.1944209999999913
11
62.3277849999999987
21
-87.269440000000003
0
LINE
8
BLACK
6
CONTINUOUS
10
62.3277849999999987
20
-87.269440000000003
11
62.1355170000000001
21
-87.3076849999999922
0
LINE
8
BLACK
6
CONTINUOUS
10
62.1355170000000001
20
-87.3076849999999922
11
61.9394829999999956
21
-87.3076849999999922
0
LINE
8
BLACK
6
CONTINUOUS
10
61.9394829999999956
20
-87.3076849999999922
11
61.7472149999999971
21
-87.269440000000003
0
LINE
8
BLACK
6
CONTINUOUS
10
61.7472149999999971
20
-87.269440000000003
11
61.5661029999999982
21
-87.1944209999999913
0
LINE
8
BLACK
6
CONTINUOUS
10
61.5661029999999982
20
-87.1944209999999913
11
61.4031069999999985
21
-87.0855099999999993
0
LINE
8
BLACK
6
CONTINUOUS
10
61.4031069999999985
20
-87.0855099999999993
11
61.264489999999995
21
-86.9468930000000029
0
LINE
8
BLACK
6
CONTINUOUS
10
61.264489999999995
20
-86.9468930000000029
11
61.1555789999999959
21
-86.7838969999999961
0
LINE
8
BLACK
6
CONTINUOUS
10
61.1555789999999959
20
-86.7838969999999961
11
61.0805599999999984
21
-86.6027849999999972
0
LINE
8
BLACK
6
CONTINUOUS
10
61.0805599999999984
20
-86.6027849999999972
11
61.042314999999995
21
-86.4105169999999987
0
LINE
8
BLACK
6
CONTINUOUS
10
61.042314999999995
20
-86.4105169999999987
11
61.042314999999995
21
-86.2144830000000013
0
LINE
8
BLACK
6
CONTINUOUS
10
61.042314999999995
20
-86.2144830000000013
11
61.0805599999999984
21
-86.0222150000000028
0
LINE
8
BLACK
6
CONTINUOUS
10
61.0805599999999984
20
-86.0222150000000028
11
61.1555789999999959
21
-85.8411029999999897
0
LINE
8
BLACK
6
CONTINUOUS
10
61.1555789999999959
20
-85.8411029999999897
11
61.264489999999995
21
-85.6781069999999971
0
LINE
8
BLACK
6
CONTINUOUS
10
61.264489999999995
20
-85.6781069999999971
11
61.4031069999999985
21
-85.5394900000000007
0
LINE
8
BLACK
6
CONTINUOUS
10
61.4031069999999985
20
-85.5394900000000007
11
61.5661029999999982
21
-85.4305789999999945
0
LINE
8
BLACK
6
CONTINUOUS
10
61.5661029999999982
20
-85.4305789999999945
11
61.7472149999999971
21
-85.355559999999997
0
LINE
8
BLACK
6
CONTINUOUS
10
61.7472149999999971
20
-85.355559999999997
11
61.9394829999999956
21
-85.3173149999999936
0
LINE
8
BLACK
6
CONTINUOUS
10
61.9394829999999956
20
-85.3173149999999936
11
62.1355170000000001
21
-85.3173149999999936
0
LINE
8
BLACK
6
CONTINUOUS
10
62.1355170000000001
20
-85.3173149999999936
11
62.3277849999999987
21
-85.355559999999997
0
LINE
8
BLACK
6
CONTINUOUS
10
87.3277849999999916
20
-85.355559999999997
11
87.5088969999999904
21
-85.4305789999999945
0
LINE
8
BLACK
6
CONTINUOUS
10
87.5088969999999904
20
-85.4305789999999945
11
87.6718929999999972
21
-85.5394900000000007
0
LINE
8
BLACK
6
CONTINUOUS
10
87.6718929999999972
20
-85.5394900000000007
11
87.8105099999999936
21
-85.6781069999999971
0
LINE
8
BLACK
6
CONTINUOUS
10
87.8105099999999936
20
-85.6781069999999971
11
87.9194209999999998
21
-85.8411029999999897
0
LINE
8
BLACK
6
CONTINUOUS
10
87.9194209999999998
20
-85.8411029999999897
11
87.9944399999999973
21
-86.0222150000000028
0
LINE
8
BLACK
6
CONTINUOUS
10
87.9944399999999973
20
-86.0222150000000028
11
88.0326850000000007
21
-86.2144830000000013
0
LINE
8
BLACK
6
CONTINUOUS
10
88.0326850000000007
20
-86.2144830000000013
11
88.0326850000000007
21
-86.4105169999999987
0
LINE
8
BLACK
6
CONTINUOUS
10
88.0326850000000007
20
-86.4105169999999987
11
87.9944399999999973
21
-86.6027849999999972
0
LINE
8
BLACK
6
CONTINUOUS
10
87.9944399999999973
20
-86.6027849999999972
11
87.9194209999999998
21
-86.7838969999999961
0
LINE
8
BLACK
6
CONTINUOUS
10
87.9194209999999998
20
-86.7838969999999961
11
87.8105099999999936
21
-86.9468930000000029
0
LINE
8
BLACK
6
CONTINUOUS
10
87.8105099999999936
20
-86.9468930000000029
11
87.6718929999999972
21
-87.0855099999999993
0
LINE
8
BLACK
6
CONTINUOUS
10
87.6718929999999972
20
-87.0855099999999993
11
87.5088969999999904
21
-87.1944209999999913
0
LINE
8
BLACK
6
CONTINUOUS
10
87.5088969999999904
20
-87.1944209999999913
11
87.3277849999999916
21
-87.269440000000003
0
LINE
8
BLACK
6
CONTINUOUS
10
87.3277849999999916
20
-87.269440000000003
11
87.135516999999993
21
-87.3076849999999922
0
LINE
8
BLACK
6
CONTINUOUS
10
87.135516999999993
20
-87.3076849999999922
11
86.9394829999999956
21
-87.3076849999999922
0
LINE
8
BLACK
6
CONTINUOUS
10
86.9394829999999956
20
-87.3076849999999922
11
86.7472149999999971
21
-87.269440000000003
0
LINE
8
BLACK
6
CONTINUOUS
10
86.7472149999999971
20
-87.269440000000003
11
86.5661029999999982
21
-87.1944209999999913
0
LINE
8
BLACK
6
CONTINUOUS
10
86.5661029999999982
20
-87.1944209999999913
11
86.4031069999999914
21
-87.0855099999999993
0
LINE
8
BLACK
6
CONTINUOUS
10
86.4031069999999914
20
-87.0855099999999993
11
86.264489999999995
21
-86.9468930000000029
0
LINE
8
BLACK
6
CONTINUOUS
10
86.264489999999995
20
-86.9468930000000029
11
86.155579000000003
21
-86.7838969999999961
0
LINE
8
BLACK
6
CONTINUOUS
10
86.155579000000003
20
-86.7838969999999961
11
86.0805599999999913
21
-86.6027849999999972
0
LINE
8
BLACK
6
CONTINUOUS
10
86.0805599999999913
20
-86.6027849999999972
11
86.0423150000000021
21
-86.4105169999999987
0
LINE
8
BLACK
6
CONTINUOUS
10
86.0423150000000021
20
-86.4105169999999987
11
86.0423150000000021
21
-86.2144830000000013
0
LINE
8
BLACK
6
CONTINUOUS
10
86.0423150000000021
20
-86.2144830000000013
11
86.0805599999999913
21
-86.0222150000000028
0
LINE
8
BLACK
6
CONTINUOUS
10
86.0805599999999913
20
-86.0222150000000028
11
86.155579000000003
21
-85.8411029999999897
0
LINE
8
BLACK
6
CONTINUOUS
10
86.155579000000003
20
-85.8411029999999897
11
86.264489999999995
21
-85.6781069999999971
0
LINE
8
BLACK
6
CONTINUOUS
10
86.264489999999995
20
-85.6781069999999971
11
86.4031069999999914
21
-85.5394900000000007
0
LINE
8
BLACK
6
CONTINUOUS
10
86.4031069999999914
20
-85.5394900000000007
11
86.5661029999999982
21
-85.4305789999999945
0
LINE
8
BLACK
6
CONTINUOUS
10
86.5661029999999982
20
-85.4305789999999945
11
86.7472149999999971
21
-85.355559999999997
0
LINE
8
BLACK
6
CONTINUOUS
10
86.7472149999999971
20
-85.355559999999997
11
86.9394829999999956
21
-85.3173149999999936
0
LINE
8
BLACK
6
CONTINUOUS
10
86.9394829999999956
20
-85.3173149999999936
11
87.135516999999993
21
-85.3173149999999936
0
LINE
8
BLACK
6
CONTINUOUS
10
87.135516999999993
20
-85.3173149999999936
11
87.3277849999999916
21
-85.355559999999997
0
LINE
8
BLACK
6
CONTINUOUS
10
67.3277849999999916
20
-85.3555589999999995
11
67.5088969999999904
21
-85.430577999999997
0
LINE
8
BLACK
6
CONTINUOUS
10
67.5088969999999904
20
-85.430577999999997
11
67.6718929999999972
21
-85.5394890000000032
0
LINE
8
BLACK
6
CONTINUOUS
10
67.6718929999999972
20
-85.5394890000000032
11
67.8105099999999936
21
-85.6781059999999997
0
LINE
8
BLACK
6
CONTINUOUS
10
67.8105099999999936
20
-85.6781059999999997
11
67.9194209999999998
21
-85.8411019999999922
0
LINE
8
BLACK
6
CONTINUOUS
10
67.9194209999999998
20
-85.8411019999999922
11
67.9944399999999973
21
-86.0222139999999911
0
LINE
8
BLACK
6
CONTINUOUS
10
67.9944399999999973
20
-86.0222139999999911
11
68.0326850000000007
21
-86.2144819999999896
0
LINE
8
BLACK
6
CONTINUOUS
10
68.0326850000000007
20
-86.2144819999999896
11
68.0326850000000007
21
-86.4105160000000012
0
LINE
8
BLACK
6
CONTINUOUS
10
68.0326850000000007
20
-86.4105160000000012
11
67.9944399999999973
21
-86.6027839999999998
0
LINE
8
BLACK
6
CONTINUOUS
10
67.9944399999999973
20
-86.6027839999999998
11
67.9194209999999998
21
-86.7838959999999986
0
LINE
8
BLACK
6
CONTINUOUS
10
67.9194209999999998
20
-86.7838959999999986
11
67.8105099999999936
21
-86.9468919999999912
0
LINE
8
BLACK
6
CONTINUOUS
10
67.8105099999999936
20
-86.9468919999999912
11
67.6718929999999972
21
-87.0855090000000018
0
LINE
8
BLACK
6
CONTINUOUS
10
67.6718929999999972
20
-87.0855090000000018
11
67.5088969999999904
21
-87.1944199999999938
0
LINE
8
BLACK
6
CONTINUOUS
10
67.5088969999999904
20
-87.1944199999999938
11
67.3277849999999916
21
-87.2694389999999913
0
LINE
8
BLACK
6
CONTINUOUS
10
67.3277849999999916
20
-87.2694389999999913
11
67.135516999999993
21
-87.3076839999999947
0
LINE
8
BLACK
6
CONTINUOUS
10
67.135516999999993
20
-87.3076839999999947
11
66.9394829999999956
21
-87.3076839999999947
0
LINE
8
BLACK
6
CONTINUOUS
10
66.9394829999999956
20
-87.3076839999999947
11
66.7472149999999971
21
-87.2694389999999913
0
LINE
8
BLACK
6
CONTINUOUS
10
66.7472149999999971
20
-87.2694389999999913
11
66.5661029999999982
21
-87.1944199999999938
0
LINE
8
BLACK
6
CONTINUOUS
10
66.5661029999999982
20
-87.1944199999999938
11
66.4031069999999914
21
-87.0855090000000018
0
LINE
8
BLACK
6
CONTINUOUS
10
66.4031069999999914
20
-87.0855090000000018
11
66.264489999999995
21
-86.9468919999999912
0
LINE
8
BLACK
6
CONTINUOUS
10
66.264489999999995
20
-86.9468919999999912
11
66.155579000000003
21
-86.7838959999999986
0
LINE
8
BLACK
6
CONTINUOUS
10
66.155579000000003
20
-86.7838959999999986
11
66.0805599999999913
21
-86.6027839999999998
0
LINE
8
BLACK
6
CONTINUOUS
10
66.0805599999999913
20
-86.6027839999999998
11
66.0423150000000021
21
-86.4105160000000012
0
LINE
8
BLACK
6
CONTINUOUS
10
66.0423150000000021
20
-86.4105160000000012
11
66.0423150000000021
21
-86.2144819999999896
0
LINE
8
BLACK
6
CONTINUOUS
10
66.0423150000000021
20
-86.2144819999999896
11
66.0805599999999913
21
-86.0222139999999911
0
LINE
8
BLACK
6
CONTINUOUS
10
66.0805599999999913
20
-86.0222139999999911
11
66.155579000000003
21
-85.8411019999999922
0
LINE
8
BLACK
6
CONTINUOUS
10
66.155579000000003
20
-85.8411019999999922
11
66.264489999999995
21
-85.6781059999999997
0
LINE
8
BLACK
6
CONTINUOUS
10
66.264489999999995
20
-85.6781059999999997
11
66.4031069999999914
21
-85.5394890000000032
0
LINE
8
BLACK
6
CONTINUOUS
10
66.4031069999999914
20
-85.5394890000000032
11
66.5661029999999982
21
-85.430577999999997
0
LINE
8
BLACK
6
CONTINUOUS
10
66.5661029999999982
20
-85.430577999999997
11
66.7472149999999971
21
-85.3555589999999995
0
LINE
8
BLACK
6
CONTINUOUS
10
66.7472149999999971
20
-85.3555589999999995
11
66.9394829999999956
21
-85.3173139999999961
0
LINE
8
BLACK
6
CONTINUOUS
10
66.9394829999999956
20
-85.3173139999999961
11
67.135516999999993
21
-85.3173139999999961
0
LINE
8
BLACK
6
CONTINUOUS
10
67.135516999999993
20
-85.3173139999999961
11
67.3277849999999916
21
-85.3555589999999995
0
LINE
8
BLACK
6
CONTINUOUS
10
72.3277849999999916
20
-85.3555589999999995
11
72.5088969999999904
21
-85.430577999999997
0
LINE
8
BLACK
6
CONTINUOUS
10
72.5088969999999904
20
-85.430577999999997
11
72.6718929999999972
21
-85.5394890000000032
0
LINE
8
BLACK
6
CONTINUOUS
10
72.6718929999999972
20
-85.5394890000000032
11
72.8105099999999936
21
-85.6781059999999997
0
LINE
8
BLACK
6
CONTINUOUS
10
72.8105099999999936
20
-85.6781059999999997
11
72.9194209999999998
21
-85.8411019999999922
0
LINE
8
BLACK
6
CONTINUOUS
10
72.9194209999999998
20
-85.8411019999999922
11
72.9944399999999973
21
-86.0222139999999911
0
LINE
8
BLACK
6
CONTINUOUS
10
72.9944399999999973
20
-86.0222139999999911
11
73.0326850000000007
21
-86.2144819999999896
0
LINE
8
BLACK
6
CONTINUOUS
10
73.0326850000000007
20
-86.2144819999999896
11
73.0326850000000007
21
-86.4105160000000012
0
LINE
8
BLACK
6
CONTINUOUS
10
73.0326850000000007
20
-86.4105160000000012
11
72.9944399999999973
21
-86.6027839999999998
0
LINE
8
BLACK
6
CONTINUOUS
10
72.9944399999999973
20
-86.6027839999999998
11
72.9194209999999998
21
-86.7838959999999986
0
LINE
8
BLACK
6
CONTINUOUS
10
72.9194209999999998
20
-86.7838959999999986
11
72.8105099999999936
21
-86.9468919999999912
0
LINE
8
BLACK
6
CONTINUOUS
10
72.8105099999999936
20
-86.9468919999999912
11
72.6718929999999972
21
-87.0855090000000018
0
LINE
8
BLACK
6
CONTINUOUS
10
72.6718929999999972
20
-87.0855090000000018
11
72.5088969999999904
21
-87.1944199999999938
0
LINE
8
BLACK
6
CONTINUOUS
10
72.5088969999999904
20
-87.1944199999999938
11
72.3277849999999916
21
-87.2694389999999913
0
LINE
8
BLACK
6
CONTINUOUS
10
72.3277849999999916
20
-87.2694389999999913
11
72.135516999999993
21
-87.3076839999999947
0
LINE
8
BLACK
6
CONTINUOUS
10
72.135516999999993
20
-87.3076839999999947
11
71.9394829999999956
21
-87.3076839999999947
0
LINE
8
BLACK
6
CONTINUOUS
10
71.9394829999999956
20
-87.3076839999999947
11
71.7472149999999971
21
-87.2694389999999913
0
LINE
8
BLACK
6
CONTINUOUS
10
71.7472149999999971
20
-87.2694389999999913
11
71.5661029999999982
21
-87.1944199999999938
0
LINE
8
BLACK
6
CONTINUOUS
10
71.5661029999999982
20
-87.1944199999999938
11
71.4031069999999914
21
-87.0855090000000018
0
LINE
8
BLACK
6
CONTINUOUS
10
71.4031069999999914
20
-87.0855090000000018
11
71.264489999999995
21
-86.9468919999999912
0
LINE
8
BLACK
6
CONTINUOUS
10
71.264489999999995
20
-86.9468919999999912
11
71.155579000000003
21
-86.7838959999999986
0
LINE
8
BLACK
6
CONTINUOUS
10
71.155579000000003
20
-86.7838959999999986
11
71.0805599999999913
21
-86.6027839999999998
0
LINE
8
BLACK
6
CONTINUOUS
10
71.0805599999999913
20
-86.6027839999999998
11
71.0423150000000021
21
-86.4105160000000012
0
LINE
8
BLACK
6
CONTINUOUS
10
71.0423150000000021
20
-86.4105160000000012
11
71.0423150000000021
21
-86.2144819999999896
0
LINE
8
BLACK
6
CONTINUOUS
10
71.0423150000000021
20
-86.2144819999999896
11
71.0805599999999913
21
-86.0222139999999911
0
LINE
8
BLACK
6
CONTINUOUS
10
71.0805599999999913
20
-86.0222139999999911
11
71.155579000000003
21
-85.8411019999999922
0
LINE
8
BLACK
6
CONTINUOUS
10
71.155579000000003
20
-85.8411019999999922
11
71.264489999999995
21
-85.6781059999999997
0
LINE
8
BLACK
6
CONTINUOUS
10
71.264489999999995
20
-85.6781059999999997
11
71.4031069999999914
21
-85.5394890000000032
0
LINE
8
BLACK
6
CONTINUOUS
10
71.4031069999999914
20
-85.5394890000000032
11
71.5661029999999982
21
-85.430577999999997
0
LINE
8
BLACK
6
CONTINUOUS
10
71.5661029999999982
20
-85.430577999999997
11
71.7472149999999971
21
-85.3555589999999995
0
LINE
8
BLACK
6
CONTINUOUS
10
71.7472149999999971
20
-85.3555589999999995
11
71.9394829999999956
21
-85.3173139999999961
0
LINE
8
BLACK
6
CONTINUOUS
10
71.9394829999999956
20
-85.3173139999999961
11
72.135516999999993
21
-85.3173139999999961
0
LINE
8
BLACK
6
CONTINUOUS
10
72.135516999999993
20
-85.3173139999999961
11
72.3277849999999916
21
-85.3555589999999995
0
LINE
8
BLACK
6
CONTINUOUS
10
95.4583149999999989
20
-85.4040930000000031
11
95.6217419999999976
21
-85.436600999999996
0
LINE
8
BLACK
6
CONTINUOUS
10
95.6217419999999976
20
-85.436600999999996
11
95.7756869999999907
21
-85.5003669999999971
0
LINE
8
BLACK
6
CONTINUOUS
10
95.7756869999999907
20
-85.5003669999999971
11
95.9142339999999933
21
-85.5929409999999962
0
LINE
8
BLACK
6
CONTINUOUS
10
95.9142339999999933
20
-85.5929409999999962
11
96.0320589999999896
21
-85.7107659999999925
0
LINE
8
BLACK
6
CONTINUOUS
10
96.0320589999999896
20
-85.7107659999999925
11
96.1246329999999887
21
-85.8493129999999951
0
LINE
8
BLACK
6
CONTINUOUS
10
96.1246329999999887
20
-85.8493129999999951
11
96.1883989999999898
21
-86.0032580000000024
0
LINE
8
BLACK
6
CONTINUOUS
10
96.1883989999999898
20
-86.0032580000000024
11
96.2209069999999969
21
-86.1666850000000011
0
LINE
8
BLACK
6
CONTINUOUS
10
96.2209069999999969
20
-86.1666850000000011
11
96.2209069999999969
21
-86.3333149999999989
0
LINE
8
BLACK
6
CONTINUOUS
10
96.2209069999999969
20
-86.3333149999999989
11
96.1883989999999898
21
-86.4967419999999976
0
LINE
8
BLACK
6
CONTINUOUS
10
96.1883989999999898
20
-86.4967419999999976
11
96.1246329999999887
21
-86.6506869999999907
0
LINE
8
BLACK
6
CONTINUOUS
10
96.1246329999999887
20
-86.6506869999999907
11
96.0320589999999896
21
-86.7892339999999933
0
LINE
8
BLACK
6
CONTINUOUS
10
96.0320589999999896
20
-86.7892339999999933
11
95.9142339999999933
21
-86.9070589999999896
0
LINE
8
BLACK
6
CONTINUOUS
10
95.9142339999999933
20
-86.9070589999999896
11
95.7756869999999907
21
-86.9996330000000029
0
LINE
8
BLACK
6
CONTINUOUS
10
95.7756869999999907
20
-86.9996330000000029
11
95.6217419999999976
21
-87.0633989999999898
0
LINE
8
BLACK
6
CONTINUOUS
10
95.6217419999999976
20
-87.0633989999999898
11
95.4583149999999989
21
-87.0959069999999969
0
LINE
8
BLACK
6
CONTINUOUS
10
95.4583149999999989
20
-87.0959069999999969
11
95.375
21
-87.0999999999999943
0
LINE
8
BLACK
6
CONTINUOUS
10
95.375
20
-87.0999999999999943
11
95.0749999999999886
21
-87.0999999999999943
0
LINE
8
BLACK
6
CONTINUOUS
10
95.0749999999999886
20
-87.0999999999999943
11
94.9916849999999897
21
-87.0959069999999969
0
LINE
8
BLACK
6
CONTINUOUS
10
94.9916849999999897
20
-87.0959069999999969
11
94.8282579999999911
21
-87.0633989999999898
0
LINE
8
BLACK
6
CONTINUOUS
10
94.8282579999999911
20
-87.0633989999999898
11
94.6743129999999979
21
-86.9996330000000029
0
LINE
8
BLACK
6
CONTINUOUS
10
94.6743129999999979
20
-86.9996330000000029
11
94.5357659999999953
21
-86.9070589999999896
0
LINE
8
BLACK
6
CONTINUOUS
10
94.5357659999999953
20
-86.9070589999999896
11
94.417940999999999
21
-86.7892339999999933
0
LINE
8
BLACK
6
CONTINUOUS
10
94.417940999999999
20
-86.7892339999999933
11
94.325367
21
-86.6506869999999907
0
LINE
8
BLACK
6
CONTINUOUS
10
94.325367
20
-86.6506869999999907
11
94.2616009999999989
21
-86.4967419999999976
0
LINE
8
BLACK
6
CONTINUOUS
10
94.2616009999999989
20
-86.4967419999999976
11
94.2290929999999918
21
-86.3333149999999989
0
LINE
8
BLACK
6
CONTINUOUS
10
94.2290929999999918
20
-86.3333149999999989
11
94.2290929999999918
21
-86.1666850000000011
0
LINE
8
BLACK
6
CONTINUOUS
10
94.2290929999999918
20
-86.1666850000000011
11
94.2616009999999989
21
-86.0032580000000024
0
LINE
8
BLACK
6
CONTINUOUS
10
94.2616009999999989
20
-86.0032580000000024
11
94.325367
21
-85.8493129999999951
0
LINE
8
BLACK
6
CONTINUOUS
10
94.325367
20
-85.8493129999999951
11
94.417940999999999
21
-85.7107659999999925
0
LINE
8
BLACK
6
CONTINUOUS
10
94.417940999999999
20
-85.7107659999999925
11
94.5357659999999953
21
-85.5929409999999962
0
LINE
8
BLACK
6
CONTINUOUS
10
94.5357659999999953
20
-85.5929409999999962
11
94.6743129999999979
21
-85.5003669999999971
0
LINE
8
BLACK
6
CONTINUOUS
10
94.6743129999999979
20
-85.5003669999999971
11
94.8282579999999911
21
-85.436600999999996
0
LINE
8
BLACK
6
CONTINUOUS
10
94.8282579999999911
20
-85.436600999999996
11
94.9916849999999897
21
-85.4040930000000031
0
LINE
8
BLACK
6
CONTINUOUS
10
94.9916849999999897
20
-85.4040930000000031
11
95.0749999999999886
21
-85.3999999999999915
0
LINE
8
BLACK
6
CONTINUOUS
10
95.0749999999999886
20
-85.3999999999999915
11
95.375
21
-85.3999999999999915
0
LINE
8
BLACK
6
CONTINUOUS
10
95.375
20
-85.3999999999999915
11
95.4583149999999989
21
-85.4040930000000031
0
LINE
8
BLACK
6
CONTINUOUS
10
88.0374999999999943
20
-79.8125
11
86.0374999999999943
21
-79.8125
0
LINE
8
BLACK
6
CONTINUOUS
10
86.0374999999999943
20
-79.8125
11
86.0374999999999943
21
-77.8125
0
LINE
8
BLACK
6
CONTINUOUS
10
86.0374999999999943
20
-77.8125
11
88.0374999999999943
21
-77.8125
0
LINE
8
BLACK
6
CONTINUOUS
10
88.0374999999999943
20
-77.8125
11
88.0374999999999943
21
-79.8125
0
LINE
8
BLACK
6
CONTINUOUS
10
67.3277849999999916
20
-77.8555609999999945
11
67.5088969999999904
21
-77.930579999999992
0
LINE
8
BLACK
6
CONTINUOUS
10
67.5088969999999904
20
-77.930579999999992
11
67.6718929999999972
21
-78.0394909999999982
0
LINE
8
BLACK
6
CONTINUOUS
10
67.6718929999999972
20
-78.0394909999999982
11
67.8105099999999936
21
-78.1781079999999946
0
LINE
8
BLACK
6
CONTINUOUS
10
67.8105099999999936
20
-78.1781079999999946
11
67.9194209999999998
21
-78.3411040000000014
0
LINE
8
BLACK
6
CONTINUOUS
10
67.9194209999999998
20
-78.3411040000000014
11
67.9944399999999973
21
-78.5222160000000002
0
LINE
8
BLACK
6
CONTINUOUS
10
67.9944399999999973
20
-78.5222160000000002
11
68.0326850000000007
21
-78.7144839999999988
0
LINE
8
BLACK
6
CONTINUOUS
10
68.0326850000000007
20
-78.7144839999999988
11
68.0326850000000007
21
-78.9105179999999962
0
LINE
8
BLACK
6
CONTINUOUS
10
68.0326850000000007
20
-78.9105179999999962
11
67.9944399999999973
21
-79.1027859999999947
0
LINE
8
BLACK
6
CONTINUOUS
10
67.9944399999999973
20
-79.1027859999999947
11
67.9194209999999998
21
-79.2838979999999935
0
LINE
8
BLACK
6
CONTINUOUS
10
67.9194209999999998
20
-79.2838979999999935
11
67.8105099999999936
21
-79.4468940000000003
0
LINE
8
BLACK
6
CONTINUOUS
10
67.8105099999999936
20
-79.4468940000000003
11
67.6718929999999972
21
-79.5855109999999968
0
LINE
8
BLACK
6
CONTINUOUS
10
67.6718929999999972
20
-79.5855109999999968
11
67.5088969999999904
21
-79.694422000000003
0
LINE
8
BLACK
6
CONTINUOUS
10
67.5088969999999904
20
-79.694422000000003
11
67.3277849999999916
21
-79.7694410000000005
0
LINE
8
BLACK
6
CONTINUOUS
10
67.3277849999999916
20
-79.7694410000000005
11
67.135516999999993
21
-79.8076859999999897
0
LINE
8
BLACK
6
CONTINUOUS
10
67.135516999999993
20
-79.8076859999999897
11
66.9394829999999956
21
-79.8076859999999897
0
LINE
8
BLACK
6
CONTINUOUS
10
66.9394829999999956
20
-79.8076859999999897
11
66.7472149999999971
21
-79.7694410000000005
0
LINE
8
BLACK
6
CONTINUOUS
10
66.7472149999999971
20
-79.7694410000000005
11
66.5661029999999982
21
-79.694422000000003
0
LINE
8
BLACK
6
CONTINUOUS
10
66.5661029999999982
20
-79.694422000000003
11
66.4031069999999914
21
-79.5855109999999968
0
LINE
8
BLACK
6
CONTINUOUS
10
66.4031069999999914
20
-79.5855109999999968
11
66.264489999999995
21
-79.4468940000000003
0
LINE
8
BLACK
6
CONTINUOUS
10
66.264489999999995
20
-79.4468940000000003
11
66.155579000000003
21
-79.2838979999999935
0
LINE
8
BLACK
6
CONTINUOUS
10
66.155579000000003
20
-79.2838979999999935
11
66.0805599999999913
21
-79.1027859999999947
0
LINE
8
BLACK
6
CONTINUOUS
10
66.0805599999999913
20
-79.1027859999999947
11
66.0423150000000021
21
-78.9105179999999962
0
LINE
8
BLACK
6
CONTINUOUS
10
66.0423150000000021
20
-78.9105179999999962
11
66.0423150000000021
21
-78.7144839999999988
0
LINE
8
BLACK
6
CONTINUOUS
10
66.0423150000000021
20
-78.7144839999999988
11
66.0805599999999913
21
-78.5222160000000002
0
LINE
8
BLACK
6
CONTINUOUS
10
66.0805599999999913
20
-78.5222160000000002
11
66.155579000000003
21
-78.3411040000000014
0
LINE
8
BLACK
6
CONTINUOUS
10
66.155579000000003
20
-78.3411040000000014
11
66.264489999999995
21
-78.1781079999999946
0
LINE
8
BLACK
6
CONTINUOUS
10
66.264489999999995
20
-78.1781079999999946
11
66.4031069999999914
21
-78.0394909999999982
0
LINE
8
BLACK
6
CONTINUOUS
10
66.4031069999999914
20
-78.0394909999999982
11
66.5661029999999982
21
-77.930579999999992
0
LINE
8
BLACK
6
CONTINUOUS
10
66.5661029999999982
20
-77.930579999999992
11
66.7472149999999971
21
-77.8555609999999945
0
LINE
8
BLACK
6
CONTINUOUS
10
66.7472149999999971
20
-77.8555609999999945
11
66.9394829999999956
21
-77.817315999999991
0
LINE
8
BLACK
6
CONTINUOUS
10
66.9394829999999956
20
-77.817315999999991
11
67.135516999999993
21
-77.817315999999991
0
LINE
8
BLACK
6
CONTINUOUS
10
67.135516999999993
20
-77.817315999999991
11
67.3277849999999916
21
-77.8555609999999945
0
LINE
8
BLACK
6
CONTINUOUS
10
72.3277839999999941
20
-77.8555609999999945
11
72.5088959999999929
21
-77.930579999999992
0
LINE
8
BLACK
6
CONTINUOUS
10
72.5088959999999929
20
-77.930579999999992
11
72.6718919999999997
21
-78.0394909999999982
0
LINE
8
BLACK
6
CONTINUOUS
10
72.6718919999999997
20
-78.0394909999999982
11
72.8105089999999961
21
-78.1781079999999946
0
LINE
8
BLACK
6
CONTINUOUS
10
72.8105089999999961
20
-78.1781079999999946
11
72.9194200000000023
21
-78.3411040000000014
0
LINE
8
BLACK
6
CONTINUOUS
10
72.9194200000000023
20
-78.3411040000000014
11
72.9944389999999999
21
-78.5222160000000002
0
LINE
8
BLACK
6
CONTINUOUS
10
72.9944389999999999
20
-78.5222160000000002
11
73.0326840000000033
21
-78.7144839999999988
0
LINE
8
BLACK
6
CONTINUOUS
10
73.0326840000000033
20
-78.7144839999999988
11
73.0326840000000033
21
-78.9105179999999962
0
LINE
8
BLACK
6
CONTINUOUS
10
73.0326840000000033
20
-78.9105179999999962
11
72.9944389999999999
21
-79.1027859999999947
0
LINE
8
BLACK
6
CONTINUOUS
10
72.9944389999999999
20
-79.1027859999999947
11
72.9194200000000023
21
-79.2838979999999935
0
LINE
8
BLACK
6
CONTINUOUS
10
72.9194200000000023
20
-79.2838979999999935
11
72.8105089999999961
21
-79.4468940000000003
0
LINE
8
BLACK
6
CONTINUOUS
10
72.8105089999999961
20
-79.4468940000000003
11
72.6718919999999997
21
-79.5855109999999968
0
LINE
8
BLACK
6
CONTINUOUS
10
72.6718919999999997
20
-79.5855109999999968
11
72.5088959999999929
21
-79.694422000000003
0
LINE
8
BLACK
6
CONTINUOUS
10
72.5088959999999929
20
-79.694422000000003
11
72.3277839999999941
21
-79.7694410000000005
0
LINE
8
BLACK
6
CONTINUOUS
10
72.3277839999999941
20
-79.7694410000000005
11
72.1355159999999955
21
-79.8076859999999897
0
LINE
8
BLACK
6
CONTINUOUS
10
72.1355159999999955
20
-79.8076859999999897
11
71.9394819999999982
21
-79.8076859999999897
0
LINE
8
BLACK
6
CONTINUOUS
10
71.9394819999999982
20
-79.8076859999999897
11
71.7472139999999996
21
-79.7694410000000005
0
LINE
8
BLACK
6
CONTINUOUS
10
71.7472139999999996
20
-79.7694410000000005
11
71.5661020000000008
21
-79.694422000000003
0
LINE
8
BLACK
6
CONTINUOUS
10
71.5661020000000008
20
-79.694422000000003
11
71.403105999999994
21
-79.5855109999999968
0
LINE
8
BLACK
6
CONTINUOUS
10
71.403105999999994
20
-79.5855109999999968
11
71.2644889999999975
21
-79.4468940000000003
0
LINE
8
BLACK
6
CONTINUOUS
10
71.2644889999999975
20
-79.4468940000000003
11
71.1555779999999913
21
-79.2838979999999935
0
LINE
8
BLACK
6
CONTINUOUS
10
71.1555779999999913
20
-79.2838979999999935
11
71.0805589999999938
21
-79.1027859999999947
0
LINE
8
BLACK
6
CONTINUOUS
10
71.0805589999999938
20
-79.1027859999999947
11
71.0423139999999904
21
-78.9105179999999962
0
LINE
8
BLACK
6
CONTINUOUS
10
71.0423139999999904
20
-78.9105179999999962
11
71.0423139999999904
21
-78.7144839999999988
0
LINE
8
BLACK
6
CONTINUOUS
10
71.0423139999999904
20
-78.7144839999999988
11
71.0805589999999938
21
-78.5222160000000002
0
LINE
8
BLACK
6
CONTINUOUS
10
71.0805589999999938
20
-78.5222160000000002
11
71.1555779999999913
21
-78.3411040000000014
0
LINE
8
BLACK
6
CONTINUOUS
10
71.1555779999999913
20
-78.3411040000000014
11
71.2644889999999975
21
-78.1781079999999946
0
LINE
8
BLACK
6
CONTINUOUS
10
71.2644889999999975
20
-78.1781079999999946
11
71.403105999999994
21
-78.0394909999999982
0
LINE
8
BLACK
6
CONTINUOUS
10
71.403105999999994
20
-78.0394909999999982
11
71.5661020000000008
21
-77.930579999999992
0
LINE
8
BLACK
6
CONTINUOUS
10
71.5661020000000008
20
-77.930579999999992
11
71.7472139999999996
21
-77.8555609999999945
0
LINE
8
BLACK
6
CONTINUOUS
10
71.7472139999999996
20
-77.8555609999999945
11
71.9394819999999982
21
-77.817315999999991
0
LINE
8
BLACK
6
CONTINUOUS
10
71.9394819999999982
20
-77.817315999999991
11
72.1355159999999955
21
-77.817315999999991
0
LINE
8
BLACK
6
CONTINUOUS
10
72.1355159999999955
20
-77.817315999999991
11
72.3277839999999941
21
-77.8555609999999945
0
LINE
8
BLACK
6
CONTINUOUS
10
62.3277849999999987
20
-77.855559999999997
11
62.5088969999999975
21
-77.9305789999999945
0
LINE
8
BLACK
6
CONTINUOUS
10
62.5088969999999975
20
-77.9305789999999945
11
62.6718929999999972
21
-78.0394900000000007
0
LINE
8
BLACK
6
CONTINUOUS
10
62.6718929999999972
20
-78.0394900000000007
11
62.8105099999999936
21
-78.1781069999999971
0
LINE
8
BLACK
6
CONTINUOUS
10
62.8105099999999936
20
-78.1781069999999971
11
62.9194209999999998
21
-78.3411029999999897
0
LINE
8
BLACK
6
CONTINUOUS
10
62.9194209999999998
20
-78.3411029999999897
11
62.9944399999999973
21
-78.5222150000000028
0
LINE
8
BLACK
6
CONTINUOUS
10
62.9944399999999973
20
-78.5222150000000028
11
63.0326849999999936
21
-78.7144830000000013
0
LINE
8
BLACK
6
CONTINUOUS
10
63.0326849999999936
20
-78.7144830000000013
11
63.0326849999999936
21
-78.9105169999999987
0
LINE
8
BLACK
6
CONTINUOUS
10
63.0326849999999936
20
-78.9105169999999987
11
62.9944399999999973
21
-79.1027849999999972
0
LINE
8
BLACK
6
CONTINUOUS
10
62.9944399999999973
20
-79.1027849999999972
11
62.9194209999999998
21
-79.2838969999999961
0
LINE
8
BLACK
6
CONTINUOUS
10
62.9194209999999998
20
-79.2838969999999961
11
62.8105099999999936
21
-79.4468930000000029
0
LINE
8
BLACK
6
CONTINUOUS
10
62.8105099999999936
20
-79.4468930000000029
11
62.6718929999999972
21
-79.5855099999999993
0
LINE
8
BLACK
6
CONTINUOUS
10
62.6718929999999972
20
-79.5855099999999993
11
62.5088969999999975
21
-79.6944209999999913
0
LINE
8
BLACK
6
CONTINUOUS
10
62.5088969999999975
20
-79.6944209999999913
11
62.3277849999999987
21
-79.769440000000003
0
LINE
8
BLACK
6
CONTINUOUS
10
62.3277849999999987
20
-79.769440000000003
11
62.1355170000000001
21
-79.8076849999999922
0
LINE
8
BLACK
6
CONTINUOUS
10
62.1355170000000001
20
-79.8076849999999922
11
61.9394829999999956
21
-79.8076849999999922
0
LINE
8
BLACK
6
CONTINUOUS
10
61.9394829999999956
20
-79.8076849999999922
11
61.7472149999999971
21
-79.769440000000003
0
LINE
8
BLACK
6
CONTINUOUS
10
61.7472149999999971
20
-79.769440000000003
11
61.5661029999999982
21
-79.6944209999999913
0
LINE
8
BLACK
6
CONTINUOUS
10
61.5661029999999982
20
-79.6944209999999913
11
61.4031069999999985
21
-79.5855099999999993
0
LINE
8
BLACK
6
CONTINUOUS
10
61.4031069999999985
20
-79.5855099999999993
11
61.264489999999995
21
-79.4468930000000029
0
LINE
8
BLACK
6
CONTINUOUS
10
61.264489999999995
20
-79.4468930000000029
11
61.1555789999999959
21
-79.2838969999999961
0
LINE
8
BLACK
6
CONTINUOUS
10
61.1555789999999959
20
-79.2838969999999961
11
61.0805599999999984
21
-79.1027849999999972
0
LINE
8
BLACK
6
CONTINUOUS
10
61.0805599999999984
20
-79.1027849999999972
11
61.042314999999995
21
-78.9105169999999987
0
LINE
8
BLACK
6
CONTINUOUS
10
61.042314999999995
20
-78.9105169999999987
11
61.042314999999995
21
-78.7144830000000013
0
LINE
8
BLACK
6
CONTINUOUS
10
61.042314999999995
20
-78.7144830000000013
11
61.0805599999999984
21
-78.5222150000000028
0
LINE
8
BLACK
6
CONTINUOUS
10
61.0805599999999984
20
-78.5222150000000028
11
61.1555789999999959
21
-78.3411029999999897
0
LINE
8
BLACK
6
CONTINUOUS
10
61.1555789999999959
20
-78.3411029999999897
11
61.264489999999995
21
-78.1781069999999971
0
LINE
8
BLACK
6
CONTINUOUS
10
61.264489999999995
20
-78.1781069999999971
11
61.4031069999999985
21
-78.0394900000000007
0
LINE
8
BLACK
6
CONTINUOUS
10
61.4031069999999985
20
-78.0394900000000007
11
61.5661029999999982
21
-77.9305789999999945
0
LINE
8
BLACK
6
CONTINUOUS
10
61.5661029999999982
20
-77.9305789999999945
11
61.7472149999999971
21
-77.855559999999997
0
LINE
8
BLACK
6
CONTINUOUS
10
61.7472149999999971
20
-77.855559999999997
11
61.9394829999999956
21
-77.8173149999999936
0
LINE
8
BLACK
6
CONTINUOUS
10
61.9394829999999956
20
-77.8173149999999936
11
62.1355170000000001
21
-77.8173149999999936
0
LINE
8
BLACK
6
CONTINUOUS
10
62.1355170000000001
20
-77.8173149999999936
11
62.3277849999999987
21
-77.855559999999997
0
LINE
8
BLACK
6
CONTINUOUS
10
16.3735129999999991
20
-74.4442030000000017
11
16.6122929999999975
21
-74.5217880000000008
0
LINE
8
BLACK
6
CONTINUOUS
10
16.6122929999999975
20
-74.5217880000000008
11
16.835998
21
-74.6357709999999912
0
LINE
8
BLACK
6
CONTINUOUS
10
16.835998
20
-74.6357709999999912
11
17.039117000000001
21
-74.7833449999999971
0
LINE
8
BLACK
6
CONTINUOUS
10
17.039117000000001
20
-74.7833449999999971
11
17.2166499999999978
21
-74.9608779999999939
0
LINE
8
BLACK
6
CONTINUOUS
10
17.2166499999999978
20
-74.9608779999999939
11
17.3642240000000001
21
-75.1639969999999948
0
LINE
8
BLACK
6
CONTINUOUS
10
17.3642240000000001
20
-75.1639969999999948
11
17.4782069999999976
21
-75.3877019999999902
0
LINE
8
BLACK
6
CONTINUOUS
10
17.4782069999999976
20
-75.3877019999999902
11
17.5557920000000003
21
-75.6264819999999958
0
LINE
8
BLACK
6
CONTINUOUS
10
17.5557920000000003
20
-75.6264819999999958
11
17.5950679999999977
21
-75.8744599999999991
0
LINE
8
BLACK
6
CONTINUOUS
10
17.5950679999999977
20
-75.8744599999999991
11
17.5950679999999977
21
-76.1255299999999977
0
LINE
8
BLACK
6
CONTINUOUS
10
17.5950679999999977
20
-76.1255299999999977
11
17.5557920000000003
21
-76.3735080000000011
0
LINE
8
BLACK
6
CONTINUOUS
10
17.5557920000000003
20
-76.3735080000000011
11
17.4782069999999976
21
-76.6122879999999924
0
LINE
8
BLACK
6
CONTINUOUS
10
17.4782069999999976
20
-76.6122879999999924
11
17.3642240000000001
21
-76.835993000000002
0
LINE
8
BLACK
6
CONTINUOUS
10
17.3642240000000001
20
-76.835993000000002
11
17.2166499999999978
21
-77.0391120000000029
0
LINE
8
BLACK
6
CONTINUOUS
10
17.2166499999999978
20
-77.0391120000000029
11
17.039117000000001
21
-77.2166449999999998
0
LINE
8
BLACK
6
CONTINUOUS
10
17.039117000000001
20
-77.2166449999999998
11
16.835998
21
-77.3642189999999914
0
LINE
8
BLACK
6
CONTINUOUS
10
16.835998
20
-77.3642189999999914
11
16.6122929999999975
21
-77.478201999999996
0
LINE
8
BLACK
6
CONTINUOUS
10
16.6122929999999975
20
-77.478201999999996
11
16.3735129999999991
21
-77.5557869999999951
0
LINE
8
BLACK
6
CONTINUOUS
10
16.3735129999999991
20
-77.5557869999999951
11
16.1255349999999993
21
-77.5950629999999961
0
LINE
8
BLACK
6
CONTINUOUS
10
16.1255349999999993
20
-77.5950629999999961
11
15.8744649999999989
21
-77.5950629999999961
0
LINE
8
BLACK
6
CONTINUOUS
10
15.8744649999999989
20
-77.5950629999999961
11
15.6264869999999991
21
-77.5557869999999951
0
LINE
8
BLACK
6
CONTINUOUS
10
15.6264869999999991
20
-77.5557869999999951
11
15.3877069999999989
21
-77.478201999999996
0
LINE
8
BLACK
6
CONTINUOUS
10
15.3877069999999989
20
-77.478201999999996
11
15.164002
21
-77.3642189999999914
0
LINE
8
BLACK
6
CONTINUOUS
10
15.164002
20
-77.3642189999999914
11
14.960882999999999
21
-77.2166449999999998
0
LINE
8
BLACK
6
CONTINUOUS
10
14.960882999999999
20
-77.2166449999999998
11
14.7833499999999987
21
-77.0391120000000029
0
LINE
8
BLACK
6
CONTINUOUS
10
14.7833499999999987
20
-77.0391120000000029
11
14.6357759999999999
21
-76.835993000000002
0
LINE
8
BLACK
6
CONTINUOUS
10
14.6357759999999999
20
-76.835993000000002
11
14.5217929999999988
21
-76.6122879999999924
0
LINE
8
BLACK
6
CONTINUOUS
10
14.5217929999999988
20
-76.6122879999999924
11
14.4442079999999997
21
-76.3735080000000011
0
LINE
8
BLACK
6
CONTINUOUS
10
14.4442079999999997
20
-76.3735080000000011
11
14.4049319999999987
21
-76.1255299999999977
0
LINE
8
BLACK
6
CONTINUOUS
10
14.4049319999999987
20
-76.1255299999999977
11
14.4049319999999987
21
-75.8744599999999991
0
LINE
8
BLACK
6
CONTINUOUS
10
14.4049319999999987
20
-75.8744599999999991
11
14.4442079999999997
21
-75.6264819999999958
0
LINE
8
BLACK
6
CONTINUOUS
10
14.4442079999999997
20
-75.6264819999999958
11
14.5217929999999988
21
-75.3877019999999902
0
LINE
8
BLACK
6
CONTINUOUS
10
14.5217929999999988
20
-75.3877019999999902
11
14.6357759999999999
21
-75.1639969999999948
0
LINE
8
BLACK
6
CONTINUOUS
10
14.6357759999999999
20
-75.1639969999999948
11
14.7833499999999987
21
-74.9608779999999939
0
LINE
8
BLACK
6
CONTINUOUS
10
14.7833499999999987
20
-74.9608779999999939
11
14.960882999999999
21
-74.7833449999999971
0
LINE
8
BLACK
6
CONTINUOUS
10
14.960882999999999
20
-74.7833449999999971
11
15.164002
21
-74.6357709999999912
0
LINE
8
BLACK
6
CONTINUOUS
10
15.164002
20
-74.6357709999999912
11
15.3877069999999989
21
-74.5217880000000008
0
LINE
8
BLACK
6
CONTINUOUS
10
15.3877069999999989
20
-74.5217880000000008
11
15.6264869999999991
21
-74.4442030000000017
0
LINE
8
BLACK
6
CONTINUOUS
10
15.6264869999999991
20
-74.4442030000000017
11
15.8744649999999989
21
-74.4049270000000007
0
LINE
8
BLACK
6
CONTINUOUS
10
15.8744649999999989
20
-74.4049270000000007
11
16.1255349999999993
21
-74.4049270000000007
0
LINE
8
BLACK
6
CONTINUOUS
10
16.1255349999999993
20
-74.4049270000000007
11
16.3735129999999991
21
-74.4442030000000017
0
LINE
8
BLACK
6
CONTINUOUS
10
51.3735129999999955
20
-74.4442030000000017
11
51.6122930000000011
21
-74.5217880000000008
0
LINE
8
BLACK
6
CONTINUOUS
10
51.6122930000000011
20
-74.5217880000000008
11
51.8359979999999965
21
-74.6357709999999912
0
LINE
8
BLACK
6
CONTINUOUS
10
51.8359979999999965
20
-74.6357709999999912
11
52.0391169999999974
21
-74.7833449999999971
0
LINE
8
BLACK
6
CONTINUOUS
10
52.0391169999999974
20
-74.7833449999999971
11
52.2166499999999942
21
-74.9608779999999939
0
LINE
8
BLACK
6
CONTINUOUS
10
52.2166499999999942
20
-74.9608779999999939
11
52.3642240000000001
21
-75.1639969999999948
0
LINE
8
BLACK
6
CONTINUOUS
10
52.3642240000000001
20
-75.1639969999999948
11
52.4782069999999976
21
-75.3877019999999902
0
LINE
8
BLACK
6
CONTINUOUS
10
52.4782069999999976
20
-75.3877019999999902
11
52.5557919999999967
21
-75.6264819999999958
0
LINE
8
BLACK
6
CONTINUOUS
10
52.5557919999999967
20
-75.6264819999999958
11
52.5950679999999977
21
-75.8744599999999991
0
LINE
8
BLACK
6
CONTINUOUS
10
52.5950679999999977
20
-75.8744599999999991
11
52.5950679999999977
21
-76.1255299999999977
0
LINE
8
BLACK
6
CONTINUOUS
10
52.5950679999999977
20
-76.1255299999999977
11
52.5557919999999967
21
-76.3735080000000011
0
LINE
8
BLACK
6
CONTINUOUS
10
52.5557919999999967
20
-76.3735080000000011
11
52.4782069999999976
21
-76.6122879999999924
0
LINE
8
BLACK
6
CONTINUOUS
10
52.4782069999999976
20
-76.6122879999999924
11
52.3642240000000001
21
-76.835993000000002
0
LINE
8
BLACK
6
CONTINUOUS
10
52.3642240000000001
20
-76.835993000000002
11
52.2166499999999942
21
-77.0391120000000029
0
LINE
8
BLACK
6
CONTINUOUS
10
52.2166499999999942
20
-77.0391120000000029
11
52.0391169999999974
21
-77.2166449999999998
0
LINE
8
BLACK
6
CONTINUOUS
10
52.0391169999999974
20
-77.2166449999999998
11
51.8359979999999965
21
-77.3642189999999914
0
LINE
8
BLACK
6
CONTINUOUS
10
51.8359979999999965
20
-77.3642189999999914
11
51.6122930000000011
21
-77.478201999999996
0
LINE
8
BLACK
6
CONTINUOUS
10
51.6122930000000011
20
-77.478201999999996
11
51.3735129999999955
21
-77.5557869999999951
0
LINE
8
BLACK
6
CONTINUOUS
10
51.3735129999999955
20
-77.5557869999999951
11
51.1255349999999993
21
-77.5950629999999961
0
LINE
8
BLACK
6
CONTINUOUS
10
51.1255349999999993
20
-77.5950629999999961
11
50.8744650000000007
21
-77.5950629999999961
0
LINE
8
BLACK
6
CONTINUOUS
10
50.8744650000000007
20
-77.5950629999999961
11
50.6264869999999974
21
-77.5557869999999951
0
LINE
8
BLACK
6
CONTINUOUS
10
50.6264869999999974
20
-77.5557869999999951
11
50.3877069999999989
21
-77.478201999999996
0
LINE
8
BLACK
6
CONTINUOUS
10
50.3877069999999989
20
-77.478201999999996
11
50.1640019999999964
21
-77.3642189999999914
0
LINE
8
BLACK
6
CONTINUOUS
10
50.1640019999999964
20
-77.3642189999999914
11
49.9608829999999955
21
-77.2166449999999998
0
LINE
8
BLACK
6
CONTINUOUS
10
49.9608829999999955
20
-77.2166449999999998
11
49.7833499999999987
21
-77.0391120000000029
0
LINE
8
BLACK
6
CONTINUOUS
10
49.7833499999999987
20
-77.0391120000000029
11
49.6357759999999999
21
-76.835993000000002
0
LINE
8
BLACK
6
CONTINUOUS
10
49.6357759999999999
20
-76.835993000000002
11
49.5217929999999953
21
-76.6122879999999924
0
LINE
8
BLACK
6
CONTINUOUS
10
49.5217929999999953
20
-76.6122879999999924
11
49.4442079999999962
21
-76.3735080000000011
0
LINE
8
BLACK
6
CONTINUOUS
10
49.4442079999999962
20
-76.3735080000000011
11
49.4049319999999952
21
-76.1255299999999977
0
LINE
8
BLACK
6
CONTINUOUS
10
49.4049319999999952
20
-76.1255299999999977
11
49.4049319999999952
21
-75.8744599999999991
0
LINE
8
BLACK
6
CONTINUOUS
10
49.4049319999999952
20
-75.8744599999999991
11
49.4442079999999962
21
-75.6264819999999958
0
LINE
8
BLACK
6
CONTINUOUS
10
49.4442079999999962
20
-75.6264819999999958
11
49.5217929999999953
21
-75.3877019999999902
0
LINE
8
BLACK
6
CONTINUOUS
10
49.5217929999999953
20
-75.3877019999999902
11
49.6357759999999999
21
-75.1639969999999948
0
LINE
8
BLACK
6
CONTINUOUS
10
49.6357759999999999
20
-75.1639969999999948
11
49.7833499999999987
21
-74.9608779999999939
0
LINE
8
BLACK
6
CONTINUOUS
10
49.7833499999999987
20
-74.9608779999999939
11
49.9608829999999955
21
-74.7833449999999971
0
LINE
8
BLACK
6
CONTINUOUS
10
49.9608829999999955
20
-74.7833449999999971
11
50.1640019999999964
21
-74.6357709999999912
0
LINE
8
BLACK
6
CONTINUOUS
10
50.1640019999999964
20
-74.6357709999999912
11
50.3877069999999989
21
-74.5217880000000008
0
LINE
8
BLACK
6
CONTINUOUS
10
50.3877069999999989
20
-74.5217880000000008
11
50.6264869999999974
21
-74.4442030000000017
0
LINE
8
BLACK
6
CONTINUOUS
10
50.6264869999999974
20
-74.4442030000000017
11
50.8744650000000007
21
-74.4049270000000007
0
LINE
8
BLACK
6
CONTINUOUS
10
50.8744650000000007
20
-74.4049270000000007
11
51.1255349999999993
21
-74.4049270000000007
0
LINE
8
BLACK
6
CONTINUOUS
10
51.1255349999999993
20
-74.4049270000000007
11
51.3735129999999955
21
-74.4442030000000017
0
LINE
8
BLACK
6
CONTINUOUS
10
83.8256709999999998
20
-70.4190299999999922
11
83.9067769999999911
21
-70.4732229999999902
0
LINE
8
BLACK
6
CONTINUOUS
10
83.9067769999999911
20
-70.4732229999999902
11
83.9609700000000032
21
-70.5543289999999956
0
LINE
8
BLACK
6
CONTINUOUS
10
83.9609700000000032
20
-70.5543289999999956
11
83.9799999999999898
21
-70.6499999999999915
0
LINE
8
BLACK
6
CONTINUOUS
10
83.9799999999999898
20
-70.6499999999999915
11
83.9799999999999898
21
-73.3499999999999943
0
LINE
8
BLACK
6
CONTINUOUS
10
83.9799999999999898
20
-73.3499999999999943
11
83.9609700000000032
21
-73.4456709999999902
0
LINE
8
BLACK
6
CONTINUOUS
10
83.9609700000000032
20
-73.4456709999999902
11
83.9067769999999911
21
-73.5267769999999956
0
LINE
8
BLACK
6
CONTINUOUS
10
83.9067769999999911
20
-73.5267769999999956
11
83.8256709999999998
21
-73.5809699999999935
0
LINE
8
BLACK
6
CONTINUOUS
10
83.8256709999999998
20
-73.5809699999999935
11
83.7299999999999898
21
-73.5999999999999943
0
LINE
8
BLACK
6
CONTINUOUS
10
83.7299999999999898
20
-73.5999999999999943
11
81.0300000000000011
21
-73.5999999999999943
0
LINE
8
BLACK
6
CONTINUOUS
10
81.0300000000000011
20
-73.5999999999999943
11
80.9343289999999911
21
-73.5809699999999935
0
LINE
8
BLACK
6
CONTINUOUS
10
80.9343289999999911
20
-73.5809699999999935
11
80.8532229999999998
21
-73.5267769999999956
0
LINE
8
BLACK
6
CONTINUOUS
10
80.8532229999999998
20
-73.5267769999999956
11
80.7990300000000019
21
-73.4456709999999902
0
LINE
8
BLACK
6
CONTINUOUS
10
80.7990300000000019
20
-73.4456709999999902
11
80.7800000000000011
21
-73.3499999999999943
0
LINE
8
BLACK
6
CONTINUOUS
10
80.7800000000000011
20
-73.3499999999999943
11
80.7800000000000011
21
-70.6499999999999915
0
LINE
8
BLACK
6
CONTINUOUS
10
80.7800000000000011
20
-70.6499999999999915
11
80.7990300000000019
21
-70.5543289999999956
0
LINE
8
BLACK
6
CONTINUOUS
10
80.7990300000000019
20
-70.5543289999999956
11
80.8532229999999998
21
-70.4732229999999902
0
LINE
8
BLACK
6
CONTINUOUS
10
80.8532229999999998
20
-70.4732229999999902
11
80.9343289999999911
21
-70.4190299999999922
0
LINE
8
BLACK
6
CONTINUOUS
10
80.9343289999999911
20
-70.4190299999999922
11
81.0300000000000011
21
-70.3999999999999915
0
LINE
8
BLACK
6
CONTINUOUS
10
81.0300000000000011
20
-70.3999999999999915
11
83.7299999999999898
21
-70.3999999999999915
0
LINE
8
BLACK
6
CONTINUOUS
10
83.7299999999999898
20
-70.3999999999999915
11
83.8256709999999998
21
-70.4190299999999922
0
LINE
8
BLACK
6
CONTINUOUS
10
97.993512999999993
20
-70.4442080000000033
11
98.2322929999999985
21
-70.5217930000000024
0
LINE
8
BLACK
6
CONTINUOUS
10
98.2322929999999985
20
-70.5217930000000024
11
98.4559979999999939
21
-70.6357759999999928
0
LINE
8
BLACK
6
CONTINUOUS
10
98.4559979999999939
20
-70.6357759999999928
11
98.6591169999999948
21
-70.7833499999999987
0
LINE
8
BLACK
6
CONTINUOUS
10
98.6591169999999948
20
-70.7833499999999987
11
98.8366499999999917
21
-70.9608829999999955
0
LINE
8
BLACK
6
CONTINUOUS
10
98.8366499999999917
20
-70.9608829999999955
11
98.9842239999999975
21
-71.1640019999999964
0
LINE
8
BLACK
6
CONTINUOUS
10
98.9842239999999975
20
-71.1640019999999964
11
99.0982070000000022
21
-71.3877069999999918
0
LINE
8
BLACK
6
CONTINUOUS
10
99.0982070000000022
20
-71.3877069999999918
11
99.1757920000000013
21
-71.6264869999999974
0
LINE
8
BLACK
6
CONTINUOUS
10
99.1757920000000013
20
-71.6264869999999974
11
99.2150680000000023
21
-71.8744650000000007
0
LINE
8
BLACK
6
CONTINUOUS
10
99.2150680000000023
20
-71.8744650000000007
11
99.2150680000000023
21
-72.1255349999999993
0
LINE
8
BLACK
6
CONTINUOUS
10
99.2150680000000023
20
-72.1255349999999993
11
99.1757920000000013
21
-72.3735130000000026
0
LINE
8
BLACK
6
CONTINUOUS
10
99.1757920000000013
20
-72.3735130000000026
11
99.0982070000000022
21
-72.612292999999994
0
LINE
8
BLACK
6
CONTINUOUS
10
99.0982070000000022
20
-72.612292999999994
11
98.9842239999999975
21
-72.8359980000000036
0
LINE
8
BLACK
6
CONTINUOUS
10
98.9842239999999975
20
-72.8359980000000036
11
98.8366499999999917
21
-73.0391169999999903
0
LINE
8
BLACK
6
CONTINUOUS
10
98.8366499999999917
20
-73.0391169999999903
11
98.6591169999999948
21
-73.2166500000000013
0
LINE
8
BLACK
6
CONTINUOUS
10
98.6591169999999948
20
-73.2166500000000013
11
98.4559979999999939
21
-73.364223999999993
0
LINE
8
BLACK
6
CONTINUOUS
10
98.4559979999999939
20
-73.364223999999993
11
98.2322929999999985
21
-73.4782069999999976
0
LINE
8
BLACK
6
CONTINUOUS
10
98.2322929999999985
20
-73.4782069999999976
11
97.993512999999993
21
-73.5557919999999967
0
LINE
8
BLACK
6
CONTINUOUS
10
97.993512999999993
20
-73.5557919999999967
11
97.7455349999999896
21
-73.5950679999999977
0
LINE
8
BLACK
6
CONTINUOUS
10
97.7455349999999896
20
-73.5950679999999977
11
97.4944649999999911
21
-73.5950679999999977
0
LINE
8
BLACK
6
CONTINUOUS
10
97.4944649999999911
20
-73.5950679999999977
11
97.2464870000000019
21
-73.5557919999999967
0
LINE
8
BLACK
6
CONTINUOUS
10
97.2464870000000019
20
-73.5557919999999967
11
97.0077069999999964
21
-73.4782069999999976
0
LINE
8
BLACK
6
CONTINUOUS
10
97.0077069999999964
20
-73.4782069999999976
11
96.784002000000001
21
-73.364223999999993
0
LINE
8
BLACK
6
CONTINUOUS
10
96.784002000000001
20
-73.364223999999993
11
96.580883
21
-73.2166500000000013
0
LINE
8
BLACK
6
CONTINUOUS
10
96.580883
20
-73.2166500000000013
11
96.403349999999989
21
-73.0391169999999903
0
LINE
8
BLACK
6
CONTINUOUS
10
96.403349999999989
20
-73.0391169999999903
11
96.2557759999999973
21
-72.8359980000000036
0
LINE
8
BLACK
6
CONTINUOUS
10
96.2557759999999973
20
-72.8359980000000036
11
96.1417929999999927
21
-72.612292999999994
0
LINE
8
BLACK
6
CONTINUOUS
10
96.1417929999999927
20
-72.612292999999994
11
96.0642079999999936
21
-72.3735130000000026
0
LINE
8
BLACK
6
CONTINUOUS
10
96.0642079999999936
20
-72.3735130000000026
11
96.0249319999999926
21
-72.1255349999999993
0
LINE
8
BLACK
6
CONTINUOUS
10
96.0249319999999926
20
-72.1255349999999993
11
96.0249319999999926
21
-71.8744650000000007
0
LINE
8
BLACK
6
CONTINUOUS
10
96.0249319999999926
20
-71.8744650000000007
11
96.0642079999999936
21
-71.6264869999999974
0
LINE
8
BLACK
6
CONTINUOUS
10
96.0642079999999936
20
-71.6264869999999974
11
96.1417929999999927
21
-71.3877069999999918
0
LINE
8
BLACK
6
CONTINUOUS
10
96.1417929999999927
20
-71.3877069999999918
11
96.2557759999999973
21
-71.1640019999999964
0
LINE
8
BLACK
6
CONTINUOUS
10
96.2557759999999973
20
-71.1640019999999964
11
96.403349999999989
21
-70.9608829999999955
0
LINE
8
BLACK
6
CONTINUOUS
10
96.403349999999989
20
-70.9608829999999955
11
96.580883
21
-70.7833499999999987
0
LINE
8
BLACK
6
CONTINUOUS
10
96.580883
20
-70.7833499999999987
11
96.784002000000001
21
-70.6357759999999928
0
LINE
8
BLACK
6
CONTINUOUS
10
96.784002000000001
20
-70.6357759999999928
11
97.0077069999999964
21
-70.5217930000000024
0
LINE
8
BLACK
6
CONTINUOUS
10
97.0077069999999964
20
-70.5217930000000024
11
97.2464870000000019
21
-70.4442080000000033
0
LINE
8
BLACK
6
CONTINUOUS
10
97.2464870000000019
20
-70.4442080000000033
11
97.4944649999999911
21
-70.4049320000000023
0
LINE
8
BLACK
6
CONTINUOUS
10
97.4944649999999911
20
-70.4049320000000023
11
97.7455349999999896
21
-70.4049320000000023
0
LINE
8
BLACK
6
CONTINUOUS
10
97.7455349999999896
20
-70.4049320000000023
11
97.993512999999993
21
-70.4442080000000033
0
LINE
8
BLACK
6
CONTINUOUS
10
23.2467419999999976
20
-67.7265960000000007
11
23.4006869999999978
21
-67.7903620000000018
0
LINE
8
BLACK
6
CONTINUOUS
10
23.4006869999999978
20
-67.7903620000000018
11
23.5392340000000004
21
-67.8829360000000008
0
LINE
8
BLACK
6
CONTINUOUS
10
23.5392340000000004
20
-67.8829360000000008
11
23.6570590000000003
21
-68.0007609999999971
0
LINE
8
BLACK
6
CONTINUOUS
10
23.6570590000000003
20
-68.0007609999999971
11
23.7496329999999993
21
-68.1393079999999998
0
LINE
8
BLACK
6
CONTINUOUS
10
23.7496329999999993
20
-68.1393079999999998
11
23.8133990000000004
21
-68.2932529999999929
0
LINE
8
BLACK
6
CONTINUOUS
10
23.8133990000000004
20
-68.2932529999999929
11
23.8459070000000004
21
-68.4566799999999915
0
LINE
8
BLACK
6
CONTINUOUS
10
23.8459070000000004
20
-68.4566799999999915
11
23.8459070000000004
21
-68.6233100000000036
0
LINE
8
BLACK
6
CONTINUOUS
10
23.8459070000000004
20
-68.6233100000000036
11
23.8133990000000004
21
-68.7867370000000022
0
LINE
8
BLACK
6
CONTINUOUS
10
23.8133990000000004
20
-68.7867370000000022
11
23.7496329999999993
21
-68.9406819999999954
0
LINE
8
BLACK
6
CONTINUOUS
10
23.7496329999999993
20
-68.9406819999999954
11
23.6570590000000003
21
-69.079228999999998
0
LINE
8
BLACK
6
CONTINUOUS
10
23.6570590000000003
20
-69.079228999999998
11
23.5392340000000004
21
-69.1970539999999943
0
LINE
8
BLACK
6
CONTINUOUS
10
23.5392340000000004
20
-69.1970539999999943
11
23.4006869999999978
21
-69.2896279999999933
0
LINE
8
BLACK
6
CONTINUOUS
10
23.4006869999999978
20
-69.2896279999999933
11
23.2467419999999976
21
-69.3533939999999944
0
LINE
8
BLACK
6
CONTINUOUS
10
23.2467419999999976
20
-69.3533939999999944
11
23.0833149999999989
21
-69.3859020000000015
0
LINE
8
BLACK
6
CONTINUOUS
10
23.0833149999999989
20
-69.3859020000000015
11
22.9166849999999975
21
-69.3859020000000015
0
LINE
8
BLACK
6
CONTINUOUS
10
22.9166849999999975
20
-69.3859020000000015
11
22.7532579999999989
21
-69.3533939999999944
0
LINE
8
BLACK
6
CONTINUOUS
10
22.7532579999999989
20
-69.3533939999999944
11
22.5993129999999987
21
-69.2896279999999933
0
LINE
8
BLACK
6
CONTINUOUS
10
22.5993129999999987
20
-69.2896279999999933
11
22.4607659999999996
21
-69.1970539999999943
0
LINE
8
BLACK
6
CONTINUOUS
10
22.4607659999999996
20
-69.1970539999999943
11
22.3429409999999997
21
-69.079228999999998
0
LINE
8
BLACK
6
CONTINUOUS
10
22.3429409999999997
20
-69.079228999999998
11
22.2503670000000007
21
-68.9406819999999954
0
LINE
8
BLACK
6
CONTINUOUS
10
22.2503670000000007
20
-68.9406819999999954
11
22.1866009999999996
21
-68.7867370000000022
0
LINE
8
BLACK
6
CONTINUOUS
10
22.1866009999999996
20
-68.7867370000000022
11
22.1540929999999996
21
-68.6233100000000036
0
LINE
8
BLACK
6
CONTINUOUS
10
22.1540929999999996
20
-68.6233100000000036
11
22.1540929999999996
21
-68.4566799999999915
0
LINE
8
BLACK
6
CONTINUOUS
10
22.1540929999999996
20
-68.4566799999999915
11
22.1866009999999996
21
-68.2932529999999929
0
LINE
8
BLACK
6
CONTINUOUS
10
22.1866009999999996
20
-68.2932529999999929
11
22.2503670000000007
21
-68.1393079999999998
0
LINE
8
BLACK
6
CONTINUOUS
10
22.2503670000000007
20
-68.1393079999999998
11
22.3429409999999997
21
-68.0007609999999971
0
LINE
8
BLACK
6
CONTINUOUS
10
22.3429409999999997
20
-68.0007609999999971
11
22.4607659999999996
21
-67.8829360000000008
0
LINE
8
BLACK
6
CONTINUOUS
10
22.4607659999999996
20
-67.8829360000000008
11
22.5993129999999987
21
-67.7903620000000018
0
LINE
8
BLACK
6
CONTINUOUS
10
22.5993129999999987
20
-67.7903620000000018
11
22.7532579999999989
21
-67.7265960000000007
0
LINE
8
BLACK
6
CONTINUOUS
10
22.7532579999999989
20
-67.7265960000000007
11
22.9166849999999975
21
-67.6940879999999936
0
LINE
8
BLACK
6
CONTINUOUS
10
22.9166849999999975
20
-67.6940879999999936
11
23.0833149999999989
21
-67.6940879999999936
0
LINE
8
BLACK
6
CONTINUOUS
10
23.0833149999999989
20
-67.6940879999999936
11
23.2467419999999976
21
-67.7265960000000007
0
LINE
8
BLACK
6
CONTINUOUS
10
28.2467419999999976
20
-67.7265960000000007
11
28.4006869999999978
21
-67.7903620000000018
0
LINE
8
BLACK
6
CONTINUOUS
10
28.4006869999999978
20
-67.7903620000000018
11
28.5392340000000004
21
-67.8829360000000008
0
LINE
8
BLACK
6
CONTINUOUS
10
28.5392340000000004
20
-67.8829360000000008
11
28.6570590000000003
21
-68.0007609999999971
0
LINE
8
BLACK
6
CONTINUOUS
10
28.6570590000000003
20
-68.0007609999999971
11
28.7496329999999993
21
-68.1393079999999998
0
LINE
8
BLACK
6
CONTINUOUS
10
28.7496329999999993
20
-68.1393079999999998
11
28.8133990000000004
21
-68.2932529999999929
0
LINE
8
BLACK
6
CONTINUOUS
10
28.8133990000000004
20
-68.2932529999999929
11
28.8459070000000004
21
-68.4566799999999915
0
LINE
8
BLACK
6
CONTINUOUS
10
28.8459070000000004
20
-68.4566799999999915
11
28.8459070000000004
21
-68.6233100000000036
0
LINE
8
BLACK
6
CONTINUOUS
10
28.8459070000000004
20
-68.6233100000000036
11
28.8133990000000004
21
-68.7867370000000022
0
LINE
8
BLACK
6
CONTINUOUS
10
28.8133990000000004
20
-68.7867370000000022
11
28.7496329999999993
21
-68.9406819999999954
0
LINE
8
BLACK
6
CONTINUOUS
10
28.7496329999999993
20
-68.9406819999999954
11
28.6570590000000003
21
-69.079228999999998
0
LINE
8
BLACK
6
CONTINUOUS
10
28.6570590000000003
20
-69.079228999999998
11
28.5392340000000004
21
-69.1970539999999943
0
LINE
8
BLACK
6
CONTINUOUS
10
28.5392340000000004
20
-69.1970539999999943
11
28.4006869999999978
21
-69.2896279999999933
0
LINE
8
BLACK
6
CONTINUOUS
10
28.4006869999999978
20
-69.2896279999999933
11
28.2467419999999976
21
-69.3533939999999944
0
LINE
8
BLACK
6
CONTINUOUS
10
28.2467419999999976
20
-69.3533939999999944
11
28.0833149999999989
21
-69.3859020000000015
0
LINE
8
BLACK
6
CONTINUOUS
10
28.0833149999999989
20
-69.3859020000000015
11
27.9166849999999975
21
-69.3859020000000015
0
LINE
8
BLACK
6
CONTINUOUS
10
27.9166849999999975
20
-69.3859020000000015
11
27.7532579999999989
21
-69.3533939999999944
0
LINE
8
BLACK
6
CONTINUOUS
10
27.7532579999999989
20
-69.3533939999999944
11
27.5993129999999987
21
-69.2896279999999933
0
LINE
8
BLACK
6
CONTINUOUS
10
27.5993129999999987
20
-69.2896279999999933
11
27.4607659999999996
21
-69.1970539999999943
0
LINE
8
BLACK
6
CONTINUOUS
10
27.4607659999999996
20
-69.1970539999999943
11
27.3429409999999997
21
-69.079228999999998
0
LINE
8
BLACK
6
CONTINUOUS
10
27.3429409999999997
20
-69.079228999999998
11
27.2503669999999971
21
-68.9406819999999954
0
LINE
8
BLACK
6
CONTINUOUS
10
27.2503669999999971
20
-68.9406819999999954
11
27.1866009999999996
21
-68.7867370000000022
0
LINE
8
BLACK
6
CONTINUOUS
10
27.1866009999999996
20
-68.7867370000000022
11
27.1540929999999996
21
-68.6233100000000036
0
LINE
8
BLACK
6
CONTINUOUS
10
27.1540929999999996
20
-68.6233100000000036
11
27.1540929999999996
21
-68.4566799999999915
0
LINE
8
BLACK
6
CONTINUOUS
10
27.1540929999999996
20
-68.4566799999999915
11
27.1866009999999996
21
-68.2932529999999929
0
LINE
8
BLACK
6
CONTINUOUS
10
27.1866009999999996
20
-68.2932529999999929
11
27.2503669999999971
21
-68.1393079999999998
0
LINE
8
BLACK
6
CONTINUOUS
10
27.2503669999999971
20
-68.1393079999999998
11
27.3429409999999997
21
-68.0007609999999971
0
LINE
8
BLACK
6
CONTINUOUS
10
27.3429409999999997
20
-68.0007609999999971
11
27.4607659999999996
21
-67.8829360000000008
0
LINE
8
BLACK
6
CONTINUOUS
10
27.4607659999999996
20
-67.8829360000000008
11
27.5993129999999987
21
-67.7903620000000018
0
LINE
8
BLACK
6
CONTINUOUS
10
27.5993129999999987
20
-67.7903620000000018
11
27.7532579999999989
21
-67.7265960000000007
0
LINE
8
BLACK
6
CONTINUOUS
10
27.7532579999999989
20
-67.7265960000000007
11
27.9166849999999975
21
-67.6940879999999936
0
LINE
8
BLACK
6
CONTINUOUS
10
27.9166849999999975
20
-67.6940879999999936
11
28.0833149999999989
21
-67.6940879999999936
0
LINE
8
BLACK
6
CONTINUOUS
10
28.0833149999999989
20
-67.6940879999999936
11
28.2467419999999976
21
-67.7265960000000007
0
LINE
8
BLACK
6
CONTINUOUS
10
30.7867420000000003
20
-67.7265960000000007
11
30.9406869999999969
21
-67.7903620000000018
0
LINE
8
BLACK
6
CONTINUOUS
10
30.9406869999999969
20
-67.7903620000000018
11
31.0792339999999996
21
-67.8829360000000008
0
LINE
8
BLACK
6
CONTINUOUS
10
31.0792339999999996
20
-67.8829360000000008
11
31.1970589999999994
21
-68.0007609999999971
0
LINE
8
BLACK
6
CONTINUOUS
10
31.1970589999999994
20
-68.0007609999999971
11
31.2896329999999985
21
-68.1393079999999998
0
LINE
8
BLACK
6
CONTINUOUS
10
31.2896329999999985
20
-68.1393079999999998
11
31.3533989999999996
21
-68.2932529999999929
0
LINE
8
BLACK
6
CONTINUOUS
10
31.3533989999999996
20
-68.2932529999999929
11
31.3859069999999996
21
-68.4566799999999915
0
LINE
8
BLACK
6
CONTINUOUS
10
31.3859069999999996
20
-68.4566799999999915
11
31.3859069999999996
21
-68.6233100000000036
0
LINE
8
BLACK
6
CONTINUOUS
10
31.3859069999999996
20
-68.6233100000000036
11
31.3533989999999996
21
-68.7867370000000022
0
LINE
8
BLACK
6
CONTINUOUS
10
31.3533989999999996
20
-68.7867370000000022
11
31.2896329999999985
21
-68.9406819999999954
0
LINE
8
BLACK
6
CONTINUOUS
10
31.2896329999999985
20
-68.9406819999999954
11
31.1970589999999994
21
-69.079228999999998
0
LINE
8
BLACK
6
CONTINUOUS
10
31.1970589999999994
20
-69.079228999999998
11
31.0792339999999996
21
-69.1970539999999943
0
LINE
8
BLACK
6
CONTINUOUS
10
31.0792339999999996
20
-69.1970539999999943
11
30.9406869999999969
21
-69.2896279999999933
0
LINE
8
BLACK
6
CONTINUOUS
10
30.9406869999999969
20
-69.2896279999999933
11
30.7867420000000003
21
-69.3533939999999944
0
LINE
8
BLACK
6
CONTINUOUS
10
30.7867420000000003
20
-69.3533939999999944
11
30.6233149999999981
21
-69.3859020000000015
0
LINE
8
BLACK
6
CONTINUOUS
10
30.6233149999999981
20
-69.3859020000000015
11
30.4566850000000002
21
-69.3859020000000015
0
LINE
8
BLACK
6
CONTINUOUS
10
30.4566850000000002
20
-69.3859020000000015
11
30.293257999999998
21
-69.3533939999999944
0
LINE
8
BLACK
6
CONTINUOUS
10
30.293257999999998
20
-69.3533939999999944
11
30.1393129999999978
21
-69.2896279999999933
0
LINE
8
BLACK
6
CONTINUOUS
10
30.1393129999999978
20
-69.2896279999999933
11
30.0007659999999987
21
-69.1970539999999943
0
LINE
8
BLACK
6
CONTINUOUS
10
30.0007659999999987
20
-69.1970539999999943
11
29.8829409999999989
21
-69.079228999999998
0
LINE
8
BLACK
6
CONTINUOUS
10
29.8829409999999989
20
-69.079228999999998
11
29.7903669999999998
21
-68.9406819999999954
0
LINE
8
BLACK
6
CONTINUOUS
10
29.7903669999999998
20
-68.9406819999999954
11
29.7266009999999987
21
-68.7867370000000022
0
LINE
8
BLACK
6
CONTINUOUS
10
29.7266009999999987
20
-68.7867370000000022
11
29.6940929999999987
21
-68.6233100000000036
0
LINE
8
BLACK
6
CONTINUOUS
10
29.6940929999999987
20
-68.6233100000000036
11
29.6940929999999987
21
-68.4566799999999915
0
LINE
8
BLACK
6
CONTINUOUS
10
29.6940929999999987
20
-68.4566799999999915
11
29.7266009999999987
21
-68.2932529999999929
0
LINE
8
BLACK
6
CONTINUOUS
10
29.7266009999999987
20
-68.2932529999999929
11
29.7903669999999998
21
-68.1393079999999998
0
LINE
8
BLACK
6
CONTINUOUS
10
29.7903669999999998
20
-68.1393079999999998
11
29.8829409999999989
21
-68.0007609999999971
0
LINE
8
BLACK
6
CONTINUOUS
10
29.8829409999999989
20
-68.0007609999999971
11
30.0007659999999987
21
-67.8829360000000008
0
LINE
8
BLACK
6
CONTINUOUS
10
30.0007659999999987
20
-67.8829360000000008
11
30.1393129999999978
21
-67.7903620000000018
0
LINE
8
BLACK
6
CONTINUOUS
10
30.1393129999999978
20
-67.7903620000000018
11
30.293257999999998
21
-67.7265960000000007
0
LINE
8
BLACK
6
CONTINUOUS
10
30.293257999999998
20
-67.7265960000000007
11
30.4566850000000002
21
-67.6940879999999936
0
LINE
8
BLACK
6
CONTINUOUS
10
30.4566850000000002
20
-67.6940879999999936
11
30.6233149999999981
21
-67.6940879999999936
0
LINE
8
BLACK
6
CONTINUOUS
10
30.6233149999999981
20
-67.6940879999999936
11
30.7867420000000003
21
-67.7265960000000007
0
LINE
8
BLACK
6
CONTINUOUS
10
33.3267419999999959
20
-67.7265960000000007
11
33.4806869999999961
21
-67.7903620000000018
0
LINE
8
BLACK
6
CONTINUOUS
10
33.4806869999999961
20
-67.7903620000000018
11
33.6192339999999987
21
-67.8829360000000008
0
LINE
8
BLACK
6
CONTINUOUS
10
33.6192339999999987
20
-67.8829360000000008
11
33.737058999999995
21
-68.0007609999999971
0
LINE
8
BLACK
6
CONTINUOUS
10
33.737058999999995
20
-68.0007609999999971
11
33.8296330000000012
21
-68.1393079999999998
0
LINE
8
BLACK
6
CONTINUOUS
10
33.8296330000000012
20
-68.1393079999999998
11
33.8933989999999952
21
-68.2932529999999929
0
LINE
8
BLACK
6
CONTINUOUS
10
33.8933989999999952
20
-68.2932529999999929
11
33.9259069999999952
21
-68.4566799999999915
0
LINE
8
BLACK
6
CONTINUOUS
10
33.9259069999999952
20
-68.4566799999999915
11
33.9259069999999952
21
-68.6233100000000036
0
LINE
8
BLACK
6
CONTINUOUS
10
33.9259069999999952
20
-68.6233100000000036
11
33.8933989999999952
21
-68.7867370000000022
0
LINE
8
BLACK
6
CONTINUOUS
10
33.8933989999999952
20
-68.7867370000000022
11
33.8296330000000012
21
-68.9406819999999954
0
LINE
8
BLACK
6
CONTINUOUS
10
33.8296330000000012
20
-68.9406819999999954
11
33.737058999999995
21
-69.079228999999998
0
LINE
8
BLACK
6
CONTINUOUS
10
33.737058999999995
20
-69.079228999999998
11
33.6192339999999987
21
-69.1970539999999943
0
LINE
8
BLACK
6
CONTINUOUS
10
33.6192339999999987
20
-69.1970539999999943
11
33.4806869999999961
21
-69.2896279999999933
0
LINE
8
BLACK
6
CONTINUOUS
10
33.4806869999999961
20
-69.2896279999999933
11
33.3267419999999959
21
-69.3533939999999944
0
LINE
8
BLACK
6
CONTINUOUS
10
33.3267419999999959
20
-69.3533939999999944
11
33.1633149999999972
21
-69.3859020000000015
0
LINE
8
BLACK
6
CONTINUOUS
10
33.1633149999999972
20
-69.3859020000000015
11
32.9966849999999994
21
-69.3859020000000015
0
LINE
8
BLACK
6
CONTINUOUS
10
32.9966849999999994
20
-69.3859020000000015
11
32.8332580000000007
21
-69.3533939999999944
0
LINE
8
BLACK
6
CONTINUOUS
10
32.8332580000000007
20
-69.3533939999999944
11
32.6793130000000005
21
-69.2896279999999933
0
LINE
8
BLACK
6
CONTINUOUS
10
32.6793130000000005
20
-69.2896279999999933
11
32.5407659999999979
21
-69.1970539999999943
0
LINE
8
BLACK
6
CONTINUOUS
10
32.5407659999999979
20
-69.1970539999999943
11
32.4229410000000016
21
-69.079228999999998
0
LINE
8
BLACK
6
CONTINUOUS
10
32.4229410000000016
20
-69.079228999999998
11
32.3303669999999954
21
-68.9406819999999954
0
LINE
8
BLACK
6
CONTINUOUS
10
32.3303669999999954
20
-68.9406819999999954
11
32.2666010000000014
21
-68.7867370000000022
0
LINE
8
BLACK
6
CONTINUOUS
10
32.2666010000000014
20
-68.7867370000000022
11
32.2340930000000014
21
-68.6233100000000036
0
LINE
8
BLACK
6
CONTINUOUS
10
32.2340930000000014
20
-68.6233100000000036
11
32.2340930000000014
21
-68.4566799999999915
0
LINE
8
BLACK
6
CONTINUOUS
10
32.2340930000000014
20
-68.4566799999999915
11
32.2666010000000014
21
-68.2932529999999929
0
LINE
8
BLACK
6
CONTINUOUS
10
32.2666010000000014
20
-68.2932529999999929
11
32.3303669999999954
21
-68.1393079999999998
0
LINE
8
BLACK
6
CONTINUOUS
10
32.3303669999999954
20
-68.1393079999999998
11
32.4229410000000016
21
-68.0007609999999971
0
LINE
8
BLACK
6
CONTINUOUS
10
32.4229410000000016
20
-68.0007609999999971
11
32.5407659999999979
21
-67.8829360000000008
0
LINE
8
BLACK
6
CONTINUOUS
10
32.5407659999999979
20
-67.8829360000000008
11
32.6793130000000005
21
-67.7903620000000018
0
LINE
8
BLACK
6
CONTINUOUS
10
32.6793130000000005
20
-67.7903620000000018
11
32.8332580000000007
21
-67.7265960000000007
0
LINE
8
BLACK
6
CONTINUOUS
10
32.8332580000000007
20
-67.7265960000000007
11
32.9966849999999994
21
-67.6940879999999936
0
LINE
8
BLACK
6
CONTINUOUS
10
32.9966849999999994
20
-67.6940879999999936
11
33.1633149999999972
21
-67.6940879999999936
0
LINE
8
BLACK
6
CONTINUOUS
10
33.1633149999999972
20
-67.6940879999999936
11
33.3267419999999959
21
-67.7265960000000007
0
LINE
8
BLACK
6
CONTINUOUS
10
35.866741999999995
20
-67.7265960000000007
11
36.0206869999999952
21
-67.7903620000000018
0
LINE
8
BLACK
6
CONTINUOUS
10
36.0206869999999952
20
-67.7903620000000018
11
36.1592339999999979
21
-67.8829360000000008
0
LINE
8
BLACK
6
CONTINUOUS
10
36.1592339999999979
20
-67.8829360000000008
11
36.2770590000000013
21
-68.0007609999999971
0
LINE
8
BLACK
6
CONTINUOUS
10
36.2770590000000013
20
-68.0007609999999971
11
36.3696330000000003
21
-68.1393079999999998
0
LINE
8
BLACK
6
CONTINUOUS
10
36.3696330000000003
20
-68.1393079999999998
11
36.4333990000000014
21
-68.2932529999999929
0
LINE
8
BLACK
6
CONTINUOUS
10
36.4333990000000014
20
-68.2932529999999929
11
36.4659070000000014
21
-68.4566799999999915
0
LINE
8
BLACK
6
CONTINUOUS
10
36.4659070000000014
20
-68.4566799999999915
11
36.4659070000000014
21
-68.6233100000000036
0
LINE
8
BLACK
6
CONTINUOUS
10
36.4659070000000014
20
-68.6233100000000036
11
36.4333990000000014
21
-68.7867370000000022
0
LINE
8
BLACK
6
CONTINUOUS
10
36.4333990000000014
20
-68.7867370000000022
11
36.3696330000000003
21
-68.9406819999999954
0
LINE
8
BLACK
6
CONTINUOUS
10
36.3696330000000003
20
-68.9406819999999954
11
36.2770590000000013
21
-69.079228999999998
0
LINE
8
BLACK
6
CONTINUOUS
10
36.2770590000000013
20
-69.079228999999998
11
36.1592339999999979
21
-69.1970539999999943
0
LINE
8
BLACK
6
CONTINUOUS
10
36.1592339999999979
20
-69.1970539999999943
11
36.0206869999999952
21
-69.2896279999999933
0
LINE
8
BLACK
6
CONTINUOUS
10
36.0206869999999952
20
-69.2896279999999933
11
35.866741999999995
21
-69.3533939999999944
0
LINE
8
BLACK
6
CONTINUOUS
10
35.866741999999995
20
-69.3533939999999944
11
35.7033149999999964
21
-69.3859020000000015
0
LINE
8
BLACK
6
CONTINUOUS
10
35.7033149999999964
20
-69.3859020000000015
11
35.5366849999999985
21
-69.3859020000000015
0
LINE
8
BLACK
6
CONTINUOUS
10
35.5366849999999985
20
-69.3859020000000015
11
35.3732579999999999
21
-69.3533939999999944
0
LINE
8
BLACK
6
CONTINUOUS
10
35.3732579999999999
20
-69.3533939999999944
11
35.2193129999999996
21
-69.2896279999999933
0
LINE
8
BLACK
6
CONTINUOUS
10
35.2193129999999996
20
-69.2896279999999933
11
35.080765999999997
21
-69.1970539999999943
0
LINE
8
BLACK
6
CONTINUOUS
10
35.080765999999997
20
-69.1970539999999943
11
34.9629410000000007
21
-69.079228999999998
0
LINE
8
BLACK
6
CONTINUOUS
10
34.9629410000000007
20
-69.079228999999998
11
34.8703670000000017
21
-68.9406819999999954
0
LINE
8
BLACK
6
CONTINUOUS
10
34.8703670000000017
20
-68.9406819999999954
11
34.8066010000000006
21
-68.7867370000000022
0
LINE
8
BLACK
6
CONTINUOUS
10
34.8066010000000006
20
-68.7867370000000022
11
34.7740930000000006
21
-68.6233100000000036
0
LINE
8
BLACK
6
CONTINUOUS
10
34.7740930000000006
20
-68.6233100000000036
11
34.7740930000000006
21
-68.4566799999999915
0
LINE
8
BLACK
6
CONTINUOUS
10
34.7740930000000006
20
-68.4566799999999915
11
34.8066010000000006
21
-68.2932529999999929
0
LINE
8
BLACK
6
CONTINUOUS
10
34.8066010000000006
20
-68.2932529999999929
11
34.8703670000000017
21
-68.1393079999999998
0
LINE
8
BLACK
6
CONTINUOUS
10
34.8703670000000017
20
-68.1393079999999998
11
34.9629410000000007
21
-68.0007609999999971
0
LINE
8
BLACK
6
CONTINUOUS
10
34.9629410000000007
20
-68.0007609999999971
11
35.080765999999997
21
-67.8829360000000008
0
LINE
8
BLACK
6
CONTINUOUS
10
35.080765999999997
20
-67.8829360000000008
11
35.2193129999999996
21
-67.7903620000000018
0
LINE
8
BLACK
6
CONTINUOUS
10
35.2193129999999996
20
-67.7903620000000018
11
35.3732579999999999
21
-67.7265960000000007
0
LINE
8
BLACK
6
CONTINUOUS
10
35.3732579999999999
20
-67.7265960000000007
11
35.5366849999999985
21
-67.6940879999999936
0
LINE
8
BLACK
6
CONTINUOUS
10
35.5366849999999985
20
-67.6940879999999936
11
35.7033149999999964
21
-67.6940879999999936
0
LINE
8
BLACK
6
CONTINUOUS
10
35.7033149999999964
20
-67.6940879999999936
11
35.866741999999995
21
-67.7265960000000007
0
LINE
8
BLACK
6
CONTINUOUS
10
55.6668239999999983
20
-66.1386820000000029
11
55.8757570000000001
21
-66.2065690000000018
0
LINE
8
BLACK
6
CONTINUOUS
10
55.8757570000000001
20
-66.2065690000000018
11
56.0714979999999983
21
-66.3063039999999972
0
LINE
8
BLACK
6
CONTINUOUS
10
56.0714979999999983
20
-66.3063039999999972
11
56.2492269999999976
21
-66.4354319999999916
0
LINE
8
BLACK
6
CONTINUOUS
10
56.2492269999999976
20
-66.4354319999999916
11
56.4045679999999976
21
-66.5907729999999987
0
LINE
8
BLACK
6
CONTINUOUS
10
56.4045679999999976
20
-66.5907729999999987
11
56.5336959999999991
21
-66.768501999999998
0
LINE
8
BLACK
6
CONTINUOUS
10
56.5336959999999991
20
-66.768501999999998
11
56.6334309999999945
21
-66.9642429999999962
0
LINE
8
BLACK
6
CONTINUOUS
10
56.6334309999999945
20
-66.9642429999999962
11
56.7013180000000006
21
-67.173175999999998
0
LINE
8
BLACK
6
CONTINUOUS
10
56.7013180000000006
20
-67.173175999999998
11
56.7356839999999991
21
-67.3901570000000021
0
LINE
8
BLACK
6
CONTINUOUS
10
56.7356839999999991
20
-67.3901570000000021
11
56.7356839999999991
21
-67.6098429999999979
0
LINE
8
BLACK
6
CONTINUOUS
10
56.7356839999999991
20
-67.6098429999999979
11
56.7013180000000006
21
-67.826824000000002
0
LINE
8
BLACK
6
CONTINUOUS
10
56.7013180000000006
20
-67.826824000000002
11
56.6334309999999945
21
-68.0357570000000038
0
LINE
8
BLACK
6
CONTINUOUS
10
56.6334309999999945
20
-68.0357570000000038
11
56.5336959999999991
21
-68.231498000000002
0
LINE
8
BLACK
6
CONTINUOUS
10
56.5336959999999991
20
-68.231498000000002
11
56.4045679999999976
21
-68.4092270000000013
0
LINE
8
BLACK
6
CONTINUOUS
10
56.4045679999999976
20
-68.4092270000000013
11
56.2492269999999976
21
-68.5645679999999942
0
LINE
8
BLACK
6
CONTINUOUS
10
56.2492269999999976
20
-68.5645679999999942
11
56.0714979999999983
21
-68.6936960000000028
0
LINE
8
BLACK
6
CONTINUOUS
10
56.0714979999999983
20
-68.6936960000000028
11
55.8757570000000001
21
-68.7934309999999982
0
LINE
8
BLACK
6
CONTINUOUS
10
55.8757570000000001
20
-68.7934309999999982
11
55.6668239999999983
21
-68.8613179999999971
0
LINE
8
BLACK
6
CONTINUOUS
10
55.6668239999999983
20
-68.8613179999999971
11
55.4498429999999942
21
-68.8956840000000028
0
LINE
8
BLACK
6
CONTINUOUS
10
55.4498429999999942
20
-68.8956840000000028
11
55.2301569999999984
21
-68.8956840000000028
0
LINE
8
BLACK
6
CONTINUOUS
10
55.2301569999999984
20
-68.8956840000000028
11
55.0131759999999943
21
-68.8613179999999971
0
LINE
8
BLACK
6
CONTINUOUS
10
55.0131759999999943
20
-68.8613179999999971
11
54.8042429999999996
21
-68.7934309999999982
0
LINE
8
BLACK
6
CONTINUOUS
10
54.8042429999999996
20
-68.7934309999999982
11
54.6085019999999943
21
-68.6936960000000028
0
LINE
8
BLACK
6
CONTINUOUS
10
54.6085019999999943
20
-68.6936960000000028
11
54.430772999999995
21
-68.5645679999999942
0
LINE
8
BLACK
6
CONTINUOUS
10
54.430772999999995
20
-68.5645679999999942
11
54.275431999999995
21
-68.4092270000000013
0
LINE
8
BLACK
6
CONTINUOUS
10
54.275431999999995
20
-68.4092270000000013
11
54.1463040000000007
21
-68.231498000000002
0
LINE
8
BLACK
6
CONTINUOUS
10
54.1463040000000007
20
-68.231498000000002
11
54.0465689999999981
21
-68.0357570000000038
0
LINE
8
BLACK
6
CONTINUOUS
10
54.0465689999999981
20
-68.0357570000000038
11
53.9786819999999992
21
-67.826824000000002
0
LINE
8
BLACK
6
CONTINUOUS
10
53.9786819999999992
20
-67.826824000000002
11
53.9443160000000006
21
-67.6098429999999979
0
LINE
8
BLACK
6
CONTINUOUS
10
53.9443160000000006
20
-67.6098429999999979
11
53.9443160000000006
21
-67.3901570000000021
0
LINE
8
BLACK
6
CONTINUOUS
10
53.9443160000000006
20
-67.3901570000000021
11
53.9786819999999992
21
-67.173175999999998
0
LINE
8
BLACK
6
CONTINUOUS
10
53.9786819999999992
20
-67.173175999999998
11
54.0465689999999981
21
-66.9642429999999962
0
LINE
8
BLACK
6
CONTINUOUS
10
54.0465689999999981
20
-66.9642429999999962
11
54.1463040000000007
21
-66.768501999999998
0
LINE
8
BLACK
6
CONTINUOUS
10
54.1463040000000007
20
-66.768501999999998
11
54.275431999999995
21
-66.5907729999999987
0
LINE
8
BLACK
6
CONTINUOUS
10
54.275431999999995
20
-66.5907729999999987
11
54.430772999999995
21
-66.4354319999999916
0
LINE
8
BLACK
6
CONTINUOUS
10
54.430772999999995
20
-66.4354319999999916
11
54.6085019999999943
21
-66.3063039999999972
0
LINE
8
BLACK
6
CONTINUOUS
10
54.6085019999999943
20
-66.3063039999999972
11
54.8042429999999996
21
-66.2065690000000018
0
LINE
8
BLACK
6
CONTINUOUS
10
54.8042429999999996
20
-66.2065690000000018
11
55.0131759999999943
21
-66.1386820000000029
0
LINE
8
BLACK
6
CONTINUOUS
10
55.0131759999999943
20
-66.1386820000000029
11
55.2301569999999984
21
-66.1043159999999972
0
LINE
8
BLACK
6
CONTINUOUS
10
55.2301569999999984
20
-66.1043159999999972
11
55.4498429999999942
21
-66.1043159999999972
0
LINE
8
BLACK
6
CONTINUOUS
10
55.4498429999999942
20
-66.1043159999999972
11
55.6668239999999983
21
-66.1386820000000029
0
LINE
8
BLACK
6
CONTINUOUS
10
75.9868239999999986
20
-66.1386820000000029
11
76.1957570000000004
21
-66.2065690000000018
0
LINE
8
BLACK
6
CONTINUOUS
10
76.1957570000000004
20
-66.2065690000000018
11
76.3914979999999986
21
-66.3063039999999972
0
LINE
8
BLACK
6
CONTINUOUS
10
76.3914979999999986
20
-66.3063039999999972
11
76.5692269999999979
21
-66.4354319999999916
0
LINE
8
BLACK
6
CONTINUOUS
10
76.5692269999999979
20
-66.4354319999999916
11
76.7245679999999908
21
-66.5907729999999987
0
LINE
8
BLACK
6
CONTINUOUS
10
76.7245679999999908
20
-66.5907729999999987
11
76.8536959999999993
21
-66.768501999999998
0
LINE
8
BLACK
6
CONTINUOUS
10
76.8536959999999993
20
-66.768501999999998
11
76.9534309999999948
21
-66.9642429999999962
0
LINE
8
BLACK
6
CONTINUOUS
10
76.9534309999999948
20
-66.9642429999999962
11
77.0213179999999937
21
-67.173175999999998
0
LINE
8
BLACK
6
CONTINUOUS
10
77.0213179999999937
20
-67.173175999999998
11
77.0556839999999994
21
-67.3901570000000021
0
LINE
8
BLACK
6
CONTINUOUS
10
77.0556839999999994
20
-67.3901570000000021
11
77.0556839999999994
21
-67.6098429999999979
0
LINE
8
BLACK
6
CONTINUOUS
10
77.0556839999999994
20
-67.6098429999999979
11
77.0213179999999937
21
-67.826824000000002
0
LINE
8
BLACK
6
CONTINUOUS
10
77.0213179999999937
20
-67.826824000000002
11
76.9534309999999948
21
-68.0357570000000038
0
LINE
8
BLACK
6
CONTINUOUS
10
76.9534309999999948
20
-68.0357570000000038
11
76.8536959999999993
21
-68.231498000000002
0
LINE
8
BLACK
6
CONTINUOUS
10
76.8536959999999993
20
-68.231498000000002
11
76.7245679999999908
21
-68.4092270000000013
0
LINE
8
BLACK
6
CONTINUOUS
10
76.7245679999999908
20
-68.4092270000000013
11
76.5692269999999979
21
-68.5645679999999942
0
LINE
8
BLACK
6
CONTINUOUS
10
76.5692269999999979
20
-68.5645679999999942
11
76.3914979999999986
21
-68.6936960000000028
0
LINE
8
BLACK
6
CONTINUOUS
10
76.3914979999999986
20
-68.6936960000000028
11
76.1957570000000004
21
-68.7934309999999982
0
LINE
8
BLACK
6
CONTINUOUS
10
76.1957570000000004
20
-68.7934309999999982
11
75.9868239999999986
21
-68.8613179999999971
0
LINE
8
BLACK
6
CONTINUOUS
10
75.9868239999999986
20
-68.8613179999999971
11
75.7698429999999945
21
-68.8956840000000028
0
LINE
8
BLACK
6
CONTINUOUS
10
75.7698429999999945
20
-68.8956840000000028
11
75.5501569999999987
21
-68.8956840000000028
0
LINE
8
BLACK
6
CONTINUOUS
10
75.5501569999999987
20
-68.8956840000000028
11
75.3331759999999946
21
-68.8613179999999971
0
LINE
8
BLACK
6
CONTINUOUS
10
75.3331759999999946
20
-68.8613179999999971
11
75.1242429999999928
21
-68.7934309999999982
0
LINE
8
BLACK
6
CONTINUOUS
10
75.1242429999999928
20
-68.7934309999999982
11
74.9285019999999946
21
-68.6936960000000028
0
LINE
8
BLACK
6
CONTINUOUS
10
74.9285019999999946
20
-68.6936960000000028
11
74.7507729999999952
21
-68.5645679999999942
0
LINE
8
BLACK
6
CONTINUOUS
10
74.7507729999999952
20
-68.5645679999999942
11
74.5954320000000024
21
-68.4092270000000013
0
LINE
8
BLACK
6
CONTINUOUS
10
74.5954320000000024
20
-68.4092270000000013
11
74.4663039999999938
21
-68.231498000000002
0
LINE
8
BLACK
6
CONTINUOUS
10
74.4663039999999938
20
-68.231498000000002
11
74.3665689999999984
21
-68.0357570000000038
0
LINE
8
BLACK
6
CONTINUOUS
10
74.3665689999999984
20
-68.0357570000000038
11
74.2986819999999994
21
-67.826824000000002
0
LINE
8
BLACK
6
CONTINUOUS
10
74.2986819999999994
20
-67.826824000000002
11
74.2643159999999938
21
-67.6098429999999979
0
LINE
8
BLACK
6
CONTINUOUS
10
74.2643159999999938
20
-67.6098429999999979
11
74.2643159999999938
21
-67.3901570000000021
0
LINE
8
BLACK
6
CONTINUOUS
10
74.2643159999999938
20
-67.3901570000000021
11
74.2986819999999994
21
-67.173175999999998
0
LINE
8
BLACK
6
CONTINUOUS
10
74.2986819999999994
20
-67.173175999999998
11
74.3665689999999984
21
-66.9642429999999962
0
LINE
8
BLACK
6
CONTINUOUS
10
74.3665689999999984
20
-66.9642429999999962
11
74.4663039999999938
21
-66.768501999999998
0
LINE
8
BLACK
6
CONTINUOUS
10
74.4663039999999938
20
-66.768501999999998
11
74.5954320000000024
21
-66.5907729999999987
0
LINE
8
BLACK
6
CONTINUOUS
10
74.5954320000000024
20
-66.5907729999999987
11
74.7507729999999952
21
-66.4354319999999916
0
LINE
8
BLACK
6
CONTINUOUS
10
74.7507729999999952
20
-66.4354319999999916
11
74.9285019999999946
21
-66.3063039999999972
0
LINE
8
BLACK
6
CONTINUOUS
10
74.9285019999999946
20
-66.3063039999999972
11
75.1242429999999928
21
-66.2065690000000018
0
LINE
8
BLACK
6
CONTINUOUS
10
75.1242429999999928
20
-66.2065690000000018
11
75.3331759999999946
21
-66.1386820000000029
0
LINE
8
BLACK
6
CONTINUOUS
10
75.3331759999999946
20
-66.1386820000000029
11
75.5501569999999987
21
-66.1043159999999972
0
LINE
8
BLACK
6
CONTINUOUS
10
75.5501569999999987
20
-66.1043159999999972
11
75.7698429999999945
21
-66.1043159999999972
0
LINE
8
BLACK
6
CONTINUOUS
10
75.7698429999999945
20
-66.1043159999999972
11
75.9868239999999986
21
-66.1386820000000029
0
LINE
8
BLACK
6
CONTINUOUS
10
23.8499999999999979
20
-66.8499949999999927
11
22.1499999999999986
21
-66.8499949999999927
0
LINE
8
BLACK
6
CONTINUOUS
10
22.1499999999999986
20
-66.8499949999999927
11
22.1499999999999986
21
-65.1499950000000041
0
LINE
8
BLACK
6
CONTINUOUS
10
22.1499999999999986
20
-65.1499950000000041
11
23.8499999999999979
21
-65.1499950000000041
0
LINE
8
BLACK
6
CONTINUOUS
10
23.8499999999999979
20
-65.1499950000000041
11
23.8499999999999979
21
-66.8499949999999927
0
LINE
8
BLACK
6
CONTINUOUS
10
28.8499999999999979
20
-66.8499949999999927
11
27.1499999999999986
21
-66.8499949999999927
0
LINE
8
BLACK
6
CONTINUOUS
10
27.1499999999999986
20
-66.8499949999999927
11
27.1499999999999986
21
-65.1499950000000041
0
LINE
8
BLACK
6
CONTINUOUS
10
27.1499999999999986
20
-65.1499950000000041
11
28.8499999999999979
21
-65.1499950000000041
0
LINE
8
BLACK
6
CONTINUOUS
10
28.8499999999999979
20
-65.1499950000000041
11
28.8499999999999979
21
-66.8499949999999927
0
LINE
8
BLACK
6
CONTINUOUS
10
30.7867420000000003
20
-65.1865959999999944
11
30.9406869999999969
21
-65.2503619999999955
0
LINE
8
BLACK
6
CONTINUOUS
10
30.9406869999999969
20
-65.2503619999999955
11
31.0792339999999996
21
-65.3429359999999946
0
LINE
8
BLACK
6
CONTINUOUS
10
31.0792339999999996
20
-65.3429359999999946
11
31.1970589999999994
21
-65.4607609999999909
0
LINE
8
BLACK
6
CONTINUOUS
10
31.1970589999999994
20
-65.4607609999999909
11
31.2896329999999985
21
-65.5993079999999935
0
LINE
8
BLACK
6
CONTINUOUS
10
31.2896329999999985
20
-65.5993079999999935
11
31.3533989999999996
21
-65.7532530000000008
0
LINE
8
BLACK
6
CONTINUOUS
10
31.3533989999999996
20
-65.7532530000000008
11
31.3859069999999996
21
-65.9166799999999995
0
LINE
8
BLACK
6
CONTINUOUS
10
31.3859069999999996
20
-65.9166799999999995
11
31.3859069999999996
21
-66.0833099999999973
0
LINE
8
BLACK
6
CONTINUOUS
10
31.3859069999999996
20
-66.0833099999999973
11
31.3533989999999996
21
-66.246736999999996
0
LINE
8
BLACK
6
CONTINUOUS
10
31.3533989999999996
20
-66.246736999999996
11
31.2896329999999985
21
-66.4006820000000033
0
LINE
8
BLACK
6
CONTINUOUS
10
31.2896329999999985
20
-66.4006820000000033
11
31.1970589999999994
21
-66.5392289999999917
0
LINE
8
BLACK
6
CONTINUOUS
10
31.1970589999999994
20
-66.5392289999999917
11
31.0792339999999996
21
-66.6570540000000022
0
LINE
8
BLACK
6
CONTINUOUS
10
31.0792339999999996
20
-66.6570540000000022
11
30.9406869999999969
21
-66.7496280000000013
0
LINE
8
BLACK
6
CONTINUOUS
10
30.9406869999999969
20
-66.7496280000000013
11
30.7867420000000003
21
-66.8133940000000024
0
LINE
8
BLACK
6
CONTINUOUS
10
30.7867420000000003
20
-66.8133940000000024
11
30.6233149999999981
21
-66.8459019999999953
0
LINE
8
BLACK
6
CONTINUOUS
10
30.6233149999999981
20
-66.8459019999999953
11
30.4566850000000002
21
-66.8459019999999953
0
LINE
8
BLACK
6
CONTINUOUS
10
30.4566850000000002
20
-66.8459019999999953
11
30.293257999999998
21
-66.8133940000000024
0
LINE
8
BLACK
6
CONTINUOUS
10
30.293257999999998
20
-66.8133940000000024
11
30.1393129999999978
21
-66.7496280000000013
0
LINE
8
BLACK
6
CONTINUOUS
10
30.1393129999999978
20
-66.7496280000000013
11
30.0007659999999987
21
-66.6570540000000022
0
LINE
8
BLACK
6
CONTINUOUS
10
30.0007659999999987
20
-66.6570540000000022
11
29.8829409999999989
21
-66.5392289999999917
0
LINE
8
BLACK
6
CONTINUOUS
10
29.8829409999999989
20
-66.5392289999999917
11
29.7903669999999998
21
-66.4006820000000033
0
LINE
8
BLACK
6
CONTINUOUS
10
29.7903669999999998
20
-66.4006820000000033
11
29.7266009999999987
21
-66.246736999999996
0
LINE
8
BLACK
6
CONTINUOUS
10
29.7266009999999987
20
-66.246736999999996
11
29.6940929999999987
21
-66.0833099999999973
0
LINE
8
BLACK
6
CONTINUOUS
10
29.6940929999999987
20
-66.0833099999999973
11
29.6940929999999987
21
-65.9166799999999995
0
LINE
8
BLACK
6
CONTINUOUS
10
29.6940929999999987
20
-65.9166799999999995
11
29.7266009999999987
21
-65.7532530000000008
0
LINE
8
BLACK
6
CONTINUOUS
10
29.7266009999999987
20
-65.7532530000000008
11
29.7903669999999998
21
-65.5993079999999935
0
LINE
8
BLACK
6
CONTINUOUS
10
29.7903669999999998
20
-65.5993079999999935
11
29.8829409999999989
21
-65.4607609999999909
0
LINE
8
BLACK
6
CONTINUOUS
10
29.8829409999999989
20
-65.4607609999999909
11
30.0007659999999987
21
-65.3429359999999946
0
LINE
8
BLACK
6
CONTINUOUS
10
30.0007659999999987
20
-65.3429359999999946
11
30.1393129999999978
21
-65.2503619999999955
0
LINE
8
BLACK
6
CONTINUOUS
10
30.1393129999999978
20
-65.2503619999999955
11
30.293257999999998
21
-65.1865959999999944
0
LINE
8
BLACK
6
CONTINUOUS
10
30.293257999999998
20
-65.1865959999999944
11
30.4566850000000002
21
-65.1540880000000016
0
LINE
8
BLACK
6
CONTINUOUS
10
30.4566850000000002
20
-65.1540880000000016
11
30.6233149999999981
21
-65.1540880000000016
0
LINE
8
BLACK
6
CONTINUOUS
10
30.6233149999999981
20
-65.1540880000000016
11
30.7867420000000003
21
-65.1865959999999944
0
LINE
8
BLACK
6
CONTINUOUS
10
33.3267419999999959
20
-65.1865959999999944
11
33.4806869999999961
21
-65.2503619999999955
0
LINE
8
BLACK
6
CONTINUOUS
10
33.4806869999999961
20
-65.2503619999999955
11
33.6192339999999987
21
-65.3429359999999946
0
LINE
8
BLACK
6
CONTINUOUS
10
33.6192339999999987
20
-65.3429359999999946
11
33.737058999999995
21
-65.4607609999999909
0
LINE
8
BLACK
6
CONTINUOUS
10
33.737058999999995
20
-65.4607609999999909
11
33.8296330000000012
21
-65.5993079999999935
0
LINE
8
BLACK
6
CONTINUOUS
10
33.8296330000000012
20
-65.5993079999999935
11
33.8933989999999952
21
-65.7532530000000008
0
LINE
8
BLACK
6
CONTINUOUS
10
33.8933989999999952
20
-65.7532530000000008
11
33.9259069999999952
21
-65.9166799999999995
0
LINE
8
BLACK
6
CONTINUOUS
10
33.9259069999999952
20
-65.9166799999999995
11
33.9259069999999952
21
-66.0833099999999973
0
LINE
8
BLACK
6
CONTINUOUS
10
33.9259069999999952
20
-66.0833099999999973
11
33.8933989999999952
21
-66.246736999999996
0
LINE
8
BLACK
6
CONTINUOUS
10
33.8933989999999952
20
-66.246736999999996
11
33.8296330000000012
21
-66.4006820000000033
0
LINE
8
BLACK
6
CONTINUOUS
10
33.8296330000000012
20
-66.4006820000000033
11
33.737058999999995
21
-66.5392289999999917
0
LINE
8
BLACK
6
CONTINUOUS
10
33.737058999999995
20
-66.5392289999999917
11
33.6192339999999987
21
-66.6570540000000022
0
LINE
8
BLACK
6
CONTINUOUS
10
33.6192339999999987
20
-66.6570540000000022
11
33.4806869999999961
21
-66.7496280000000013
0
LINE
8
BLACK
6
CONTINUOUS
10
33.4806869999999961
20
-66.7496280000000013
11
33.3267419999999959
21
-66.8133940000000024
0
LINE
8
BLACK
6
CONTINUOUS
10
33.3267419999999959
20
-66.8133940000000024
11
33.1633149999999972
21
-66.8459019999999953
0
LINE
8
BLACK
6
CONTINUOUS
10
33.1633149999999972
20
-66.8459019999999953
11
32.9966849999999994
21
-66.8459019999999953
0
LINE
8
BLACK
6
CONTINUOUS
10
32.9966849999999994
20
-66.8459019999999953
11
32.8332580000000007
21
-66.8133940000000024
0
LINE
8
BLACK
6
CONTINUOUS
10
32.8332580000000007
20
-66.8133940000000024
11
32.6793130000000005
21
-66.7496280000000013
0
LINE
8
BLACK
6
CONTINUOUS
10
32.6793130000000005
20
-66.7496280000000013
11
32.5407659999999979
21
-66.6570540000000022
0
LINE
8
BLACK
6
CONTINUOUS
10
32.5407659999999979
20
-66.6570540000000022
11
32.4229410000000016
21
-66.5392289999999917
0
LINE
8
BLACK
6
CONTINUOUS
10
32.4229410000000016
20
-66.5392289999999917
11
32.3303669999999954
21
-66.4006820000000033
0
LINE
8
BLACK
6
CONTINUOUS
10
32.3303669999999954
20
-66.4006820000000033
11
32.2666010000000014
21
-66.246736999999996
0
LINE
8
BLACK
6
CONTINUOUS
10
32.2666010000000014
20
-66.246736999999996
11
32.2340930000000014
21
-66.0833099999999973
0
LINE
8
BLACK
6
CONTINUOUS
10
32.2340930000000014
20
-66.0833099999999973
11
32.2340930000000014
21
-65.9166799999999995
0
LINE
8
BLACK
6
CONTINUOUS
10
32.2340930000000014
20
-65.9166799999999995
11
32.2666010000000014
21
-65.7532530000000008
0
LINE
8
BLACK
6
CONTINUOUS
10
32.2666010000000014
20
-65.7532530000000008
11
32.3303669999999954
21
-65.5993079999999935
0
LINE
8
BLACK
6
CONTINUOUS
10
32.3303669999999954
20
-65.5993079999999935
11
32.4229410000000016
21
-65.4607609999999909
0
LINE
8
BLACK
6
CONTINUOUS
10
32.4229410000000016
20
-65.4607609999999909
11
32.5407659999999979
21
-65.3429359999999946
0
LINE
8
BLACK
6
CONTINUOUS
10
32.5407659999999979
20
-65.3429359999999946
11
32.6793130000000005
21
-65.2503619999999955
0
LINE
8
BLACK
6
CONTINUOUS
10
32.6793130000000005
20
-65.2503619999999955
11
32.8332580000000007
21
-65.1865959999999944
0
LINE
8
BLACK
6
CONTINUOUS
10
32.8332580000000007
20
-65.1865959999999944
11
32.9966849999999994
21
-65.1540880000000016
0
LINE
8
BLACK
6
CONTINUOUS
10
32.9966849999999994
20
-65.1540880000000016
11
33.1633149999999972
21
-65.1540880000000016
0
LINE
8
BLACK
6
CONTINUOUS
10
33.1633149999999972
20
-65.1540880000000016
11
33.3267419999999959
21
-65.1865959999999944
0
LINE
8
BLACK
6
CONTINUOUS
10
35.866741999999995
20
-65.1865959999999944
11
36.0206869999999952
21
-65.2503619999999955
0
LINE
8
BLACK
6
CONTINUOUS
10
36.0206869999999952
20
-65.2503619999999955
11
36.1592339999999979
21
-65.3429359999999946
0
LINE
8
BLACK
6
CONTINUOUS
10
36.1592339999999979
20
-65.3429359999999946
11
36.2770590000000013
21
-65.4607609999999909
0
LINE
8
BLACK
6
CONTINUOUS
10
36.2770590000000013
20
-65.4607609999999909
11
36.3696330000000003
21
-65.5993079999999935
0
LINE
8
BLACK
6
CONTINUOUS
10
36.3696330000000003
20
-65.5993079999999935
11
36.4333990000000014
21
-65.7532530000000008
0
LINE
8
BLACK
6
CONTINUOUS
10
36.4333990000000014
20
-65.7532530000000008
11
36.4659070000000014
21
-65.9166799999999995
0
LINE
8
BLACK
6
CONTINUOUS
10
36.4659070000000014
20
-65.9166799999999995
11
36.4659070000000014
21
-66.0833099999999973
0
LINE
8
BLACK
6
CONTINUOUS
10
36.4659070000000014
20
-66.0833099999999973
11
36.4333990000000014
21
-66.246736999999996
0
LINE
8
BLACK
6
CONTINUOUS
10
36.4333990000000014
20
-66.246736999999996
11
36.3696330000000003
21
-66.4006820000000033
0
LINE
8
BLACK
6
CONTINUOUS
10
36.3696330000000003
20
-66.4006820000000033
11
36.2770590000000013
21
-66.5392289999999917
0
LINE
8
BLACK
6
CONTINUOUS
10
36.2770590000000013
20
-66.5392289999999917
11
36.1592339999999979
21
-66.6570540000000022
0
LINE
8
BLACK
6
CONTINUOUS
10
36.1592339999999979
20
-66.6570540000000022
11
36.0206869999999952
21
-66.7496280000000013
0
LINE
8
BLACK
6
CONTINUOUS
10
36.0206869999999952
20
-66.7496280000000013
11
35.866741999999995
21
-66.8133940000000024
0
LINE
8
BLACK
6
CONTINUOUS
10
35.866741999999995
20
-66.8133940000000024
11
35.7033149999999964
21
-66.8459019999999953
0
LINE
8
BLACK
6
CONTINUOUS
10
35.7033149999999964
20
-66.8459019999999953
11
35.5366849999999985
21
-66.8459019999999953
0
LINE
8
BLACK
6
CONTINUOUS
10
35.5366849999999985
20
-66.8459019999999953
11
35.3732579999999999
21
-66.8133940000000024
0
LINE
8
BLACK
6
CONTINUOUS
10
35.3732579999999999
20
-66.8133940000000024
11
35.2193129999999996
21
-66.7496280000000013
0
LINE
8
BLACK
6
CONTINUOUS
10
35.2193129999999996
20
-66.7496280000000013
11
35.080765999999997
21
-66.6570540000000022
0
LINE
8
BLACK
6
CONTINUOUS
10
35.080765999999997
20
-66.6570540000000022
11
34.9629410000000007
21
-66.5392289999999917
0
LINE
8
BLACK
6
CONTINUOUS
10
34.9629410000000007
20
-66.5392289999999917
11
34.8703670000000017
21
-66.4006820000000033
0
LINE
8
BLACK
6
CONTINUOUS
10
34.8703670000000017
20
-66.4006820000000033
11
34.8066010000000006
21
-66.246736999999996
0
LINE
8
BLACK
6
CONTINUOUS
10
34.8066010000000006
20
-66.246736999999996
11
34.7740930000000006
21
-66.0833099999999973
0
LINE
8
BLACK
6
CONTINUOUS
10
34.7740930000000006
20
-66.0833099999999973
11
34.7740930000000006
21
-65.9166799999999995
0
LINE
8
BLACK
6
CONTINUOUS
10
34.7740930000000006
20
-65.9166799999999995
11
34.8066010000000006
21
-65.7532530000000008
0
LINE
8
BLACK
6
CONTINUOUS
10
34.8066010000000006
20
-65.7532530000000008
11
34.8703670000000017
21
-65.5993079999999935
0
LINE
8
BLACK
6
CONTINUOUS
10
34.8703670000000017
20
-65.5993079999999935
11
34.9629410000000007
21
-65.4607609999999909
0
LINE
8
BLACK
6
CONTINUOUS
10
34.9629410000000007
20
-65.4607609999999909
11
35.080765999999997
21
-65.3429359999999946
0
LINE
8
BLACK
6
CONTINUOUS
10
35.080765999999997
20
-65.3429359999999946
11
35.2193129999999996
21
-65.2503619999999955
0
LINE
8
BLACK
6
CONTINUOUS
10
35.2193129999999996
20
-65.2503619999999955
11
35.3732579999999999
21
-65.1865959999999944
0
LINE
8
BLACK
6
CONTINUOUS
10
35.3732579999999999
20
-65.1865959999999944
11
35.5366849999999985
21
-65.1540880000000016
0
LINE
8
BLACK
6
CONTINUOUS
10
35.5366849999999985
20
-65.1540880000000016
11
35.7033149999999964
21
-65.1540880000000016
0
LINE
8
BLACK
6
CONTINUOUS
10
35.7033149999999964
20
-65.1540880000000016
11
35.866741999999995
21
-65.1865959999999944
0
LINE
8
BLACK
6
CONTINUOUS
10
90.8499999999999943
20
-42.1999999999999957
11
88.8499999999999943
21
-42.1999999999999957
0
LINE
8
BLACK
6
CONTINUOUS
10
88.8499999999999943
20
-42.1999999999999957
11
88.8499999999999943
21
-41.2999999999999972
0
LINE
8
BLACK
6
CONTINUOUS
10
88.8499999999999943
20
-41.2999999999999972
11
90.8499999999999943
21
-41.2999999999999972
0
LINE
8
BLACK
6
CONTINUOUS
10
90.8499999999999943
20
-41.2999999999999972
11
90.8499999999999943
21
-42.1999999999999957
0
LINE
8
BLACK
6
CONTINUOUS
10
85.0749679999999984
20
-36.5696949999999958
11
85.2672510000000017
21
-36.6280229999999989
0
LINE
8
BLACK
6
CONTINUOUS
10
85.2672510000000017
20
-36.6280229999999989
11
85.4444589999999948
21
-36.7227439999999987
0
LINE
8
BLACK
6
CONTINUOUS
10
85.4444589999999948
20
-36.7227439999999987
11
85.5997839999999997
21
-36.8502159999999961
0
LINE
8
BLACK
6
CONTINUOUS
10
85.5997839999999997
20
-36.8502159999999961
11
85.727255999999997
21
-37.0055410000000009
0
LINE
8
BLACK
6
CONTINUOUS
10
85.727255999999997
20
-37.0055410000000009
11
85.8219769999999897
21
-37.1827490000000012
0
LINE
8
BLACK
6
CONTINUOUS
10
85.8219769999999897
20
-37.1827490000000012
11
85.8803049999999928
21
-37.3750319999999974
0
LINE
8
BLACK
6
CONTINUOUS
10
85.8803049999999928
20
-37.3750319999999974
11
85.8999999999999915
21
-37.5749999999999957
0
LINE
8
BLACK
6
CONTINUOUS
10
85.8999999999999915
20
-37.5749999999999957
11
85.8999999999999915
21
-39.625
0
LINE
8
BLACK
6
CONTINUOUS
10
85.8999999999999915
20
-39.625
11
85.8803049999999928
21
-39.8249679999999984
0
LINE
8
BLACK
6
CONTINUOUS
10
85.8803049999999928
20
-39.8249679999999984
11
85.8219769999999897
21
-40.0172510000000017
0
LINE
8
BLACK
6
CONTINUOUS
10
85.8219769999999897
20
-40.0172510000000017
11
85.727255999999997
21
-40.1944589999999948
0
LINE
8
BLACK
6
CONTINUOUS
10
85.727255999999997
20
-40.1944589999999948
11
85.5997839999999997
21
-40.3497839999999997
0
LINE
8
BLACK
6
CONTINUOUS
10
85.5997839999999997
20
-40.3497839999999997
11
85.4444589999999948
21
-40.477255999999997
0
LINE
8
BLACK
6
CONTINUOUS
10
85.4444589999999948
20
-40.477255999999997
11
85.2672510000000017
21
-40.5719769999999968
0
LINE
8
BLACK
6
CONTINUOUS
10
85.2672510000000017
20
-40.5719769999999968
11
85.0749679999999984
21
-40.6303049999999999
0
LINE
8
BLACK
6
CONTINUOUS
10
85.0749679999999984
20
-40.6303049999999999
11
84.875
21
-40.6499999999999986
0
LINE
8
BLACK
6
CONTINUOUS
10
84.875
20
-40.6499999999999986
11
82.8250000000000028
21
-40.6499999999999986
0
LINE
8
BLACK
6
CONTINUOUS
10
82.8250000000000028
20
-40.6499999999999986
11
82.6250319999999903
21
-40.6303049999999999
0
LINE
8
BLACK
6
CONTINUOUS
10
82.6250319999999903
20
-40.6303049999999999
11
82.4327490000000012
21
-40.5719769999999968
0
LINE
8
BLACK
6
CONTINUOUS
10
82.4327490000000012
20
-40.5719769999999968
11
82.2555409999999938
21
-40.477255999999997
0
LINE
8
BLACK
6
CONTINUOUS
10
82.2555409999999938
20
-40.477255999999997
11
82.1002160000000032
21
-40.3497839999999997
0
LINE
8
BLACK
6
CONTINUOUS
10
82.1002160000000032
20
-40.3497839999999997
11
81.9727439999999916
21
-40.1944589999999948
0
LINE
8
BLACK
6
CONTINUOUS
10
81.9727439999999916
20
-40.1944589999999948
11
81.8780229999999989
21
-40.0172510000000017
0
LINE
8
BLACK
6
CONTINUOUS
10
81.8780229999999989
20
-40.0172510000000017
11
81.8196949999999958
21
-39.8249679999999984
0
LINE
8
BLACK
6
CONTINUOUS
10
81.8196949999999958
20
-39.8249679999999984
11
81.7999999999999972
21
-39.625
0
LINE
8
BLACK
6
CONTINUOUS
10
81.7999999999999972
20
-39.625
11
81.7999999999999972
21
-37.5749999999999957
0
LINE
8
BLACK
6
CONTINUOUS
10
81.7999999999999972
20
-37.5749999999999957
11
81.8196949999999958
21
-37.3750319999999974
0
LINE
8
BLACK
6
CONTINUOUS
10
81.8196949999999958
20
-37.3750319999999974
11
81.8780229999999989
21
-37.1827490000000012
0
LINE
8
BLACK
6
CONTINUOUS
10
81.8780229999999989
20
-37.1827490000000012
11
81.9727439999999916
21
-37.0055410000000009
0
LINE
8
BLACK
6
CONTINUOUS
10
81.9727439999999916
20
-37.0055410000000009
11
82.1002160000000032
21
-36.8502159999999961
0
LINE
8
BLACK
6
CONTINUOUS
10
82.1002160000000032
20
-36.8502159999999961
11
82.2555409999999938
21
-36.7227439999999987
0
LINE
8
BLACK
6
CONTINUOUS
10
82.2555409999999938
20
-36.7227439999999987
11
82.4327490000000012
21
-36.6280229999999989
0
LINE
8
BLACK
6
CONTINUOUS
10
82.4327490000000012
20
-36.6280229999999989
11
82.6250319999999903
21
-36.5696949999999958
0
LINE
8
BLACK
6
CONTINUOUS
10
82.6250319999999903
20
-36.5696949999999958
11
82.8250000000000028
21
-36.5499999999999972
0
LINE
8
BLACK
6
CONTINUOUS
10
82.8250000000000028
20
-36.5499999999999972
11
84.875
21
-36.5499999999999972
0
LINE
8
BLACK
6
CONTINUOUS
10
84.875
20
-36.5499999999999972
11
85.0749679999999984
21
-36.5696949999999958
0
LINE
8
BLACK
6
CONTINUOUS
10
84.2499349999999936
20
-29.3893899999999988
11
84.5089509999999962
21
-29.458793
0
LINE
8
BLACK
6
CONTINUOUS
10
84.5089509999999962
20
-29.458793
11
84.756692000000001
21
-29.5614109999999997
0
LINE
8
BLACK
6
CONTINUOUS
10
84.756692000000001
20
-29.5614109999999997
11
84.9889189999999957
21
-29.695487
0
LINE
8
BLACK
6
CONTINUOUS
10
84.9889189999999957
20
-29.695487
11
85.2016589999999923
21
-29.8587279999999993
0
LINE
8
BLACK
6
CONTINUOUS
10
85.2016589999999923
20
-29.8587279999999993
11
85.3912720000000007
21
-30.0483409999999971
0
LINE
8
BLACK
6
CONTINUOUS
10
85.3912720000000007
20
-30.0483409999999971
11
85.554513
21
-30.2610809999999972
0
LINE
8
BLACK
6
CONTINUOUS
10
85.554513
20
-30.2610809999999972
11
85.6885889999999932
21
-30.493307999999999
0
LINE
8
BLACK
6
CONTINUOUS
10
85.6885889999999932
20
-30.493307999999999
11
85.791207
21
-30.7410490000000003
0
LINE
8
BLACK
6
CONTINUOUS
10
85.791207
20
-30.7410490000000003
11
85.8606099999999941
21
-31.0000649999999993
0
LINE
8
BLACK
6
CONTINUOUS
10
85.8606099999999941
20
-31.0000649999999993
11
85.8956110000000024
21
-31.2659239999999983
0
LINE
8
BLACK
6
CONTINUOUS
10
85.8956110000000024
20
-31.2659239999999983
11
85.8956110000000024
21
-31.5340759999999989
0
LINE
8
BLACK
6
CONTINUOUS
10
85.8956110000000024
20
-31.5340759999999989
11
85.8606099999999941
21
-31.7999349999999978
0
LINE
8
BLACK
6
CONTINUOUS
10
85.8606099999999941
20
-31.7999349999999978
11
85.791207
21
-32.0589510000000004
0
LINE
8
BLACK
6
CONTINUOUS
10
85.791207
20
-32.0589510000000004
11
85.6885889999999932
21
-32.3066919999999982
0
LINE
8
BLACK
6
CONTINUOUS
10
85.6885889999999932
20
-32.3066919999999982
11
85.554513
21
-32.5389189999999999
0
LINE
8
BLACK
6
CONTINUOUS
10
85.554513
20
-32.5389189999999999
11
85.3912720000000007
21
-32.7516589999999965
0
LINE
8
BLACK
6
CONTINUOUS
10
85.3912720000000007
20
-32.7516589999999965
11
85.2016589999999923
21
-32.9412719999999979
0
LINE
8
BLACK
6
CONTINUOUS
10
85.2016589999999923
20
-32.9412719999999979
11
84.9889189999999957
21
-33.1045129999999972
0
LINE
8
BLACK
6
CONTINUOUS
10
84.9889189999999957
20
-33.1045129999999972
11
84.756692000000001
21
-33.2385889999999975
0
LINE
8
BLACK
6
CONTINUOUS
10
84.756692000000001
20
-33.2385889999999975
11
84.5089509999999962
21
-33.3412069999999972
0
LINE
8
BLACK
6
CONTINUOUS
10
84.5089509999999962
20
-33.3412069999999972
11
84.2499349999999936
21
-33.4106099999999984
0
LINE
8
BLACK
6
CONTINUOUS
10
84.2499349999999936
20
-33.4106099999999984
11
83.9840760000000017
21
-33.4456109999999995
0
LINE
8
BLACK
6
CONTINUOUS
10
83.9840760000000017
20
-33.4456109999999995
11
83.7159240000000011
21
-33.4456109999999995
0
LINE
8
BLACK
6
CONTINUOUS
10
83.7159240000000011
20
-33.4456109999999995
11
83.4500649999999951
21
-33.4106099999999984
0
LINE
8
BLACK
6
CONTINUOUS
10
83.4500649999999951
20
-33.4106099999999984
11
83.1910489999999925
21
-33.3412069999999972
0
LINE
8
BLACK
6
CONTINUOUS
10
83.1910489999999925
20
-33.3412069999999972
11
82.9433080000000018
21
-33.2385889999999975
0
LINE
8
BLACK
6
CONTINUOUS
10
82.9433080000000018
20
-33.2385889999999975
11
82.711080999999993
21
-33.1045129999999972
0
LINE
8
BLACK
6
CONTINUOUS
10
82.711080999999993
20
-33.1045129999999972
11
82.4983409999999964
21
-32.9412719999999979
0
LINE
8
BLACK
6
CONTINUOUS
10
82.4983409999999964
20
-32.9412719999999979
11
82.3087280000000021
21
-32.7516589999999965
0
LINE
8
BLACK
6
CONTINUOUS
10
82.3087280000000021
20
-32.7516589999999965
11
82.1454870000000028
21
-32.5389189999999999
0
LINE
8
BLACK
6
CONTINUOUS
10
82.1454870000000028
20
-32.5389189999999999
11
82.0114109999999954
21
-32.3066919999999982
0
LINE
8
BLACK
6
CONTINUOUS
10
82.0114109999999954
20
-32.3066919999999982
11
81.9087930000000028
21
-32.0589510000000004
0
LINE
8
BLACK
6
CONTINUOUS
10
81.9087930000000028
20
-32.0589510000000004
11
81.8393899999999945
21
-31.7999349999999978
0
LINE
8
BLACK
6
CONTINUOUS
10
81.8393899999999945
20
-31.7999349999999978
11
81.8043890000000005
21
-31.5340759999999989
0
LINE
8
BLACK
6
CONTINUOUS
10
81.8043890000000005
20
-31.5340759999999989
11
81.8043890000000005
21
-31.2659239999999983
0
LINE
8
BLACK
6
CONTINUOUS
10
81.8043890000000005
20
-31.2659239999999983
11
81.8393899999999945
21
-31.0000649999999993
0
LINE
8
BLACK
6
CONTINUOUS
10
81.8393899999999945
20
-31.0000649999999993
11
81.9087930000000028
21
-30.7410490000000003
0
LINE
8
BLACK
6
CONTINUOUS
10
81.9087930000000028
20
-30.7410490000000003
11
82.0114109999999954
21
-30.493307999999999
0
LINE
8
BLACK
6
CONTINUOUS
10
82.0114109999999954
20
-30.493307999999999
11
82.1454870000000028
21
-30.2610809999999972
0
LINE
8
BLACK
6
CONTINUOUS
10
82.1454870000000028
20
-30.2610809999999972
11
82.3087280000000021
21
-30.0483409999999971
0
LINE
8
BLACK
6
CONTINUOUS
10
82.3087280000000021
20
-30.0483409999999971
11
82.4983409999999964
21
-29.8587279999999993
0
LINE
8
BLACK
6
CONTINUOUS
10
82.4983409999999964
20
-29.8587279999999993
11
82.711080999999993
21
-29.695487
0
LINE
8
BLACK
6
CONTINUOUS
10
82.711080999999993
20
-29.695487
11
82.9433080000000018
21
-29.5614109999999997
0
LINE
8
BLACK
6
CONTINUOUS
10
82.9433080000000018
20
-29.5614109999999997
11
83.1910489999999925
21
-29.458793
0
LINE
8
BLACK
6
CONTINUOUS
10
83.1910489999999925
20
-29.458793
11
83.4500649999999951
21
-29.3893899999999988
0
LINE
8
BLACK
6
CONTINUOUS
10
83.4500649999999951
20
-29.3893899999999988
11
83.7159240000000011
21
-29.3543889999999976
0
LINE
8
BLACK
6
CONTINUOUS
10
83.7159240000000011
20
-29.3543889999999976
11
83.9840760000000017
21
-29.3543889999999976
0
LINE
8
BLACK
6
CONTINUOUS
10
83.9840760000000017
20
-29.3543889999999976
11
84.2499349999999936
21
-29.3893899999999988
0
LINE
8
BLACK
6
CONTINUOUS
10
90.8499999999999943
20
-28.6999999999999993
11
88.8499999999999943
21
-28.6999999999999993
0
LINE
8
BLACK
6
CONTINUOUS
10
88.8499999999999943
20
-28.6999999999999993
11
88.8499999999999943
21
-27.7999999999999972
0
LINE
8
BLACK
6
CONTINUOUS
10
88.8499999999999943
20
-27.7999999999999972
11
90.8499999999999943
21
-27.7999999999999972
0
LINE
8
BLACK
6
CONTINUOUS
10
90.8499999999999943
20
-27.7999999999999972
11
90.8499999999999943
21
-28.6999999999999993
0
LINE
8
BLACK
6
CONTINUOUS
10
89.8499999999999943
20
-25.1999999999999993
11
87.8499999999999943
21
-25.1999999999999993
0
LINE
8
BLACK
6
CONTINUOUS
10
87.8499999999999943
20
-25.1999999999999993
11
87.8499999999999943
21
-24.2999999999999972
0
LINE
8
BLACK
6
CONTINUOUS
10
87.8499999999999943
20
-24.2999999999999972
11
89.8499999999999943
21
-24.2999999999999972
0
LINE
8
BLACK
6
CONTINUOUS
10
89.8499999999999943
20
-24.2999999999999972
11
89.8499999999999943
21
-25.1999999999999993
0
LINE
8
BLACK
6
CONTINUOUS
10
83.2499349999999936
20
-19.5893899999999981
11
83.5089509999999962
21
-19.6587929999999993
0
LINE
8
BLACK
6
CONTINUOUS
10
83.5089509999999962
20
-19.6587929999999993
11
83.756692000000001
21
-19.7614109999999989
0
LINE
8
BLACK
6
CONTINUOUS
10
83.756692000000001
20
-19.7614109999999989
11
83.9889189999999957
21
-19.8954869999999993
0
LINE
8
BLACK
6
CONTINUOUS
10
83.9889189999999957
20
-19.8954869999999993
11
84.2016589999999923
21
-20.0587279999999986
0
LINE
8
BLACK
6
CONTINUOUS
10
84.2016589999999923
20
-20.0587279999999986
11
84.3912720000000007
21
-20.2483409999999999
0
LINE
8
BLACK
6
CONTINUOUS
10
84.3912720000000007
20
-20.2483409999999999
11
84.554513
21
-20.4610810000000001
0
LINE
8
BLACK
6
CONTINUOUS
10
84.554513
20
-20.4610810000000001
11
84.6885889999999932
21
-20.6933079999999983
0
LINE
8
BLACK
6
CONTINUOUS
10
84.6885889999999932
20
-20.6933079999999983
11
84.791207
21
-20.9410489999999996
0
LINE
8
BLACK
6
CONTINUOUS
10
84.791207
20
-20.9410489999999996
11
84.8606099999999941
21
-21.2000649999999986
0
LINE
8
BLACK
6
CONTINUOUS
10
84.8606099999999941
20
-21.2000649999999986
11
84.8956110000000024
21
-21.4659239999999976
0
LINE
8
BLACK
6
CONTINUOUS
10
84.8956110000000024
20
-21.4659239999999976
11
84.8956110000000024
21
-21.7340759999999982
0
LINE
8
BLACK
6
CONTINUOUS
10
84.8956110000000024
20
-21.7340759999999982
11
84.8606099999999941
21
-21.9999350000000007
0
LINE
8
BLACK
6
CONTINUOUS
10
84.8606099999999941
20
-21.9999350000000007
11
84.791207
21
-22.2589509999999997
0
LINE
8
BLACK
6
CONTINUOUS
10
84.791207
20
-22.2589509999999997
11
84.6885889999999932
21
-22.5066919999999975
0
LINE
8
BLACK
6
CONTINUOUS
10
84.6885889999999932
20
-22.5066919999999975
11
84.554513
21
-22.7389189999999992
0
LINE
8
BLACK
6
CONTINUOUS
10
84.554513
20
-22.7389189999999992
11
84.3912720000000007
21
-22.9516589999999994
0
LINE
8
BLACK
6
CONTINUOUS
10
84.3912720000000007
20
-22.9516589999999994
11
84.2016589999999923
21
-23.1412719999999972
0
LINE
8
BLACK
6
CONTINUOUS
10
84.2016589999999923
20
-23.1412719999999972
11
83.9889189999999957
21
-23.304513
0
LINE
8
BLACK
6
CONTINUOUS
10
83.9889189999999957
20
-23.304513
11
83.756692000000001
21
-23.4385890000000003
0
LINE
8
BLACK
6
CONTINUOUS
10
83.756692000000001
20
-23.4385890000000003
11
83.5089509999999962
21
-23.541207
0
LINE
8
BLACK
6
CONTINUOUS
10
83.5089509999999962
20
-23.541207
11
83.2499349999999936
21
-23.6106099999999977
0
LINE
8
BLACK
6
CONTINUOUS
10
83.2499349999999936
20
-23.6106099999999977
11
82.9840760000000017
21
-23.6456109999999988
0
LINE
8
BLACK
6
CONTINUOUS
10
82.9840760000000017
20
-23.6456109999999988
11
82.7159240000000011
21
-23.6456109999999988
0
LINE
8
BLACK
6
CONTINUOUS
10
82.7159240000000011
20
-23.6456109999999988
11
82.4500649999999951
21
-23.6106099999999977
0
LINE
8
BLACK
6
CONTINUOUS
10
82.4500649999999951
20
-23.6106099999999977
11
82.1910489999999925
21
-23.541207
0
LINE
8
BLACK
6
CONTINUOUS
10
82.1910489999999925
20
-23.541207
11
81.9433080000000018
21
-23.4385890000000003
0
LINE
8
BLACK
6
CONTINUOUS
10
81.9433080000000018
20
-23.4385890000000003
11
81.711080999999993
21
-23.304513
0
LINE
8
BLACK
6
CONTINUOUS
10
81.711080999999993
20
-23.304513
11
81.4983409999999964
21
-23.1412719999999972
0
LINE
8
BLACK
6
CONTINUOUS
10
81.4983409999999964
20
-23.1412719999999972
11
81.3087280000000021
21
-22.9516589999999994
0
LINE
8
BLACK
6
CONTINUOUS
10
81.3087280000000021
20
-22.9516589999999994
11
81.1454870000000028
21
-22.7389189999999992
0
LINE
8
BLACK
6
CONTINUOUS
10
81.1454870000000028
20
-22.7389189999999992
11
81.0114109999999954
21
-22.5066919999999975
0
LINE
8
BLACK
6
CONTINUOUS
10
81.0114109999999954
20
-22.5066919999999975
11
80.9087930000000028
21
-22.2589509999999997
0
LINE
8
BLACK
6
CONTINUOUS
10
80.9087930000000028
20
-22.2589509999999997
11
80.8393899999999945
21
-21.9999350000000007
0
LINE
8
BLACK
6
CONTINUOUS
10
80.8393899999999945
20
-21.9999350000000007
11
80.8043890000000005
21
-21.7340759999999982
0
LINE
8
BLACK
6
CONTINUOUS
10
80.8043890000000005
20
-21.7340759999999982
11
80.8043890000000005
21
-21.4659239999999976
0
LINE
8
BLACK
6
CONTINUOUS
10
80.8043890000000005
20
-21.4659239999999976
11
80.8393899999999945
21
-21.2000649999999986
0
LINE
8
BLACK
6
CONTINUOUS
10
80.8393899999999945
20
-21.2000649999999986
11
80.9087930000000028
21
-20.9410489999999996
0
LINE
8
BLACK
6
CONTINUOUS
10
80.9087930000000028
20
-20.9410489999999996
11
81.0114109999999954
21
-20.6933079999999983
0
LINE
8
BLACK
6
CONTINUOUS
10
81.0114109999999954
20
-20.6933079999999983
11
81.1454870000000028
21
-20.4610810000000001
0
LINE
8
BLACK
6
CONTINUOUS
10
81.1454870000000028
20
-20.4610810000000001
11
81.3087280000000021
21
-20.2483409999999999
0
LINE
8
BLACK
6
CONTINUOUS
10
81.3087280000000021
20
-20.2483409999999999
11
81.4983409999999964
21
-20.0587279999999986
0
LINE
8
BLACK
6
CONTINUOUS
10
81.4983409999999964
20
-20.0587279999999986
11
81.711080999999993
21
-19.8954869999999993
0
LINE
8
BLACK
6
CONTINUOUS
10
81.711080999999993
20
-19.8954869999999993
11
81.9433080000000018
21
-19.7614109999999989
0
LINE
8
BLACK
6
CONTINUOUS
10
81.9433080000000018
20
-19.7614109999999989
11
82.1910489999999925
21
-19.6587929999999993
0
LINE
8
BLACK
6
CONTINUOUS
10
82.1910489999999925
20
-19.6587929999999993
11
82.4500649999999951
21
-19.5893899999999981
0
LINE
8
BLACK
6
CONTINUOUS
10
82.4500649999999951
20
-19.5893899999999981
11
82.7159240000000011
21
-19.5543890000000005
0
LINE
8
BLACK
6
CONTINUOUS
10
82.7159240000000011
20
-19.5543890000000005
11
82.9840760000000017
21
-19.5543890000000005
0
LINE
8
BLACK
6
CONTINUOUS
10
82.9840760000000017
20
-19.5543890000000005
11
83.2499349999999936
21
-19.5893899999999981
0
LINE
8
BLACK
6
CONTINUOUS
10
84.0749679999999984
20
-12.3696950000000001
11
84.2672510000000017
21
-12.4280229999999996
0
LINE
8
BLACK
6
CONTINUOUS
10
84.2672510000000017
20
-12.4280229999999996
11
84.4444589999999948
21
-12.5227439999999994
0
LINE
8
BLACK
6
CONTINUOUS
10
84.4444589999999948
20
-12.5227439999999994
11
84.5997839999999997
21
-12.6502159999999986
0
LINE
8
BLACK
6
CONTINUOUS
10
84.5997839999999997
20
-12.6502159999999986
11
84.727255999999997
21
-12.8055409999999998
0
LINE
8
BLACK
6
CONTINUOUS
10
84.727255999999997
20
-12.8055409999999998
11
84.8219769999999897
21
-12.9827490000000001
0
LINE
8
BLACK
6
CONTINUOUS
10
84.8219769999999897
20
-12.9827490000000001
11
84.8803049999999928
21
-13.1750319999999999
0
LINE
8
BLACK
6
CONTINUOUS
10
84.8803049999999928
20
-13.1750319999999999
11
84.8999999999999915
21
-13.375
0
LINE
8
BLACK
6
CONTINUOUS
10
84.8999999999999915
20
-13.375
11
84.8999999999999915
21
-15.4249999999999989
0
LINE
8
BLACK
6
CONTINUOUS
10
84.8999999999999915
20
-15.4249999999999989
11
84.8803049999999928
21
-15.6249679999999991
0
LINE
8
BLACK
6
CONTINUOUS
10
84.8803049999999928
20
-15.6249679999999991
11
84.8219769999999897
21
-15.8172509999999988
0
LINE
8
BLACK
6
CONTINUOUS
10
84.8219769999999897
20
-15.8172509999999988
11
84.727255999999997
21
-15.9944589999999991
0
LINE
8
BLACK
6
CONTINUOUS
10
84.727255999999997
20
-15.9944589999999991
11
84.5997839999999997
21
-16.1497840000000004
0
LINE
8
BLACK
6
CONTINUOUS
10
84.5997839999999997
20
-16.1497840000000004
11
84.4444589999999948
21
-16.2772559999999977
0
LINE
8
BLACK
6
CONTINUOUS
10
84.4444589999999948
20
-16.2772559999999977
11
84.2672510000000017
21
-16.3719769999999976
0
LINE
8
BLACK
6
CONTINUOUS
10
84.2672510000000017
20
-16.3719769999999976
11
84.0749679999999984
21
-16.4303050000000006
0
LINE
8
BLACK
6
CONTINUOUS
10
84.0749679999999984
20
-16.4303050000000006
11
83.875
21
-16.4499999999999993
0
LINE
8
BLACK
6
CONTINUOUS
10
83.875
20
-16.4499999999999993
11
81.8250000000000028
21
-16.4499999999999993
0
LINE
8
BLACK
6
CONTINUOUS
10
81.8250000000000028
20
-16.4499999999999993
11
81.6250319999999903
21
-16.4303050000000006
0
LINE
8
BLACK
6
CONTINUOUS
10
81.6250319999999903
20
-16.4303050000000006
11
81.4327490000000012
21
-16.3719769999999976
0
LINE
8
BLACK
6
CONTINUOUS
10
81.4327490000000012
20
-16.3719769999999976
11
81.2555409999999938
21
-16.2772559999999977
0
LINE
8
BLACK
6
CONTINUOUS
10
81.2555409999999938
20
-16.2772559999999977
11
81.1002160000000032
21
-16.1497840000000004
0
LINE
8
BLACK
6
CONTINUOUS
10
81.1002160000000032
20
-16.1497840000000004
11
80.9727439999999916
21
-15.9944589999999991
0
LINE
8
BLACK
6
CONTINUOUS
10
80.9727439999999916
20
-15.9944589999999991
11
80.8780229999999989
21
-15.8172509999999988
0
LINE
8
BLACK
6
CONTINUOUS
10
80.8780229999999989
20
-15.8172509999999988
11
80.8196949999999958
21
-15.6249679999999991
0
LINE
8
BLACK
6
CONTINUOUS
10
80.8196949999999958
20
-15.6249679999999991
11
80.7999999999999972
21
-15.4249999999999989
0
LINE
8
BLACK
6
CONTINUOUS
10
80.7999999999999972
20
-15.4249999999999989
11
80.7999999999999972
21
-13.375
0
LINE
8
BLACK
6
CONTINUOUS
10
80.7999999999999972
20
-13.375
11
80.8196949999999958
21
-13.1750319999999999
0
LINE
8
BLACK
6
CONTINUOUS
10
80.8196949999999958
20
-13.1750319999999999
11
80.8780229999999989
21
-12.9827490000000001
0
LINE
8
BLACK
6
CONTINUOUS
10
80.8780229999999989
20
-12.9827490000000001
11
80.9727439999999916
21
-12.8055409999999998
0
LINE
8
BLACK
6
CONTINUOUS
10
80.9727439999999916
20
-12.8055409999999998
11
81.1002160000000032
21
-12.6502159999999986
0
LINE
8
BLACK
6
CONTINUOUS
10
81.1002160000000032
20
-12.6502159999999986
11
81.2555409999999938
21
-12.5227439999999994
0
LINE
8
BLACK
6
CONTINUOUS
10
81.2555409999999938
20
-12.5227439999999994
11
81.4327490000000012
21
-12.4280229999999996
0
LINE
8
BLACK
6
CONTINUOUS
10
81.4327490000000012
20
-12.4280229999999996
11
81.6250319999999903
21
-12.3696950000000001
0
LINE
8
BLACK
6
CONTINUOUS
10
81.6250319999999903
20
-12.3696950000000001
11
81.8250000000000028
21
-12.3499999999999996
0
LINE
8
BLACK
6
CONTINUOUS
10
81.8250000000000028
20
-12.3499999999999996
11
83.875
21
-12.3499999999999996
0
LINE
8
BLACK
6
CONTINUOUS
10
83.875
20
-12.3499999999999996
11
84.0749679999999984
21
-12.3696950000000001
0
LINE
8
BLACK
6
CONTINUOUS
10
16.3735129999999991
20
-11.9442129999999995
11
16.6122929999999975
21
-12.0217979999999987
0
LINE
8
BLACK
6
CONTINUOUS
10
16.6122929999999975
20
-12.0217979999999987
11
16.835998
21
-12.1357809999999997
0
LINE
8
BLACK
6
CONTINUOUS
10
16.835998
20
-12.1357809999999997
11
17.039117000000001
21
-12.2833550000000002
0
LINE
8
BLACK
6
CONTINUOUS
10
17.039117000000001
20
-12.2833550000000002
11
17.2166499999999978
21
-12.4608879999999989
0
LINE
8
BLACK
6
CONTINUOUS
10
17.2166499999999978
20
-12.4608879999999989
11
17.3642240000000001
21
-12.6640069999999998
0
LINE
8
BLACK
6
CONTINUOUS
10
17.3642240000000001
20
-12.6640069999999998
11
17.4782069999999976
21
-12.8877119999999987
0
LINE
8
BLACK
6
CONTINUOUS
10
17.4782069999999976
20
-12.8877119999999987
11
17.5557920000000003
21
-13.1264919999999989
0
LINE
8
BLACK
6
CONTINUOUS
10
17.5557920000000003
20
-13.1264919999999989
11
17.5950679999999977
21
-13.3744699999999987
0
LINE
8
BLACK
6
CONTINUOUS
10
17.5950679999999977
20
-13.3744699999999987
11
17.5950679999999977
21
-13.6255399999999991
0
LINE
8
BLACK
6
CONTINUOUS
10
17.5950679999999977
20
-13.6255399999999991
11
17.5557920000000003
21
-13.8735179999999989
0
LINE
8
BLACK
6
CONTINUOUS
10
17.5557920000000003
20
-13.8735179999999989
11
17.4782069999999976
21
-14.1122979999999991
0
LINE
8
BLACK
6
CONTINUOUS
10
17.4782069999999976
20
-14.1122979999999991
11
17.3642240000000001
21
-14.3360029999999998
0
LINE
8
BLACK
6
CONTINUOUS
10
17.3642240000000001
20
-14.3360029999999998
11
17.2166499999999978
21
-14.539121999999999
0
LINE
8
BLACK
6
CONTINUOUS
10
17.2166499999999978
20
-14.539121999999999
11
17.039117000000001
21
-14.7166549999999994
0
LINE
8
BLACK
6
CONTINUOUS
10
17.039117000000001
20
-14.7166549999999994
11
16.835998
21
-14.8642289999999999
0
LINE
8
BLACK
6
CONTINUOUS
10
16.835998
20
-14.8642289999999999
11
16.6122929999999975
21
-14.9782119999999992
0
LINE
8
BLACK
6
CONTINUOUS
10
16.6122929999999975
20
-14.9782119999999992
11
16.3735129999999991
21
-15.0557970000000001
0
LINE
8
BLACK
6
CONTINUOUS
10
16.3735129999999991
20
-15.0557970000000001
11
16.1255349999999993
21
-15.0950729999999993
0
LINE
8
BLACK
6
CONTINUOUS
10
16.1255349999999993
20
-15.0950729999999993
11
15.8744649999999989
21
-15.0950729999999993
0
LINE
8
BLACK
6
CONTINUOUS
10
15.8744649999999989
20
-15.0950729999999993
11
15.6264869999999991
21
-15.0557970000000001
0
LINE
8
BLACK
6
CONTINUOUS
10
15.6264869999999991
20
-15.0557970000000001
11
15.3877069999999989
21
-14.9782119999999992
0
LINE
8
BLACK
6
CONTINUOUS
10
15.3877069999999989
20
-14.9782119999999992
11
15.164002
21
-14.8642289999999999
0
LINE
8
BLACK
6
CONTINUOUS
10
15.164002
20
-14.8642289999999999
11
14.960882999999999
21
-14.7166549999999994
0
LINE
8
BLACK
6
CONTINUOUS
10
14.960882999999999
20
-14.7166549999999994
11
14.7833499999999987
21
-14.539121999999999
0
LINE
8
BLACK
6
CONTINUOUS
10
14.7833499999999987
20
-14.539121999999999
11
14.6357759999999999
21
-14.3360029999999998
0
LINE
8
BLACK
6
CONTINUOUS
10
14.6357759999999999
20
-14.3360029999999998
11
14.5217929999999988
21
-14.1122979999999991
0
LINE
8
BLACK
6
CONTINUOUS
10
14.5217929999999988
20
-14.1122979999999991
11
14.4442079999999997
21
-13.8735179999999989
0
LINE
8
BLACK
6
CONTINUOUS
10
14.4442079999999997
20
-13.8735179999999989
11
14.4049319999999987
21
-13.6255399999999991
0
LINE
8
BLACK
6
CONTINUOUS
10
14.4049319999999987
20
-13.6255399999999991
11
14.4049319999999987
21
-13.3744699999999987
0
LINE
8
BLACK
6
CONTINUOUS
10
14.4049319999999987
20
-13.3744699999999987
11
14.4442079999999997
21
-13.1264919999999989
0
LINE
8
BLACK
6
CONTINUOUS
10
14.4442079999999997
20
-13.1264919999999989
11
14.5217929999999988
21
-12.8877119999999987
0
LINE
8
BLACK
6
CONTINUOUS
10
14.5217929999999988
20
-12.8877119999999987
11
14.6357759999999999
21
-12.6640069999999998
0
LINE
8
BLACK
6
CONTINUOUS
10
14.6357759999999999
20
-12.6640069999999998
11
14.7833499999999987
21
-12.4608879999999989
0
LINE
8
BLACK
6
CONTINUOUS
10
14.7833499999999987
20
-12.4608879999999989
11
14.960882999999999
21
-12.2833550000000002
0
LINE
8
BLACK
6
CONTINUOUS
10
14.960882999999999
20
-12.2833550000000002
11
15.164002
21
-12.1357809999999997
0
LINE
8
BLACK
6
CONTINUOUS
10
15.164002
20
-12.1357809999999997
11
15.3877069999999989
21
-12.0217979999999987
0
LINE
8
BLACK
6
CONTINUOUS
10
15.3877069999999989
20
-12.0217979999999987
11
15.6264869999999991
21
-11.9442129999999995
0
LINE
8
BLACK
6
CONTINUOUS
10
15.6264869999999991
20
-11.9442129999999995
11
15.8744649999999989
21
-11.9049370000000003
0
LINE
8
BLACK
6
CONTINUOUS
10
15.8744649999999989
20
-11.9049370000000003
11
16.1255349999999993
21
-11.9049370000000003
0
LINE
8
BLACK
6
CONTINUOUS
10
16.1255349999999993
20
-11.9049370000000003
11
16.3735129999999991
21
-11.9442129999999995
0
LINE
8
BLACK
6
CONTINUOUS
10
51.3735129999999955
20
-11.9442129999999995
11
51.6122930000000011
21
-12.0217979999999987
0
LINE
8
BLACK
6
CONTINUOUS
10
51.6122930000000011
20
-12.0217979999999987
11
51.8359979999999965
21
-12.1357809999999997
0
LINE
8
BLACK
6
CONTINUOUS
10
51.8359979999999965
20
-12.1357809999999997
11
52.0391169999999974
21
-12.2833550000000002
0
LINE
8
BLACK
6
CONTINUOUS
10
52.0391169999999974
20
-12.2833550000000002
11
52.2166499999999942
21
-12.4608879999999989
0
LINE
8
BLACK
6
CONTINUOUS
10
52.2166499999999942
20
-12.4608879999999989
11
52.3642240000000001
21
-12.6640069999999998
0
LINE
8
BLACK
6
CONTINUOUS
10
52.3642240000000001
20
-12.6640069999999998
11
52.4782069999999976
21
-12.8877119999999987
0
LINE
8
BLACK
6
CONTINUOUS
10
52.4782069999999976
20
-12.8877119999999987
11
52.5557919999999967
21
-13.1264919999999989
0
LINE
8
BLACK
6
CONTINUOUS
10
52.5557919999999967
20
-13.1264919999999989
11
52.5950679999999977
21
-13.3744699999999987
0
LINE
8
BLACK
6
CONTINUOUS
10
52.5950679999999977
20
-13.3744699999999987
11
52.5950679999999977
21
-13.6255399999999991
0
LINE
8
BLACK
6
CONTINUOUS
10
52.5950679999999977
20
-13.6255399999999991
11
52.5557919999999967
21
-13.8735179999999989
0
LINE
8
BLACK
6
CONTINUOUS
10
52.5557919999999967
20
-13.8735179999999989
11
52.4782069999999976
21
-14.1122979999999991
0
LINE
8
BLACK
6
CONTINUOUS
10
52.4782069999999976
20
-14.1122979999999991
11
52.3642240000000001
21
-14.3360029999999998
0
LINE
8
BLACK
6
CONTINUOUS
10
52.3642240000000001
20
-14.3360029999999998
11
52.2166499999999942
21
-14.539121999999999
0
LINE
8
BLACK
6
CONTINUOUS
10
52.2166499999999942
20
-14.539121999999999
11
52.0391169999999974
21
-14.7166549999999994
0
LINE
8
BLACK
6
CONTINUOUS
10
52.0391169999999974
20
-14.7166549999999994
11
51.8359979999999965
21
-14.8642289999999999
0
LINE
8
BLACK
6
CONTINUOUS
10
51.8359979999999965
20
-14.8642289999999999
11
51.6122930000000011
21
-14.9782119999999992
0
LINE
8
BLACK
6
CONTINUOUS
10
51.6122930000000011
20
-14.9782119999999992
11
51.3735129999999955
21
-15.0557970000000001
0
LINE
8
BLACK
6
CONTINUOUS
10
51.3735129999999955
20
-15.0557970000000001
11
51.1255349999999993
21
-15.0950729999999993
0
LINE
8
BLACK
6
CONTINUOUS
10
51.1255349999999993
20
-15.0950729999999993
11
50.8744650000000007
21
-15.0950729999999993
0
LINE
8
BLACK
6
CONTINUOUS
10
50.8744650000000007
20
-15.0950729999999993
11
50.6264869999999974
21
-15.0557970000000001
0
LINE
8
BLACK
6
CONTINUOUS
10
50.6264869999999974
20
-15.0557970000000001
11
50.3877069999999989
21
-14.9782119999999992
0
LINE
8
BLACK
6
CONTINUOUS
10
50.3877069999999989
20
-14.9782119999999992
11
50.1640019999999964
21
-14.8642289999999999
0
LINE
8
BLACK
6
CONTINUOUS
10
50.1640019999999964
20
-14.8642289999999999
11
49.9608829999999955
21
-14.7166549999999994
0
LINE
8
BLACK
6
CONTINUOUS
10
49.9608829999999955
20
-14.7166549999999994
11
49.7833499999999987
21
-14.539121999999999
0
LINE
8
BLACK
6
CONTINUOUS
10
49.7833499999999987
20
-14.539121999999999
11
49.6357759999999999
21
-14.3360029999999998
0
LINE
8
BLACK
6
CONTINUOUS
10
49.6357759999999999
20
-14.3360029999999998
11
49.5217929999999953
21
-14.1122979999999991
0
LINE
8
BLACK
6
CONTINUOUS
10
49.5217929999999953
20
-14.1122979999999991
11
49.4442079999999962
21
-13.8735179999999989
0
LINE
8
BLACK
6
CONTINUOUS
10
49.4442079999999962
20
-13.8735179999999989
11
49.4049319999999952
21
-13.6255399999999991
0
LINE
8
BLACK
6
CONTINUOUS
10
49.4049319999999952
20
-13.6255399999999991
11
49.4049319999999952
21
-13.3744699999999987
0
LINE
8
BLACK
6
CONTINUOUS
10
49.4049319999999952
20
-13.3744699999999987
11
49.4442079999999962
21
-13.1264919999999989
0
LINE
8
BLACK
6
CONTINUOUS
10
49.4442079999999962
20
-13.1264919999999989
11
49.5217929999999953
21
-12.8877119999999987
0
LINE
8
BLACK
6
CONTINUOUS
10
49.5217929999999953
20
-12.8877119999999987
11
49.6357759999999999
21
-12.6640069999999998
0
LINE
8
BLACK
6
CONTINUOUS
10
49.6357759999999999
20
-12.6640069999999998
11
49.7833499999999987
21
-12.4608879999999989
0
LINE
8
BLACK
6
CONTINUOUS
10
49.7833499999999987
20
-12.4608879999999989
11
49.9608829999999955
21
-12.2833550000000002
0
LINE
8
BLACK
6
CONTINUOUS
10
49.9608829999999955
20
-12.2833550000000002
11
50.1640019999999964
21
-12.1357809999999997
0
LINE
8
BLACK
6
CONTINUOUS
10
50.1640019999999964
20
-12.1357809999999997
11
50.3877069999999989
21
-12.0217979999999987
0
LINE
8
BLACK
6
CONTINUOUS
10
50.3877069999999989
20
-12.0217979999999987
11
50.6264869999999974
21
-11.9442129999999995
0
LINE
8
BLACK
6
CONTINUOUS
10
50.6264869999999974
20
-11.9442129999999995
11
50.8744650000000007
21
-11.9049370000000003
0
LINE
8
BLACK
6
CONTINUOUS
10
50.8744650000000007
20
-11.9049370000000003
11
51.1255349999999993
21
-11.9049370000000003
0
LINE
8
BLACK
6
CONTINUOUS
10
51.1255349999999993
20
-11.9049370000000003
11
51.3735129999999955
21
-11.9442129999999995
0
LINE
8
BLACK
6
CONTINUOUS
10
89.8499999999999943
20
-11.6999999999999993
11
87.8499999999999943
21
-11.6999999999999993
0
LINE
8
BLACK
6
CONTINUOUS
10
87.8499999999999943
20
-11.6999999999999993
11
87.8499999999999943
21
-10.7999999999999989
0
LINE
8
BLACK
6
CONTINUOUS
10
87.8499999999999943
20
-10.7999999999999989
11
89.8499999999999943
21
-10.7999999999999989
0
LINE
8
BLACK
6
CONTINUOUS
10
89.8499999999999943
20
-10.7999999999999989
11
89.8499999999999943
21
-11.6999999999999993
0
LINE
8
BLACK
6
CONTINUOUS
10
3.873513
20
-1.9442079999999999
11
4.1122930000000002
21
-2.0217929999999997
0
LINE
8
BLACK
6
CONTINUOUS
10
4.1122930000000002
20
-2.0217929999999997
11
4.335998
21
-2.1357759999999999
0
LINE
8
BLACK
6
CONTINUOUS
10
4.335998
20
-2.1357759999999999
11
4.5391170000000001
21
-2.28335
0
LINE
8
BLACK
6
CONTINUOUS
10
4.5391170000000001
20
-2.28335
11
4.7166499999999996
21
-2.4608829999999999
0
LINE
8
BLACK
6
CONTINUOUS
10
4.7166499999999996
20
-2.4608829999999999
11
4.8642240000000001
21
-2.664002
0
LINE
8
BLACK
6
CONTINUOUS
10
4.8642240000000001
20
-2.664002
11
4.9782069999999994
21
-2.8877069999999998
0
LINE
8
BLACK
6
CONTINUOUS
10
4.9782069999999994
20
-2.8877069999999998
11
5.0557919999999994
21
-3.126487
0
LINE
8
BLACK
6
CONTINUOUS
10
5.0557919999999994
20
-3.126487
11
5.0950679999999995
21
-3.3744649999999998
0
LINE
8
BLACK
6
CONTINUOUS
10
5.0950679999999995
20
-3.3744649999999998
11
5.0950679999999995
21
-3.6255349999999997
0
LINE
8
BLACK
6
CONTINUOUS
10
5.0950679999999995
20
-3.6255349999999997
11
5.0557919999999994
21
-3.873513
0
LINE
8
BLACK
6
CONTINUOUS
10
5.0557919999999994
20
-3.873513
11
4.9782069999999994
21
-4.1122930000000002
0
LINE
8
BLACK
6
CONTINUOUS
10
4.9782069999999994
20
-4.1122930000000002
11
4.8642240000000001
21
-4.335998
0
LINE
8
BLACK
6
CONTINUOUS
10
4.8642240000000001
20
-4.335998
11
4.7166499999999996
21
-4.5391170000000001
0
LINE
8
BLACK
6
CONTINUOUS
10
4.7166499999999996
20
-4.5391170000000001
11
4.5391170000000001
21
-4.7166499999999996
0
LINE
8
BLACK
6
CONTINUOUS
10
4.5391170000000001
20
-4.7166499999999996
11
4.335998
21
-4.8642240000000001
0
LINE
8
BLACK
6
CONTINUOUS
10
4.335998
20
-4.8642240000000001
11
4.1122930000000002
21
-4.9782069999999994
0
LINE
8
BLACK
6
CONTINUOUS
10
4.1122930000000002
20
-4.9782069999999994
11
3.873513
21
-5.0557919999999994
0
LINE
8
BLACK
6
CONTINUOUS
10
3.873513
20
-5.0557919999999994
11
3.6255349999999997
21
-5.0950679999999995
0
LINE
8
BLACK
6
CONTINUOUS
10
3.6255349999999997
20
-5.0950679999999995
11
3.3744649999999998
21
-5.0950679999999995
0
LINE
8
BLACK
6
CONTINUOUS
10
3.3744649999999998
20
-5.0950679999999995
11
3.126487
21
-5.0557919999999994
0
LINE
8
BLACK
6
CONTINUOUS
10
3.126487
20
-5.0557919999999994
11
2.8877069999999998
21
-4.9782069999999994
0
LINE
8
BLACK
6
CONTINUOUS
10
2.8877069999999998
20
-4.9782069999999994
11
2.664002
21
-4.8642240000000001
0
LINE
8
BLACK
6
CONTINUOUS
10
2.664002
20
-4.8642240000000001
11
2.4608829999999999
21
-4.7166499999999996
0
LINE
8
BLACK
6
CONTINUOUS
10
2.4608829999999999
20
-4.7166499999999996
11
2.28335
21
-4.5391170000000001
0
LINE
8
BLACK
6
CONTINUOUS
10
2.28335
20
-4.5391170000000001
11
2.1357759999999999
21
-4.335998
0
LINE
8
BLACK
6
CONTINUOUS
10
2.1357759999999999
20
-4.335998
11
2.0217929999999997
21
-4.1122930000000002
0
LINE
8
BLACK
6
CONTINUOUS
10
2.0217929999999997
20
-4.1122930000000002
11
1.9442079999999999
21
-3.873513
0
LINE
8
BLACK
6
CONTINUOUS
10
1.9442079999999999
20
-3.873513
11
1.9049319999999998
21
-3.6255349999999997
0
LINE
8
BLACK
6
CONTINUOUS
10
1.9049319999999998
20
-3.6255349999999997
11
1.9049319999999998
21
-3.3744649999999998
0
LINE
8
BLACK
6
CONTINUOUS
10
1.9049319999999998
20
-3.3744649999999998
11
1.9442079999999999
21
-3.126487
0
LINE
8
BLACK
6
CONTINUOUS
10
1.9442079999999999
20
-3.126487
11
2.0217929999999997
21
-2.8877069999999998
0
LINE
8
BLACK
6
CONTINUOUS
10
2.0217929999999997
20
-2.8877069999999998
11
2.1357759999999999
21
-2.664002
0
LINE
8
BLACK
6
CONTINUOUS
10
2.1357759999999999
20
-2.664002
11
2.28335
21
-2.4608829999999999
0
LINE
8
BLACK
6
CONTINUOUS
10
2.28335
20
-2.4608829999999999
11
2.4608829999999999
21
-2.28335
0
LINE
8
BLACK
6
CONTINUOUS
10
2.4608829999999999
20
-2.28335
11
2.664002
21
-2.1357759999999999
0
LINE
8
BLACK
6
CONTINUOUS
10
2.664002
20
-2.1357759999999999
11
2.8877069999999998
21
-2.0217929999999997
0
LINE
8
BLACK
6
CONTINUOUS
10
2.8877069999999998
20
-2.0217929999999997
11
3.126487
21
-1.9442079999999999
0
LINE
8
BLACK
6
CONTINUOUS
10
3.126487
20
-1.9442079999999999
11
3.3744649999999998
21
-1.9049319999999998
0
LINE
8
BLACK
6
CONTINUOUS
10
3.3744649999999998
20
-1.9049319999999998
11
3.6255349999999997
21
-1.9049319999999998
0
LINE
8
BLACK
6
CONTINUOUS
10
3.6255349999999997
20
-1.9049319999999998
11
3.873513
21
-1.9442079999999999
0
LINE
8
BLACK
6
CONTINUOUS
10
96.8735130000000026
20
-1.9442079999999999
11
97.112292999999994
21
-2.0217929999999997
0
LINE
8
BLACK
6
CONTINUOUS
10
97.112292999999994
20
-2.0217929999999997
11
97.3359979999999894
21
-2.1357759999999999
0
LINE
8
BLACK
6
CONTINUOUS
10
97.3359979999999894
20
-2.1357759999999999
11
97.5391169999999903
21
-2.28335
0
LINE
8
BLACK
6
CONTINUOUS
10
97.5391169999999903
20
-2.28335
11
97.7166500000000013
21
-2.4608829999999999
0
LINE
8
BLACK
6
CONTINUOUS
10
97.7166500000000013
20
-2.4608829999999999
11
97.864223999999993
21
-2.664002
0
LINE
8
BLACK
6
CONTINUOUS
10
97.864223999999993
20
-2.664002
11
97.9782069999999976
21
-2.8877069999999998
0
LINE
8
BLACK
6
CONTINUOUS
10
97.9782069999999976
20
-2.8877069999999998
11
98.0557919999999967
21
-3.126487
0
LINE
8
BLACK
6
CONTINUOUS
10
98.0557919999999967
20
-3.126487
11
98.0950679999999977
21
-3.3744649999999998
0
LINE
8
BLACK
6
CONTINUOUS
10
98.0950679999999977
20
-3.3744649999999998
11
98.0950679999999977
21
-3.6255349999999997
0
LINE
8
BLACK
6
CONTINUOUS
10
98.0950679999999977
20
-3.6255349999999997
11
98.0557919999999967
21
-3.873513
0
LINE
8
BLACK
6
CONTINUOUS
10
98.0557919999999967
20
-3.873513
11
97.9782069999999976
21
-4.1122930000000002
0
LINE
8
BLACK
6
CONTINUOUS
10
97.9782069999999976
20
-4.1122930000000002
11
97.864223999999993
21
-4.335998
0
LINE
8
BLACK
6
CONTINUOUS
10
97.864223999999993
20
-4.335998
11
97.7166500000000013
21
-4.5391170000000001
0
LINE
8
BLACK
6
CONTINUOUS
10
97.7166500000000013
20
-4.5391170000000001
11
97.5391169999999903
21
-4.7166499999999996
0
LINE
8
BLACK
6
CONTINUOUS
10
97.5391169999999903
20
-4.7166499999999996
11
97.3359979999999894
21
-4.8642240000000001
0
LINE
8
BLACK
6
CONTINUOUS
10
97.3359979999999894
20
-4.8642240000000001
11
97.112292999999994
21
-4.9782069999999994
0
LINE
8
BLACK
6
CONTINUOUS
10
97.112292999999994
20
-4.9782069999999994
11
96.8735130000000026
21
-5.0557919999999994
0
LINE
8
BLACK
6
CONTINUOUS
10
96.8735130000000026
20
-5.0557919999999994
11
96.6255349999999993
21
-5.0950679999999995
0
LINE
8
BLACK
6
CONTINUOUS
10
96.6255349999999993
20
-5.0950679999999995
11
96.3744650000000007
21
-5.0950679999999995
0
LINE
8
BLACK
6
CONTINUOUS
10
96.3744650000000007
20
-5.0950679999999995
11
96.1264869999999974
21
-5.0557919999999994
0
LINE
8
BLACK
6
CONTINUOUS
10
96.1264869999999974
20
-5.0557919999999994
11
95.8877069999999918
21
-4.9782069999999994
0
LINE
8
BLACK
6
CONTINUOUS
10
95.8877069999999918
20
-4.9782069999999994
11
95.6640019999999964
21
-4.8642240000000001
0
LINE
8
BLACK
6
CONTINUOUS
10
95.6640019999999964
20
-4.8642240000000001
11
95.4608829999999955
21
-4.7166499999999996
0
LINE
8
BLACK
6
CONTINUOUS
10
95.4608829999999955
20
-4.7166499999999996
11
95.2833499999999987
21
-4.5391170000000001
0
LINE
8
BLACK
6
CONTINUOUS
10
95.2833499999999987
20
-4.5391170000000001
11
95.1357759999999928
21
-4.335998
0
LINE
8
BLACK
6
CONTINUOUS
10
95.1357759999999928
20
-4.335998
11
95.0217930000000024
21
-4.1122930000000002
0
LINE
8
BLACK
6
CONTINUOUS
10
95.0217930000000024
20
-4.1122930000000002
11
94.9442079999999891
21
-3.873513
0
LINE
8
BLACK
6
CONTINUOUS
10
94.9442079999999891
20
-3.873513
11
94.9049320000000023
21
-3.6255349999999997
0
LINE
8
BLACK
6
CONTINUOUS
10
94.9049320000000023
20
-3.6255349999999997
11
94.9049320000000023
21
-3.3744649999999998
0
LINE
8
BLACK
6
CONTINUOUS
10
94.9049320000000023
20
-3.3744649999999998
11
94.9442079999999891
21
-3.126487
0
LINE
8
BLACK
6
CONTINUOUS
10
94.9442079999999891
20
-3.126487
11
95.0217930000000024
21
-2.8877069999999998
0
LINE
8
BLACK
6
CONTINUOUS
10
95.0217930000000024
20
-2.8877069999999998
11
95.1357759999999928
21
-2.664002
0
LINE
8
BLACK
6
CONTINUOUS
10
95.1357759999999928
20
-2.664002
11
95.2833499999999987
21
-2.4608829999999999
0
LINE
8
BLACK
6
CONTINUOUS
10
95.2833499999999987
20
-2.4608829999999999
11
95.4608829999999955
21
-2.28335
0
LINE
8
BLACK
6
CONTINUOUS
10
95.4608829999999955
20
-2.28335
11
95.6640019999999964
21
-2.1357759999999999
0
LINE
8
BLACK
6
CONTINUOUS
10
95.6640019999999964
20
-2.1357759999999999
11
95.8877069999999918
21
-2.0217929999999997
0
LINE
8
BLACK
6
CONTINUOUS
10
95.8877069999999918
20
-2.0217929999999997
11
96.1264869999999974
21
-1.9442079999999999
0
LINE
8
BLACK
6
CONTINUOUS
10
96.1264869999999974
20
-1.9442079999999999
11
96.3744650000000007
21
-1.9049319999999998
0
LINE
8
BLACK
6
CONTINUOUS
10
96.3744650000000007
20
-1.9049319999999998
11
96.6255349999999993
21
-1.9049319999999998
0
LINE
8
BLACK
6
CONTINUOUS
10
96.6255349999999993
20
-1.9049319999999998
11
96.8735130000000026
21
-1.9442079999999999
  0
ENDSEC
  0
EOF
