  0
SECTION
  2
HEADER
  9
$ANGBASE
  50
0.0
  9
$ANGDIR
  70
1
  9
$MEASUREMENT
  70
1
  0
ENDSEC
  0
SECTION
  2
TABLES
  0
TABLE
  2
LTYPE
  70
4
  0
LTYPE
  5
40F
  2
CONTINUOUS
  70
0
  3
Solid line
  72
65
  73
0
  40
0.0
  0
LTYPE
  5
410
  2
DASHDOT
 70
0
  3
Dash Dot ____ _ ____ _
 72
65
 73
4
 40
2.0
 49
1.25
 49
-0.25
 49
0.25
 49
-0.25
  0
LTYPE
  5
411
  2
DASHED
 70
0
  3
Dashed __ __ __ __ __
 72
65
 73
2
 40
0.75
 49
0.5
 49
-0.25
  0
LTYPE
  5
43B
  2
DOTTED
 70
0
  3
Dotted .  .  .  .
 72
65
 73
2
 40
0.2
 49
0.0
 49
-0.2
  0
ENDTAB
  0
TABLE
  2
STYLE
  70
4
  0
STYLE
  2
KICAD
  70
0
  40
0
  41
1
  42
1
  50
0
  71
0
  3
isocp.shx
  0
STYLE
  2
KICADB
  70
0
  40
0
  41
1
  42
1
  50
0
  71
0
  3
isocp.shx
  0
STYLE
  2
KICADI
  70
0
  40
0
  41
1
  42
1
  50
15
  71
0
  3
isocp.shx
  0
STYLE
  2
KICADBI
  70
0
  40
0
  41
1
  42
1
  50
15
  71
0
  3
isocp.shx
  0
ENDTAB
  0
TABLE
  2
LAYER
  70
1
  0
LAYER
  2
BLACK
  70
0
  62
7
  6
CONTINUOUS
  0
ENDTAB
  0
ENDSEC
  0
SECTION
  2
ENTITIES
0
LINE
8
BLACK
6
CONTINUOUS
10
94.2074029999999993
20
-80.7114179999999948
11
94.2560659999999899
21
-80.7439339999999959
0
LINE
8
BLACK
6
CONTINUOUS
10
94.2560659999999899
20
-80.7439339999999959
11
94.288581999999991
21
-80.7925970000000007
0
LINE
8
BLACK
6
CONTINUOUS
10
94.288581999999991
20
-80.7925970000000007
11
94.2999999999999972
21
-80.8499999999999943
0
LINE
8
BLACK
6
CONTINUOUS
10
94.2999999999999972
20
-80.8499999999999943
11
94.2999999999999972
21
-82.0249999999999915
0
LINE
8
BLACK
6
CONTINUOUS
10
94.2999999999999972
20
-82.0249999999999915
11
94.288581999999991
21
-82.0824029999999993
0
LINE
8
BLACK
6
CONTINUOUS
10
94.288581999999991
20
-82.0824029999999993
11
94.2560659999999899
21
-82.1310659999999899
0
LINE
8
BLACK
6
CONTINUOUS
10
94.2560659999999899
20
-82.1310659999999899
11
94.2074029999999993
21
-82.163581999999991
0
LINE
8
BLACK
6
CONTINUOUS
10
94.2074029999999993
20
-82.163581999999991
11
94.1499999999999915
21
-82.1749999999999972
0
LINE
8
BLACK
6
CONTINUOUS
10
94.1499999999999915
20
-82.1749999999999972
11
93.8499999999999943
21
-82.1749999999999972
0
LINE
8
BLACK
6
CONTINUOUS
10
93.8499999999999943
20
-82.1749999999999972
11
93.7925970000000007
21
-82.163581999999991
0
LINE
8
BLACK
6
CONTINUOUS
10
93.7925970000000007
20
-82.163581999999991
11
93.7439339999999959
21
-82.1310659999999899
0
LINE
8
BLACK
6
CONTINUOUS
10
93.7439339999999959
20
-82.1310659999999899
11
93.7114179999999948
21
-82.0824029999999993
0
LINE
8
BLACK
6
CONTINUOUS
10
93.7114179999999948
20
-82.0824029999999993
11
93.7000000000000028
21
-82.0249999999999915
0
LINE
8
BLACK
6
CONTINUOUS
10
93.7000000000000028
20
-82.0249999999999915
11
93.7000000000000028
21
-80.8499999999999943
0
LINE
8
BLACK
6
CONTINUOUS
10
93.7000000000000028
20
-80.8499999999999943
11
93.7114179999999948
21
-80.7925970000000007
0
LINE
8
BLACK
6
CONTINUOUS
10
93.7114179999999948
20
-80.7925970000000007
11
93.7439339999999959
21
-80.7439339999999959
0
LINE
8
BLACK
6
CONTINUOUS
10
93.7439339999999959
20
-80.7439339999999959
11
93.7925970000000007
21
-80.7114179999999948
0
LINE
8
BLACK
6
CONTINUOUS
10
93.7925970000000007
20
-80.7114179999999948
11
93.8499999999999943
21
-80.7000000000000028
0
LINE
8
BLACK
6
CONTINUOUS
10
93.8499999999999943
20
-80.7000000000000028
11
94.1499999999999915
21
-80.7000000000000028
0
LINE
8
BLACK
6
CONTINUOUS
10
94.1499999999999915
20
-80.7000000000000028
11
94.2074029999999993
21
-80.7114179999999948
0
LINE
8
BLACK
6
CONTINUOUS
10
97.8283869999999922
20
-80.9430789999999973
11
97.9054379999999895
21
-80.9945620000000019
0
LINE
8
BLACK
6
CONTINUOUS
10
97.9054379999999895
20
-80.9945620000000019
11
97.9569209999999941
21
-81.0716129999999993
0
LINE
8
BLACK
6
CONTINUOUS
10
97.9569209999999941
20
-81.0716129999999993
11
97.9749999999999943
21
-81.1624999999999943
0
LINE
8
BLACK
6
CONTINUOUS
10
97.9749999999999943
20
-81.1624999999999943
11
97.9749999999999943
21
-81.6624999999999943
0
LINE
8
BLACK
6
CONTINUOUS
10
97.9749999999999943
20
-81.6624999999999943
11
97.9569209999999941
21
-81.7533869999999894
0
LINE
8
BLACK
6
CONTINUOUS
10
97.9569209999999941
20
-81.7533869999999894
11
97.9054379999999895
21
-81.8304380000000009
0
LINE
8
BLACK
6
CONTINUOUS
10
97.9054379999999895
20
-81.8304380000000009
11
97.8283869999999922
21
-81.8819209999999913
0
LINE
8
BLACK
6
CONTINUOUS
10
97.8283869999999922
20
-81.8819209999999913
11
97.7374999999999972
21
-81.8999999999999915
0
LINE
8
BLACK
6
CONTINUOUS
10
97.7374999999999972
20
-81.8999999999999915
11
97.2624999999999886
21
-81.8999999999999915
0
LINE
8
BLACK
6
CONTINUOUS
10
97.2624999999999886
20
-81.8999999999999915
11
97.1716129999999936
21
-81.8819209999999913
0
LINE
8
BLACK
6
CONTINUOUS
10
97.1716129999999936
20
-81.8819209999999913
11
97.0945619999999963
21
-81.8304380000000009
0
LINE
8
BLACK
6
CONTINUOUS
10
97.0945619999999963
20
-81.8304380000000009
11
97.0430789999999917
21
-81.7533869999999894
0
LINE
8
BLACK
6
CONTINUOUS
10
97.0430789999999917
20
-81.7533869999999894
11
97.0249999999999915
21
-81.6624999999999943
0
LINE
8
BLACK
6
CONTINUOUS
10
97.0249999999999915
20
-81.6624999999999943
11
97.0249999999999915
21
-81.1624999999999943
0
LINE
8
BLACK
6
CONTINUOUS
10
97.0249999999999915
20
-81.1624999999999943
11
97.0430789999999917
21
-81.0716129999999993
0
LINE
8
BLACK
6
CONTINUOUS
10
97.0430789999999917
20
-81.0716129999999993
11
97.0945619999999963
21
-80.9945620000000019
0
LINE
8
BLACK
6
CONTINUOUS
10
97.0945619999999963
20
-80.9945620000000019
11
97.1716129999999936
21
-80.9430789999999973
0
LINE
8
BLACK
6
CONTINUOUS
10
97.1716129999999936
20
-80.9430789999999973
11
97.2624999999999886
21
-80.9249999999999972
0
LINE
8
BLACK
6
CONTINUOUS
10
97.2624999999999886
20
-80.9249999999999972
11
97.7374999999999972
21
-80.9249999999999972
0
LINE
8
BLACK
6
CONTINUOUS
10
97.7374999999999972
20
-80.9249999999999972
11
97.8283869999999922
21
-80.9430789999999973
0
LINE
8
BLACK
6
CONTINUOUS
10
93.2574029999999965
20
-78.8364179999999948
11
93.3060660000000013
21
-78.8689339999999959
0
LINE
8
BLACK
6
CONTINUOUS
10
93.3060660000000013
20
-78.8689339999999959
11
93.3385820000000024
21
-78.9175970000000007
0
LINE
8
BLACK
6
CONTINUOUS
10
93.3385820000000024
20
-78.9175970000000007
11
93.3499999999999943
21
-78.9749999999999943
0
LINE
8
BLACK
6
CONTINUOUS
10
93.3499999999999943
20
-78.9749999999999943
11
93.3499999999999943
21
-80.1499999999999915
0
LINE
8
BLACK
6
CONTINUOUS
10
93.3499999999999943
20
-80.1499999999999915
11
93.3385820000000024
21
-80.2074029999999993
0
LINE
8
BLACK
6
CONTINUOUS
10
93.3385820000000024
20
-80.2074029999999993
11
93.3060660000000013
21
-80.2560659999999899
0
LINE
8
BLACK
6
CONTINUOUS
10
93.3060660000000013
20
-80.2560659999999899
11
93.2574029999999965
21
-80.288581999999991
0
LINE
8
BLACK
6
CONTINUOUS
10
93.2574029999999965
20
-80.288581999999991
11
93.2000000000000028
21
-80.2999999999999972
0
LINE
8
BLACK
6
CONTINUOUS
10
93.2000000000000028
20
-80.2999999999999972
11
92.8999999999999915
21
-80.2999999999999972
0
LINE
8
BLACK
6
CONTINUOUS
10
92.8999999999999915
20
-80.2999999999999972
11
92.8425969999999978
21
-80.288581999999991
0
LINE
8
BLACK
6
CONTINUOUS
10
92.8425969999999978
20
-80.288581999999991
11
92.793933999999993
21
-80.2560659999999899
0
LINE
8
BLACK
6
CONTINUOUS
10
92.793933999999993
20
-80.2560659999999899
11
92.7614179999999919
21
-80.2074029999999993
0
LINE
8
BLACK
6
CONTINUOUS
10
92.7614179999999919
20
-80.2074029999999993
11
92.75
21
-80.1499999999999915
0
LINE
8
BLACK
6
CONTINUOUS
10
92.75
20
-80.1499999999999915
11
92.75
21
-78.9749999999999943
0
LINE
8
BLACK
6
CONTINUOUS
10
92.75
20
-78.9749999999999943
11
92.7614179999999919
21
-78.9175970000000007
0
LINE
8
BLACK
6
CONTINUOUS
10
92.7614179999999919
20
-78.9175970000000007
11
92.793933999999993
21
-78.8689339999999959
0
LINE
8
BLACK
6
CONTINUOUS
10
92.793933999999993
20
-78.8689339999999959
11
92.8425969999999978
21
-78.8364179999999948
0
LINE
8
BLACK
6
CONTINUOUS
10
92.8425969999999978
20
-78.8364179999999948
11
92.8999999999999915
21
-78.8250000000000028
0
LINE
8
BLACK
6
CONTINUOUS
10
92.8999999999999915
20
-78.8250000000000028
11
93.2000000000000028
21
-78.8250000000000028
0
LINE
8
BLACK
6
CONTINUOUS
10
93.2000000000000028
20
-78.8250000000000028
11
93.2574029999999965
21
-78.8364179999999948
0
LINE
8
BLACK
6
CONTINUOUS
10
95.1574030000000022
20
-78.8364179999999948
11
95.2060659999999928
21
-78.8689339999999959
0
LINE
8
BLACK
6
CONTINUOUS
10
95.2060659999999928
20
-78.8689339999999959
11
95.2385819999999939
21
-78.9175970000000007
0
LINE
8
BLACK
6
CONTINUOUS
10
95.2385819999999939
20
-78.9175970000000007
11
95.25
21
-78.9749999999999943
0
LINE
8
BLACK
6
CONTINUOUS
10
95.25
20
-78.9749999999999943
11
95.25
21
-80.1499999999999915
0
LINE
8
BLACK
6
CONTINUOUS
10
95.25
20
-80.1499999999999915
11
95.2385819999999939
21
-80.2074029999999993
0
LINE
8
BLACK
6
CONTINUOUS
10
95.2385819999999939
20
-80.2074029999999993
11
95.2060659999999928
21
-80.2560659999999899
0
LINE
8
BLACK
6
CONTINUOUS
10
95.2060659999999928
20
-80.2560659999999899
11
95.1574030000000022
21
-80.288581999999991
0
LINE
8
BLACK
6
CONTINUOUS
10
95.1574030000000022
20
-80.288581999999991
11
95.0999999999999943
21
-80.2999999999999972
0
LINE
8
BLACK
6
CONTINUOUS
10
95.0999999999999943
20
-80.2999999999999972
11
94.7999999999999972
21
-80.2999999999999972
0
LINE
8
BLACK
6
CONTINUOUS
10
94.7999999999999972
20
-80.2999999999999972
11
94.7425969999999893
21
-80.288581999999991
0
LINE
8
BLACK
6
CONTINUOUS
10
94.7425969999999893
20
-80.288581999999991
11
94.6939339999999987
21
-80.2560659999999899
0
LINE
8
BLACK
6
CONTINUOUS
10
94.6939339999999987
20
-80.2560659999999899
11
94.6614179999999976
21
-80.2074029999999993
0
LINE
8
BLACK
6
CONTINUOUS
10
94.6614179999999976
20
-80.2074029999999993
11
94.6499999999999915
21
-80.1499999999999915
0
LINE
8
BLACK
6
CONTINUOUS
10
94.6499999999999915
20
-80.1499999999999915
11
94.6499999999999915
21
-78.9749999999999943
0
LINE
8
BLACK
6
CONTINUOUS
10
94.6499999999999915
20
-78.9749999999999943
11
94.6614179999999976
21
-78.9175970000000007
0
LINE
8
BLACK
6
CONTINUOUS
10
94.6614179999999976
20
-78.9175970000000007
11
94.6939339999999987
21
-78.8689339999999959
0
LINE
8
BLACK
6
CONTINUOUS
10
94.6939339999999987
20
-78.8689339999999959
11
94.7425969999999893
21
-78.8364179999999948
0
LINE
8
BLACK
6
CONTINUOUS
10
94.7425969999999893
20
-78.8364179999999948
11
94.7999999999999972
21
-78.8250000000000028
0
LINE
8
BLACK
6
CONTINUOUS
10
94.7999999999999972
20
-78.8250000000000028
11
95.0999999999999943
21
-78.8250000000000028
0
LINE
8
BLACK
6
CONTINUOUS
10
95.0999999999999943
20
-78.8250000000000028
11
95.1574030000000022
21
-78.8364179999999948
0
LINE
8
BLACK
6
CONTINUOUS
10
97.8283869999999922
20
-79.1180789999999945
11
97.9054379999999895
21
-79.1695619999999991
0
LINE
8
BLACK
6
CONTINUOUS
10
97.9054379999999895
20
-79.1695619999999991
11
97.9569209999999941
21
-79.2466129999999964
0
LINE
8
BLACK
6
CONTINUOUS
10
97.9569209999999941
20
-79.2466129999999964
11
97.9749999999999943
21
-79.3374999999999915
0
LINE
8
BLACK
6
CONTINUOUS
10
97.9749999999999943
20
-79.3374999999999915
11
97.9749999999999943
21
-79.8374999999999915
0
LINE
8
BLACK
6
CONTINUOUS
10
97.9749999999999943
20
-79.8374999999999915
11
97.9569209999999941
21
-79.9283870000000007
0
LINE
8
BLACK
6
CONTINUOUS
10
97.9569209999999941
20
-79.9283870000000007
11
97.9054379999999895
21
-80.0054379999999981
0
LINE
8
BLACK
6
CONTINUOUS
10
97.9054379999999895
20
-80.0054379999999981
11
97.8283869999999922
21
-80.0569210000000027
0
LINE
8
BLACK
6
CONTINUOUS
10
97.8283869999999922
20
-80.0569210000000027
11
97.7374999999999972
21
-80.0750000000000028
0
LINE
8
BLACK
6
CONTINUOUS
10
97.7374999999999972
20
-80.0750000000000028
11
97.2624999999999886
21
-80.0750000000000028
0
LINE
8
BLACK
6
CONTINUOUS
10
97.2624999999999886
20
-80.0750000000000028
11
97.1716129999999936
21
-80.0569210000000027
0
LINE
8
BLACK
6
CONTINUOUS
10
97.1716129999999936
20
-80.0569210000000027
11
97.0945619999999963
21
-80.0054379999999981
0
LINE
8
BLACK
6
CONTINUOUS
10
97.0945619999999963
20
-80.0054379999999981
11
97.0430789999999917
21
-79.9283870000000007
0
LINE
8
BLACK
6
CONTINUOUS
10
97.0430789999999917
20
-79.9283870000000007
11
97.0249999999999915
21
-79.8374999999999915
0
LINE
8
BLACK
6
CONTINUOUS
10
97.0249999999999915
20
-79.8374999999999915
11
97.0249999999999915
21
-79.3374999999999915
0
LINE
8
BLACK
6
CONTINUOUS
10
97.0249999999999915
20
-79.3374999999999915
11
97.0430789999999917
21
-79.2466129999999964
0
LINE
8
BLACK
6
CONTINUOUS
10
97.0430789999999917
20
-79.2466129999999964
11
97.0945619999999963
21
-79.1695619999999991
0
LINE
8
BLACK
6
CONTINUOUS
10
97.0945619999999963
20
-79.1695619999999991
11
97.1716129999999936
21
-79.1180789999999945
0
LINE
8
BLACK
6
CONTINUOUS
10
97.1716129999999936
20
-79.1180789999999945
11
97.2624999999999886
21
-79.0999999999999943
0
LINE
8
BLACK
6
CONTINUOUS
10
97.2624999999999886
20
-79.0999999999999943
11
97.7374999999999972
21
-79.0999999999999943
0
LINE
8
BLACK
6
CONTINUOUS
10
97.7374999999999972
20
-79.0999999999999943
11
97.8283869999999922
21
-79.1180789999999945
0
LINE
8
BLACK
6
CONTINUOUS
10
93.4283870000000007
20
-76.5430789999999917
11
93.5054379999999981
21
-76.5945619999999963
0
LINE
8
BLACK
6
CONTINUOUS
10
93.5054379999999981
20
-76.5945619999999963
11
93.5569210000000027
21
-76.6716129999999936
0
LINE
8
BLACK
6
CONTINUOUS
10
93.5569210000000027
20
-76.6716129999999936
11
93.5750000000000028
21
-76.7625000000000028
0
LINE
8
BLACK
6
CONTINUOUS
10
93.5750000000000028
20
-76.7625000000000028
11
93.5750000000000028
21
-77.2374999999999972
0
LINE
8
BLACK
6
CONTINUOUS
10
93.5750000000000028
20
-77.2374999999999972
11
93.5569210000000027
21
-77.3283869999999922
0
LINE
8
BLACK
6
CONTINUOUS
10
93.5569210000000027
20
-77.3283869999999922
11
93.5054379999999981
21
-77.4054379999999895
0
LINE
8
BLACK
6
CONTINUOUS
10
93.5054379999999981
20
-77.4054379999999895
11
93.4283870000000007
21
-77.4569209999999941
0
LINE
8
BLACK
6
CONTINUOUS
10
93.4283870000000007
20
-77.4569209999999941
11
93.3374999999999915
21
-77.4749999999999943
0
LINE
8
BLACK
6
CONTINUOUS
10
93.3374999999999915
20
-77.4749999999999943
11
92.8374999999999915
21
-77.4749999999999943
0
LINE
8
BLACK
6
CONTINUOUS
10
92.8374999999999915
20
-77.4749999999999943
11
92.7466129999999964
21
-77.4569209999999941
0
LINE
8
BLACK
6
CONTINUOUS
10
92.7466129999999964
20
-77.4569209999999941
11
92.6695619999999991
21
-77.4054379999999895
0
LINE
8
BLACK
6
CONTINUOUS
10
92.6695619999999991
20
-77.4054379999999895
11
92.6180789999999945
21
-77.3283869999999922
0
LINE
8
BLACK
6
CONTINUOUS
10
92.6180789999999945
20
-77.3283869999999922
11
92.5999999999999943
21
-77.2374999999999972
0
LINE
8
BLACK
6
CONTINUOUS
10
92.5999999999999943
20
-77.2374999999999972
11
92.5999999999999943
21
-76.7625000000000028
0
LINE
8
BLACK
6
CONTINUOUS
10
92.5999999999999943
20
-76.7625000000000028
11
92.6180789999999945
21
-76.6716129999999936
0
LINE
8
BLACK
6
CONTINUOUS
10
92.6180789999999945
20
-76.6716129999999936
11
92.6695619999999991
21
-76.5945619999999963
0
LINE
8
BLACK
6
CONTINUOUS
10
92.6695619999999991
20
-76.5945619999999963
11
92.7466129999999964
21
-76.5430789999999917
0
LINE
8
BLACK
6
CONTINUOUS
10
92.7466129999999964
20
-76.5430789999999917
11
92.8374999999999915
21
-76.5249999999999915
0
LINE
8
BLACK
6
CONTINUOUS
10
92.8374999999999915
20
-76.5249999999999915
11
93.3374999999999915
21
-76.5249999999999915
0
LINE
8
BLACK
6
CONTINUOUS
10
93.3374999999999915
20
-76.5249999999999915
11
93.4283870000000007
21
-76.5430789999999917
0
LINE
8
BLACK
6
CONTINUOUS
10
95.2533869999999894
20
-76.5430789999999917
11
95.3304380000000009
21
-76.5945619999999963
0
LINE
8
BLACK
6
CONTINUOUS
10
95.3304380000000009
20
-76.5945619999999963
11
95.3819209999999913
21
-76.6716129999999936
0
LINE
8
BLACK
6
CONTINUOUS
10
95.3819209999999913
20
-76.6716129999999936
11
95.3999999999999915
21
-76.7625000000000028
0
LINE
8
BLACK
6
CONTINUOUS
10
95.3999999999999915
20
-76.7625000000000028
11
95.3999999999999915
21
-77.2374999999999972
0
LINE
8
BLACK
6
CONTINUOUS
10
95.3999999999999915
20
-77.2374999999999972
11
95.3819209999999913
21
-77.3283869999999922
0
LINE
8
BLACK
6
CONTINUOUS
10
95.3819209999999913
20
-77.3283869999999922
11
95.3304380000000009
21
-77.4054379999999895
0
LINE
8
BLACK
6
CONTINUOUS
10
95.3304380000000009
20
-77.4054379999999895
11
95.2533869999999894
21
-77.4569209999999941
0
LINE
8
BLACK
6
CONTINUOUS
10
95.2533869999999894
20
-77.4569209999999941
11
95.1624999999999943
21
-77.4749999999999943
0
LINE
8
BLACK
6
CONTINUOUS
10
95.1624999999999943
20
-77.4749999999999943
11
94.6624999999999943
21
-77.4749999999999943
0
LINE
8
BLACK
6
CONTINUOUS
10
94.6624999999999943
20
-77.4749999999999943
11
94.5716129999999993
21
-77.4569209999999941
0
LINE
8
BLACK
6
CONTINUOUS
10
94.5716129999999993
20
-77.4569209999999941
11
94.4945620000000019
21
-77.4054379999999895
0
LINE
8
BLACK
6
CONTINUOUS
10
94.4945620000000019
20
-77.4054379999999895
11
94.4430789999999973
21
-77.3283869999999922
0
LINE
8
BLACK
6
CONTINUOUS
10
94.4430789999999973
20
-77.3283869999999922
11
94.4249999999999972
21
-77.2374999999999972
0
LINE
8
BLACK
6
CONTINUOUS
10
94.4249999999999972
20
-77.2374999999999972
11
94.4249999999999972
21
-76.7625000000000028
0
LINE
8
BLACK
6
CONTINUOUS
10
94.4249999999999972
20
-76.7625000000000028
11
94.4430789999999973
21
-76.6716129999999936
0
LINE
8
BLACK
6
CONTINUOUS
10
94.4430789999999973
20
-76.6716129999999936
11
94.4945620000000019
21
-76.5945619999999963
0
LINE
8
BLACK
6
CONTINUOUS
10
94.4945620000000019
20
-76.5945619999999963
11
94.5716129999999993
21
-76.5430789999999917
0
LINE
8
BLACK
6
CONTINUOUS
10
94.5716129999999993
20
-76.5430789999999917
11
94.6624999999999943
21
-76.5249999999999915
0
LINE
8
BLACK
6
CONTINUOUS
10
94.6624999999999943
20
-76.5249999999999915
11
95.1624999999999943
21
-76.5249999999999915
0
LINE
8
BLACK
6
CONTINUOUS
10
95.1624999999999943
20
-76.5249999999999915
11
95.2533869999999894
21
-76.5430789999999917
0
LINE
8
BLACK
6
CONTINUOUS
10
28.1765369999999997
20
-60.1152239999999978
11
28.241420999999999
21
-60.158578999999996
0
LINE
8
BLACK
6
CONTINUOUS
10
28.241420999999999
20
-60.158578999999996
11
28.2847759999999973
21
-60.2234629999999953
0
LINE
8
BLACK
6
CONTINUOUS
10
28.2847759999999973
20
-60.2234629999999953
11
28.2999999999999972
21
-60.2999999999999972
0
LINE
8
BLACK
6
CONTINUOUS
10
28.2999999999999972
20
-60.2999999999999972
11
28.2999999999999972
21
-60.6999999999999957
0
LINE
8
BLACK
6
CONTINUOUS
10
28.2999999999999972
20
-60.6999999999999957
11
28.2847759999999973
21
-60.7765369999999976
0
LINE
8
BLACK
6
CONTINUOUS
10
28.2847759999999973
20
-60.7765369999999976
11
28.241420999999999
21
-60.8414209999999969
0
LINE
8
BLACK
6
CONTINUOUS
10
28.241420999999999
20
-60.8414209999999969
11
28.1765369999999997
21
-60.8847759999999951
0
LINE
8
BLACK
6
CONTINUOUS
10
28.1765369999999997
20
-60.8847759999999951
11
28.0999999999999979
21
-60.8999999999999986
0
LINE
8
BLACK
6
CONTINUOUS
10
28.0999999999999979
20
-60.8999999999999986
11
27.2999999999999972
21
-60.8999999999999986
0
LINE
8
BLACK
6
CONTINUOUS
10
27.2999999999999972
20
-60.8999999999999986
11
27.2234629999999989
21
-60.8847759999999951
0
LINE
8
BLACK
6
CONTINUOUS
10
27.2234629999999989
20
-60.8847759999999951
11
27.1585789999999996
21
-60.8414209999999969
0
LINE
8
BLACK
6
CONTINUOUS
10
27.1585789999999996
20
-60.8414209999999969
11
27.1152239999999978
21
-60.7765369999999976
0
LINE
8
BLACK
6
CONTINUOUS
10
27.1152239999999978
20
-60.7765369999999976
11
27.0999999999999979
21
-60.6999999999999957
0
LINE
8
BLACK
6
CONTINUOUS
10
27.0999999999999979
20
-60.6999999999999957
11
27.0999999999999979
21
-60.2999999999999972
0
LINE
8
BLACK
6
CONTINUOUS
10
27.0999999999999979
20
-60.2999999999999972
11
27.1152239999999978
21
-60.2234629999999953
0
LINE
8
BLACK
6
CONTINUOUS
10
27.1152239999999978
20
-60.2234629999999953
11
27.1585789999999996
21
-60.158578999999996
0
LINE
8
BLACK
6
CONTINUOUS
10
27.1585789999999996
20
-60.158578999999996
11
27.2234629999999989
21
-60.1152239999999978
0
LINE
8
BLACK
6
CONTINUOUS
10
27.2234629999999989
20
-60.1152239999999978
11
27.2999999999999972
21
-60.0999999999999943
0
LINE
8
BLACK
6
CONTINUOUS
10
27.2999999999999972
20
-60.0999999999999943
11
28.0999999999999979
21
-60.0999999999999943
0
LINE
8
BLACK
6
CONTINUOUS
10
28.0999999999999979
20
-60.0999999999999943
11
28.1765369999999997
21
-60.1152239999999978
0
LINE
8
BLACK
6
CONTINUOUS
10
34.4765370000000004
20
-60.1152239999999978
11
34.5414209999999997
21
-60.158578999999996
0
LINE
8
BLACK
6
CONTINUOUS
10
34.5414209999999997
20
-60.158578999999996
11
34.584775999999998
21
-60.2234629999999953
0
LINE
8
BLACK
6
CONTINUOUS
10
34.584775999999998
20
-60.2234629999999953
11
34.6000000000000014
21
-60.2999999999999972
0
LINE
8
BLACK
6
CONTINUOUS
10
34.6000000000000014
20
-60.2999999999999972
11
34.6000000000000014
21
-60.6999999999999957
0
LINE
8
BLACK
6
CONTINUOUS
10
34.6000000000000014
20
-60.6999999999999957
11
34.584775999999998
21
-60.7765369999999976
0
LINE
8
BLACK
6
CONTINUOUS
10
34.584775999999998
20
-60.7765369999999976
11
34.5414209999999997
21
-60.8414209999999969
0
LINE
8
BLACK
6
CONTINUOUS
10
34.5414209999999997
20
-60.8414209999999969
11
34.4765370000000004
21
-60.8847759999999951
0
LINE
8
BLACK
6
CONTINUOUS
10
34.4765370000000004
20
-60.8847759999999951
11
34.3999999999999986
21
-60.8999999999999986
0
LINE
8
BLACK
6
CONTINUOUS
10
34.3999999999999986
20
-60.8999999999999986
11
33.6000000000000014
21
-60.8999999999999986
0
LINE
8
BLACK
6
CONTINUOUS
10
33.6000000000000014
20
-60.8999999999999986
11
33.5234629999999996
21
-60.8847759999999951
0
LINE
8
BLACK
6
CONTINUOUS
10
33.5234629999999996
20
-60.8847759999999951
11
33.4585790000000003
21
-60.8414209999999969
0
LINE
8
BLACK
6
CONTINUOUS
10
33.4585790000000003
20
-60.8414209999999969
11
33.415224000000002
21
-60.7765369999999976
0
LINE
8
BLACK
6
CONTINUOUS
10
33.415224000000002
20
-60.7765369999999976
11
33.3999999999999986
21
-60.6999999999999957
0
LINE
8
BLACK
6
CONTINUOUS
10
33.3999999999999986
20
-60.6999999999999957
11
33.3999999999999986
21
-60.2999999999999972
0
LINE
8
BLACK
6
CONTINUOUS
10
33.3999999999999986
20
-60.2999999999999972
11
33.415224000000002
21
-60.2234629999999953
0
LINE
8
BLACK
6
CONTINUOUS
10
33.415224000000002
20
-60.2234629999999953
11
33.4585790000000003
21
-60.158578999999996
0
LINE
8
BLACK
6
CONTINUOUS
10
33.4585790000000003
20
-60.158578999999996
11
33.5234629999999996
21
-60.1152239999999978
0
LINE
8
BLACK
6
CONTINUOUS
10
33.5234629999999996
20
-60.1152239999999978
11
33.6000000000000014
21
-60.0999999999999943
0
LINE
8
BLACK
6
CONTINUOUS
10
33.6000000000000014
20
-60.0999999999999943
11
34.3999999999999986
21
-60.0999999999999943
0
LINE
8
BLACK
6
CONTINUOUS
10
34.3999999999999986
20
-60.0999999999999943
11
34.4765370000000004
21
-60.1152239999999978
0
LINE
8
BLACK
6
CONTINUOUS
10
36.6783870000000007
20
-59.5730789999999999
11
36.7554379999999981
21
-59.6245619999999974
0
LINE
8
BLACK
6
CONTINUOUS
10
36.7554379999999981
20
-59.6245619999999974
11
36.8069209999999956
21
-59.7016129999999947
0
LINE
8
BLACK
6
CONTINUOUS
10
36.8069209999999956
20
-59.7016129999999947
11
36.8249999999999957
21
-59.7924999999999969
0
LINE
8
BLACK
6
CONTINUOUS
10
36.8249999999999957
20
-59.7924999999999969
11
36.8249999999999957
21
-60.3924999999999983
0
LINE
8
BLACK
6
CONTINUOUS
10
36.8249999999999957
20
-60.3924999999999983
11
36.8069209999999956
21
-60.4833870000000005
0
LINE
8
BLACK
6
CONTINUOUS
10
36.8069209999999956
20
-60.4833870000000005
11
36.7554379999999981
21
-60.5604379999999978
0
LINE
8
BLACK
6
CONTINUOUS
10
36.7554379999999981
20
-60.5604379999999978
11
36.6783870000000007
21
-60.6119209999999953
0
LINE
8
BLACK
6
CONTINUOUS
10
36.6783870000000007
20
-60.6119209999999953
11
36.5874999999999986
21
-60.6299999999999955
0
LINE
8
BLACK
6
CONTINUOUS
10
36.5874999999999986
20
-60.6299999999999955
11
36.1124999999999972
21
-60.6299999999999955
0
LINE
8
BLACK
6
CONTINUOUS
10
36.1124999999999972
20
-60.6299999999999955
11
36.021612999999995
21
-60.6119209999999953
0
LINE
8
BLACK
6
CONTINUOUS
10
36.021612999999995
20
-60.6119209999999953
11
35.9445619999999977
21
-60.5604379999999978
0
LINE
8
BLACK
6
CONTINUOUS
10
35.9445619999999977
20
-60.5604379999999978
11
35.8930790000000002
21
-60.4833870000000005
0
LINE
8
BLACK
6
CONTINUOUS
10
35.8930790000000002
20
-60.4833870000000005
11
35.875
21
-60.3924999999999983
0
LINE
8
BLACK
6
CONTINUOUS
10
35.875
20
-60.3924999999999983
11
35.875
21
-59.7924999999999969
0
LINE
8
BLACK
6
CONTINUOUS
10
35.875
20
-59.7924999999999969
11
35.8930790000000002
21
-59.7016129999999947
0
LINE
8
BLACK
6
CONTINUOUS
10
35.8930790000000002
20
-59.7016129999999947
11
35.9445619999999977
21
-59.6245619999999974
0
LINE
8
BLACK
6
CONTINUOUS
10
35.9445619999999977
20
-59.6245619999999974
11
36.021612999999995
21
-59.5730789999999999
0
LINE
8
BLACK
6
CONTINUOUS
10
36.021612999999995
20
-59.5730789999999999
11
36.1124999999999972
21
-59.5549999999999997
0
LINE
8
BLACK
6
CONTINUOUS
10
36.1124999999999972
20
-59.5549999999999997
11
36.5874999999999986
21
-59.5549999999999997
0
LINE
8
BLACK
6
CONTINUOUS
10
36.5874999999999986
20
-59.5549999999999997
11
36.6783870000000007
21
-59.5730789999999999
0
LINE
8
BLACK
6
CONTINUOUS
10
34.4765370000000004
20
-58.8452239999999946
11
34.5414209999999997
21
-58.888579
0
LINE
8
BLACK
6
CONTINUOUS
10
34.5414209999999997
20
-58.888579
11
34.584775999999998
21
-58.9534629999999993
0
LINE
8
BLACK
6
CONTINUOUS
10
34.584775999999998
20
-58.9534629999999993
11
34.6000000000000014
21
-59.029999999999994
0
LINE
8
BLACK
6
CONTINUOUS
10
34.6000000000000014
20
-59.029999999999994
11
34.6000000000000014
21
-59.4299999999999997
0
LINE
8
BLACK
6
CONTINUOUS
10
34.6000000000000014
20
-59.4299999999999997
11
34.584775999999998
21
-59.5065369999999945
0
LINE
8
BLACK
6
CONTINUOUS
10
34.584775999999998
20
-59.5065369999999945
11
34.5414209999999997
21
-59.5714210000000008
0
LINE
8
BLACK
6
CONTINUOUS
10
34.5414209999999997
20
-59.5714210000000008
11
34.4765370000000004
21
-59.6147759999999991
0
LINE
8
BLACK
6
CONTINUOUS
10
34.4765370000000004
20
-59.6147759999999991
11
34.3999999999999986
21
-59.6299999999999955
0
LINE
8
BLACK
6
CONTINUOUS
10
34.3999999999999986
20
-59.6299999999999955
11
33.6000000000000014
21
-59.6299999999999955
0
LINE
8
BLACK
6
CONTINUOUS
10
33.6000000000000014
20
-59.6299999999999955
11
33.5234629999999996
21
-59.6147759999999991
0
LINE
8
BLACK
6
CONTINUOUS
10
33.5234629999999996
20
-59.6147759999999991
11
33.4585790000000003
21
-59.5714210000000008
0
LINE
8
BLACK
6
CONTINUOUS
10
33.4585790000000003
20
-59.5714210000000008
11
33.415224000000002
21
-59.5065369999999945
0
LINE
8
BLACK
6
CONTINUOUS
10
33.415224000000002
20
-59.5065369999999945
11
33.3999999999999986
21
-59.4299999999999997
0
LINE
8
BLACK
6
CONTINUOUS
10
33.3999999999999986
20
-59.4299999999999997
11
33.3999999999999986
21
-59.029999999999994
0
LINE
8
BLACK
6
CONTINUOUS
10
33.3999999999999986
20
-59.029999999999994
11
33.415224000000002
21
-58.9534629999999993
0
LINE
8
BLACK
6
CONTINUOUS
10
33.415224000000002
20
-58.9534629999999993
11
33.4585790000000003
21
-58.888579
0
LINE
8
BLACK
6
CONTINUOUS
10
33.4585790000000003
20
-58.888579
11
33.5234629999999996
21
-58.8452239999999946
0
LINE
8
BLACK
6
CONTINUOUS
10
33.5234629999999996
20
-58.8452239999999946
11
33.6000000000000014
21
-58.8299999999999983
0
LINE
8
BLACK
6
CONTINUOUS
10
33.6000000000000014
20
-58.8299999999999983
11
34.3999999999999986
21
-58.8299999999999983
0
LINE
8
BLACK
6
CONTINUOUS
10
34.3999999999999986
20
-58.8299999999999983
11
34.4765370000000004
21
-58.8452239999999946
0
LINE
8
BLACK
6
CONTINUOUS
10
36.6783870000000007
20
-57.8480789999999985
11
36.7554379999999981
21
-57.899561999999996
0
LINE
8
BLACK
6
CONTINUOUS
10
36.7554379999999981
20
-57.899561999999996
11
36.8069209999999956
21
-57.9766130000000004
0
LINE
8
BLACK
6
CONTINUOUS
10
36.8069209999999956
20
-57.9766130000000004
11
36.8249999999999957
21
-58.0674999999999955
0
LINE
8
BLACK
6
CONTINUOUS
10
36.8249999999999957
20
-58.0674999999999955
11
36.8249999999999957
21
-58.6674999999999969
0
LINE
8
BLACK
6
CONTINUOUS
10
36.8249999999999957
20
-58.6674999999999969
11
36.8069209999999956
21
-58.758386999999999
0
LINE
8
BLACK
6
CONTINUOUS
10
36.8069209999999956
20
-58.758386999999999
11
36.7554379999999981
21
-58.8354379999999964
0
LINE
8
BLACK
6
CONTINUOUS
10
36.7554379999999981
20
-58.8354379999999964
11
36.6783870000000007
21
-58.8869209999999939
0
LINE
8
BLACK
6
CONTINUOUS
10
36.6783870000000007
20
-58.8869209999999939
11
36.5874999999999986
21
-58.904999999999994
0
LINE
8
BLACK
6
CONTINUOUS
10
36.5874999999999986
20
-58.904999999999994
11
36.1124999999999972
21
-58.904999999999994
0
LINE
8
BLACK
6
CONTINUOUS
10
36.1124999999999972
20
-58.904999999999994
11
36.021612999999995
21
-58.8869209999999939
0
LINE
8
BLACK
6
CONTINUOUS
10
36.021612999999995
20
-58.8869209999999939
11
35.9445619999999977
21
-58.8354379999999964
0
LINE
8
BLACK
6
CONTINUOUS
10
35.9445619999999977
20
-58.8354379999999964
11
35.8930790000000002
21
-58.758386999999999
0
LINE
8
BLACK
6
CONTINUOUS
10
35.8930790000000002
20
-58.758386999999999
11
35.875
21
-58.6674999999999969
0
LINE
8
BLACK
6
CONTINUOUS
10
35.875
20
-58.6674999999999969
11
35.875
21
-58.0674999999999955
0
LINE
8
BLACK
6
CONTINUOUS
10
35.875
20
-58.0674999999999955
11
35.8930790000000002
21
-57.9766130000000004
0
LINE
8
BLACK
6
CONTINUOUS
10
35.8930790000000002
20
-57.9766130000000004
11
35.9445619999999977
21
-57.899561999999996
0
LINE
8
BLACK
6
CONTINUOUS
10
35.9445619999999977
20
-57.899561999999996
11
36.021612999999995
21
-57.8480789999999985
0
LINE
8
BLACK
6
CONTINUOUS
10
36.021612999999995
20
-57.8480789999999985
11
36.1124999999999972
21
-57.8299999999999983
0
LINE
8
BLACK
6
CONTINUOUS
10
36.1124999999999972
20
-57.8299999999999983
11
36.5874999999999986
21
-57.8299999999999983
0
LINE
8
BLACK
6
CONTINUOUS
10
36.5874999999999986
20
-57.8299999999999983
11
36.6783870000000007
21
-57.8480789999999985
0
LINE
8
BLACK
6
CONTINUOUS
10
23.2783820000000006
20
-57.5430789999999988
11
23.3554329999999979
21
-57.5945619999999963
0
LINE
8
BLACK
6
CONTINUOUS
10
23.3554329999999979
20
-57.5945619999999963
11
23.4069159999999989
21
-57.6716130000000007
0
LINE
8
BLACK
6
CONTINUOUS
10
23.4069159999999989
20
-57.6716130000000007
11
23.4249949999999991
21
-57.7624999999999957
0
LINE
8
BLACK
6
CONTINUOUS
10
23.4249949999999991
20
-57.7624999999999957
11
23.4249949999999991
21
-58.2374999999999972
0
LINE
8
BLACK
6
CONTINUOUS
10
23.4249949999999991
20
-58.2374999999999972
11
23.4069159999999989
21
-58.3283869999999993
0
LINE
8
BLACK
6
CONTINUOUS
10
23.4069159999999989
20
-58.3283869999999993
11
23.3554329999999979
21
-58.4054379999999966
0
LINE
8
BLACK
6
CONTINUOUS
10
23.3554329999999979
20
-58.4054379999999966
11
23.2783820000000006
21
-58.4569209999999941
0
LINE
8
BLACK
6
CONTINUOUS
10
23.2783820000000006
20
-58.4569209999999941
11
23.1874949999999984
21
-58.4749999999999943
0
LINE
8
BLACK
6
CONTINUOUS
10
23.1874949999999984
20
-58.4749999999999943
11
22.6874949999999984
21
-58.4749999999999943
0
LINE
8
BLACK
6
CONTINUOUS
10
22.6874949999999984
20
-58.4749999999999943
11
22.5966079999999998
21
-58.4569209999999941
0
LINE
8
BLACK
6
CONTINUOUS
10
22.5966079999999998
20
-58.4569209999999941
11
22.5195569999999989
21
-58.4054379999999966
0
LINE
8
BLACK
6
CONTINUOUS
10
22.5195569999999989
20
-58.4054379999999966
11
22.4680739999999979
21
-58.3283869999999993
0
LINE
8
BLACK
6
CONTINUOUS
10
22.4680739999999979
20
-58.3283869999999993
11
22.4499949999999977
21
-58.2374999999999972
0
LINE
8
BLACK
6
CONTINUOUS
10
22.4499949999999977
20
-58.2374999999999972
11
22.4499949999999977
21
-57.7624999999999957
0
LINE
8
BLACK
6
CONTINUOUS
10
22.4499949999999977
20
-57.7624999999999957
11
22.4680739999999979
21
-57.6716130000000007
0
LINE
8
BLACK
6
CONTINUOUS
10
22.4680739999999979
20
-57.6716130000000007
11
22.5195569999999989
21
-57.5945619999999963
0
LINE
8
BLACK
6
CONTINUOUS
10
22.5195569999999989
20
-57.5945619999999963
11
22.5966079999999998
21
-57.5430789999999988
0
LINE
8
BLACK
6
CONTINUOUS
10
22.5966079999999998
20
-57.5430789999999988
11
22.6874949999999984
21
-57.5249999999999986
0
LINE
8
BLACK
6
CONTINUOUS
10
22.6874949999999984
20
-57.5249999999999986
11
23.1874949999999984
21
-57.5249999999999986
0
LINE
8
BLACK
6
CONTINUOUS
10
23.1874949999999984
20
-57.5249999999999986
11
23.2783820000000006
21
-57.5430789999999988
0
LINE
8
BLACK
6
CONTINUOUS
10
25.1033819999999999
20
-57.5430789999999988
11
25.1804329999999972
21
-57.5945619999999963
0
LINE
8
BLACK
6
CONTINUOUS
10
25.1804329999999972
20
-57.5945619999999963
11
25.2319159999999982
21
-57.6716130000000007
0
LINE
8
BLACK
6
CONTINUOUS
10
25.2319159999999982
20
-57.6716130000000007
11
25.2499949999999984
21
-57.7624999999999957
0
LINE
8
BLACK
6
CONTINUOUS
10
25.2499949999999984
20
-57.7624999999999957
11
25.2499949999999984
21
-58.2374999999999972
0
LINE
8
BLACK
6
CONTINUOUS
10
25.2499949999999984
20
-58.2374999999999972
11
25.2319159999999982
21
-58.3283869999999993
0
LINE
8
BLACK
6
CONTINUOUS
10
25.2319159999999982
20
-58.3283869999999993
11
25.1804329999999972
21
-58.4054379999999966
0
LINE
8
BLACK
6
CONTINUOUS
10
25.1804329999999972
20
-58.4054379999999966
11
25.1033819999999999
21
-58.4569209999999941
0
LINE
8
BLACK
6
CONTINUOUS
10
25.1033819999999999
20
-58.4569209999999941
11
25.0124949999999977
21
-58.4749999999999943
0
LINE
8
BLACK
6
CONTINUOUS
10
25.0124949999999977
20
-58.4749999999999943
11
24.5124949999999977
21
-58.4749999999999943
0
LINE
8
BLACK
6
CONTINUOUS
10
24.5124949999999977
20
-58.4749999999999943
11
24.4216079999999991
21
-58.4569209999999941
0
LINE
8
BLACK
6
CONTINUOUS
10
24.4216079999999991
20
-58.4569209999999941
11
24.3445569999999982
21
-58.4054379999999966
0
LINE
8
BLACK
6
CONTINUOUS
10
24.3445569999999982
20
-58.4054379999999966
11
24.2930739999999972
21
-58.3283869999999993
0
LINE
8
BLACK
6
CONTINUOUS
10
24.2930739999999972
20
-58.3283869999999993
11
24.2749950000000005
21
-58.2374999999999972
0
LINE
8
BLACK
6
CONTINUOUS
10
24.2749950000000005
20
-58.2374999999999972
11
24.2749950000000005
21
-57.7624999999999957
0
LINE
8
BLACK
6
CONTINUOUS
10
24.2749950000000005
20
-57.7624999999999957
11
24.2930739999999972
21
-57.6716130000000007
0
LINE
8
BLACK
6
CONTINUOUS
10
24.2930739999999972
20
-57.6716130000000007
11
24.3445569999999982
21
-57.5945619999999963
0
LINE
8
BLACK
6
CONTINUOUS
10
24.3445569999999982
20
-57.5945619999999963
11
24.4216079999999991
21
-57.5430789999999988
0
LINE
8
BLACK
6
CONTINUOUS
10
24.4216079999999991
20
-57.5430789999999988
11
24.5124949999999977
21
-57.5249999999999986
0
LINE
8
BLACK
6
CONTINUOUS
10
24.5124949999999977
20
-57.5249999999999986
11
25.0124949999999977
21
-57.5249999999999986
0
LINE
8
BLACK
6
CONTINUOUS
10
25.0124949999999977
20
-57.5249999999999986
11
25.1033819999999999
21
-57.5430789999999988
0
LINE
8
BLACK
6
CONTINUOUS
10
28.1765369999999997
20
-57.5752239999999986
11
28.241420999999999
21
-57.6185789999999969
0
LINE
8
BLACK
6
CONTINUOUS
10
28.241420999999999
20
-57.6185789999999969
11
28.2847759999999973
21
-57.6834629999999962
0
LINE
8
BLACK
6
CONTINUOUS
10
28.2847759999999973
20
-57.6834629999999962
11
28.2999999999999972
21
-57.759999999999998
0
LINE
8
BLACK
6
CONTINUOUS
10
28.2999999999999972
20
-57.759999999999998
11
28.2999999999999972
21
-58.1599999999999966
0
LINE
8
BLACK
6
CONTINUOUS
10
28.2999999999999972
20
-58.1599999999999966
11
28.2847759999999973
21
-58.2365369999999984
0
LINE
8
BLACK
6
CONTINUOUS
10
28.2847759999999973
20
-58.2365369999999984
11
28.241420999999999
21
-58.3014209999999977
0
LINE
8
BLACK
6
CONTINUOUS
10
28.241420999999999
20
-58.3014209999999977
11
28.1765369999999997
21
-58.344775999999996
0
LINE
8
BLACK
6
CONTINUOUS
10
28.1765369999999997
20
-58.344775999999996
11
28.0999999999999979
21
-58.3599999999999994
0
LINE
8
BLACK
6
CONTINUOUS
10
28.0999999999999979
20
-58.3599999999999994
11
27.2999999999999972
21
-58.3599999999999994
0
LINE
8
BLACK
6
CONTINUOUS
10
27.2999999999999972
20
-58.3599999999999994
11
27.2234629999999989
21
-58.344775999999996
0
LINE
8
BLACK
6
CONTINUOUS
10
27.2234629999999989
20
-58.344775999999996
11
27.1585789999999996
21
-58.3014209999999977
0
LINE
8
BLACK
6
CONTINUOUS
10
27.1585789999999996
20
-58.3014209999999977
11
27.1152239999999978
21
-58.2365369999999984
0
LINE
8
BLACK
6
CONTINUOUS
10
27.1152239999999978
20
-58.2365369999999984
11
27.0999999999999979
21
-58.1599999999999966
0
LINE
8
BLACK
6
CONTINUOUS
10
27.0999999999999979
20
-58.1599999999999966
11
27.0999999999999979
21
-57.759999999999998
0
LINE
8
BLACK
6
CONTINUOUS
10
27.0999999999999979
20
-57.759999999999998
11
27.1152239999999978
21
-57.6834629999999962
0
LINE
8
BLACK
6
CONTINUOUS
10
27.1152239999999978
20
-57.6834629999999962
11
27.1585789999999996
21
-57.6185789999999969
0
LINE
8
BLACK
6
CONTINUOUS
10
27.1585789999999996
20
-57.6185789999999969
11
27.2234629999999989
21
-57.5752239999999986
0
LINE
8
BLACK
6
CONTINUOUS
10
27.2234629999999989
20
-57.5752239999999986
11
27.2999999999999972
21
-57.5599999999999952
0
LINE
8
BLACK
6
CONTINUOUS
10
27.2999999999999972
20
-57.5599999999999952
11
28.0999999999999979
21
-57.5599999999999952
0
LINE
8
BLACK
6
CONTINUOUS
10
28.0999999999999979
20
-57.5599999999999952
11
28.1765369999999997
21
-57.5752239999999986
0
LINE
8
BLACK
6
CONTINUOUS
10
34.4765370000000004
20
-57.5752239999999986
11
34.5414209999999997
21
-57.6185789999999969
0
LINE
8
BLACK
6
CONTINUOUS
10
34.5414209999999997
20
-57.6185789999999969
11
34.584775999999998
21
-57.6834629999999962
0
LINE
8
BLACK
6
CONTINUOUS
10
34.584775999999998
20
-57.6834629999999962
11
34.6000000000000014
21
-57.759999999999998
0
LINE
8
BLACK
6
CONTINUOUS
10
34.6000000000000014
20
-57.759999999999998
11
34.6000000000000014
21
-58.1599999999999966
0
LINE
8
BLACK
6
CONTINUOUS
10
34.6000000000000014
20
-58.1599999999999966
11
34.584775999999998
21
-58.2365369999999984
0
LINE
8
BLACK
6
CONTINUOUS
10
34.584775999999998
20
-58.2365369999999984
11
34.5414209999999997
21
-58.3014209999999977
0
LINE
8
BLACK
6
CONTINUOUS
10
34.5414209999999997
20
-58.3014209999999977
11
34.4765370000000004
21
-58.344775999999996
0
LINE
8
BLACK
6
CONTINUOUS
10
34.4765370000000004
20
-58.344775999999996
11
34.3999999999999986
21
-58.3599999999999994
0
LINE
8
BLACK
6
CONTINUOUS
10
34.3999999999999986
20
-58.3599999999999994
11
33.6000000000000014
21
-58.3599999999999994
0
LINE
8
BLACK
6
CONTINUOUS
10
33.6000000000000014
20
-58.3599999999999994
11
33.5234629999999996
21
-58.344775999999996
0
LINE
8
BLACK
6
CONTINUOUS
10
33.5234629999999996
20
-58.344775999999996
11
33.4585790000000003
21
-58.3014209999999977
0
LINE
8
BLACK
6
CONTINUOUS
10
33.4585790000000003
20
-58.3014209999999977
11
33.415224000000002
21
-58.2365369999999984
0
LINE
8
BLACK
6
CONTINUOUS
10
33.415224000000002
20
-58.2365369999999984
11
33.3999999999999986
21
-58.1599999999999966
0
LINE
8
BLACK
6
CONTINUOUS
10
33.3999999999999986
20
-58.1599999999999966
11
33.3999999999999986
21
-57.759999999999998
0
LINE
8
BLACK
6
CONTINUOUS
10
33.3999999999999986
20
-57.759999999999998
11
33.415224000000002
21
-57.6834629999999962
0
LINE
8
BLACK
6
CONTINUOUS
10
33.415224000000002
20
-57.6834629999999962
11
33.4585790000000003
21
-57.6185789999999969
0
LINE
8
BLACK
6
CONTINUOUS
10
33.4585790000000003
20
-57.6185789999999969
11
33.5234629999999996
21
-57.5752239999999986
0
LINE
8
BLACK
6
CONTINUOUS
10
33.5234629999999996
20
-57.5752239999999986
11
33.6000000000000014
21
-57.5599999999999952
0
LINE
8
BLACK
6
CONTINUOUS
10
33.6000000000000014
20
-57.5599999999999952
11
34.3999999999999986
21
-57.5599999999999952
0
LINE
8
BLACK
6
CONTINUOUS
10
34.3999999999999986
20
-57.5599999999999952
11
34.4765370000000004
21
-57.5752239999999986
0
LINE
8
BLACK
6
CONTINUOUS
10
84.4283870000000007
20
-54.5430789999999988
11
84.5054379999999981
21
-54.5945619999999963
0
LINE
8
BLACK
6
CONTINUOUS
10
84.5054379999999981
20
-54.5945619999999963
11
84.5569210000000027
21
-54.6716130000000007
0
LINE
8
BLACK
6
CONTINUOUS
10
84.5569210000000027
20
-54.6716130000000007
11
84.5750000000000028
21
-54.7624999999999957
0
LINE
8
BLACK
6
CONTINUOUS
10
84.5750000000000028
20
-54.7624999999999957
11
84.5750000000000028
21
-55.2374999999999972
0
LINE
8
BLACK
6
CONTINUOUS
10
84.5750000000000028
20
-55.2374999999999972
11
84.5569210000000027
21
-55.3283869999999993
0
LINE
8
BLACK
6
CONTINUOUS
10
84.5569210000000027
20
-55.3283869999999993
11
84.5054379999999981
21
-55.4054379999999966
0
LINE
8
BLACK
6
CONTINUOUS
10
84.5054379999999981
20
-55.4054379999999966
11
84.4283870000000007
21
-55.4569209999999941
0
LINE
8
BLACK
6
CONTINUOUS
10
84.4283870000000007
20
-55.4569209999999941
11
84.3374999999999915
21
-55.4749999999999943
0
LINE
8
BLACK
6
CONTINUOUS
10
84.3374999999999915
20
-55.4749999999999943
11
83.8374999999999915
21
-55.4749999999999943
0
LINE
8
BLACK
6
CONTINUOUS
10
83.8374999999999915
20
-55.4749999999999943
11
83.7466129999999964
21
-55.4569209999999941
0
LINE
8
BLACK
6
CONTINUOUS
10
83.7466129999999964
20
-55.4569209999999941
11
83.6695619999999991
21
-55.4054379999999966
0
LINE
8
BLACK
6
CONTINUOUS
10
83.6695619999999991
20
-55.4054379999999966
11
83.6180789999999945
21
-55.3283869999999993
0
LINE
8
BLACK
6
CONTINUOUS
10
83.6180789999999945
20
-55.3283869999999993
11
83.5999999999999943
21
-55.2374999999999972
0
LINE
8
BLACK
6
CONTINUOUS
10
83.5999999999999943
20
-55.2374999999999972
11
83.5999999999999943
21
-54.7624999999999957
0
LINE
8
BLACK
6
CONTINUOUS
10
83.5999999999999943
20
-54.7624999999999957
11
83.6180789999999945
21
-54.6716130000000007
0
LINE
8
BLACK
6
CONTINUOUS
10
83.6180789999999945
20
-54.6716130000000007
11
83.6695619999999991
21
-54.5945619999999963
0
LINE
8
BLACK
6
CONTINUOUS
10
83.6695619999999991
20
-54.5945619999999963
11
83.7466129999999964
21
-54.5430789999999988
0
LINE
8
BLACK
6
CONTINUOUS
10
83.7466129999999964
20
-54.5430789999999988
11
83.8374999999999915
21
-54.5249999999999986
0
LINE
8
BLACK
6
CONTINUOUS
10
83.8374999999999915
20
-54.5249999999999986
11
84.3374999999999915
21
-54.5249999999999986
0
LINE
8
BLACK
6
CONTINUOUS
10
84.3374999999999915
20
-54.5249999999999986
11
84.4283870000000007
21
-54.5430789999999988
0
LINE
8
BLACK
6
CONTINUOUS
10
86.2533869999999894
20
-54.5430789999999988
11
86.3304380000000009
21
-54.5945619999999963
0
LINE
8
BLACK
6
CONTINUOUS
10
86.3304380000000009
20
-54.5945619999999963
11
86.3819209999999913
21
-54.6716130000000007
0
LINE
8
BLACK
6
CONTINUOUS
10
86.3819209999999913
20
-54.6716130000000007
11
86.3999999999999915
21
-54.7624999999999957
0
LINE
8
BLACK
6
CONTINUOUS
10
86.3999999999999915
20
-54.7624999999999957
11
86.3999999999999915
21
-55.2374999999999972
0
LINE
8
BLACK
6
CONTINUOUS
10
86.3999999999999915
20
-55.2374999999999972
11
86.3819209999999913
21
-55.3283869999999993
0
LINE
8
BLACK
6
CONTINUOUS
10
86.3819209999999913
20
-55.3283869999999993
11
86.3304380000000009
21
-55.4054379999999966
0
LINE
8
BLACK
6
CONTINUOUS
10
86.3304380000000009
20
-55.4054379999999966
11
86.2533869999999894
21
-55.4569209999999941
0
LINE
8
BLACK
6
CONTINUOUS
10
86.2533869999999894
20
-55.4569209999999941
11
86.1624999999999943
21
-55.4749999999999943
0
LINE
8
BLACK
6
CONTINUOUS
10
86.1624999999999943
20
-55.4749999999999943
11
85.6624999999999943
21
-55.4749999999999943
0
LINE
8
BLACK
6
CONTINUOUS
10
85.6624999999999943
20
-55.4749999999999943
11
85.5716129999999993
21
-55.4569209999999941
0
LINE
8
BLACK
6
CONTINUOUS
10
85.5716129999999993
20
-55.4569209999999941
11
85.4945620000000019
21
-55.4054379999999966
0
LINE
8
BLACK
6
CONTINUOUS
10
85.4945620000000019
20
-55.4054379999999966
11
85.4430789999999973
21
-55.3283869999999993
0
LINE
8
BLACK
6
CONTINUOUS
10
85.4430789999999973
20
-55.3283869999999993
11
85.4249999999999972
21
-55.2374999999999972
0
LINE
8
BLACK
6
CONTINUOUS
10
85.4249999999999972
20
-55.2374999999999972
11
85.4249999999999972
21
-54.7624999999999957
0
LINE
8
BLACK
6
CONTINUOUS
10
85.4249999999999972
20
-54.7624999999999957
11
85.4430789999999973
21
-54.6716130000000007
0
LINE
8
BLACK
6
CONTINUOUS
10
85.4430789999999973
20
-54.6716130000000007
11
85.4945620000000019
21
-54.5945619999999963
0
LINE
8
BLACK
6
CONTINUOUS
10
85.4945620000000019
20
-54.5945619999999963
11
85.5716129999999993
21
-54.5430789999999988
0
LINE
8
BLACK
6
CONTINUOUS
10
85.5716129999999993
20
-54.5430789999999988
11
85.6624999999999943
21
-54.5249999999999986
0
LINE
8
BLACK
6
CONTINUOUS
10
85.6624999999999943
20
-54.5249999999999986
11
86.1624999999999943
21
-54.5249999999999986
0
LINE
8
BLACK
6
CONTINUOUS
10
86.1624999999999943
20
-54.5249999999999986
11
86.2533869999999894
21
-54.5430789999999988
0
LINE
8
BLACK
6
CONTINUOUS
10
88.514961999999997
20
-54.5416509999999946
11
88.5859299999999905
21
-54.5890699999999995
0
LINE
8
BLACK
6
CONTINUOUS
10
88.5859299999999905
20
-54.5890699999999995
11
88.6333489999999955
21
-54.6600380000000001
0
LINE
8
BLACK
6
CONTINUOUS
10
88.6333489999999955
20
-54.6600380000000001
11
88.6499999999999915
21
-54.7437499999999986
0
LINE
8
BLACK
6
CONTINUOUS
10
88.6499999999999915
20
-54.7437499999999986
11
88.6499999999999915
21
-55.2562499999999943
0
LINE
8
BLACK
6
CONTINUOUS
10
88.6499999999999915
20
-55.2562499999999943
11
88.6333489999999955
21
-55.3399619999999999
0
LINE
8
BLACK
6
CONTINUOUS
10
88.6333489999999955
20
-55.3399619999999999
11
88.5859299999999905
21
-55.4109300000000005
0
LINE
8
BLACK
6
CONTINUOUS
10
88.5859299999999905
20
-55.4109300000000005
11
88.514961999999997
21
-55.4583489999999983
0
LINE
8
BLACK
6
CONTINUOUS
10
88.514961999999997
20
-55.4583489999999983
11
88.4312499999999915
21
-55.4749999999999943
0
LINE
8
BLACK
6
CONTINUOUS
10
88.4312499999999915
20
-55.4749999999999943
11
87.9937499999999915
21
-55.4749999999999943
0
LINE
8
BLACK
6
CONTINUOUS
10
87.9937499999999915
20
-55.4749999999999943
11
87.9100380000000001
21
-55.4583489999999983
0
LINE
8
BLACK
6
CONTINUOUS
10
87.9100380000000001
20
-55.4583489999999983
11
87.8390699999999924
21
-55.4109300000000005
0
LINE
8
BLACK
6
CONTINUOUS
10
87.8390699999999924
20
-55.4109300000000005
11
87.7916510000000017
21
-55.3399619999999999
0
LINE
8
BLACK
6
CONTINUOUS
10
87.7916510000000017
20
-55.3399619999999999
11
87.7749999999999915
21
-55.2562499999999943
0
LINE
8
BLACK
6
CONTINUOUS
10
87.7749999999999915
20
-55.2562499999999943
11
87.7749999999999915
21
-54.7437499999999986
0
LINE
8
BLACK
6
CONTINUOUS
10
87.7749999999999915
20
-54.7437499999999986
11
87.7916510000000017
21
-54.6600380000000001
0
LINE
8
BLACK
6
CONTINUOUS
10
87.7916510000000017
20
-54.6600380000000001
11
87.8390699999999924
21
-54.5890699999999995
0
LINE
8
BLACK
6
CONTINUOUS
10
87.8390699999999924
20
-54.5890699999999995
11
87.9100380000000001
21
-54.5416509999999946
0
LINE
8
BLACK
6
CONTINUOUS
10
87.9100380000000001
20
-54.5416509999999946
11
87.9937499999999915
21
-54.5249999999999986
0
LINE
8
BLACK
6
CONTINUOUS
10
87.9937499999999915
20
-54.5249999999999986
11
88.4312499999999915
21
-54.5249999999999986
0
LINE
8
BLACK
6
CONTINUOUS
10
88.4312499999999915
20
-54.5249999999999986
11
88.514961999999997
21
-54.5416509999999946
0
LINE
8
BLACK
6
CONTINUOUS
10
90.0899619999999999
20
-54.5416509999999946
11
90.1609299999999934
21
-54.5890699999999995
0
LINE
8
BLACK
6
CONTINUOUS
10
90.1609299999999934
20
-54.5890699999999995
11
90.2083489999999983
21
-54.6600380000000001
0
LINE
8
BLACK
6
CONTINUOUS
10
90.2083489999999983
20
-54.6600380000000001
11
90.2249999999999943
21
-54.7437499999999986
0
LINE
8
BLACK
6
CONTINUOUS
10
90.2249999999999943
20
-54.7437499999999986
11
90.2249999999999943
21
-55.2562499999999943
0
LINE
8
BLACK
6
CONTINUOUS
10
90.2249999999999943
20
-55.2562499999999943
11
90.2083489999999983
21
-55.3399619999999999
0
LINE
8
BLACK
6
CONTINUOUS
10
90.2083489999999983
20
-55.3399619999999999
11
90.1609299999999934
21
-55.4109300000000005
0
LINE
8
BLACK
6
CONTINUOUS
10
90.1609299999999934
20
-55.4109300000000005
11
90.0899619999999999
21
-55.4583489999999983
0
LINE
8
BLACK
6
CONTINUOUS
10
90.0899619999999999
20
-55.4583489999999983
11
90.0062499999999943
21
-55.4749999999999943
0
LINE
8
BLACK
6
CONTINUOUS
10
90.0062499999999943
20
-55.4749999999999943
11
89.5687499999999943
21
-55.4749999999999943
0
LINE
8
BLACK
6
CONTINUOUS
10
89.5687499999999943
20
-55.4749999999999943
11
89.485038000000003
21
-55.4583489999999983
0
LINE
8
BLACK
6
CONTINUOUS
10
89.485038000000003
20
-55.4583489999999983
11
89.4140699999999953
21
-55.4109300000000005
0
LINE
8
BLACK
6
CONTINUOUS
10
89.4140699999999953
20
-55.4109300000000005
11
89.3666509999999903
21
-55.3399619999999999
0
LINE
8
BLACK
6
CONTINUOUS
10
89.3666509999999903
20
-55.3399619999999999
11
89.3499999999999943
21
-55.2562499999999943
0
LINE
8
BLACK
6
CONTINUOUS
10
89.3499999999999943
20
-55.2562499999999943
11
89.3499999999999943
21
-54.7437499999999986
0
LINE
8
BLACK
6
CONTINUOUS
10
89.3499999999999943
20
-54.7437499999999986
11
89.3666509999999903
21
-54.6600380000000001
0
LINE
8
BLACK
6
CONTINUOUS
10
89.3666509999999903
20
-54.6600380000000001
11
89.4140699999999953
21
-54.5890699999999995
0
LINE
8
BLACK
6
CONTINUOUS
10
89.4140699999999953
20
-54.5890699999999995
11
89.485038000000003
21
-54.5416509999999946
0
LINE
8
BLACK
6
CONTINUOUS
10
89.485038000000003
20
-54.5416509999999946
11
89.5687499999999943
21
-54.5249999999999986
0
LINE
8
BLACK
6
CONTINUOUS
10
89.5687499999999943
20
-54.5249999999999986
11
90.0062499999999943
21
-54.5249999999999986
0
LINE
8
BLACK
6
CONTINUOUS
10
90.0062499999999943
20
-54.5249999999999986
11
90.0899619999999999
21
-54.5416509999999946
0
LINE
8
BLACK
6
CONTINUOUS
10
84.4283870000000007
20
-50.5430789999999988
11
84.5054379999999981
21
-50.5945619999999963
0
LINE
8
BLACK
6
CONTINUOUS
10
84.5054379999999981
20
-50.5945619999999963
11
84.5569210000000027
21
-50.6716130000000007
0
LINE
8
BLACK
6
CONTINUOUS
10
84.5569210000000027
20
-50.6716130000000007
11
84.5750000000000028
21
-50.7624999999999957
0
LINE
8
BLACK
6
CONTINUOUS
10
84.5750000000000028
20
-50.7624999999999957
11
84.5750000000000028
21
-51.2374999999999972
0
LINE
8
BLACK
6
CONTINUOUS
10
84.5750000000000028
20
-51.2374999999999972
11
84.5569210000000027
21
-51.3283869999999993
0
LINE
8
BLACK
6
CONTINUOUS
10
84.5569210000000027
20
-51.3283869999999993
11
84.5054379999999981
21
-51.4054379999999966
0
LINE
8
BLACK
6
CONTINUOUS
10
84.5054379999999981
20
-51.4054379999999966
11
84.4283870000000007
21
-51.4569209999999941
0
LINE
8
BLACK
6
CONTINUOUS
10
84.4283870000000007
20
-51.4569209999999941
11
84.3374999999999915
21
-51.4749999999999943
0
LINE
8
BLACK
6
CONTINUOUS
10
84.3374999999999915
20
-51.4749999999999943
11
83.8374999999999915
21
-51.4749999999999943
0
LINE
8
BLACK
6
CONTINUOUS
10
83.8374999999999915
20
-51.4749999999999943
11
83.7466129999999964
21
-51.4569209999999941
0
LINE
8
BLACK
6
CONTINUOUS
10
83.7466129999999964
20
-51.4569209999999941
11
83.6695619999999991
21
-51.4054379999999966
0
LINE
8
BLACK
6
CONTINUOUS
10
83.6695619999999991
20
-51.4054379999999966
11
83.6180789999999945
21
-51.3283869999999993
0
LINE
8
BLACK
6
CONTINUOUS
10
83.6180789999999945
20
-51.3283869999999993
11
83.5999999999999943
21
-51.2374999999999972
0
LINE
8
BLACK
6
CONTINUOUS
10
83.5999999999999943
20
-51.2374999999999972
11
83.5999999999999943
21
-50.7624999999999957
0
LINE
8
BLACK
6
CONTINUOUS
10
83.5999999999999943
20
-50.7624999999999957
11
83.6180789999999945
21
-50.6716130000000007
0
LINE
8
BLACK
6
CONTINUOUS
10
83.6180789999999945
20
-50.6716130000000007
11
83.6695619999999991
21
-50.5945619999999963
0
LINE
8
BLACK
6
CONTINUOUS
10
83.6695619999999991
20
-50.5945619999999963
11
83.7466129999999964
21
-50.5430789999999988
0
LINE
8
BLACK
6
CONTINUOUS
10
83.7466129999999964
20
-50.5430789999999988
11
83.8374999999999915
21
-50.5249999999999986
0
LINE
8
BLACK
6
CONTINUOUS
10
83.8374999999999915
20
-50.5249999999999986
11
84.3374999999999915
21
-50.5249999999999986
0
LINE
8
BLACK
6
CONTINUOUS
10
84.3374999999999915
20
-50.5249999999999986
11
84.4283870000000007
21
-50.5430789999999988
0
LINE
8
BLACK
6
CONTINUOUS
10
86.2533869999999894
20
-50.5430789999999988
11
86.3304380000000009
21
-50.5945619999999963
0
LINE
8
BLACK
6
CONTINUOUS
10
86.3304380000000009
20
-50.5945619999999963
11
86.3819209999999913
21
-50.6716130000000007
0
LINE
8
BLACK
6
CONTINUOUS
10
86.3819209999999913
20
-50.6716130000000007
11
86.3999999999999915
21
-50.7624999999999957
0
LINE
8
BLACK
6
CONTINUOUS
10
86.3999999999999915
20
-50.7624999999999957
11
86.3999999999999915
21
-51.2374999999999972
0
LINE
8
BLACK
6
CONTINUOUS
10
86.3999999999999915
20
-51.2374999999999972
11
86.3819209999999913
21
-51.3283869999999993
0
LINE
8
BLACK
6
CONTINUOUS
10
86.3819209999999913
20
-51.3283869999999993
11
86.3304380000000009
21
-51.4054379999999966
0
LINE
8
BLACK
6
CONTINUOUS
10
86.3304380000000009
20
-51.4054379999999966
11
86.2533869999999894
21
-51.4569209999999941
0
LINE
8
BLACK
6
CONTINUOUS
10
86.2533869999999894
20
-51.4569209999999941
11
86.1624999999999943
21
-51.4749999999999943
0
LINE
8
BLACK
6
CONTINUOUS
10
86.1624999999999943
20
-51.4749999999999943
11
85.6624999999999943
21
-51.4749999999999943
0
LINE
8
BLACK
6
CONTINUOUS
10
85.6624999999999943
20
-51.4749999999999943
11
85.5716129999999993
21
-51.4569209999999941
0
LINE
8
BLACK
6
CONTINUOUS
10
85.5716129999999993
20
-51.4569209999999941
11
85.4945620000000019
21
-51.4054379999999966
0
LINE
8
BLACK
6
CONTINUOUS
10
85.4945620000000019
20
-51.4054379999999966
11
85.4430789999999973
21
-51.3283869999999993
0
LINE
8
BLACK
6
CONTINUOUS
10
85.4430789999999973
20
-51.3283869999999993
11
85.4249999999999972
21
-51.2374999999999972
0
LINE
8
BLACK
6
CONTINUOUS
10
85.4249999999999972
20
-51.2374999999999972
11
85.4249999999999972
21
-50.7624999999999957
0
LINE
8
BLACK
6
CONTINUOUS
10
85.4249999999999972
20
-50.7624999999999957
11
85.4430789999999973
21
-50.6716130000000007
0
LINE
8
BLACK
6
CONTINUOUS
10
85.4430789999999973
20
-50.6716130000000007
11
85.4945620000000019
21
-50.5945619999999963
0
LINE
8
BLACK
6
CONTINUOUS
10
85.4945620000000019
20
-50.5945619999999963
11
85.5716129999999993
21
-50.5430789999999988
0
LINE
8
BLACK
6
CONTINUOUS
10
85.5716129999999993
20
-50.5430789999999988
11
85.6624999999999943
21
-50.5249999999999986
0
LINE
8
BLACK
6
CONTINUOUS
10
85.6624999999999943
20
-50.5249999999999986
11
86.1624999999999943
21
-50.5249999999999986
0
LINE
8
BLACK
6
CONTINUOUS
10
86.1624999999999943
20
-50.5249999999999986
11
86.2533869999999894
21
-50.5430789999999988
0
LINE
8
BLACK
6
CONTINUOUS
10
88.514961999999997
20
-50.5416509999999946
11
88.5859299999999905
21
-50.5890699999999995
0
LINE
8
BLACK
6
CONTINUOUS
10
88.5859299999999905
20
-50.5890699999999995
11
88.6333489999999955
21
-50.6600380000000001
0
LINE
8
BLACK
6
CONTINUOUS
10
88.6333489999999955
20
-50.6600380000000001
11
88.6499999999999915
21
-50.7437499999999986
0
LINE
8
BLACK
6
CONTINUOUS
10
88.6499999999999915
20
-50.7437499999999986
11
88.6499999999999915
21
-51.2562499999999943
0
LINE
8
BLACK
6
CONTINUOUS
10
88.6499999999999915
20
-51.2562499999999943
11
88.6333489999999955
21
-51.3399619999999999
0
LINE
8
BLACK
6
CONTINUOUS
10
88.6333489999999955
20
-51.3399619999999999
11
88.5859299999999905
21
-51.4109300000000005
0
LINE
8
BLACK
6
CONTINUOUS
10
88.5859299999999905
20
-51.4109300000000005
11
88.514961999999997
21
-51.4583489999999983
0
LINE
8
BLACK
6
CONTINUOUS
10
88.514961999999997
20
-51.4583489999999983
11
88.4312499999999915
21
-51.4749999999999943
0
LINE
8
BLACK
6
CONTINUOUS
10
88.4312499999999915
20
-51.4749999999999943
11
87.9937499999999915
21
-51.4749999999999943
0
LINE
8
BLACK
6
CONTINUOUS
10
87.9937499999999915
20
-51.4749999999999943
11
87.9100380000000001
21
-51.4583489999999983
0
LINE
8
BLACK
6
CONTINUOUS
10
87.9100380000000001
20
-51.4583489999999983
11
87.8390699999999924
21
-51.4109300000000005
0
LINE
8
BLACK
6
CONTINUOUS
10
87.8390699999999924
20
-51.4109300000000005
11
87.7916510000000017
21
-51.3399619999999999
0
LINE
8
BLACK
6
CONTINUOUS
10
87.7916510000000017
20
-51.3399619999999999
11
87.7749999999999915
21
-51.2562499999999943
0
LINE
8
BLACK
6
CONTINUOUS
10
87.7749999999999915
20
-51.2562499999999943
11
87.7749999999999915
21
-50.7437499999999986
0
LINE
8
BLACK
6
CONTINUOUS
10
87.7749999999999915
20
-50.7437499999999986
11
87.7916510000000017
21
-50.6600380000000001
0
LINE
8
BLACK
6
CONTINUOUS
10
87.7916510000000017
20
-50.6600380000000001
11
87.8390699999999924
21
-50.5890699999999995
0
LINE
8
BLACK
6
CONTINUOUS
10
87.8390699999999924
20
-50.5890699999999995
11
87.9100380000000001
21
-50.5416509999999946
0
LINE
8
BLACK
6
CONTINUOUS
10
87.9100380000000001
20
-50.5416509999999946
11
87.9937499999999915
21
-50.5249999999999986
0
LINE
8
BLACK
6
CONTINUOUS
10
87.9937499999999915
20
-50.5249999999999986
11
88.4312499999999915
21
-50.5249999999999986
0
LINE
8
BLACK
6
CONTINUOUS
10
88.4312499999999915
20
-50.5249999999999986
11
88.514961999999997
21
-50.5416509999999946
0
LINE
8
BLACK
6
CONTINUOUS
10
90.0899619999999999
20
-50.5416509999999946
11
90.1609299999999934
21
-50.5890699999999995
0
LINE
8
BLACK
6
CONTINUOUS
10
90.1609299999999934
20
-50.5890699999999995
11
90.2083489999999983
21
-50.6600380000000001
0
LINE
8
BLACK
6
CONTINUOUS
10
90.2083489999999983
20
-50.6600380000000001
11
90.2249999999999943
21
-50.7437499999999986
0
LINE
8
BLACK
6
CONTINUOUS
10
90.2249999999999943
20
-50.7437499999999986
11
90.2249999999999943
21
-51.2562499999999943
0
LINE
8
BLACK
6
CONTINUOUS
10
90.2249999999999943
20
-51.2562499999999943
11
90.2083489999999983
21
-51.3399619999999999
0
LINE
8
BLACK
6
CONTINUOUS
10
90.2083489999999983
20
-51.3399619999999999
11
90.1609299999999934
21
-51.4109300000000005
0
LINE
8
BLACK
6
CONTINUOUS
10
90.1609299999999934
20
-51.4109300000000005
11
90.0899619999999999
21
-51.4583489999999983
0
LINE
8
BLACK
6
CONTINUOUS
10
90.0899619999999999
20
-51.4583489999999983
11
90.0062499999999943
21
-51.4749999999999943
0
LINE
8
BLACK
6
CONTINUOUS
10
90.0062499999999943
20
-51.4749999999999943
11
89.5687499999999943
21
-51.4749999999999943
0
LINE
8
BLACK
6
CONTINUOUS
10
89.5687499999999943
20
-51.4749999999999943
11
89.485038000000003
21
-51.4583489999999983
0
LINE
8
BLACK
6
CONTINUOUS
10
89.485038000000003
20
-51.4583489999999983
11
89.4140699999999953
21
-51.4109300000000005
0
LINE
8
BLACK
6
CONTINUOUS
10
89.4140699999999953
20
-51.4109300000000005
11
89.3666509999999903
21
-51.3399619999999999
0
LINE
8
BLACK
6
CONTINUOUS
10
89.3666509999999903
20
-51.3399619999999999
11
89.3499999999999943
21
-51.2562499999999943
0
LINE
8
BLACK
6
CONTINUOUS
10
89.3499999999999943
20
-51.2562499999999943
11
89.3499999999999943
21
-50.7437499999999986
0
LINE
8
BLACK
6
CONTINUOUS
10
89.3499999999999943
20
-50.7437499999999986
11
89.3666509999999903
21
-50.6600380000000001
0
LINE
8
BLACK
6
CONTINUOUS
10
89.3666509999999903
20
-50.6600380000000001
11
89.4140699999999953
21
-50.5890699999999995
0
LINE
8
BLACK
6
CONTINUOUS
10
89.4140699999999953
20
-50.5890699999999995
11
89.485038000000003
21
-50.5416509999999946
0
LINE
8
BLACK
6
CONTINUOUS
10
89.485038000000003
20
-50.5416509999999946
11
89.5687499999999943
21
-50.5249999999999986
0
LINE
8
BLACK
6
CONTINUOUS
10
89.5687499999999943
20
-50.5249999999999986
11
90.0062499999999943
21
-50.5249999999999986
0
LINE
8
BLACK
6
CONTINUOUS
10
90.0062499999999943
20
-50.5249999999999986
11
90.0899619999999999
21
-50.5416509999999946
0
LINE
8
BLACK
6
CONTINUOUS
10
70.8456709999999958
20
-48.7690300000000008
11
70.9267770000000013
21
-48.8232229999999987
0
LINE
8
BLACK
6
CONTINUOUS
10
70.9267770000000013
20
-48.8232229999999987
11
70.9809699999999992
21
-48.9043289999999971
0
LINE
8
BLACK
6
CONTINUOUS
10
70.9809699999999992
20
-48.9043289999999971
11
71.
21
-49.
0
LINE
8
BLACK
6
CONTINUOUS
10
71.
20
-49.
11
71.
21
-51.
0
LINE
8
BLACK
6
CONTINUOUS
10
71.
20
-51.
11
70.9809699999999992
21
-51.0956709999999958
0
LINE
8
BLACK
6
CONTINUOUS
10
70.9809699999999992
20
-51.0956709999999958
11
70.9267770000000013
21
-51.1767769999999942
0
LINE
8
BLACK
6
CONTINUOUS
10
70.9267770000000013
20
-51.1767769999999942
11
70.8456709999999958
21
-51.2309699999999992
0
LINE
8
BLACK
6
CONTINUOUS
10
70.8456709999999958
20
-51.2309699999999992
11
70.75
21
-51.25
0
LINE
8
BLACK
6
CONTINUOUS
10
70.75
20
-51.25
11
67.25
21
-51.25
0
LINE
8
BLACK
6
CONTINUOUS
10
67.25
20
-51.25
11
67.1543289999999899
21
-51.2309699999999992
0
LINE
8
BLACK
6
CONTINUOUS
10
67.1543289999999899
20
-51.2309699999999992
11
67.0732229999999987
21
-51.1767769999999942
0
LINE
8
BLACK
6
CONTINUOUS
10
67.0732229999999987
20
-51.1767769999999942
11
67.0190300000000008
21
-51.0956709999999958
0
LINE
8
BLACK
6
CONTINUOUS
10
67.0190300000000008
20
-51.0956709999999958
11
67.
21
-51.
0
LINE
8
BLACK
6
CONTINUOUS
10
67.
20
-51.
11
67.
21
-49.
0
LINE
8
BLACK
6
CONTINUOUS
10
67.
20
-49.
11
67.0190300000000008
21
-48.9043289999999971
0
LINE
8
BLACK
6
CONTINUOUS
10
67.0190300000000008
20
-48.9043289999999971
11
67.0732229999999987
21
-48.8232229999999987
0
LINE
8
BLACK
6
CONTINUOUS
10
67.0732229999999987
20
-48.8232229999999987
11
67.1543289999999899
21
-48.7690300000000008
0
LINE
8
BLACK
6
CONTINUOUS
10
67.1543289999999899
20
-48.7690300000000008
11
67.25
21
-48.75
0
LINE
8
BLACK
6
CONTINUOUS
10
67.25
20
-48.75
11
70.75
21
-48.75
0
LINE
8
BLACK
6
CONTINUOUS
10
70.75
20
-48.75
11
70.8456709999999958
21
-48.7690300000000008
0
LINE
8
BLACK
6
CONTINUOUS
10
78.8456709999999958
20
-48.7690300000000008
11
78.9267770000000013
21
-48.8232229999999987
0
LINE
8
BLACK
6
CONTINUOUS
10
78.9267770000000013
20
-48.8232229999999987
11
78.9809699999999992
21
-48.9043289999999971
0
LINE
8
BLACK
6
CONTINUOUS
10
78.9809699999999992
20
-48.9043289999999971
11
79.
21
-49.
0
LINE
8
BLACK
6
CONTINUOUS
10
79.
20
-49.
11
79.
21
-51.
0
LINE
8
BLACK
6
CONTINUOUS
10
79.
20
-51.
11
78.9809699999999992
21
-51.0956709999999958
0
LINE
8
BLACK
6
CONTINUOUS
10
78.9809699999999992
20
-51.0956709999999958
11
78.9267770000000013
21
-51.1767769999999942
0
LINE
8
BLACK
6
CONTINUOUS
10
78.9267770000000013
20
-51.1767769999999942
11
78.8456709999999958
21
-51.2309699999999992
0
LINE
8
BLACK
6
CONTINUOUS
10
78.8456709999999958
20
-51.2309699999999992
11
78.75
21
-51.25
0
LINE
8
BLACK
6
CONTINUOUS
10
78.75
20
-51.25
11
75.25
21
-51.25
0
LINE
8
BLACK
6
CONTINUOUS
10
75.25
20
-51.25
11
75.1543289999999899
21
-51.2309699999999992
0
LINE
8
BLACK
6
CONTINUOUS
10
75.1543289999999899
20
-51.2309699999999992
11
75.0732229999999987
21
-51.1767769999999942
0
LINE
8
BLACK
6
CONTINUOUS
10
75.0732229999999987
20
-51.1767769999999942
11
75.0190300000000008
21
-51.0956709999999958
0
LINE
8
BLACK
6
CONTINUOUS
10
75.0190300000000008
20
-51.0956709999999958
11
75.
21
-51.
0
LINE
8
BLACK
6
CONTINUOUS
10
75.
20
-51.
11
75.
21
-49.
0
LINE
8
BLACK
6
CONTINUOUS
10
75.
20
-49.
11
75.0190300000000008
21
-48.9043289999999971
0
LINE
8
BLACK
6
CONTINUOUS
10
75.0190300000000008
20
-48.9043289999999971
11
75.0732229999999987
21
-48.8232229999999987
0
LINE
8
BLACK
6
CONTINUOUS
10
75.0732229999999987
20
-48.8232229999999987
11
75.1543289999999899
21
-48.7690300000000008
0
LINE
8
BLACK
6
CONTINUOUS
10
75.1543289999999899
20
-48.7690300000000008
11
75.25
21
-48.75
0
LINE
8
BLACK
6
CONTINUOUS
10
75.25
20
-48.75
11
78.75
21
-48.75
0
LINE
8
BLACK
6
CONTINUOUS
10
78.75
20
-48.75
11
78.8456709999999958
21
-48.7690300000000008
0
LINE
8
BLACK
6
CONTINUOUS
10
70.8456709999999958
20
-36.2690300000000008
11
70.9267770000000013
21
-36.3232229999999987
0
LINE
8
BLACK
6
CONTINUOUS
10
70.9267770000000013
20
-36.3232229999999987
11
70.9809699999999992
21
-36.4043289999999971
0
LINE
8
BLACK
6
CONTINUOUS
10
70.9809699999999992
20
-36.4043289999999971
11
71.
21
-36.5
0
LINE
8
BLACK
6
CONTINUOUS
10
71.
20
-36.5
11
71.
21
-38.5
0
LINE
8
BLACK
6
CONTINUOUS
10
71.
20
-38.5
11
70.9809699999999992
21
-38.5956709999999958
0
LINE
8
BLACK
6
CONTINUOUS
10
70.9809699999999992
20
-38.5956709999999958
11
70.9267770000000013
21
-38.6767770000000013
0
LINE
8
BLACK
6
CONTINUOUS
10
70.9267770000000013
20
-38.6767770000000013
11
70.8456709999999958
21
-38.7309699999999992
0
LINE
8
BLACK
6
CONTINUOUS
10
70.8456709999999958
20
-38.7309699999999992
11
70.75
21
-38.75
0
LINE
8
BLACK
6
CONTINUOUS
10
70.75
20
-38.75
11
67.25
21
-38.75
0
LINE
8
BLACK
6
CONTINUOUS
10
67.25
20
-38.75
11
67.1543289999999899
21
-38.7309699999999992
0
LINE
8
BLACK
6
CONTINUOUS
10
67.1543289999999899
20
-38.7309699999999992
11
67.0732229999999987
21
-38.6767770000000013
0
LINE
8
BLACK
6
CONTINUOUS
10
67.0732229999999987
20
-38.6767770000000013
11
67.0190300000000008
21
-38.5956709999999958
0
LINE
8
BLACK
6
CONTINUOUS
10
67.0190300000000008
20
-38.5956709999999958
11
67.
21
-38.5
0
LINE
8
BLACK
6
CONTINUOUS
10
67.
20
-38.5
11
67.
21
-36.5
0
LINE
8
BLACK
6
CONTINUOUS
10
67.
20
-36.5
11
67.0190300000000008
21
-36.4043289999999971
0
LINE
8
BLACK
6
CONTINUOUS
10
67.0190300000000008
20
-36.4043289999999971
11
67.0732229999999987
21
-36.3232229999999987
0
LINE
8
BLACK
6
CONTINUOUS
10
67.0732229999999987
20
-36.3232229999999987
11
67.1543289999999899
21
-36.2690300000000008
0
LINE
8
BLACK
6
CONTINUOUS
10
67.1543289999999899
20
-36.2690300000000008
11
67.25
21
-36.25
0
LINE
8
BLACK
6
CONTINUOUS
10
67.25
20
-36.25
11
70.75
21
-36.25
0
LINE
8
BLACK
6
CONTINUOUS
10
70.75
20
-36.25
11
70.8456709999999958
21
-36.2690300000000008
0
LINE
8
BLACK
6
CONTINUOUS
10
78.8456709999999958
20
-36.2690300000000008
11
78.9267770000000013
21
-36.3232229999999987
0
LINE
8
BLACK
6
CONTINUOUS
10
78.9267770000000013
20
-36.3232229999999987
11
78.9809699999999992
21
-36.4043289999999971
0
LINE
8
BLACK
6
CONTINUOUS
10
78.9809699999999992
20
-36.4043289999999971
11
79.
21
-36.5
0
LINE
8
BLACK
6
CONTINUOUS
10
79.
20
-36.5
11
79.
21
-38.5
0
LINE
8
BLACK
6
CONTINUOUS
10
79.
20
-38.5
11
78.9809699999999992
21
-38.5956709999999958
0
LINE
8
BLACK
6
CONTINUOUS
10
78.9809699999999992
20
-38.5956709999999958
11
78.9267770000000013
21
-38.6767770000000013
0
LINE
8
BLACK
6
CONTINUOUS
10
78.9267770000000013
20
-38.6767770000000013
11
78.8456709999999958
21
-38.7309699999999992
0
LINE
8
BLACK
6
CONTINUOUS
10
78.8456709999999958
20
-38.7309699999999992
11
78.75
21
-38.75
0
LINE
8
BLACK
6
CONTINUOUS
10
78.75
20
-38.75
11
75.25
21
-38.75
0
LINE
8
BLACK
6
CONTINUOUS
10
75.25
20
-38.75
11
75.1543289999999899
21
-38.7309699999999992
0
LINE
8
BLACK
6
CONTINUOUS
10
75.1543289999999899
20
-38.7309699999999992
11
75.0732229999999987
21
-38.6767770000000013
0
LINE
8
BLACK
6
CONTINUOUS
10
75.0732229999999987
20
-38.6767770000000013
11
75.0190300000000008
21
-38.5956709999999958
0
LINE
8
BLACK
6
CONTINUOUS
10
75.0190300000000008
20
-38.5956709999999958
11
75.
21
-38.5
0
LINE
8
BLACK
6
CONTINUOUS
10
75.
20
-38.5
11
75.
21
-36.5
0
LINE
8
BLACK
6
CONTINUOUS
10
75.
20
-36.5
11
75.0190300000000008
21
-36.4043289999999971
0
LINE
8
BLACK
6
CONTINUOUS
10
75.0190300000000008
20
-36.4043289999999971
11
75.0732229999999987
21
-36.3232229999999987
0
LINE
8
BLACK
6
CONTINUOUS
10
75.0732229999999987
20
-36.3232229999999987
11
75.1543289999999899
21
-36.2690300000000008
0
LINE
8
BLACK
6
CONTINUOUS
10
75.1543289999999899
20
-36.2690300000000008
11
75.25
21
-36.25
0
LINE
8
BLACK
6
CONTINUOUS
10
75.25
20
-36.25
11
78.75
21
-36.25
0
LINE
8
BLACK
6
CONTINUOUS
10
78.75
20
-36.25
11
78.8456709999999958
21
-36.2690300000000008
  0
ENDSEC
  0
EOF
