  0
SECTION
  2
HEADER
  9
$ANGBASE
  50
0.0
  9
$ANGDIR
  70
1
  9
$MEASUREMENT
  70
1
  0
ENDSEC
  0
SECTION
  2
TABLES
  0
TABLE
  2
LTYPE
  70
4
  0
LTYPE
  5
40F
  2
CONTINUOUS
  70
0
  3
Solid line
  72
65
  73
0
  40
0.0
  0
LTYPE
  5
410
  2
DASHDOT
 70
0
  3
Dash Dot ____ _ ____ _
 72
65
 73
4
 40
2.0
 49
1.25
 49
-0.25
 49
0.25
 49
-0.25
  0
LTYPE
  5
411
  2
DASHED
 70
0
  3
Dashed __ __ __ __ __
 72
65
 73
2
 40
0.75
 49
0.5
 49
-0.25
  0
LTYPE
  5
43B
  2
DOTTED
 70
0
  3
Dotted .  .  .  .
 72
65
 73
2
 40
0.2
 49
0.0
 49
-0.2
  0
ENDTAB
  0
TABLE
  2
STYLE
  70
4
  0
STYLE
  2
KICAD
  70
0
  40
0
  41
1
  42
1
  50
0
  71
0
  3
isocp.shx
  0
STYLE
  2
KICADB
  70
0
  40
0
  41
1
  42
1
  50
0
  71
0
  3
isocp.shx
  0
STYLE
  2
KICADI
  70
0
  40
0
  41
1
  42
1
  50
15
  71
0
  3
isocp.shx
  0
STYLE
  2
KICADBI
  70
0
  40
0
  41
1
  42
1
  50
15
  71
0
  3
isocp.shx
  0
ENDTAB
  0
TABLE
  2
LAYER
  70
1
  0
LAYER
  2
BLACK
  70
0
  62
7
  6
CONTINUOUS
  0
ENDTAB
  0
ENDSEC
  0
SECTION
  2
ENTITIES
0
LINE
8
BLACK
6
CONTINUOUS
10
97.
20
0.025
11
97.3161989999999975
21
0.008429
0
LINE
8
BLACK
6
CONTINUOUS
10
97.3161989999999975
20
0.008429
11
97.6289329999999893
21
-0.041104
0
LINE
8
BLACK
6
CONTINUOUS
10
97.6289329999999893
20
-0.041104
11
97.9347759999999994
21
-0.123054
0
LINE
8
BLACK
6
CONTINUOUS
10
97.9347759999999994
20
-0.123054
11
98.2303780000000017
21
-0.236525
0
LINE
8
BLACK
6
CONTINUOUS
10
98.2303780000000017
20
-0.236525
11
98.5124999999999886
21
-0.380273
0
LINE
8
BLACK
6
CONTINUOUS
10
98.5124999999999886
20
-0.380273
11
98.7780499999999932
21
-0.552724
0
LINE
8
BLACK
6
CONTINUOUS
10
98.7780499999999932
20
-0.552724
11
99.0241199999999964
21
-0.751987
0
LINE
8
BLACK
6
CONTINUOUS
10
99.0241199999999964
20
-0.751987
11
99.2480130000000003
21
-0.97588
0
LINE
8
BLACK
6
CONTINUOUS
10
99.2480130000000003
20
-0.97588
11
99.4472760000000022
21
-1.2219499999999999
0
LINE
8
BLACK
6
CONTINUOUS
10
99.4472760000000022
20
-1.2219499999999999
11
99.6197269999999975
21
-1.4874999999999998
0
LINE
8
BLACK
6
CONTINUOUS
10
99.6197269999999975
20
-1.4874999999999998
11
99.7634749999999997
21
-1.769622
0
LINE
8
BLACK
6
CONTINUOUS
10
99.7634749999999997
20
-1.769622
11
99.8769459999999896
21
-2.0652239999999997
0
LINE
8
BLACK
6
CONTINUOUS
10
99.8769459999999896
20
-2.0652239999999997
11
99.9588959999999958
21
-2.371067
0
LINE
8
BLACK
6
CONTINUOUS
10
99.9588959999999958
20
-2.371067
11
100.0084289999999925
21
-2.6838009999999999
0
LINE
8
BLACK
6
CONTINUOUS
10
100.0084289999999925
20
-2.6838009999999999
11
100.0249999999999915
21
-3.
0
LINE
8
BLACK
6
CONTINUOUS
10
100.0249999999999915
20
-3.
11
100.0249999999999915
21
-97.
0
LINE
8
BLACK
6
CONTINUOUS
10
100.0249999999999915
20
-97.
11
100.0084289999999925
21
-97.3161989999999975
0
LINE
8
BLACK
6
CONTINUOUS
10
100.0084289999999925
20
-97.3161989999999975
11
99.9588959999999958
21
-97.6289329999999893
0
LINE
8
BLACK
6
CONTINUOUS
10
99.9588959999999958
20
-97.6289329999999893
11
99.8769459999999896
21
-97.9347759999999994
0
LINE
8
BLACK
6
CONTINUOUS
10
99.8769459999999896
20
-97.9347759999999994
11
99.7634749999999997
21
-98.2303780000000017
0
LINE
8
BLACK
6
CONTINUOUS
10
99.7634749999999997
20
-98.2303780000000017
11
99.6197269999999975
21
-98.5124999999999886
0
LINE
8
BLACK
6
CONTINUOUS
10
99.6197269999999975
20
-98.5124999999999886
11
99.4472760000000022
21
-98.7780499999999932
0
LINE
8
BLACK
6
CONTINUOUS
10
99.4472760000000022
20
-98.7780499999999932
11
99.2480130000000003
21
-99.0241199999999964
0
LINE
8
BLACK
6
CONTINUOUS
10
99.2480130000000003
20
-99.0241199999999964
11
99.0241199999999964
21
-99.2480130000000003
0
LINE
8
BLACK
6
CONTINUOUS
10
99.0241199999999964
20
-99.2480130000000003
11
98.7780499999999932
21
-99.4472760000000022
0
LINE
8
BLACK
6
CONTINUOUS
10
98.7780499999999932
20
-99.4472760000000022
11
98.5124999999999886
21
-99.6197269999999975
0
LINE
8
BLACK
6
CONTINUOUS
10
98.5124999999999886
20
-99.6197269999999975
11
98.2303780000000017
21
-99.7634749999999997
0
LINE
8
BLACK
6
CONTINUOUS
10
98.2303780000000017
20
-99.7634749999999997
11
97.9347759999999994
21
-99.8769459999999896
0
LINE
8
BLACK
6
CONTINUOUS
10
97.9347759999999994
20
-99.8769459999999896
11
97.6289329999999893
21
-99.9588959999999958
0
LINE
8
BLACK
6
CONTINUOUS
10
97.6289329999999893
20
-99.9588959999999958
11
97.3161989999999975
21
-100.0084289999999925
0
LINE
8
BLACK
6
CONTINUOUS
10
97.3161989999999975
20
-100.0084289999999925
11
97.
21
-100.0249999999999915
0
LINE
8
BLACK
6
CONTINUOUS
10
97.
20
-100.0249999999999915
11
3.
21
-100.0249999999999915
0
LINE
8
BLACK
6
CONTINUOUS
10
3.
20
-100.0249999999999915
11
2.6838009999999999
21
-100.0084289999999925
0
LINE
8
BLACK
6
CONTINUOUS
10
2.6838009999999999
20
-100.0084289999999925
11
2.371067
21
-99.9588959999999958
0
LINE
8
BLACK
6
CONTINUOUS
10
2.371067
20
-99.9588959999999958
11
2.0652239999999997
21
-99.8769459999999896
0
LINE
8
BLACK
6
CONTINUOUS
10
2.0652239999999997
20
-99.8769459999999896
11
1.769622
21
-99.7634749999999997
0
LINE
8
BLACK
6
CONTINUOUS
10
1.769622
20
-99.7634749999999997
11
1.4874999999999998
21
-99.6197269999999975
0
LINE
8
BLACK
6
CONTINUOUS
10
1.4874999999999998
20
-99.6197269999999975
11
1.2219499999999999
21
-99.4472760000000022
0
LINE
8
BLACK
6
CONTINUOUS
10
1.2219499999999999
20
-99.4472760000000022
11
0.97588
21
-99.2480130000000003
0
LINE
8
BLACK
6
CONTINUOUS
10
0.97588
20
-99.2480130000000003
11
0.751987
21
-99.0241199999999964
0
LINE
8
BLACK
6
CONTINUOUS
10
0.751987
20
-99.0241199999999964
11
0.552724
21
-98.7780499999999932
0
LINE
8
BLACK
6
CONTINUOUS
10
0.552724
20
-98.7780499999999932
11
0.380273
21
-98.5124999999999886
0
LINE
8
BLACK
6
CONTINUOUS
10
0.380273
20
-98.5124999999999886
11
0.236525
21
-98.2303780000000017
0
LINE
8
BLACK
6
CONTINUOUS
10
0.236525
20
-98.2303780000000017
11
0.123054
21
-97.9347759999999994
0
LINE
8
BLACK
6
CONTINUOUS
10
0.123054
20
-97.9347759999999994
11
0.041104
21
-97.6289329999999893
0
LINE
8
BLACK
6
CONTINUOUS
10
0.041104
20
-97.6289329999999893
11
-0.008429
21
-97.3161989999999975
0
LINE
8
BLACK
6
CONTINUOUS
10
-0.008429
20
-97.3161989999999975
11
-0.025
21
-97.
0
LINE
8
BLACK
6
CONTINUOUS
10
-0.025
20
-97.
11
-0.025
21
-3.
0
LINE
8
BLACK
6
CONTINUOUS
10
-0.025
20
-3.
11
-0.008429
21
-2.6838009999999999
0
LINE
8
BLACK
6
CONTINUOUS
10
-0.008429
20
-2.6838009999999999
11
0.041104
21
-2.371067
0
LINE
8
BLACK
6
CONTINUOUS
10
0.041104
20
-2.371067
11
0.123054
21
-2.0652239999999997
0
LINE
8
BLACK
6
CONTINUOUS
10
0.123054
20
-2.0652239999999997
11
0.236525
21
-1.769622
0
LINE
8
BLACK
6
CONTINUOUS
10
0.236525
20
-1.769622
11
0.380273
21
-1.4874999999999998
0
LINE
8
BLACK
6
CONTINUOUS
10
0.380273
20
-1.4874999999999998
11
0.552724
21
-1.2219499999999999
0
LINE
8
BLACK
6
CONTINUOUS
10
0.552724
20
-1.2219499999999999
11
0.751987
21
-0.97588
0
LINE
8
BLACK
6
CONTINUOUS
10
0.751987
20
-0.97588
11
0.97588
21
-0.751987
0
LINE
8
BLACK
6
CONTINUOUS
10
0.97588
20
-0.751987
11
1.2219499999999999
21
-0.552724
0
LINE
8
BLACK
6
CONTINUOUS
10
1.2219499999999999
20
-0.552724
11
1.4874999999999998
21
-0.380273
0
LINE
8
BLACK
6
CONTINUOUS
10
1.4874999999999998
20
-0.380273
11
1.769622
21
-0.236525
0
LINE
8
BLACK
6
CONTINUOUS
10
1.769622
20
-0.236525
11
2.0652239999999997
21
-0.123054
0
LINE
8
BLACK
6
CONTINUOUS
10
2.0652239999999997
20
-0.123054
11
2.371067
21
-0.041104
0
LINE
8
BLACK
6
CONTINUOUS
10
2.371067
20
-0.041104
11
2.6838009999999999
21
0.008429
0
LINE
8
BLACK
6
CONTINUOUS
10
2.6838009999999999
20
0.008429
11
3.
21
0.025
0
LINE
8
BLACK
6
CONTINUOUS
10
3.
20
0.025
11
97.
21
0.025
0
LINE
8
BLACK
6
CONTINUOUS
10
3.
20
-0.025
11
2.844087
21
-0.025
0
LINE
8
BLACK
6
CONTINUOUS
10
2.844087
20
-0.025
11
2.5339689999999999
21
-0.057594
0
LINE
8
BLACK
6
CONTINUOUS
10
2.5339689999999999
20
-0.057594
11
2.2289569999999999
21
-0.122427
0
LINE
8
BLACK
6
CONTINUOUS
10
2.2289569999999999
20
-0.122427
11
1.9323919999999999
21
-0.218786
0
LINE
8
BLACK
6
CONTINUOUS
10
1.9323919999999999
20
-0.218786
11
1.6475249999999999
21
-0.345618
0
LINE
8
BLACK
6
CONTINUOUS
10
1.6475249999999999
20
-0.345618
11
1.377475
21
-0.5015309999999999
0
LINE
8
BLACK
6
CONTINUOUS
10
1.377475
20
-0.5015309999999999
11
1.125202
21
-0.6848179999999999
0
LINE
8
BLACK
6
CONTINUOUS
10
1.125202
20
-0.6848179999999999
11
0.89347
21
-0.89347
0
LINE
8
BLACK
6
CONTINUOUS
10
0.89347
20
-0.89347
11
0.6848179999999999
21
-1.125202
0
LINE
8
BLACK
6
CONTINUOUS
10
0.6848179999999999
20
-1.125202
11
0.5015309999999999
21
-1.377475
0
LINE
8
BLACK
6
CONTINUOUS
10
0.5015309999999999
20
-1.377475
11
0.345618
21
-1.6475249999999999
0
LINE
8
BLACK
6
CONTINUOUS
10
0.345618
20
-1.6475249999999999
11
0.218786
21
-1.9323919999999999
0
LINE
8
BLACK
6
CONTINUOUS
10
0.218786
20
-1.9323919999999999
11
0.122427
21
-2.2289569999999999
0
LINE
8
BLACK
6
CONTINUOUS
10
0.122427
20
-2.2289569999999999
11
0.057594
21
-2.5339689999999999
0
LINE
8
BLACK
6
CONTINUOUS
10
0.057594
20
-2.5339689999999999
11
0.025
21
-2.844087
0
LINE
8
BLACK
6
CONTINUOUS
10
0.025
20
-2.844087
11
0.025
21
-3.
0
LINE
8
BLACK
6
CONTINUOUS
10
0.025
20
-3.
11
0.025
21
-97.
0
LINE
8
BLACK
6
CONTINUOUS
10
0.025
20
-97.
11
0.025
21
-97.1559129999999982
0
LINE
8
BLACK
6
CONTINUOUS
10
0.025
20
-97.1559129999999982
11
0.057594
21
-97.466031000000001
0
LINE
8
BLACK
6
CONTINUOUS
10
0.057594
20
-97.466031000000001
11
0.122427
21
-97.7710429999999917
0
LINE
8
BLACK
6
CONTINUOUS
10
0.122427
20
-97.7710429999999917
11
0.218786
21
-98.0676079999999928
0
LINE
8
BLACK
6
CONTINUOUS
10
0.218786
20
-98.0676079999999928
11
0.345618
21
-98.3524749999999983
0
LINE
8
BLACK
6
CONTINUOUS
10
0.345618
20
-98.3524749999999983
11
0.5015309999999999
21
-98.622524999999996
0
LINE
8
BLACK
6
CONTINUOUS
10
0.5015309999999999
20
-98.622524999999996
11
0.6848179999999999
21
-98.8747979999999984
0
LINE
8
BLACK
6
CONTINUOUS
10
0.6848179999999999
20
-98.8747979999999984
11
0.89347
21
-99.1065299999999922
0
LINE
8
BLACK
6
CONTINUOUS
10
0.89347
20
-99.1065299999999922
11
1.125202
21
-99.315181999999993
0
LINE
8
BLACK
6
CONTINUOUS
10
1.125202
20
-99.315181999999993
11
1.377475
21
-99.4984690000000001
0
LINE
8
BLACK
6
CONTINUOUS
10
1.377475
20
-99.4984690000000001
11
1.6475249999999999
21
-99.6543819999999982
0
LINE
8
BLACK
6
CONTINUOUS
10
1.6475249999999999
20
-99.6543819999999982
11
1.9323919999999999
21
-99.7812139999999914
0
LINE
8
BLACK
6
CONTINUOUS
10
1.9323919999999999
20
-99.7812139999999914
11
2.2289569999999999
21
-99.8775729999999982
0
LINE
8
BLACK
6
CONTINUOUS
10
2.2289569999999999
20
-99.8775729999999982
11
2.5339689999999999
21
-99.9424059999999912
0
LINE
8
BLACK
6
CONTINUOUS
10
2.5339689999999999
20
-99.9424059999999912
11
2.844087
21
-99.9749999999999943
0
LINE
8
BLACK
6
CONTINUOUS
10
2.844087
20
-99.9749999999999943
11
3.
21
-99.9749999999999943
0
LINE
8
BLACK
6
CONTINUOUS
10
3.
20
-99.9749999999999943
11
97.
21
-99.9749999999999943
0
LINE
8
BLACK
6
CONTINUOUS
10
97.
20
-99.9749999999999943
11
97.1559129999999982
21
-99.9749999999999943
0
LINE
8
BLACK
6
CONTINUOUS
10
97.1559129999999982
20
-99.9749999999999943
11
97.466031000000001
21
-99.9424059999999912
0
LINE
8
BLACK
6
CONTINUOUS
10
97.466031000000001
20
-99.9424059999999912
11
97.7710429999999917
21
-99.8775729999999982
0
LINE
8
BLACK
6
CONTINUOUS
10
97.7710429999999917
20
-99.8775729999999982
11
98.0676079999999928
21
-99.7812139999999914
0
LINE
8
BLACK
6
CONTINUOUS
10
98.0676079999999928
20
-99.7812139999999914
11
98.3524749999999983
21
-99.6543819999999982
0
LINE
8
BLACK
6
CONTINUOUS
10
98.3524749999999983
20
-99.6543819999999982
11
98.622524999999996
21
-99.4984690000000001
0
LINE
8
BLACK
6
CONTINUOUS
10
98.622524999999996
20
-99.4984690000000001
11
98.8747979999999984
21
-99.315181999999993
0
LINE
8
BLACK
6
CONTINUOUS
10
98.8747979999999984
20
-99.315181999999993
11
99.1065299999999922
21
-99.1065299999999922
0
LINE
8
BLACK
6
CONTINUOUS
10
99.1065299999999922
20
-99.1065299999999922
11
99.315181999999993
21
-98.8747979999999984
0
LINE
8
BLACK
6
CONTINUOUS
10
99.315181999999993
20
-98.8747979999999984
11
99.4984690000000001
21
-98.622524999999996
0
LINE
8
BLACK
6
CONTINUOUS
10
99.4984690000000001
20
-98.622524999999996
11
99.6543819999999982
21
-98.3524749999999983
0
LINE
8
BLACK
6
CONTINUOUS
10
99.6543819999999982
20
-98.3524749999999983
11
99.7812139999999914
21
-98.0676079999999928
0
LINE
8
BLACK
6
CONTINUOUS
10
99.7812139999999914
20
-98.0676079999999928
11
99.8775729999999982
21
-97.7710429999999917
0
LINE
8
BLACK
6
CONTINUOUS
10
99.8775729999999982
20
-97.7710429999999917
11
99.9424059999999912
21
-97.466031000000001
0
LINE
8
BLACK
6
CONTINUOUS
10
99.9424059999999912
20
-97.466031000000001
11
99.9749999999999943
21
-97.1559129999999982
0
LINE
8
BLACK
6
CONTINUOUS
10
99.9749999999999943
20
-97.1559129999999982
11
99.9749999999999943
21
-97.
0
LINE
8
BLACK
6
CONTINUOUS
10
99.9749999999999943
20
-97.
11
99.9749999999999943
21
-3.
0
LINE
8
BLACK
6
CONTINUOUS
10
99.9749999999999943
20
-3.
11
99.9749999999999943
21
-2.844087
0
LINE
8
BLACK
6
CONTINUOUS
10
99.9749999999999943
20
-2.844087
11
99.9424059999999912
21
-2.5339689999999999
0
LINE
8
BLACK
6
CONTINUOUS
10
99.9424059999999912
20
-2.5339689999999999
11
99.8775729999999982
21
-2.2289569999999999
0
LINE
8
BLACK
6
CONTINUOUS
10
99.8775729999999982
20
-2.2289569999999999
11
99.7812139999999914
21
-1.9323919999999999
0
LINE
8
BLACK
6
CONTINUOUS
10
99.7812139999999914
20
-1.9323919999999999
11
99.6543819999999982
21
-1.6475249999999999
0
LINE
8
BLACK
6
CONTINUOUS
10
99.6543819999999982
20
-1.6475249999999999
11
99.4984690000000001
21
-1.377475
0
LINE
8
BLACK
6
CONTINUOUS
10
99.4984690000000001
20
-1.377475
11
99.315181999999993
21
-1.125202
0
LINE
8
BLACK
6
CONTINUOUS
10
99.315181999999993
20
-1.125202
11
99.1065299999999922
21
-0.89347
0
LINE
8
BLACK
6
CONTINUOUS
10
99.1065299999999922
20
-0.89347
11
98.8747979999999984
21
-0.6848179999999999
0
LINE
8
BLACK
6
CONTINUOUS
10
98.8747979999999984
20
-0.6848179999999999
11
98.622524999999996
21
-0.5015309999999999
0
LINE
8
BLACK
6
CONTINUOUS
10
98.622524999999996
20
-0.5015309999999999
11
98.3524749999999983
21
-0.345618
0
LINE
8
BLACK
6
CONTINUOUS
10
98.3524749999999983
20
-0.345618
11
98.0676079999999928
21
-0.218786
0
LINE
8
BLACK
6
CONTINUOUS
10
98.0676079999999928
20
-0.218786
11
97.7710429999999917
21
-0.122427
0
LINE
8
BLACK
6
CONTINUOUS
10
97.7710429999999917
20
-0.122427
11
97.466031000000001
21
-0.057594
0
LINE
8
BLACK
6
CONTINUOUS
10
97.466031000000001
20
-0.057594
11
97.1559129999999982
21
-0.025
0
LINE
8
BLACK
6
CONTINUOUS
10
97.1559129999999982
20
-0.025
11
97.
21
-0.025
0
LINE
8
BLACK
6
CONTINUOUS
10
97.
20
-0.025
11
3.
21
-0.025
  0
ENDSEC
  0
EOF
